<svg width="100%" height="100%" style="overflow:visible;" preserveAspectRatio="none" viewBox="0 0 414 415" fill="none" xmlns="http://www.w3.org/2000/svg" xmlns:xlink="http://www.w3.org/1999/xlink">
<g clip-path="url(#clip0_246_1536)">
<rect width="414" height="415" transform="translate(0 0.0551758)" fill="#075740"/>
<path d="M53.7746 316.502C49.0478 319.123 50.3015 324.254 48.1132 330.64C44.9126 340.017 48.8527 344.662 53.3085 343.73C57.7643 342.798 58.773 336.622 63.0364 334.505C63.0453 334.5 63.0632 334.491 63.0721 334.486C63.081 334.482 63.0988 334.472 63.1077 334.468C67.2872 332.188 72.9071 334.919 76.2254 331.801C79.5527 328.678 78.0422 322.785 68.5472 320.009C62.083 318.116 58.614 314.144 53.7656 316.507L53.7746 316.502Z" fill="#0D7F5F"/>
<path d="M40.3509 318.89C44.9111 321.207 47.4321 325.487 45.9824 328.441C44.5328 331.394 39.6593 331.911 35.0992 329.594C30.539 327.276 28.0179 322.996 29.4676 320.043C30.9173 317.089 35.7907 316.572 40.3509 318.89Z" fill="#0D7F5F"/>
<path d="M63.4555 306.881C62.7147 311.957 64.7542 316.486 67.9991 316.996C71.244 317.506 74.4668 313.806 75.2076 308.731C75.9484 303.656 73.9088 299.126 70.6639 298.616C67.419 298.106 64.1962 301.806 63.4555 306.881Z" fill="#0D7F5F"/>
<path d="M45.8457 304.223C49.1328 308.542 49.5869 313.745 46.8483 315.863C44.1186 317.977 39.2347 316.194 35.9476 311.874C32.6604 307.554 32.2063 302.352 34.9449 300.234C37.6746 298.12 42.5586 299.903 45.8457 304.223Z" fill="#0D7F5F"/>
<path d="M48.3209 302.932C49.9404 308.116 53.9349 311.484 57.229 310.466C60.5231 309.447 61.8812 304.408 60.2528 299.229C58.6333 294.045 54.6388 290.677 51.3447 291.695C48.0506 292.713 46.6925 297.753 48.3209 302.932Z" fill="#0D7F5F"/>
<path d="M43.4324 -22.9263C43.4324 -22.9263 -60.6669 192.054 27.6071 223.564C173.639 275.686 247.688 22.887 394.45 90.8917C497.351 138.576 340.231 407.708 340.231 407.708" stroke="#FFA775" stroke-width="14.4444" stroke-miterlimit="10"/>
<rect x="-32.1116" y="22.0226" width="536.731" height="419.678" fill="url(#pattern0_246_1536)"/>
<path d="M338.755 223.568C335.762 221.581 333.132 223.9 328.706 224.572C322.211 225.566 320.692 229.323 322.609 231.669C324.527 234.015 328.467 232.711 331.022 234.578C331.027 234.582 331.038 234.59 331.043 234.594C331.049 234.598 331.06 234.605 331.065 234.609C333.69 236.377 333.812 240.538 336.664 241.539C339.523 242.544 342.521 239.839 341.235 233.375C340.36 228.973 341.628 225.701 338.749 223.564L338.755 223.568Z" fill="#0D7F5F"/>
<path d="M333.223 216.375C333.263 219.782 331.522 222.588 329.341 222.64C327.16 222.693 325.358 219.972 325.318 216.565C325.279 213.158 327.019 210.352 329.2 210.3C331.382 210.247 333.184 212.968 333.223 216.375Z" fill="#0D7F5F"/>
<path d="M347.389 226.329C344.178 227.453 342.143 230.051 342.841 232.125C343.538 234.199 346.703 234.965 349.914 233.842C353.124 232.718 355.159 230.119 354.461 228.045C353.764 225.971 350.599 225.205 347.389 226.329Z" fill="#0D7F5F"/>
<path d="M343.534 215.111C342.006 218.382 339.088 220.25 337.002 219.284C334.921 218.322 334.467 214.888 335.996 211.617C337.524 208.346 340.442 206.477 342.528 207.443C344.609 208.406 345.063 211.84 343.534 215.111Z" fill="#0D7F5F"/>
<path d="M345.057 216.175C342.508 218.727 341.757 222.123 343.368 223.756C344.978 225.389 348.357 224.641 350.901 222.085C353.449 219.534 354.201 216.138 352.59 214.505C350.979 212.872 347.6 213.62 345.057 216.175Z" fill="#0D7F5F"/>
<path d="M61.2167 102.031C58.8311 103.461 59.5649 106.078 58.5501 109.401C57.0666 114.279 59.1735 116.599 61.449 116.042C63.7245 115.486 64.1362 112.292 66.2921 111.129C66.2966 111.126 66.3057 111.121 66.3102 111.119C66.3147 111.116 66.3237 111.111 66.3282 111.108C68.4381 109.863 71.3759 111.17 73.0284 109.509C74.6855 107.845 73.8065 104.841 68.8751 103.578C65.5177 102.717 63.6647 100.734 61.2122 102.034L61.2167 102.031Z" fill="#0D7F5F"/>
<path d="M54.3547 103.493C56.7402 104.605 58.111 106.763 57.4166 108.307C56.7222 109.851 54.2248 110.202 51.8393 109.089C49.4539 107.976 48.0831 105.819 48.7775 104.275C49.4718 102.731 51.9693 102.38 54.3547 103.493Z" fill="#0D7F5F"/>
<path d="M66.0294 96.9148C65.7364 99.5378 66.8639 101.832 68.5415 102.038C70.2192 102.244 71.8126 100.285 72.1055 97.6617C72.3985 95.0387 71.2711 92.7446 69.5934 92.5388C67.9157 92.333 66.3224 94.2918 66.0294 96.9148Z" fill="#0D7F5F"/>
<path d="M56.9266 95.8541C58.692 98.0185 59.0157 100.686 57.644 101.823C56.2768 102.958 53.7341 102.126 51.9687 99.9611C50.2032 97.7966 49.8795 95.1291 51.2512 93.992C52.6184 92.8574 55.1611 93.6896 56.9266 95.8541Z" fill="#0D7F5F"/>
<path d="M58.1774 95.1468C59.1001 97.7845 61.2129 99.4473 62.8894 98.8665C64.5658 98.2856 65.1769 95.6701 64.2497 93.0349C63.3269 90.3971 61.2142 88.7343 59.5377 89.3152C57.8612 89.8961 57.2501 92.5116 58.1774 95.1468Z" fill="#0D7F5F"/>
<path d="M408.529 29.7426C406.717 31.8528 408.239 34.1047 408.324 37.5782C408.456 42.6758 411.188 44.2127 413.171 42.9658C415.155 41.719 414.538 38.5577 416.217 36.7735C416.22 36.7696 416.227 36.762 416.231 36.7581C416.234 36.7543 416.241 36.7467 416.245 36.7429C417.854 34.895 421.054 35.2078 422.098 33.1093C423.146 31.0071 421.364 28.4336 416.285 28.7921C412.827 29.0351 410.443 27.7389 408.526 29.7464L408.529 29.7426Z" fill="#0D7F5F"/>
<path d="M402.48 33.304C405.095 33.6066 407.076 35.2209 406.905 36.9052C406.733 38.5895 404.474 39.7108 401.859 39.4081C399.245 39.1055 397.264 37.4912 397.435 35.8069C397.607 34.1226 399.866 33.0013 402.48 33.304Z" fill="#0D7F5F"/>
<path d="M411.489 23.3656C412.039 25.9469 413.832 27.7677 415.489 27.4334C417.146 27.099 418.04 24.7374 417.49 22.1561C416.94 19.5747 415.147 17.7539 413.49 18.0883C411.833 18.4227 410.939 20.7843 411.489 23.3656Z" fill="#0D7F5F"/>
<path d="M402.516 25.2431C404.874 26.7393 406.023 29.168 405.08 30.6799C404.141 32.1879 401.466 32.201 399.108 30.7047C396.75 29.2085 395.602 26.7798 396.544 25.268C397.483 23.76 400.158 23.7468 402.516 25.2431Z" fill="#0D7F5F"/>
<path d="M403.483 24.1719C405.19 26.3832 407.719 27.2939 409.127 26.2135C410.534 25.1332 410.289 22.4588 408.577 20.2514C406.87 18.0401 404.341 17.1294 402.934 18.2098C401.526 19.2901 401.772 21.9645 403.483 24.1719Z" fill="#0D7F5F"/>
</g>
<defs>
<pattern id="pattern0_246_1536" patternContentUnits="objectBoundingBox" width="1" height="1">
<use xlink:href="#image0_246_1536" transform="scale(0.00177305 0.00226757)"/>
</pattern>
<clipPath id="clip0_246_1536">
<rect width="414" height="415" fill="white" transform="translate(0 0.0551758)"/>
</clipPath>
<image id="image0_246_1536" width="564" height="441" xlink:href="/assets/component.png"/>
</defs>
</svg>
