<svg width="100%" height="100%" style="overflow:visible;" preserveAspectRatio="none" viewBox="0 0 192 38" fill="none" xmlns="http://www.w3.org/2000/svg">
<g clip-path="url(#clip0_246_1668)">
<path d="M44.6274 4.8833V3.29072H44.8715C44.9517 3.23886 45.0226 3.1741 45.0813 3.09909C45.1437 3.0293 45.1974 2.9523 45.2413 2.86976C45.2958 2.76444 45.3299 2.64992 45.3419 2.53214L45.594 0.214417H48.1661V3.29073H48.6708V4.8833H47.9392V3.99943H45.3591V4.8833H44.6274ZM47.4099 3.29072V0.92311H46.2582L46.0821 2.53214C46.0741 2.64922 46.0485 2.76446 46.0061 2.87402C45.975 2.95298 45.9355 3.02843 45.8883 3.09909C45.8484 3.17054 45.7973 3.23523 45.7369 3.29073L47.4099 3.29072Z" fill="#F4FAFF"/>
<path d="M49.9741 3.99948V3.36565H50.0753C50.1562 3.37151 50.2374 3.36087 50.314 3.3344C50.3906 3.30792 50.4609 3.26616 50.5206 3.2117C50.6336 3.07703 50.6961 2.90759 50.6972 2.73232L50.9069 0.214478H53.5802V3.99948H52.8235V0.89822H51.5626L51.4368 2.77373C51.4327 3.11918 51.3044 3.45184 51.075 3.71175C50.9673 3.82133 50.8377 3.90725 50.6944 3.96394C50.5511 4.02064 50.3974 4.04685 50.2433 4.04088C50.1521 4.03981 50.0614 4.02587 49.9741 3.99948Z" fill="#F4FAFF"/>
<path d="M55.5134 3.99929L56.396 2.59889C56.2625 2.53857 56.139 2.45837 56.0299 2.36107C55.9258 2.25891 55.8392 2.14056 55.7735 2.0107C55.6897 1.83813 55.6495 1.64792 55.6563 1.45648C55.6545 1.28784 55.6873 1.12059 55.7527 0.964914C55.8156 0.816863 55.9087 0.683306 56.0262 0.572619C56.1477 0.458924 56.2904 0.369842 56.4463 0.310367C56.6206 0.244067 56.8061 0.211452 56.9927 0.214281H58.6652V3.99929H57.909V2.69869H57.1774L56.3537 3.99929L55.5134 3.99929ZM57.9255 2.02344V0.889537H57.0259C56.9424 0.888386 56.8595 0.9041 56.7824 0.935723C56.7108 0.965245 56.6454 1.00753 56.5892 1.06047C56.5338 1.11248 56.4894 1.17492 56.4586 1.24415C56.4286 1.311 56.4129 1.38331 56.4126 1.45649C56.4119 1.53114 56.4276 1.60504 56.4586 1.67309C56.49 1.74071 56.5344 1.80164 56.5892 1.85251C56.6453 1.90562 56.7108 1.94808 56.7824 1.97779C56.8597 2.00898 56.9424 2.02449 57.0259 2.02343L57.9255 2.02344Z" fill="#F4FAFF"/>
<path d="M64.3141 2.84063C64.3293 2.97324 64.392 3.09604 64.4907 3.18675C64.5538 3.24417 64.6262 3.29065 64.7048 3.32424C64.8074 3.36608 64.9177 3.38598 65.0286 3.38265C65.1989 3.3932 65.3669 3.33954 65.499 3.2324C65.5513 3.18985 65.5935 3.1364 65.6227 3.07585C65.6518 3.0153 65.6671 2.94913 65.6676 2.88203C65.6671 2.81782 65.652 2.75454 65.6236 2.69684C65.5952 2.63915 65.5541 2.58851 65.5033 2.54866C65.3677 2.4457 65.1989 2.39531 65.0286 2.40692H64.6754V1.75662H65.0286C65.1745 1.76391 65.318 1.71803 65.4321 1.62764C65.4801 1.58887 65.5187 1.53985 65.5449 1.48424C65.5711 1.42862 65.5843 1.36785 65.5836 1.30646C65.5855 1.24252 65.5729 1.17897 65.5466 1.12052C65.5204 1.06208 65.4813 1.01024 65.4321 0.968843C65.318 0.878437 65.1745 0.832555 65.0286 0.839845C64.9241 0.836538 64.8199 0.853488 64.7219 0.889744C64.6475 0.9187 64.5791 0.96099 64.5201 1.0145C64.47 1.06022 64.43 1.1157 64.4024 1.17746C64.38 1.22642 64.3645 1.27823 64.3564 1.33142H63.6334C63.6475 1.16884 63.6887 1.00972 63.7554 0.86055C63.8185 0.720211 63.9134 0.596156 64.0326 0.497967C64.1612 0.393266 64.3079 0.312676 64.4656 0.260146C64.6498 0.199216 64.843 0.169605 65.0372 0.172565C65.215 0.170447 65.3917 0.201599 65.5579 0.264388C65.8511 0.374758 66.0903 0.592525 66.2264 0.872766C66.2899 1.00284 66.323 1.14547 66.3232 1.29001C66.3267 1.4119 66.3021 1.53297 66.2515 1.64409C66.2113 1.73022 66.1591 1.81029 66.0963 1.88191C66.0286 1.95549 65.949 2.01739 65.8608 2.06505C65.9625 2.12155 66.0558 2.19176 66.138 2.27368C66.2124 2.35021 66.2748 2.43735 66.3232 2.53221C66.381 2.64586 66.4098 2.7718 66.4072 2.89904C66.4078 3.0515 66.3747 3.20224 66.3104 3.34071C66.2463 3.47936 66.1532 3.60294 66.0374 3.70328C65.9113 3.81122 65.7659 3.89477 65.6087 3.94961C65.4251 4.01308 65.2316 4.04399 65.0371 4.04091C64.8374 4.04396 64.6386 4.01455 64.4484 3.95385C64.2845 3.901 64.133 3.81576 64.0032 3.70328C63.8822 3.59817 63.7848 3.46904 63.7174 3.32425C63.6479 3.17133 63.6052 3.00779 63.5911 2.84064L64.3141 2.84063Z" fill="#F4FAFF"/>
<path d="M67.8862 4.8833V3.29072H68.1303C68.2105 3.23874 68.2816 3.17399 68.3406 3.09909C68.4027 3.02914 68.4562 2.95216 68.5001 2.86976C68.5546 2.76444 68.5887 2.64992 68.6007 2.53214L68.8533 0.214417H71.4249V3.29073H71.9296V4.8833H71.198V3.99943H68.6178V4.8833H67.8862ZM70.6687 3.29072V0.92311H69.517L69.3409 2.53214C69.3329 2.64922 69.3073 2.76446 69.2649 2.87402C69.2338 2.95298 69.1943 3.02843 69.1471 3.09909C69.1072 3.17054 69.0561 3.23523 68.9957 3.29073L70.6687 3.29072Z" fill="#F4FAFF"/>
<path d="M74.6601 3.89527C74.4398 3.80087 74.2411 3.66328 74.0757 3.49077C73.9066 3.31288 73.7726 3.10508 73.6807 2.87816C73.581 2.63316 73.531 2.37104 73.5336 2.10682C73.5308 1.84397 73.5808 1.58319 73.6807 1.33973C73.7741 1.11361 73.9079 0.90608 74.0757 0.727127C74.2403 0.552671 74.4392 0.413554 74.6601 0.318373C74.8826 0.221406 75.123 0.171676 75.366 0.172376C75.6079 0.171461 75.8471 0.221212 76.0682 0.318373C76.2882 0.415035 76.4866 0.553961 76.6521 0.727127C76.8217 0.904705 76.9557 1.11259 77.0471 1.33973C77.1443 1.58385 77.1928 1.84436 77.19 2.10682C77.1926 2.37065 77.1441 2.63251 77.0471 2.87816C76.9572 3.1061 76.823 3.31426 76.6521 3.49077C76.4859 3.66199 76.2875 3.7994 76.0682 3.89527C75.8471 3.99243 75.6079 4.04218 75.366 4.04126C75.123 4.04196 74.8826 3.99223 74.6601 3.89527ZM75.7696 3.24497C75.8993 3.18601 76.0153 3.10086 76.11 2.99495C76.2115 2.88081 76.2913 2.74932 76.3455 2.60688C76.4632 2.28373 76.4632 1.9299 76.3455 1.60675C76.2912 1.46438 76.2114 1.33292 76.11 1.2187C76.0153 1.11278 75.8993 1.02762 75.7696 0.96866C75.6431 0.910788 75.5054 0.880904 75.366 0.881081C75.2241 0.880274 75.0836 0.910161 74.9545 0.96866C74.8247 1.02763 74.7088 1.11278 74.6141 1.2187C74.5125 1.33278 74.4327 1.46428 74.3786 1.60675C74.2609 1.9299 74.2609 2.28373 74.3786 2.60688C74.4325 2.74942 74.5124 2.88094 74.6141 2.99495C74.7088 3.10086 74.8247 3.18601 74.9545 3.24497C75.0836 3.30348 75.2241 3.33338 75.366 3.33257C75.5054 3.33275 75.6431 3.30286 75.7696 3.24497Z" fill="#F4FAFF"/>
<path d="M79.1572 5.33362V0.214566H79.7117L79.8803 0.614832C79.9703 0.532453 80.0688 0.459681 80.1741 0.397718C80.2851 0.335358 80.402 0.2838 80.523 0.243764C80.679 0.193575 80.8424 0.169534 81.0063 0.172628C81.2426 0.171729 81.4763 0.221533 81.6914 0.318626C81.9047 0.414598 82.0973 0.550505 82.2587 0.718892C82.4253 0.894976 82.5553 1.10187 82.6413 1.32776C82.8261 1.83131 82.8261 2.38335 82.6413 2.8869C82.5547 3.11361 82.4248 3.32161 82.2587 3.4995C82.099 3.66986 81.906 3.80606 81.6914 3.89977C81.4756 3.99426 81.2422 4.04256 81.0063 4.0415C80.8466 4.04446 80.6875 4.02041 80.5359 3.97038C80.4173 3.93068 80.303 3.8791 80.195 3.81643C80.0925 3.75267 79.998 3.67711 79.9135 3.59134V5.33361L79.1572 5.33362ZM81.351 3.24522C81.484 3.18768 81.603 3.10241 81.6999 2.9952C81.8017 2.88057 81.8827 2.74926 81.9392 2.60713C82.0028 2.44809 82.0343 2.27817 82.0317 2.10707C82.034 1.93638 82.004 1.76678 81.9434 1.607C81.8889 1.46393 81.8077 1.3323 81.7042 1.21895C81.6048 1.11172 81.4839 1.02629 81.3492 0.968147C81.2146 0.910005 81.0692 0.880433 80.9223 0.881329C80.7776 0.881122 80.6345 0.910957 80.5022 0.968911C80.369 1.02618 80.2499 1.1115 80.1532 1.21895C80.0518 1.33316 79.972 1.46462 79.9177 1.607C79.8 1.93015 79.8 2.28398 79.9177 2.60713C79.9721 2.7504 80.0535 2.88209 80.1575 2.9952C80.2553 3.10136 80.3741 3.18646 80.5064 3.24522C80.6372 3.30343 80.779 3.33329 80.9223 3.33282C81.0698 3.33363 81.2158 3.30379 81.351 3.24522Z" fill="#F4FAFF"/>
<path d="M85.6469 3.89527C85.4266 3.80086 85.2279 3.66328 85.0625 3.49077C84.8934 3.31288 84.7594 3.10508 84.6675 2.87816C84.5678 2.63316 84.5178 2.37104 84.5204 2.10682C84.5176 1.84397 84.5676 1.58319 84.6675 1.33973C84.761 1.11361 84.8948 0.90608 85.0625 0.727127C85.2271 0.552672 85.426 0.413554 85.6469 0.318373C85.8694 0.221406 86.1099 0.171676 86.3529 0.172376C86.5947 0.171461 86.8339 0.221212 87.055 0.318373C87.275 0.415035 87.4734 0.553961 87.6389 0.727127C87.8085 0.904705 87.9425 1.11259 88.0339 1.33973C88.1311 1.58385 88.1797 1.84436 88.1768 2.10682C88.1795 2.37065 88.1309 2.63251 88.0339 2.87816C87.944 3.1061 87.8098 3.31426 87.6389 3.49077C87.4727 3.66199 87.2743 3.7994 87.055 3.89527C86.8339 3.99243 86.5947 4.04218 86.3529 4.04126C86.1099 4.04196 85.8694 3.99223 85.6469 3.89527ZM86.7564 3.24497C86.8862 3.18601 87.0021 3.10086 87.0968 2.99495C87.1983 2.88081 87.2781 2.74932 87.3323 2.60688C87.45 2.28373 87.45 1.9299 87.3323 1.60675C87.278 1.46438 87.1982 1.33292 87.0968 1.2187C87.0021 1.11278 86.8862 1.02763 86.7564 0.96866C86.6299 0.910788 86.4922 0.880904 86.3528 0.881081C86.2109 0.880276 86.0704 0.910162 85.9413 0.96866C85.8115 1.02763 85.6956 1.11278 85.6009 1.2187C85.4993 1.33278 85.4195 1.46428 85.3654 1.60675C85.2477 1.9299 85.2477 2.28373 85.3654 2.60688C85.4194 2.74942 85.4992 2.88094 85.6009 2.99495C85.6956 3.10086 85.8115 3.18601 85.9413 3.24497C86.0704 3.30348 86.2109 3.33338 86.3528 3.33257C86.4922 3.33275 86.6299 3.30286 86.7564 3.24497Z" fill="#F4FAFF"/>
<path d="M90.1428 3.9995V0.214493H91.8913C92.049 0.212789 92.2057 0.239595 92.3537 0.293598C92.4851 0.340735 92.6051 0.414365 92.7064 0.509844C92.8076 0.605323 92.8878 0.720578 92.9419 0.848336C92.9982 0.977141 93.0268 1.11617 93.0259 1.25657C93.0292 1.37814 93.0064 1.49903 92.959 1.61118C92.8789 1.78417 92.7467 1.92828 92.5806 2.02366C92.7947 2.11636 92.9668 2.28422 93.0639 2.49504C93.1267 2.6264 93.157 2.77073 93.1522 2.91603C93.153 3.0619 93.1245 3.20648 93.0682 3.34124C93.0144 3.47122 92.9342 3.58885 92.8327 3.68683C92.73 3.78573 92.6087 3.86365 92.4757 3.91615C92.33 3.97335 92.1743 4.00166 92.0176 3.9995L90.1428 3.9995ZM90.8996 1.77362H91.7735C91.906 1.78025 92.0358 1.7353 92.1353 1.64834C92.1791 1.60812 92.2138 1.55909 92.2369 1.50452C92.2601 1.44996 92.2713 1.39113 92.2697 1.33194C92.2721 1.26942 92.2615 1.20708 92.2383 1.14886C92.2152 1.09065 92.1801 1.03784 92.1353 0.99379C92.0866 0.949622 92.0296 0.915477 91.9675 0.893334C91.9054 0.871191 91.8395 0.861491 91.7735 0.864793H90.8996V1.77362ZM90.8996 3.35768H91.8998C91.9661 3.35781 92.0318 3.345 92.0931 3.32C92.1537 3.29572 92.2092 3.26043 92.2568 3.21594C92.3047 3.17108 92.3409 3.11533 92.3622 3.0535C92.3843 2.9905 92.3957 2.92431 92.396 2.85762C92.3957 2.79629 92.3842 2.73551 92.3622 2.67819C92.34 2.62032 92.3038 2.56874 92.2568 2.52795C92.2082 2.48587 92.1529 2.45214 92.0931 2.42816C92.0318 2.40315 91.9661 2.39034 91.8998 2.39045H90.8996V3.35768Z" fill="#F4FAFF"/>
<path d="M95.1184 3.99942V0.214417H95.8752V1.5235H96.7663C96.9511 1.52053 97.1349 1.55149 97.3084 1.61482C97.4606 1.67139 97.5995 1.75828 97.7166 1.87011C97.8337 1.98195 97.9264 2.11637 97.9892 2.26511C98.088 2.4956 98.1152 2.75011 98.0672 2.99603C98.0193 3.24194 97.8983 3.46804 97.72 3.64534C97.6029 3.76052 97.4627 3.84988 97.3084 3.90759C97.135 3.97134 96.9512 4.00248 96.7663 3.99941L95.1184 3.99942ZM95.8752 3.32417H96.724C96.8058 3.32464 96.887 3.31043 96.9638 3.28224C97.0364 3.25628 97.1034 3.21682 97.1612 3.16599C97.2165 3.11644 97.2597 3.05508 97.2875 2.98655C97.316 2.91344 97.3302 2.8356 97.3293 2.75722C97.3292 2.6852 97.3135 2.61404 97.2832 2.54859C97.2517 2.48121 97.2074 2.42048 97.1527 2.3697C97.0964 2.3167 97.031 2.27425 96.9595 2.24441C96.8822 2.21323 96.7994 2.19771 96.716 2.19876H95.8752L95.8752 3.32417Z" fill="#F4FAFF"/>
<path d="M99.7004 3.99929L100.583 2.59889C100.449 2.53857 100.326 2.45837 100.217 2.36107C100.113 2.25891 100.026 2.14056 99.9605 2.0107C99.8767 1.83813 99.8365 1.64792 99.8433 1.45648C99.8415 1.28784 99.8743 1.12059 99.9397 0.964914C100.003 0.816863 100.096 0.683306 100.213 0.572619C100.335 0.458928 100.477 0.369847 100.633 0.310367C100.808 0.244067 100.993 0.211452 101.18 0.214281H102.852V3.99929H102.096V2.69869H101.364L100.541 3.99929L99.7004 3.99929ZM102.113 2.02344V0.889537H101.213C101.13 0.888337 101.047 0.904052 100.969 0.935723C100.898 0.965245 100.832 1.00753 100.776 1.06047C100.721 1.11247 100.676 1.17491 100.646 1.24415C100.616 1.311 100.6 1.38331 100.6 1.45649C100.599 1.53114 100.615 1.60504 100.646 1.67309C100.677 1.74071 100.721 1.80165 100.776 1.85251C100.832 1.90562 100.898 1.94808 100.969 1.97779C101.047 2.00902 101.13 2.02454 101.213 2.02343L102.113 2.02344Z" fill="#F4FAFF"/>
<path d="M108.081 3.99942V0.214417H108.837V2.86563L110.661 0.214417H111.401V3.99942H110.644V1.34841L108.82 3.99942H108.081Z" fill="#F4FAFF"/>
<path d="M116.62 5.33363V0.214573H117.175L117.343 0.614839C117.433 0.532468 117.532 0.459697 117.637 0.397725C117.748 0.335368 117.865 0.28381 117.986 0.24377C118.142 0.193542 118.305 0.169499 118.469 0.172635C118.706 0.171736 118.939 0.22154 119.154 0.318633C119.368 0.414612 119.56 0.550519 119.722 0.718898C119.888 0.89498 120.018 1.10187 120.104 1.32777C120.289 1.83131 120.289 2.38336 120.104 2.8869C120.018 3.11362 119.888 3.32162 119.722 3.49951C119.562 3.66986 119.369 3.80606 119.154 3.89977C118.939 3.99427 118.705 4.04256 118.469 4.04151C118.309 4.04447 118.15 4.02042 117.999 3.97039C117.88 3.93069 117.766 3.8791 117.658 3.81644C117.555 3.75267 117.461 3.67712 117.376 3.59135V5.33362L116.62 5.33363ZM118.814 3.24523C118.947 3.18768 119.066 3.10241 119.163 2.99521C119.38 2.75012 119.499 2.43366 119.495 2.10708C119.497 1.93639 119.467 1.76678 119.406 1.607C119.352 1.46394 119.271 1.33231 119.167 1.21895C119.068 1.11172 118.947 1.0263 118.812 0.968154C118.677 0.910012 118.532 0.880439 118.385 0.881336C118.241 0.881129 118.097 0.910964 117.965 0.968917C117.832 1.02619 117.713 1.11151 117.616 1.21895C117.515 1.33317 117.435 1.46463 117.381 1.607C117.263 1.93016 117.263 2.28399 117.381 2.60714C117.435 2.7504 117.516 2.88209 117.62 2.99521C117.718 3.10149 117.837 3.18661 117.969 3.24523C118.1 3.30349 118.242 3.33336 118.385 3.33282C118.533 3.33364 118.679 3.3038 118.814 3.24523Z" fill="#F4FAFF"/>
<path d="M124.613 3.99933L124.445 3.59906C124.302 3.74064 124.13 3.8514 123.941 3.92448C123.746 4.00196 123.538 4.0416 123.327 4.04127C123.147 4.04391 122.968 4.01423 122.798 3.95368C122.651 3.90103 122.515 3.82023 122.399 3.71585C122.291 3.61743 122.203 3.49847 122.142 3.36602C122.08 3.22981 122.049 3.08182 122.05 2.9323C122.048 2.75909 122.086 2.58777 122.163 2.43224C122.252 2.26866 122.384 2.13278 122.546 2.03993C122.769 1.91297 123.012 1.82565 123.265 1.78193C123.638 1.7145 124.016 1.68374 124.395 1.69009H124.42V1.55685C124.422 1.46513 124.405 1.37401 124.369 1.28928C124.334 1.20456 124.281 1.12809 124.214 1.06474C124.143 0.997594 124.06 0.945273 123.968 0.910892C123.876 0.876512 123.779 0.860775 123.681 0.864619C123.523 0.847911 123.364 0.88973 123.235 0.982036C123.106 1.07434 123.016 1.21062 122.983 1.36468H122.201C122.222 1.20261 122.274 1.04583 122.352 0.902301C122.431 0.76 122.535 0.632888 122.659 0.526989C122.794 0.414053 122.947 0.32643 123.113 0.26846C123.306 0.20185 123.51 0.16933 123.714 0.172376C123.916 0.170383 124.115 0.207352 124.303 0.281211C124.474 0.348394 124.631 0.447292 124.765 0.572633C124.894 0.695178 124.995 0.842859 125.064 1.00635C125.134 1.17836 125.17 1.36258 125.168 1.54835V3.99932L124.613 3.99933ZM124.42 2.30695H124.395C124.123 2.30335 123.85 2.31736 123.579 2.34889C123.413 2.36582 123.25 2.40789 123.096 2.47365C123 2.51315 122.919 2.5817 122.865 2.66953C122.825 2.74838 122.805 2.83562 122.807 2.92381C122.808 2.98729 122.823 3.0497 122.852 3.10665C122.88 3.1636 122.921 3.21372 122.97 3.25347C123.088 3.35379 123.24 3.40597 123.395 3.39946C123.666 3.40165 123.928 3.30684 124.134 3.13244C124.221 3.05792 124.293 2.9672 124.345 2.86541C124.395 2.7673 124.421 2.65891 124.42 2.54903V2.30695Z" fill="#F4FAFF"/>
<path d="M126.824 4.8833V3.29072H127.069C127.149 3.23886 127.22 3.1741 127.278 3.09909C127.341 3.02929 127.394 2.95229 127.438 2.86976C127.493 2.76444 127.527 2.64992 127.539 2.53214L127.791 0.214417H130.363V3.29073H130.868V4.8833H130.136V3.99943H127.556V4.8833H126.824ZM129.607 3.29072V0.92311H128.455L128.279 2.53214C128.271 2.64922 128.245 2.76446 128.203 2.87402C128.172 2.95298 128.133 3.02843 128.085 3.09909C128.045 3.17054 127.994 3.23523 127.934 3.29073L129.607 3.29072Z" fill="#F4FAFF"/>
<path d="M133.599 3.89527C133.378 3.80086 133.18 3.66327 133.014 3.49077C132.845 3.31288 132.711 3.10508 132.619 2.87816C132.519 2.63316 132.469 2.37104 132.472 2.10682C132.469 1.84397 132.519 1.58319 132.619 1.33973C132.713 1.11361 132.846 0.906077 133.014 0.727127C133.179 0.552679 133.378 0.413562 133.599 0.318373C133.821 0.221408 134.062 0.171677 134.305 0.172376C134.546 0.171461 134.786 0.221212 135.007 0.318373C135.227 0.415043 135.425 0.553968 135.591 0.727127C135.76 0.904706 135.894 1.11259 135.986 1.33973C136.083 1.58384 136.131 1.84436 136.128 2.10682C136.131 2.37065 136.083 2.63251 135.986 2.87816C135.896 3.10609 135.762 3.31425 135.591 3.49077C135.424 3.66199 135.226 3.79939 135.007 3.89527C134.786 3.99243 134.546 4.04218 134.305 4.04126C134.062 4.04196 133.821 3.99223 133.599 3.89527ZM134.708 3.24497C134.838 3.186 134.954 3.10085 135.048 2.99495C135.15 2.8808 135.23 2.74931 135.284 2.60688C135.402 2.28373 135.402 1.9299 135.284 1.60675C135.23 1.46438 135.15 1.33292 135.048 1.2187C134.954 1.11279 134.838 1.02763 134.708 0.96866C134.582 0.910788 134.444 0.880904 134.305 0.881081C134.163 0.880274 134.022 0.910161 133.893 0.96866C133.763 1.02762 133.647 1.11278 133.553 1.21869C133.451 1.33278 133.371 1.46428 133.317 1.60674C133.199 1.9299 133.199 2.28373 133.317 2.60688C133.371 2.74941 133.451 2.88093 133.553 2.99495C133.647 3.10085 133.763 3.18601 133.893 3.24497C134.022 3.30348 134.163 3.33337 134.305 3.33256C134.444 3.33274 134.582 3.30286 134.708 3.24497Z" fill="#F4FAFF"/>
<path d="M138.982 3.89527C138.763 3.80013 138.566 3.6626 138.402 3.49077C138.233 3.31287 138.099 3.10508 138.007 2.87817C137.907 2.63316 137.857 2.37104 137.86 2.10683C137.857 1.84397 137.907 1.5832 138.007 1.33974C138.1 1.11362 138.234 0.906092 138.402 0.727131C138.565 0.55337 138.763 0.414315 138.982 0.318377C139.206 0.220668 139.448 0.170922 139.692 0.172395C139.833 0.171668 139.973 0.190065 140.109 0.227073C140.238 0.26235 140.364 0.311102 140.483 0.372519C140.6 0.43368 140.708 0.509314 140.806 0.597608C140.903 0.68555 140.991 0.781835 141.071 0.885329C141.149 0.988644 141.216 1.10049 141.268 1.2187C141.32 1.33568 141.361 1.45725 141.39 1.58182H140.634C140.601 1.48379 140.554 1.39098 140.495 1.3063C140.436 1.22289 140.364 1.1497 140.281 1.08972C140.196 1.02857 140.105 0.978102 140.007 0.939481C139.907 0.900175 139.8 0.880354 139.692 0.881096C139.55 0.880287 139.41 0.91018 139.281 0.968692C139.151 1.02764 139.035 1.1128 138.94 1.21871C138.839 1.33279 138.759 1.4643 138.705 1.60678C138.587 1.92992 138.587 2.28377 138.705 2.60691C138.759 2.74945 138.839 2.88097 138.94 2.99496C139.035 3.10088 139.151 3.18605 139.281 3.245C139.41 3.3035 139.55 3.33339 139.692 3.33258C139.8 3.33342 139.907 3.31508 140.007 3.27844C140.106 3.24235 140.198 3.1917 140.281 3.12821C140.363 3.06599 140.436 2.99149 140.495 2.90736C140.554 2.82281 140.601 2.73019 140.634 2.63237H141.39C141.361 2.75676 141.32 2.87816 141.268 2.99496C141.215 3.11421 141.149 3.22741 141.071 3.33258C140.993 3.43733 140.904 3.53376 140.806 3.62031C140.707 3.70689 140.598 3.78237 140.483 3.84538C140.363 3.90977 140.236 3.95883 140.104 3.99138C139.97 4.02451 139.831 4.04127 139.692 4.04128C139.448 4.04275 139.206 3.99299 138.982 3.89527Z" fill="#F4FAFF"/>
<path d="M144.09 3.99942V0.923113H142.93V0.214417H146.006V0.923113H144.846V3.99942H144.09Z" fill="#F4FAFF"/>
<path d="M147.821 3.99942V0.214417H148.577V2.86563L150.401 0.214417H151.141V3.99942H150.384V1.34841L148.56 3.99942H147.821Z" fill="#F4FAFF"/>
<path d="M156.361 3.99942V0.214417H159.665V3.99942H158.908V0.923113H157.118V3.99942H156.361Z" fill="#F4FAFF"/>
<path d="M161.875 3.99942V0.214417H162.631V2.86563L164.455 0.214417H165.195V3.99942H164.438V1.34841L162.614 3.99942H161.875Z" fill="#F4FAFF"/>
<path d="M168.17 3.99942V0.923113H167.01V0.214417H170.086V0.923113H168.927V3.99942H168.17Z" fill="#F4FAFF"/>
<path d="M172.709 3.89527C172.489 3.80086 172.29 3.66327 172.125 3.49077C171.955 3.31288 171.821 3.10508 171.73 2.87816C171.63 2.63316 171.58 2.37104 171.582 2.10682C171.58 1.84397 171.63 1.58319 171.73 1.33973C171.823 1.11361 171.957 0.906077 172.125 0.727127C172.289 0.552679 172.488 0.413562 172.709 0.318373C172.931 0.221408 173.172 0.171677 173.415 0.172376C173.657 0.171461 173.896 0.221212 174.117 0.318373C174.337 0.415043 174.535 0.553968 174.701 0.727127C174.87 0.904707 175.005 1.11259 175.096 1.33973C175.193 1.58384 175.242 1.84436 175.239 2.10682C175.241 2.37065 175.193 2.63251 175.096 2.87816C175.006 3.10609 174.872 3.31425 174.701 3.49077C174.535 3.66199 174.336 3.79939 174.117 3.89527C173.896 3.99243 173.657 4.04218 173.415 4.04126C173.172 4.04196 172.931 3.99223 172.709 3.89527ZM173.818 3.24497C173.948 3.186 174.064 3.10085 174.159 2.99495C174.26 2.8808 174.34 2.74931 174.394 2.60688C174.512 2.28373 174.512 1.9299 174.394 1.60675C174.34 1.46438 174.26 1.33292 174.159 1.2187C174.064 1.11279 173.948 1.02763 173.818 0.96866C173.692 0.910789 173.554 0.880905 173.415 0.881081C173.273 0.880276 173.132 0.910162 173.003 0.96866C172.873 1.0276 172.757 1.11276 172.662 1.2187C172.561 1.33295 172.482 1.46441 172.427 1.60675C172.31 1.9299 172.31 2.28373 172.427 2.60688C172.481 2.74929 172.561 2.88078 172.662 2.99495C172.757 3.10088 172.873 3.18603 173.003 3.24497C173.132 3.30348 173.273 3.33338 173.415 3.33257C173.554 3.33275 173.692 3.30286 173.818 3.24497Z" fill="#F4FAFF"/>
<path d="M177.206 3.99942V0.214417H177.896L179.249 3.00733L180.594 0.214417H181.283V3.99942H180.527V1.80705L179.476 3.99942H179.022L177.963 1.80705V3.99942H177.206Z" fill="#F4FAFF"/>
<path d="M183.485 3.99942V0.214417H184.241V3.29073H185.948V0.214417H186.704V3.29073H187.209V4.88336H186.486V3.99942H183.485Z" fill="#F4FAFF"/>
<path d="M191.445 3.99951L191.276 3.59925C191.133 3.74082 190.961 3.85158 190.772 3.92467C190.577 4.00214 190.369 4.04178 190.158 4.04146C189.978 4.04409 189.799 4.01442 189.629 3.95386C189.482 3.90133 189.346 3.82052 189.23 3.71604C189.122 3.61761 189.035 3.49865 188.974 3.3662C188.911 3.23007 188.88 3.08203 188.881 2.93248C188.879 2.75927 188.918 2.58796 188.994 2.43242C189.083 2.26884 189.215 2.13296 189.377 2.04011C189.599 1.91323 189.843 1.82591 190.095 1.78212C190.468 1.71471 190.847 1.68395 191.226 1.69028H191.251V1.55703C191.253 1.46531 191.236 1.37419 191.201 1.28946C191.165 1.20474 191.112 1.12827 191.045 1.06493C190.974 0.997816 190.891 0.94552 190.799 0.911142C190.707 0.876764 190.61 0.861005 190.512 0.864803C190.354 0.848097 190.195 0.889917 190.066 0.982224C189.937 1.07453 189.847 1.21081 189.814 1.36486H189.032C189.053 1.20274 189.104 1.04591 189.183 0.902486C189.262 0.760184 189.366 0.633072 189.491 0.527172C189.625 0.414236 189.778 0.326613 189.944 0.268643C190.138 0.202033 190.341 0.169513 190.545 0.172559C190.747 0.170619 190.947 0.207585 191.134 0.281394C191.305 0.34858 191.462 0.44748 191.596 0.572824C191.725 0.695254 191.826 0.842975 191.894 1.00654C191.965 1.17844 192.001 1.36272 191.999 1.54854V3.99951L191.445 3.99951ZM191.251 2.30713H191.226C190.954 2.30352 190.681 2.31753 190.411 2.34907C190.244 2.366 190.081 2.40807 189.927 2.47383C189.831 2.51318 189.75 2.58177 189.696 2.66971C189.656 2.74852 189.636 2.83576 189.637 2.92399C189.639 2.98751 189.654 3.04993 189.682 3.10688C189.711 3.16383 189.751 3.21393 189.801 3.25366C189.919 3.35397 190.071 3.40616 190.226 3.39964C190.497 3.40183 190.759 3.30703 190.965 3.13262C191.052 3.05796 191.124 2.96727 191.176 2.86559C191.226 2.76748 191.252 2.65909 191.251 2.54921V2.30713Z" fill="#F4FAFF"/>
<path d="M42.1013 35.7249C41.7266 34.8087 41.3527 33.8919 40.9795 32.9745L39.9193 30.3617C36.4721 21.8685 32.9078 13.0854 29.4146 4.44258C29.2979 4.15379 29.1994 4.08531 28.8649 4.09273C23.9235 4.10865 19.1068 4.10865 14.5497 4.09167H14.5411C14.228 4.09167 14.1327 4.1575 14.0102 4.45424C11.924 9.49687 9.81806 14.5368 7.78112 19.4111C6.40837 22.6961 5.03435 25.9807 3.65908 29.2649C2.62029 31.7472 1.58166 34.2297 0.54321 36.7123C0.389077 37.0807 0.240825 37.4518 0.0882946 37.8324C0.058863 37.9051 0.0299698 37.9784 0 38.0522L0.968693 38.0527C4.83437 38.0548 8.8317 38.0575 12.7627 38.0394C12.8547 38.0017 12.9324 37.9361 12.9848 37.8521C13.688 35.951 14.2949 34.2449 14.8414 32.6358C15.0201 32.1098 15.3177 31.8948 15.8673 31.8948H15.8785C19.6538 31.9149 23.3616 31.9149 26.8981 31.8937H26.9115C27.4879 31.8937 27.7967 32.1172 27.976 32.6629C28.2398 33.4661 28.5198 34.2805 28.79 35.0677C29.0876 35.9319 29.3948 36.8259 29.6827 37.7108C29.7801 38.0113 29.8636 38.0676 30.1922 38.0665C33.4708 38.0527 36.8045 38.0538 40.0274 38.0554L43.0437 38.0559C42.9961 37.9264 42.9549 37.817 42.911 37.7087C42.6418 37.0473 42.3719 36.386 42.1013 35.7249ZM17.8507 24.2653L21.2535 14.7396L21.7758 14.7853L25.0571 24.2653H17.8507Z" fill="#F4FAFF"/>
<path d="M72.508 22.1244C72.0622 23.115 71.6165 24.1056 71.1711 25.0962C69.391 29.0633 67.6137 33.0316 65.839 37.0012C65.8081 37.1095 65.7396 37.2036 65.6456 37.2667C65.5516 37.3299 65.4381 37.358 65.3252 37.3462C64.1055 37.333 62.8853 37.3308 61.6656 37.3478C61.5525 37.3602 61.4388 37.3319 61.345 37.268C61.2512 37.2042 61.1836 37.1092 61.1545 37.0001C59.1539 32.293 57.1489 27.5877 55.1395 22.8841C55.0319 22.6325 54.9179 22.3835 54.8066 22.133C54.7659 22.1356 54.7247 22.1383 54.684 22.1409V22.642C54.684 27.5864 54.6776 32.5309 54.6947 37.4758C54.6963 37.9371 54.585 38.0698 54.1071 38.0666C50.988 38.0433 47.8684 38.0544 44.7493 38.0544H44.2451V8.80312H44.753C49.0458 8.80312 52.1092 8.79463 56.402 8.78242C56.5503 8.76246 56.7009 8.79602 56.8263 8.877C56.9518 8.95798 57.0437 9.08098 57.0854 9.22357C58.7739 13.0452 63.5564 20.9502 63.6688 21.1694C63.8127 20.8456 68.5192 12.844 70.1836 9.09457C70.2231 9.02076 70.2791 8.95694 70.3475 8.90806C70.4158 8.85918 70.4945 8.82654 70.5775 8.81268C75.0865 8.79941 78.4085 8.80578 82.9174 8.80897C82.9719 8.81795 83.0251 8.83346 83.0758 8.85516V38.0544H82.5722C79.4376 38.0544 76.303 38.0464 73.1684 38.064C72.7408 38.0666 72.6263 37.9488 72.6273 37.5262C72.6418 32.5813 72.6364 27.6369 72.6364 22.6925V22.1515C72.5936 22.1425 72.5508 22.1335 72.508 22.1244Z" fill="#F4FAFF"/>
<path d="M155.459 17.3656C154.661 14.3031 152.561 12.2672 149.848 10.7978C147.174 9.34912 144.272 8.73969 141.245 8.76464C135.004 8.8156 128.763 8.67969 122.523 8.75615C122.431 8.75721 122.34 8.77102 122.204 8.78268V38.1094H134.09V31.3929L134.032 23.6584C134.027 23.6615 134.022 23.6637 134.016 23.6669V17.4447C135.228 16.34 136.675 15.4444 137.391 14.3546C138.186 13.1437 138.414 11.9148 138.744 11.8951C139.38 11.8579 139.565 14.3445 139.565 14.3445C139.565 14.3445 140.365 13.382 140.966 13.1989C141.368 13.0763 141.752 13.2838 141.339 13.9283C141.164 14.1792 141.018 14.4492 140.904 14.7331C140.815 15.0559 140.773 15.3896 140.78 15.7242C142.622 16.3193 142.829 17.0497 142.829 17.0497C142.868 17.3351 143.004 17.5987 143.215 17.7966C143.426 17.9945 143.699 18.1148 143.988 18.1374C144.795 18.2749 145.586 18.4952 146.348 18.7946C147.058 18.9358 146.691 19.9264 146.434 19.8829C146.471 22.6359 144.049 22.8419 142.66 22.5876C142.66 22.5876 135.272 21.0874 135.892 29.7484C139.086 29.8842 142.284 30.1136 145.45 29.4373C148.556 28.7737 151.348 27.5108 153.474 25.0895C155.433 22.8584 156.217 20.2752 155.459 17.3656Z" fill="#F4FAFF"/>
<path d="M119.412 38.1063V8.79983C119.269 8.79347 112.457 8.79188 107.331 8.78286C107.212 8.76561 107.091 8.79259 106.991 8.85862C106.891 8.92465 106.818 9.02509 106.788 9.14064C104.55 12.5641 95.8874 26.8065 95.7676 26.8967V8.8062H85.9072V38.1068C86.026 38.1132 86.1454 38.126 86.2653 38.126C91.3533 38.127 93.0627 38.0989 98.1508 38.1095C98.2642 38.1224 98.3784 38.0939 98.4722 38.0295C98.566 37.965 98.6331 37.8689 98.6608 37.7591C100.85 34.3213 109.054 21.0796 109.519 20.1825V38.1063L119.412 38.1063Z" fill="#F4FAFF"/>
<path d="M179.919 8.74926C179.8 8.73194 179.679 8.75889 179.578 8.82494C179.478 8.89099 179.406 8.99147 179.376 9.10707C177.137 12.5311 168.475 26.7734 168.355 26.8632V8.77262H158.495V38.0733C158.614 38.0796 158.733 38.0924 158.852 38.0924C161.98 38.0929 163.831 38.0828 165.974 38.0775L171.708 38.0765C173.087 37.8487 174.757 37.1167 174.977 34.92C174.739 32.477 176.161 31.1753 176.54 30.8499C176.883 30.5615 177.211 30.2543 177.52 29.9299C177.809 29.7685 178.335 28.8098 178.351 28.3777C178.366 27.945 177.777 27.48 177.777 27.48C177.484 27.2204 177.168 26.9856 176.835 26.7782C176.147 26.3116 176.224 25.234 176.241 24.6251C176.258 24.0157 176.499 23.9588 177.01 23.9381C177.521 23.918 177.863 23.6855 178.317 23.4009C178.772 23.1164 179.038 22.7257 179.82 22.7416C180.285 22.7516 180.739 22.6007 181.104 22.3148L181.156 22.2983C181.156 22.2983 181.552 19.9774 181.827 19.971C182.102 19.9647 182.888 22.5425 183.418 24.1563C183.782 25.2669 184.092 26.1274 183.936 28.0024C183.937 28.0013 183.944 27.9976 183.944 27.9976C183.944 27.9976 183.759 30.3546 184.178 31.6026C184.451 32.2586 184.827 32.8672 185.293 33.4054C186.663 34.6659 187.738 36.2074 188.445 37.9225C188.467 37.9724 188.484 38.0228 188.505 38.0733L189.888 38.0727H192V8.76678C191.856 8.76042 185.045 8.75882 179.919 8.74926Z" fill="#F4FAFF"/>
<path d="M171.328 38.1294L169.835 38.139C170.332 38.1877 170.832 38.1845 171.328 38.1294Z" fill="#F4FAFF"/>
</g>
<defs>
<clipPath id="clip0_246_1668">
<rect width="192" height="38" fill="white" transform="translate(0 0.172363)"/>
</clipPath>
</defs>
</svg>
