<svg width="100%" height="100%" style="overflow:visible;" preserveAspectRatio="none" viewBox="0 0 112.97 51.65" fill="none" xmlns="http://www.w3.org/2000/svg">
<g style="mix-blend-mode:multiply">
<path d="M4.27069 50.8213C12.0643 33.4222 24.6802 17.6145 42.3605 9.63491C57.5541 2.78062 76.5176 2.55707 89.7088 13.8293C98.6909 21.5058 103.907 32.8463 109.047 43.2357C110.323 45.8122 114.176 43.5502 112.904 40.9813C107.953 30.9669 102.9 20.2706 94.7619 12.3933C88.3158 6.15282 80.0226 2.12891 71.154 0.848231C52.3192 -1.87606 33.5601 6.56961 20.2213 19.5469C11.769 27.769 5.21697 37.8326 0.409852 48.563C-0.755969 51.1661 3.08973 53.4433 4.26691 50.8175L4.27069 50.8213Z" fill="#0753A5"/>
</g>
</svg>
