<svg width="100%" height="100%" style="overflow:visible;" preserveAspectRatio="none" viewBox="0 0 90.36 78.7" fill="none" xmlns="http://www.w3.org/2000/svg">
<g style="mix-blend-mode:multiply">
<path d="M75.1638 3.70628C86.9658 19.351 91.9357 42.3957 79.9936 59.4083C74.5392 67.1795 66.2536 72.522 56.9194 74.174C47.8427 75.7843 38.3874 73.8784 29.92 70.5252C25.1129 68.6193 20.5216 66.1224 16.2141 63.2579C11.4183 60.0676 6.42571 56.2672 5.32045 50.2654C4.80188 47.4388 0.494395 48.6362 1.01296 51.4552C2.0463 57.0629 5.98285 61.2497 10.3736 64.584C14.5751 67.7744 19.1627 70.51 23.932 72.7607C33.0731 77.0764 43.2816 79.8423 53.456 79.0732C63.7857 78.2964 73.3204 73.761 80.3116 66.0769C87.7683 57.8851 91.4853 47.1585 91.3301 36.1211C91.1522 23.6478 86.4927 11.3563 79.017 1.45182C77.3062 -0.813995 73.4264 1.41015 75.16 3.70628H75.1638Z" fill="#0753A5"/>
</g>
</svg>
