<svg width="100%" height="100%" style="overflow:visible;" preserveAspectRatio="none" viewBox="0 0 91.51 92.82" fill="none" xmlns="http://www.w3.org/2000/svg">
<g style="mix-blend-mode:multiply">
<path d="M3.32633 10.7289C17.373 7.25057 32.5968 2.88186 47.1809 5.26514C56.4507 6.78074 65.1603 10.9145 72.0871 17.2876C84.9036 29.079 91.2096 47.8686 85.46 64.6917C81.8036 75.3994 73.5217 83.5079 63.7674 88.8579C61.2465 90.2409 63.4986 94.1019 66.0195 92.7189C75.4559 87.5469 83.6923 79.8894 88.1474 69.9546C92.084 61.1755 93 51.4378 91.1036 42.0222C87.1747 22.5202 71.5269 6.47004 52.2757 1.75274C35.6779 -2.31664 18.2814 2.4196 2.1378 6.41699C-0.651846 7.10659 0.52911 11.4185 3.32633 10.7289Z" fill="#0753A5"/>
</g>
</svg>
