<svg width="100%" height="100%" style="overflow:visible;" preserveAspectRatio="none" viewBox="0 0 15.6 14.5" fill="none" xmlns="http://www.w3.org/2000/svg">
<g style="mix-blend-mode:multiply">
<path d="M7.8369 2.98041C5.79672 2.61667 3.89658 3.07514 2.28411 4.37855C0.944173 5.45842 0.0773731 7.15587 0.0622326 8.88744C0.0319515 12.271 3.12062 14.3739 6.13738 14.9536C9.27525 15.5561 12.7727 15.0787 14.5896 12.146C16.0809 9.73619 16.1566 5.8752 13.9499 3.85567C12.7424 2.75307 11.2852 2.00662 9.78246 1.40039C8.43116 0.85477 6.91333 0.46829 5.46362 0.805511C4.3243 1.07074 3.54456 2.43857 3.90415 3.55632C4.29023 4.74607 5.42956 5.40156 6.65215 5.11739C6.95118 5.04919 6.76193 5.22349 6.3607 5.14771C6.43641 5.16286 6.5386 5.14012 6.61809 5.14012C6.71272 5.14012 6.80356 5.15529 6.89819 5.15529C7.3032 5.16666 6.29636 5.04541 6.70894 5.13256C7.17072 5.23107 7.61736 5.34852 8.06023 5.50387C8.18135 5.54555 8.29869 5.59101 8.41603 5.63648C8.59772 5.70847 8.87025 5.92067 8.35925 5.60997C8.54094 5.71986 8.76048 5.79184 8.95352 5.88656C9.4418 6.12906 9.92251 6.39806 10.3767 6.70118C10.5508 6.81485 11.024 7.2468 10.4751 6.75044C10.6265 6.88685 10.7855 7.00432 10.9294 7.14831C10.9937 7.21272 11.0505 7.2809 11.1148 7.34532C11.376 7.59539 10.7704 6.85655 10.9596 7.14831C10.971 7.16725 11.0467 7.32638 11.0618 7.33017C10.9748 7.30744 10.8499 6.75424 11.0088 7.22786C11.0846 7.4552 11.1338 7.69013 11.183 7.92504C11.2776 8.37215 11.1489 7.35668 11.164 7.81894C11.1678 7.94398 11.1792 8.06901 11.1792 8.19405C11.1792 8.39108 11.1224 8.6298 11.1489 8.82303C11.0808 8.34183 11.2095 8.44413 11.1565 8.72831C11.1224 8.89503 11.0846 9.05795 11.0353 9.22087C11.0013 9.34212 10.9559 9.45959 10.9142 9.58083C10.7704 10.0166 11.164 9.111 10.9407 9.50884C10.8385 9.69071 10.7363 9.86879 10.6265 10.0507C10.3919 10.4371 10.9861 9.67176 10.672 9.99382C10.5849 10.0848 10.5054 10.1757 10.4146 10.2628C10.1648 10.4978 10.1458 10.3159 10.4789 10.2325C10.354 10.2628 10.161 10.4296 10.0474 10.4978C9.67269 10.7251 10.4259 10.3879 10.1723 10.4523C10.0815 10.475 9.99443 10.5167 9.90737 10.5432C9.68027 10.6114 9.45316 10.6569 9.22227 10.7062C8.77183 10.8047 9.79382 10.6569 9.32825 10.6948C9.20334 10.7062 9.07843 10.7175 8.94973 10.7251C8.69235 10.7403 8.43117 10.7403 8.17378 10.7327C7.91639 10.7251 7.64008 10.6607 7.38269 10.6721C7.97696 10.6493 7.66279 10.71 7.44704 10.6721C7.31456 10.6493 7.18586 10.6228 7.05338 10.5925C6.83763 10.5432 6.62566 10.4902 6.4137 10.4258C6.28879 10.3879 6.16387 10.3462 6.03896 10.3045C5.95569 10.2742 5.8762 10.2477 5.79672 10.2136C5.57718 10.1264 5.63774 10.153 5.97462 10.2932C5.78158 10.1568 5.5204 10.0734 5.31222 9.95215C5.14189 9.84984 4.9867 9.72102 4.81637 9.62251C5.33493 9.92563 5.06618 9.81954 4.91478 9.67935C4.83151 9.60357 4.75581 9.524 4.6801 9.44444C4.49842 9.24741 4.55141 9.09964 4.7558 9.56189C4.70281 9.44065 4.6044 9.3156 4.53627 9.20193C4.41136 8.98975 4.64603 9.12614 4.63468 9.4482C4.63468 9.39137 4.52113 8.94048 4.48327 8.90638C4.49841 9.01247 4.50977 9.12237 4.52491 9.22846C4.51734 9.13752 4.50977 9.05037 4.50977 8.95943C4.50977 8.8685 4.50977 8.78135 4.51734 8.6942C4.45678 9.06931 4.44921 9.13373 4.49085 8.89503C4.52491 8.7662 4.55898 8.63737 4.58926 8.50854C4.68767 8.08039 4.34701 8.93669 4.56276 8.55021C4.62711 8.43276 4.68767 8.31151 4.75959 8.19784C4.80879 8.12206 4.858 8.04629 4.911 7.9743C4.69524 8.24332 4.66496 8.28878 4.81637 8.10691C4.91478 8.0084 5.00184 7.9061 5.10404 7.81138C5.17217 7.74697 5.2403 7.68633 5.31222 7.62949C5.03969 7.8341 5.00184 7.86821 5.19488 7.7318C5.29708 7.67118 5.39171 7.60677 5.4939 7.54994C5.55447 7.51584 5.61503 7.48173 5.67938 7.45142C5.89513 7.34912 5.84592 7.36807 5.53176 7.50447C5.55068 7.51963 5.89891 7.37942 5.93676 7.37184C6.02761 7.34532 6.12223 7.32259 6.21308 7.30364C6.45533 7.26197 6.40234 7.26575 6.04654 7.31879C6.06546 7.34153 6.4364 7.29985 6.48182 7.29985C6.58024 7.29985 6.67865 7.30366 6.77706 7.31502C6.43262 7.26198 6.38341 7.25438 6.62945 7.29606C7.77634 7.50066 9.08978 6.98536 9.37745 5.735C9.62727 4.64376 9.04815 3.20394 7.81798 2.98418L7.8369 2.98041Z" fill="#0753A5"/>
</g>
</svg>
