<svg width="100%" height="100%" style="overflow:visible;" preserveAspectRatio="none" viewBox="0 0 91.51 92.82" fill="none" xmlns="http://www.w3.org/2000/svg">
<g style="mix-blend-mode:multiply">
<path d="M2.9025 10.9781C16.9491 7.49984 32.173 3.13113 46.7571 5.51441C56.0269 7.03001 64.7365 11.1638 71.6633 17.5369C84.4797 29.3282 90.7858 48.1179 85.0362 64.941C81.3797 75.6487 73.0978 83.7571 63.3436 89.1072C60.8227 90.4902 63.0748 94.3512 65.5957 92.9682C75.032 87.7962 83.2685 80.1386 87.7236 70.2039C91.6601 61.4248 92.5761 51.6871 90.6798 42.2714C86.7508 22.7695 71.1031 6.71931 51.8519 2.00201C35.254 -2.06737 17.8576 2.66887 1.71397 6.66626C-1.07568 7.35586 0.10529 11.6677 2.9025 10.9781Z" fill="#0753A5"/>
</g>
</svg>
