<svg width="100%" height="100%" style="overflow:visible;" preserveAspectRatio="none" viewBox="0 0 112.97 51.65" fill="none" xmlns="http://www.w3.org/2000/svg">
<g style="mix-blend-mode:multiply">
<path d="M4.69452 50.572C12.4881 33.1729 25.104 17.3653 42.7843 9.38564C57.9779 2.53135 76.9414 2.3078 90.1326 13.5801C99.1147 21.2566 104.331 32.597 109.471 42.9864C110.746 45.563 114.6 43.3009 113.328 40.732C108.377 30.7177 103.324 20.0213 95.1858 12.144C88.7397 5.90356 80.4464 1.88343 71.5779 0.598963C52.743 -2.12532 33.9839 6.32034 20.6451 19.2976C12.1929 27.5198 5.6408 37.5833 0.833681 48.3138C-0.332141 50.9168 3.51356 53.194 4.69073 50.5682L4.69452 50.572Z" fill="#0753A5"/>
</g>
</svg>
