<svg width="100%" height="100%" style="overflow:visible;" preserveAspectRatio="none" viewBox="0 0 61.38 129.08" fill="none" xmlns="http://www.w3.org/2000/svg">
<g style="mix-blend-mode:multiply">
<path d="M52.034 123.73C51.9848 124.052 51.9318 124.374 51.8826 124.696L53.4421 123.135C49.3806 124.044 45.6447 125.135 41.4356 125.041C37.7451 124.957 34.0773 124.457 30.4852 123.608C23.4108 121.934 16.0752 118.929 11.1091 113.416C5.42008 107.1 4.09906 97.8319 4.68197 89.6401C5.1854 82.5964 7.80093 76.1059 12.0592 70.5019C16.8853 64.1516 23.1042 58.9531 28.6684 53.2772C29.5163 52.4133 29.5238 50.981 28.6684 50.1171C24.1981 45.5931 19.4364 40.5727 17.9186 34.192C16.4424 27.9856 18.8005 21.3663 22.7295 16.5391C30.9811 6.39595 46.0157 1.6294 58.1167 7.21058V3.3496C56.9131 4.25896 56.5232 5.0016 56.3415 6.50204C55.9971 9.35137 60.4673 9.32863 60.808 6.50204C60.6641 6.73696 60.5165 6.97187 60.3727 7.20679C61.5574 6.3088 62.0646 4.12634 60.3727 3.34581C49.1384 -1.83374 36.5717 0.102431 26.5601 7.11965C17.2713 13.6291 10.3408 25.1401 13.9934 36.7306C16.0525 43.2629 20.8029 48.4992 25.5154 53.2734V50.1134C20.0042 55.7324 13.9518 60.9006 9.07652 67.1108C4.20126 73.3209 1.1618 80.3723 0.34421 88.2571C-0.568008 97.0628 0.787071 106.998 6.1279 114.291C10.9388 120.865 18.4864 124.772 26.1399 127.068C30.6102 128.409 35.2848 129.205 39.9443 129.451C45.1072 129.724 49.6494 128.557 54.6344 127.439C55.3195 127.288 56.0803 126.594 56.1939 125.878C56.2431 125.556 56.2961 125.234 56.3453 124.912C56.7844 122.097 52.4845 120.884 52.0378 123.722L52.034 123.73Z" fill="#0753A5"/>
</g>
</svg>
