<svg width="100%" height="100%" style="overflow:visible;" preserveAspectRatio="none" viewBox="0 0 151 27" fill="none" xmlns="http://www.w3.org/2000/svg">
<path fill-rule="evenodd" clip-rule="evenodd" d="M32.2287 23.2858C32.5222 24.0125 32.8163 24.7388 33.1109 25.4647C33.3237 25.9884 33.536 26.5123 33.7477 27.0363C33.7822 27.1221 33.8146 27.2087 33.8521 27.3114L31.4799 27.3109C28.9452 27.3097 26.3234 27.3088 23.7449 27.3198C23.4865 27.3206 23.4208 27.276 23.3442 27.038C23.1178 26.3369 22.8762 25.6287 22.6421 24.9441L22.6242 24.8914L22.6241 24.8912L22.6239 24.8906C22.4171 24.2836 22.2035 23.6571 22.0019 23.0389C21.861 22.6066 21.6181 22.4296 21.1648 22.4296H21.1543C18.3729 22.4464 15.4569 22.4464 12.4878 22.4304H12.479C12.0467 22.4304 11.8127 22.6007 11.6721 23.0175C11.2424 24.2922 10.7651 25.6438 10.212 27.1499C10.1708 27.2165 10.1097 27.2684 10.0373 27.2983C7.013 27.3123 3.93874 27.3106 0.960325 27.3089L0.761837 27.3088L0 27.3084C0.0125628 27.2772 0.0248851 27.2462 0.0371592 27.2153L0.0372509 27.2151L0.06944 27.1343L0.0914635 27.0789L0.0914812 27.0789C0.203721 26.7967 0.313429 26.5209 0.427212 26.2469C1.24391 24.2801 2.06075 22.3135 2.87771 20.347C3.95931 17.7451 5.03991 15.143 6.11953 12.5406C7.72149 8.67912 9.37775 4.68638 11.0184 0.691528C11.1148 0.456443 11.1897 0.404297 11.436 0.404297H11.4427C15.0267 0.417747 18.8149 0.417747 22.7011 0.405132C22.9641 0.399253 23.0416 0.453504 23.1333 0.682287C25.8806 7.52932 28.6838 14.4874 31.3949 21.2158L32.2287 23.2858ZM16.715 8.83977L14.0389 16.3862H19.7063L17.1258 8.87595L16.715 8.83977ZM55.9725 17.0444C56.3229 16.2596 56.6733 15.4749 57.024 14.6901L57.125 14.7116V15.1401C57.125 15.9739 57.1252 16.8077 57.1254 17.6416C57.1261 20.7248 57.1268 23.8081 57.1178 26.8917C57.117 27.2264 57.2071 27.3198 57.5433 27.3177C59.4213 27.3071 61.2992 27.3083 63.1772 27.3094C63.7645 27.3098 64.3518 27.3101 64.9391 27.3101H65.3351V4.17796C65.2952 4.16077 65.2534 4.14848 65.2105 4.14137L63.4831 4.13996H63.4829C60.7543 4.13758 58.4523 4.13558 55.5057 4.14431C55.4404 4.15529 55.3785 4.18115 55.3248 4.21987C55.2711 4.2586 55.227 4.30915 55.196 4.36763C54.1837 6.66471 51.7406 10.9764 50.6327 12.9317C50.308 13.5047 50.0979 13.8754 50.0723 13.9336C50.0592 13.9078 49.9651 13.7478 49.8101 13.4842C48.9209 11.972 46.0256 7.04799 44.8947 4.46983C44.862 4.35686 44.7897 4.25942 44.691 4.19527C44.5923 4.13111 44.4739 4.10452 44.3572 4.12034C40.9812 4.13001 38.5719 4.13674 35.1958 4.13674H34.7964V27.3101H35.1929C35.7921 27.3101 36.3913 27.3096 36.9905 27.3091H36.9906H36.9906H36.9907H36.9907H36.9913C38.845 27.3074 40.6988 27.3058 42.5524 27.3198C42.9283 27.3223 43.0158 27.2172 43.0146 26.8517C43.004 23.7746 43.0048 20.6977 43.0057 17.6209V17.6178C43.0059 16.7786 43.0061 15.9394 43.0061 15.1002V14.7032L43.1025 14.6969C43.1294 14.7579 43.1566 14.8188 43.1837 14.8797L43.1837 14.8798L43.1838 14.8799L43.1838 14.8799L43.1838 14.88C43.2448 15.0171 43.3058 15.154 43.3643 15.292C44.9447 19.0182 46.5215 22.7458 48.0949 26.4749C48.1178 26.5613 48.1709 26.6366 48.2447 26.6871C48.3185 26.7377 48.4079 26.7601 48.4968 26.7503C49.4561 26.7369 50.4157 26.7386 51.375 26.7491C51.4638 26.7584 51.553 26.7361 51.627 26.6861C51.7009 26.6361 51.7548 26.5616 51.7791 26.4757C53.1748 23.331 54.5726 20.1872 55.9725 17.0444ZM122.262 10.9201C121.634 8.49391 119.983 6.88109 117.85 5.717C115.746 4.5693 113.464 4.0865 111.083 4.10627C108.786 4.12517 106.488 4.11163 104.191 4.09809C101.58 4.08271 98.9696 4.06733 96.3591 4.09954C96.312 4.1001 96.2651 4.10496 96.2085 4.11085C96.1784 4.11397 96.1457 4.11737 96.1086 4.12057V27.3537H105.457V22.0328L105.411 15.9053L105.408 15.9071L105.405 15.9086L105.405 15.9087C105.403 15.9097 105.401 15.9108 105.398 15.9121V10.9828C105.72 10.6876 106.063 10.4112 106.397 10.1414C107.054 9.61145 107.679 9.10687 108.052 8.5347C108.353 8.07309 108.551 7.60816 108.704 7.24827L108.704 7.24822C108.869 6.86025 108.982 6.59435 109.117 6.58628C109.617 6.55683 109.762 8.52671 109.762 8.52671C109.762 8.52671 110.391 7.76424 110.864 7.61915C111.18 7.52201 111.483 7.68644 111.158 8.197C111.02 8.39576 110.905 8.60967 110.815 8.83456C110.746 9.09028 110.713 9.35469 110.718 9.61973C112.166 10.0912 112.329 10.6699 112.329 10.6699C112.36 10.8959 112.467 11.1048 112.633 11.2615C112.798 11.4183 113.013 11.5136 113.241 11.5316C113.876 11.6405 114.498 11.815 115.096 12.0522C115.655 12.1641 115.366 12.9488 115.164 12.9143C115.193 15.0953 113.289 15.2585 112.196 15.0571C112.196 15.0571 106.386 13.8686 106.874 20.7299C107.108 20.74 107.343 20.7507 107.578 20.7614L107.578 20.7614L107.578 20.7614C109.856 20.8653 112.134 20.9692 114.391 20.4835C116.833 19.9578 119.029 18.9573 120.701 17.0391C122.242 15.2716 122.858 13.2251 122.262 10.9201ZM93.9128 4.13409V27.3512L86.132 27.3512V13.1516C85.7662 13.8624 79.3146 24.3527 77.5927 27.0762C77.5708 27.1631 77.5181 27.2393 77.4443 27.2903C77.3706 27.3414 77.2807 27.3639 77.1915 27.3537C74.9801 27.3491 73.5802 27.3538 72.0948 27.3588H72.0944H72.0939H72.0932H72.0927C70.891 27.3629 69.6331 27.3671 67.8441 27.3668C67.7811 27.3668 67.7182 27.3622 67.6556 27.3577L67.6164 27.355C67.6054 27.3542 67.5943 27.3535 67.5832 27.3528C67.5763 27.3524 67.5694 27.352 67.5625 27.3516V4.13914H75.3172V18.4708C75.3559 18.4415 76.5227 16.5295 78.0077 14.0961L78.0083 14.0953L78.0083 14.0951C80.1472 10.5904 82.9457 6.00469 83.9845 4.40409C84.0082 4.31254 84.065 4.23298 84.1438 4.18067C84.2227 4.12835 84.3181 4.10698 84.4117 4.12064C86.2113 4.12384 88.2752 4.12585 90.0187 4.12756H90.019L90.0194 4.12756C92.1812 4.12967 93.8504 4.1313 93.9128 4.13409ZM141.499 4.09397C141.405 4.08025 141.31 4.1016 141.231 4.15392C141.152 4.20625 141.095 4.28585 141.072 4.37743C140.031 5.98005 137.228 10.5743 135.088 14.0804C133.606 16.5087 132.443 18.415 132.404 18.4441V4.11248H124.65V27.325C124.681 27.3266 124.712 27.3289 124.743 27.3311C124.805 27.3356 124.868 27.3401 124.931 27.3401C126.703 27.3404 127.954 27.3363 129.146 27.3325H129.146C129.608 27.331 130.061 27.3295 130.532 27.3283L135.041 27.3275C136.126 27.1471 137.439 26.5671 137.612 24.8269C137.425 22.8915 138.544 21.8603 138.841 21.6025C139.111 21.374 139.369 21.1307 139.612 20.8737C139.84 20.7458 140.253 19.9863 140.266 19.6439C140.278 19.3012 139.814 18.9328 139.814 18.9328C139.583 18.7271 139.336 18.5411 139.074 18.3768C138.563 18.0283 138.588 17.2494 138.604 16.7572L138.606 16.6711C138.619 16.1883 138.809 16.1433 139.211 16.1269C139.591 16.1118 139.851 15.9468 140.18 15.7388L140.239 15.7013C140.324 15.6476 140.401 15.5891 140.477 15.5313C140.72 15.3466 140.952 15.1693 141.421 15.1789C141.787 15.1869 142.144 15.0674 142.431 14.8408L142.472 14.8278C142.472 14.8278 142.783 12.9891 142.999 12.9841C143.184 12.9797 143.665 14.4769 144.06 15.71L144.06 15.7103C144.127 15.9169 144.191 16.1162 144.25 16.2997L144.279 16.3889C144.553 17.2269 144.777 17.9118 144.658 19.3466C144.659 19.3458 144.665 19.3428 144.665 19.3428C144.665 19.3428 144.519 21.2101 144.848 22.1988C145.063 22.7185 145.359 23.2006 145.726 23.627C146.802 24.6256 147.648 25.8468 148.204 27.2055C148.214 27.229 148.223 27.2527 148.232 27.2764C148.238 27.2926 148.245 27.3088 148.251 27.3249L149.339 27.3245H151V4.10785C150.939 4.10511 149.332 4.10349 147.231 4.10136H147.231L147.23 4.10136C145.461 4.09958 143.341 4.09743 141.499 4.09397ZM134.742 27.3695L133.568 27.3771C133.959 27.4156 134.352 27.413 134.742 27.3695Z" fill="white"/>
</svg>
