<svg width="100%" height="100%" style="overflow:visible;" preserveAspectRatio="none" viewBox="0 0 40.01 28.05" fill="none" xmlns="http://www.w3.org/2000/svg">
<path fill-rule="evenodd" clip-rule="evenodd" d="M-0.00341797 1.37988C-0.00341797 0.827598 0.444297 0.379883 0.996582 0.379883H39.0036C39.5559 0.379883 40.0036 0.827598 40.0036 1.37988C40.0036 1.93217 39.5559 2.37988 39.0036 2.37988H0.996582C0.444297 2.37988 -0.00341797 1.93217 -0.00341797 1.37988ZM-0.00341797 14.4043C-0.00341797 13.8521 0.444297 13.4043 0.996582 13.4043H39.0036C39.5559 13.4043 40.0036 13.8521 40.0036 14.4043C40.0036 14.9566 39.5559 15.4043 39.0036 15.4043H0.996582C0.444297 15.4043 -0.00341797 14.9566 -0.00341797 14.4043ZM0.996582 26.4286C0.444297 26.4286 -0.00341797 26.8763 -0.00341797 27.4286C-0.00341797 27.9808 0.444297 28.4286 0.996582 28.4286H39.0036C39.5559 28.4286 40.0036 27.9808 40.0036 27.4286C40.0036 26.8763 39.5559 26.4286 39.0036 26.4286H0.996582Z" fill="white"/>
</svg>
