<svg width="100%" height="100%" style="overflow:visible;" preserveAspectRatio="none" viewBox="0 0 45 15" fill="none" xmlns="http://www.w3.org/2000/svg">
<path fill-rule="evenodd" clip-rule="evenodd" d="M7.55721 15.6721C7.53816 15.6723 7.51909 15.6724 7.5 15.6724C7.48091 15.6724 7.46184 15.6723 7.44279 15.6721H6.94727V15.6523C3.06322 15.3694 0 12.1286 0 8.17236C0 4.21613 3.06322 0.97535 6.94727 0.692422V0.672363H7.5H37.0845V0.68368C37.222 0.676168 37.3606 0.672363 37.5 0.672363C41.6421 0.672363 45 4.03023 45 8.17236C45 12.3145 41.6421 15.6724 37.5 15.6724C37.3606 15.6724 37.222 15.6686 37.0845 15.661V15.6721H7.55721Z" fill="#392930"/>
</svg>
