<svg width="100%" height="100%" style="overflow:visible;" preserveAspectRatio="none" viewBox="0 0 332.46 84.26" fill="none" xmlns="http://www.w3.org/2000/svg">
<path d="M332.447 5.12759C332.72 5.16941 332.975 4.98205 333.017 4.70909C333.059 4.43613 332.872 4.18095 332.599 4.13912L332.447 5.12759ZM0.566244 79.5943C39.9479 86.9631 67.9622 84.0759 90.95 76.0509C113.918 68.0327 131.84 54.8913 151.001 41.8466C170.174 28.7946 190.623 15.8107 218.724 7.98681C246.824 0.163156 282.61 -2.50952 332.447 5.12759L332.599 4.13912C282.654 -3.5145 246.721 -0.846101 218.456 7.02345C190.192 14.8928 169.631 27.9542 150.439 41.02C131.235 54.0931 113.436 67.1419 90.6204 75.1068C67.824 83.0649 39.9901 85.9536 0.750163 78.6114L0.566244 79.5943Z" fill="#1A202C"/>
</svg>
