<svg width="100%" height="100%" style="overflow:visible;" preserveAspectRatio="none" viewBox="0 0 332.46 84.26" fill="none" xmlns="http://www.w3.org/2000/svg">
<path d="M332.766 5.12759C333.039 5.16941 333.294 4.98205 333.336 4.70909C333.377 4.43613 333.19 4.18095 332.917 4.13912L332.766 5.12759ZM0.884603 79.5943C40.2663 86.9631 68.2806 84.0759 91.2684 76.0509C114.237 68.0327 132.158 54.8913 151.32 41.8466C170.492 28.7946 190.942 15.8107 219.042 7.98681C247.142 0.163156 282.928 -2.50952 332.766 5.12759L332.917 4.13912C282.972 -3.5145 247.039 -0.846101 218.774 7.02345C190.51 14.8928 169.95 27.9542 150.757 41.02C131.553 54.0931 113.755 67.1419 90.9388 75.1068C68.1424 83.0649 40.3084 85.9536 1.06852 78.6114L0.884603 79.5943Z" fill="#1A202C"/>
</svg>
