<svg width="100%" height="100%" style="overflow:visible;" preserveAspectRatio="none" viewBox="0 0 34.52 31.49" fill="none" xmlns="http://www.w3.org/2000/svg">
<path d="M16.1309 3.49093L16.9409 4.31093L17.7409 3.49093C18.6209 2.59093 20.6309 1.00093 23.0309 0.330933C25.3509 -0.319067 28.0509 -0.119067 30.6209 2.50093C33.1909 5.13093 33.4009 7.92093 32.7509 10.3209C32.0909 12.8009 30.5309 14.8609 29.6509 15.7609L22.1609 23.4309L17.9609 27.7209L16.9209 28.7809L15.8809 27.7209L11.6809 23.4309L4.20086 15.7709C3.32086 14.8709 1.76086 12.8109 1.10086 10.3309C0.46086 7.92093 0.66086 5.14093 3.23086 2.51093C5.80086 -0.119067 8.49086 -0.309067 10.8209 0.340933C13.2309 1.01093 15.2409 2.61093 16.1109 3.51093L16.1309 3.49093Z" stroke="white" stroke-width="2.25"/>
</svg>
