<svg width="100%" height="100%" style="overflow:visible;" preserveAspectRatio="none" viewBox="0 0 166 166" fill="none" xmlns="http://www.w3.org/2000/svg">
<path d="M18.679 132.208L18.5407 132.346C16.6732 128.265 15.4974 123.631 15.0132 118.513C15.4974 123.562 16.8115 128.127 18.679 132.208Z" fill="white"/>
<path d="M63.084 72.5167C72.1755 72.5167 79.5457 65.1466 79.5457 56.0551C79.5457 46.9635 72.1755 39.5934 63.084 39.5934C53.9925 39.5934 46.6223 46.9635 46.6223 56.0551C46.6223 65.1466 53.9925 72.5167 63.084 72.5167Z" fill="white"/>
<path d="M112.815 14.5551H54.8531C29.6764 14.5551 14.6672 29.5642 14.6672 54.7409V112.703C14.6672 120.242 15.9814 126.813 18.5406 132.346C24.4889 145.488 37.2156 152.888 54.8531 152.888H112.815C137.991 152.888 153.001 137.879 153.001 112.703V96.8634V54.7409C153.001 29.5642 137.991 14.5551 112.815 14.5551ZM141.726 87.1801C136.331 82.5459 127.616 82.5459 122.221 87.1801L93.4481 111.873C88.0531 116.507 79.3381 116.507 73.9431 111.873L71.5914 109.936C66.6806 105.648 58.8647 105.233 53.3314 108.968L27.4631 126.328C25.9414 122.455 25.0422 117.959 25.0422 112.703V54.7409C25.0422 35.2359 35.3481 24.9301 54.8531 24.9301H112.815C132.32 24.9301 142.626 35.2359 142.626 54.7409V87.9409L141.726 87.1801Z" fill="white"/>
</svg>
