<svg width="100%" height="100%" style="overflow:visible;" preserveAspectRatio="none" viewBox="0 0 35.25 31.87" fill="none" xmlns="http://www.w3.org/2000/svg">
<path d="M10.0255 0.609767C11.5694 0.583203 12.9199 0.999484 14.1993 1.70177C15.1963 2.24905 16.0897 2.94407 16.9345 3.71331C17.3008 4.04663 17.6047 4.43343 17.9068 4.82388C17.9759 4.91303 18.0121 4.93122 18.0896 4.82861C19.187 3.37672 20.6012 2.33529 22.1729 1.50855C23.0579 1.04315 24.0017 0.75168 24.9913 0.646882C25.6396 0.578109 26.2904 0.595211 26.9405 0.66071C27.9987 0.767327 29.0189 1.02386 29.9962 1.45652C31.24 2.00707 32.3204 2.79378 33.2209 3.84212C34.4186 5.23652 35.1275 6.86889 35.4469 8.69303C35.5772 9.43716 35.6381 10.1879 35.6233 10.9429C35.5909 12.58 35.2493 14.1469 34.6049 15.6439C33.9576 17.1485 33.0698 18.4902 32.0405 19.739C31.4203 20.4915 30.7547 21.1982 30.0631 21.879C29.0911 22.8356 28.0705 23.7355 27.0345 24.6168C25.8526 25.6222 24.6701 26.6262 23.4932 27.6374C22.3085 28.6559 21.1636 29.7199 20.1008 30.8749C19.8282 31.1711 19.5627 31.4756 19.3095 31.7897C18.989 32.1867 18.5964 32.4396 18.0924 32.4676C17.5906 32.4956 17.1458 32.3253 16.8169 31.9312C16.2013 31.1933 15.5555 30.4859 14.8755 29.8123C14.1958 29.1392 13.4886 28.4969 12.7709 27.8667C11.836 27.0454 10.8841 26.2448 9.93394 25.4425C9.09932 24.738 8.26822 24.0292 7.45367 23.3C6.95818 22.8564 6.46938 22.4052 5.99432 21.9379C5.12342 21.0817 4.29268 20.1866 3.53976 19.2161C2.47271 17.8406 1.5909 16.3549 1.02568 14.684C0.742196 13.846 0.548155 12.9854 0.45272 12.1008C0.388274 11.5033 0.359397 10.9047 0.382288 10.305C0.446733 8.63044 0.797133 7.02863 1.57611 5.54655C2.54033 3.71258 3.962 2.38805 5.80239 1.53475C6.72435 1.10719 7.68927 0.83974 8.68799 0.701101C9.15848 0.635966 9.63178 0.5923 10.0259 0.609767H10.0255ZM32.3905 10.6471C32.3961 10.4007 32.3715 10.0707 32.3394 9.74028C32.2595 8.91463 32.0669 8.11991 31.7063 7.37687C31.0037 5.92971 29.8866 4.9607 28.4308 4.39632C27.8438 4.16853 27.2345 4.03571 26.6087 3.97931C26.1171 3.93491 25.628 3.90944 25.1381 4.00114C24.3288 4.15215 23.5964 4.49966 22.9026 4.93959C21.4827 5.83983 20.3037 7.01553 19.2813 8.36517C18.6305 9.22466 17.3983 9.24867 16.7412 8.39283C16.1351 7.6032 15.4766 6.86816 14.7448 6.20226C13.938 5.46831 13.0671 4.83516 12.0765 4.39049C11.4451 4.10703 10.79 3.92291 10.097 3.93491C9.74166 3.9411 9.38527 3.96293 9.03276 4.01642C7.78329 4.20601 6.65145 4.67359 5.68406 5.53126C4.85789 6.26375 4.28528 7.168 3.95707 8.23854C3.60491 9.38768 3.54258 10.5641 3.66618 11.7555C3.76303 12.6899 4.01658 13.58 4.39656 14.4318C5.15265 16.1264 6.29788 17.5233 7.55967 18.83C8.11925 19.4093 8.70278 19.9624 9.29617 20.5046C10.0209 21.1669 10.7587 21.8139 11.4965 22.4608C12.2945 23.1609 13.0935 23.8596 13.8873 24.5648C14.6145 25.2111 15.3294 25.8711 16.0284 26.5498C16.6665 27.1695 17.3022 27.7917 17.8959 28.4576C17.9702 28.5409 18.0121 28.5453 18.0907 28.4616C18.7207 27.7877 19.3676 27.1324 20.0311 26.4934C20.8615 25.6936 21.7134 24.9189 22.5744 24.1551C23.7559 23.1071 24.9462 22.07 26.1277 21.0224C27.1965 20.0745 28.2354 19.0931 29.1897 18.0204C29.8729 17.2526 30.4994 16.4397 31.0262 15.5478C31.8989 14.0694 32.3951 12.4774 32.3901 10.6478L32.3905 10.6471Z" fill="#F4FAFF"/>
</svg>
