<svg width="100%" height="100%" style="overflow:visible;" preserveAspectRatio="none" viewBox="0 0 223.7 80.79" fill="none" xmlns="http://www.w3.org/2000/svg">
<g filter="url(#filter0_d_246_481)">
<circle cx="22.3953" cy="22.3953" r="22.3953" fill="#F4FAFF"/>
</g>
<g filter="url(#filter1_d_246_481)">
<circle cx="93.8473" cy="22.3953" r="22.3953" fill="#F4FAFF"/>
</g>
<g filter="url(#filter2_d_246_481)">
<circle cx="165.3" cy="22.3953" r="22.3953" fill="#39282F"/>
</g>
<path d="M173.219 23.6081C173.219 25.5261 172.459 27.3656 171.105 28.7218C169.752 30.078 167.916 30.84 166.001 30.84C164.087 30.84 162.251 30.078 160.898 28.7218C159.544 27.3656 158.784 25.5261 158.784 23.6081C158.784 23.1959 158.827 22.7933 158.901 22.4028H156.378V32.038C156.378 32.7082 156.919 33.2506 157.588 33.2506H174.417C174.738 33.25 175.045 33.1219 175.272 32.8946C175.498 32.6673 175.625 32.3592 175.625 32.038V22.4028H173.101C173.176 22.7933 173.219 23.1959 173.219 23.6081ZM166.001 28.4293C166.634 28.4292 167.259 28.3043 167.843 28.0618C168.427 27.8193 168.958 27.4639 169.404 27.016C169.851 26.5681 170.206 26.0364 170.447 25.4512C170.689 24.8661 170.814 24.239 170.813 23.6057C170.813 22.9724 170.689 22.3453 170.447 21.7603C170.205 21.1753 169.85 20.6437 169.403 20.196C168.956 19.7483 168.425 19.3932 167.841 19.151C167.257 18.9088 166.631 18.7843 165.999 18.7844C164.723 18.7847 163.498 19.2931 162.596 20.1977C161.694 21.1023 161.187 22.3291 161.187 23.6081C161.187 24.8871 161.695 26.1136 162.598 27.0177C163.501 27.9219 164.725 28.4297 166.001 28.4293ZM171.776 18.5458H174.66C174.852 18.5458 175.036 18.4696 175.172 18.3341C175.307 18.1985 175.384 18.0146 175.385 17.8226V14.9322C175.385 14.7398 175.308 14.5552 175.173 14.4192C175.037 14.2831 174.853 14.2066 174.66 14.2066H171.776C171.584 14.2066 171.399 14.2831 171.264 14.4192C171.128 14.5552 171.052 14.7398 171.052 14.9322V17.8226C171.054 18.2203 171.379 18.5458 171.776 18.5458ZM166.001 0.466064C159.876 0.466064 154.001 2.90423 149.669 7.2442C145.338 11.5842 142.904 17.4704 142.904 23.6081C142.904 29.7457 145.338 35.632 149.669 39.972C154.001 44.3119 159.876 46.7501 166.001 46.7501C169.035 46.7501 172.038 46.1515 174.84 44.9885C177.643 43.8255 180.189 42.1209 182.334 39.972C184.478 37.823 186.18 35.2719 187.34 32.4641C188.501 29.6564 189.099 26.6471 189.099 23.6081C189.099 20.569 188.501 17.5597 187.34 14.752C186.18 11.9443 184.478 9.39314 182.334 7.2442C180.189 5.09527 177.643 3.39064 174.84 2.22765C172.038 1.06465 169.035 0.466064 166.001 0.466064ZM178.031 32.983C178.031 34.4559 176.828 35.6612 175.358 35.6612H156.645C155.175 35.6612 153.972 34.4559 153.972 32.983V14.2332C153.972 12.7603 155.175 11.5549 156.645 11.5549H175.358C176.828 11.5549 178.031 12.7603 178.031 14.2332V32.983Z" fill="#F4FAFF"/>
<path d="M33.278 12.005C33.1785 11.7174 33.0599 11.6369 32.8762 11.5679C32.4743 11.4145 31.793 11.6446 31.793 11.6446C31.793 11.6446 7.64597 20.3419 6.26811 21.3045C5.96958 21.5116 5.87006 21.6304 5.82413 21.7723C5.58683 22.4588 6.32935 22.7617 6.32935 22.7617L12.5527 24.7942C12.5527 24.7942 12.7862 24.8287 12.8665 24.775C14.2827 23.8777 27.1121 15.7632 27.8508 15.4909C27.9694 15.4564 28.0536 15.4948 28.0307 15.5753C27.736 16.6184 16.5944 26.539 16.5944 26.539C16.5944 26.539 16.5523 26.5927 16.5255 26.6541L16.5102 26.6464L15.9284 32.832C15.9284 32.832 15.6835 34.7264 17.5781 32.832C18.9138 31.4936 20.2037 30.3777 20.8505 29.8331C22.99 31.3134 25.2941 32.9508 26.2854 33.806C26.7829 34.2355 27.204 34.3045 27.5446 34.293C28.4861 34.2585 28.7502 33.2193 28.7502 33.2193C28.7502 33.2193 33.1517 15.4755 33.2972 13.098C33.3125 12.864 33.3316 12.7183 33.3316 12.5573C33.3316 12.3349 33.3125 12.1124 33.278 12.005Z" fill="#39282F"/>
<path d="M91.3507 13.8764C92.2352 13.8764 93.1196 13.8764 94.0041 13.8764C94.1996 13.9034 94.3968 13.9109 94.5926 13.9321C94.7122 13.9454 94.8282 13.9781 94.9482 13.9829C95.0602 13.9878 95.1626 14.0386 95.2737 14.055C95.3408 14.0647 95.4131 14.055 95.4749 14.0802C95.6505 14.1505 95.8371 14.1978 95.995 14.3065C96.1931 14.4431 96.3387 14.6252 96.4163 14.8554C96.4313 14.9005 96.4481 14.9447 96.4635 14.9889C96.4763 15.0261 96.4984 15.0588 96.5094 15.0968C96.5438 15.2188 96.5416 15.3461 96.5539 15.4703C96.5694 15.6263 96.5844 15.7841 96.5853 15.9419C96.5861 16.1306 96.5817 16.3189 96.5636 16.5076C96.5398 16.7565 96.565 17.0071 96.5411 17.2586C96.5067 17.6188 96.5456 17.9826 96.5164 18.3459C96.4904 18.6725 96.5111 19.0027 96.5107 19.3311C96.5107 19.4248 96.5151 19.5185 96.5085 19.6118C96.4904 19.858 96.4763 20.1042 96.4741 20.3513C96.4719 20.5444 96.4736 20.738 96.4741 20.9316C96.4741 20.9647 96.4741 20.9979 96.4811 21.0306C96.5169 21.1986 96.5138 21.3709 96.5332 21.5411C96.5416 21.6154 96.5469 21.6932 96.5725 21.759C96.625 21.896 96.6258 22.0534 96.7299 22.171C96.7401 22.1825 96.7463 22.2015 96.7463 22.2169C96.7463 22.2563 96.7674 22.2846 96.7899 22.3106C96.8133 22.3376 96.8319 22.3668 96.8517 22.3955C96.9201 22.4958 97.0096 22.5802 97.1102 22.6421C97.2523 22.7292 97.4111 22.712 97.5633 22.658C97.7177 22.6032 97.8421 22.498 97.9687 22.3986C98.1023 22.2934 98.2197 22.1701 98.3423 22.0529C98.4151 21.9836 98.4755 21.9009 98.5452 21.8275C98.5929 21.7771 98.6326 21.7184 98.6798 21.6658C98.7376 21.6017 98.7927 21.5345 98.8452 21.4655C98.9087 21.382 98.9705 21.2971 99.0292 21.2101C99.0834 21.1292 99.1523 21.0598 99.2109 20.9824C99.2656 20.9108 99.2987 20.8277 99.353 20.7579C99.4086 20.6863 99.4553 20.6085 99.5069 20.5342C99.6384 20.3451 99.7593 20.1484 99.8859 19.9557C99.9962 19.7881 100.099 19.6167 100.196 19.4412C100.243 19.3581 100.287 19.2715 100.346 19.1985C100.424 19.1026 100.47 18.9895 100.533 18.8856C100.596 18.7839 100.647 18.6752 100.699 18.5673C100.752 18.456 100.818 18.3508 100.874 18.2416C100.92 18.1545 100.958 18.063 101.009 17.9795C101.038 17.9335 101.064 17.888 101.08 17.8363C101.119 17.7161 101.176 17.6025 101.229 17.4893C101.298 17.3412 101.386 17.202 101.444 17.0469C101.491 16.92 101.559 16.8007 101.622 16.6805C101.648 16.6301 101.654 16.5691 101.682 16.52C101.71 16.4709 101.731 16.4201 101.753 16.3693C101.817 16.2199 101.863 16.063 101.94 15.9189C101.959 15.8835 101.975 15.8464 101.982 15.8088C101.994 15.7439 102.022 15.6886 102.055 15.6329C102.072 15.6051 102.082 15.5737 102.093 15.5428C102.141 15.4088 102.185 15.2722 102.256 15.1494C102.322 15.0353 102.403 14.9319 102.498 14.8386C102.55 14.7874 102.603 14.7445 102.673 14.729C102.724 14.7175 102.769 14.695 102.815 14.6702C102.856 14.6481 102.901 14.6349 102.951 14.6349C104.834 14.6358 106.717 14.6358 108.6 14.6358C108.631 14.6358 108.66 14.6455 108.69 14.6508C108.798 14.6689 108.896 14.7206 109.008 14.7277C109.092 14.733 109.179 14.7511 109.251 14.8068C109.272 14.8232 109.297 14.8347 109.322 14.8448C109.407 14.8793 109.475 14.9403 109.531 15.0071C109.582 15.0685 109.638 15.1458 109.645 15.221C109.662 15.3938 109.668 15.5706 109.642 15.743C109.627 15.8398 109.574 15.9304 109.559 16.0272C109.537 16.1708 109.474 16.2995 109.421 16.429C109.379 16.5315 109.325 16.6336 109.272 16.7335C109.18 16.9076 109.11 17.0933 109.008 17.263C108.984 17.3032 108.978 17.3519 108.946 17.3903C108.838 17.522 108.774 17.6811 108.68 17.8217C108.619 17.9123 108.577 18.0166 108.507 18.0984C108.439 18.1779 108.395 18.2703 108.337 18.3547C108.22 18.5249 108.106 18.6969 107.989 18.8675C107.886 19.0191 107.777 19.168 107.671 19.3183C107.621 19.389 107.574 19.462 107.522 19.5318C107.435 19.6498 107.345 19.7652 107.259 19.8836C107.167 20.0096 107.074 20.1338 106.98 20.2571C106.791 20.5055 106.602 20.7544 106.413 21.0028C106.367 21.0638 106.335 21.1354 106.281 21.188C106.177 21.2887 106.098 21.4085 106.017 21.5248C105.888 21.7095 105.74 21.8806 105.603 22.0587C105.513 22.1763 105.436 22.3036 105.34 22.418C105.227 22.552 105.14 22.7067 105.033 22.8463C104.902 23.0183 104.794 23.2066 104.69 23.3962C104.618 23.5288 104.573 23.6733 104.536 23.8192C104.513 23.9085 104.494 23.9999 104.485 24.0914C104.472 24.2125 104.53 24.3244 104.543 24.4424C104.554 24.5303 104.634 24.5794 104.653 24.6599C104.68 24.7726 104.754 24.8583 104.823 24.9432C104.953 25.1036 105.094 25.2557 105.235 25.4068C105.325 25.5036 105.421 25.5938 105.521 25.6818C105.663 25.8077 105.798 25.9434 105.935 26.0756C106.066 26.202 106.211 26.3147 106.338 26.4433C106.501 26.6077 106.675 26.7607 106.836 26.926C106.889 26.9803 106.955 27.021 107.001 27.0833C107.08 27.1876 107.177 27.2752 107.272 27.3649C107.362 27.4502 107.447 27.5404 107.535 27.6279C107.684 27.7764 107.807 27.9523 107.961 28.0942C108.098 28.2206 108.208 28.3664 108.323 28.5092C108.352 28.545 108.393 28.5689 108.418 28.6069C108.54 28.7925 108.689 28.957 108.822 29.1329C108.997 29.364 109.157 29.604 109.304 29.8533C109.403 30.0217 109.51 30.1862 109.571 30.3744C109.58 30.4041 109.577 30.4359 109.595 30.4633C109.638 30.5274 109.655 30.5985 109.653 30.6754C109.651 30.7939 109.652 30.9124 109.652 31.0308C109.652 31.075 109.649 31.1201 109.629 31.1586C109.527 31.3517 109.415 31.5351 109.204 31.6302C109.16 31.6496 109.131 31.6947 109.083 31.7053C109.005 31.7225 108.93 31.7486 108.856 31.7804C108.747 31.8273 108.625 31.8357 108.516 31.8905C108.485 31.9064 108.443 31.9206 108.403 31.9192C108.287 31.9148 108.172 31.9329 108.056 31.9329C106.844 31.9329 105.632 31.9329 104.42 31.9329C104.105 31.9329 103.789 31.929 103.473 31.9343C103.275 31.9378 103.085 31.887 102.91 31.814C102.75 31.7473 102.579 31.7084 102.425 31.6218C102.257 31.5281 102.089 31.4357 101.931 31.327C101.796 31.235 101.669 31.1329 101.543 31.029C101.445 30.949 101.354 30.8629 101.262 30.7767C101.107 30.6308 100.961 30.4752 100.815 30.3192C100.697 30.1923 100.589 30.0549 100.469 29.9298C100.301 29.7548 100.144 29.5713 99.9834 29.3897C99.855 29.2438 99.731 29.0935 99.6009 28.9494C99.5083 28.8469 99.4094 28.7501 99.3164 28.6471C99.2396 28.5618 99.1496 28.488 99.0711 28.404C98.9904 28.3174 98.907 28.2312 98.813 28.1627C98.6516 28.0451 98.4945 27.9174 98.3119 27.8325C98.1694 27.7662 98.0203 27.7172 97.8602 27.7149C97.7715 27.7141 97.6947 27.7636 97.61 27.7799C97.5814 27.7852 97.5505 27.791 97.5249 27.814C97.4137 27.9125 97.2911 27.9965 97.1861 28.1048C97.1023 28.1919 97.033 28.2887 96.9929 28.3947C96.9452 28.5211 96.8588 28.6281 96.8319 28.7656C96.8146 28.854 96.7582 28.9322 96.7397 29.0259C96.7273 29.0891 96.7344 29.1576 96.7004 29.2186C96.6497 29.3088 96.636 29.4078 96.632 29.5117C96.6294 29.5895 96.6192 29.669 96.6025 29.7455C96.5707 29.8891 96.5531 30.0354 96.5411 30.18C96.5204 30.431 96.5464 30.6847 96.5147 30.9367C96.5045 31.0162 96.4931 31.0918 96.46 31.1634C96.4331 31.2218 96.411 31.2814 96.3969 31.3442C96.3889 31.3782 96.3744 31.4105 96.3466 31.4348C96.3228 31.4556 96.3104 31.4856 96.2901 31.5082C96.2054 31.6041 96.1203 31.6978 95.9884 31.7349C95.9037 31.7588 95.819 31.7924 95.7449 31.8388C95.6646 31.8892 95.5803 31.9073 95.4903 31.9201C95.3783 31.936 95.2676 31.9259 95.156 31.9192C94.9857 31.9091 94.8163 31.932 94.6464 31.9316C94.4162 31.9307 94.1854 31.9285 93.9552 31.932C93.5859 31.9382 93.2167 31.9113 92.8475 31.9183C92.8289 31.9183 92.8095 31.9175 92.7919 31.9122C92.6966 31.8852 92.5969 31.8887 92.5003 31.8697C92.3931 31.8485 92.2837 31.8388 92.1778 31.8145C92.0472 31.7844 91.9153 31.761 91.7843 31.7358C91.6264 31.7053 91.4627 31.7075 91.3105 31.6434C91.236 31.612 91.15 31.6138 91.0776 31.586C90.8928 31.5152 90.6969 31.4834 90.5134 31.4092C90.4 31.3632 90.2743 31.3486 90.1689 31.2792C90.1591 31.273 90.145 31.2726 90.1327 31.2708C90.0793 31.2633 90.0277 31.2487 89.9787 31.2275C89.8411 31.1678 89.7057 31.1011 89.5667 31.0463C89.4396 30.9959 89.3188 30.934 89.1953 30.8788C89.0704 30.8226 88.9464 30.7625 88.8251 30.6971C88.5732 30.561 88.3236 30.4204 88.077 30.2741C88.0112 30.2352 87.9486 30.1919 87.8859 30.1481C87.751 30.0531 87.6032 29.9749 87.4735 29.875C87.361 29.7884 87.245 29.7048 87.132 29.6191C86.9273 29.4639 86.7284 29.3026 86.5352 29.1338C86.2872 28.9172 86.0446 28.6953 85.8157 28.4588C85.6299 28.267 85.4473 28.0725 85.2682 27.8749C85.2241 27.8259 85.1765 27.7799 85.135 27.7282C85.0423 27.612 84.9475 27.497 84.8522 27.383C84.7393 27.2482 84.6224 27.1165 84.5117 26.9803C84.4402 26.8924 84.3815 26.7934 84.3074 26.7076C84.1843 26.5649 84.0784 26.4097 83.9638 26.2612C83.8552 26.1207 83.7577 25.9713 83.655 25.8267C83.546 25.6738 83.426 25.5288 83.3232 25.371C83.2557 25.2667 83.1944 25.1575 83.1181 25.0603C83.0453 24.9675 82.9875 24.8645 82.9235 24.7668C82.8283 24.6223 82.7184 24.4875 82.635 24.3345C82.5847 24.2426 82.5155 24.1613 82.4656 24.0693C82.3893 23.9279 82.2962 23.7971 82.2133 23.6601C82.1215 23.508 82.0254 23.359 81.9345 23.2066C81.8701 23.0987 81.8079 22.9891 81.7514 22.8773C81.6998 22.7752 81.6147 22.6969 81.5644 22.594C81.5242 22.5113 81.4828 22.4282 81.4365 22.3491C81.3438 22.1908 81.2481 22.0339 81.1563 21.8753C81.0721 21.7294 80.9927 21.5796 80.9155 21.4288C80.8506 21.302 80.7752 21.1809 80.7068 21.0562C80.6433 20.9409 80.5789 20.826 80.522 20.7075C80.4756 20.6107 80.4139 20.5219 80.3698 20.4251C80.3199 20.3159 80.2564 20.2142 80.2021 20.1082C80.1501 20.0065 80.106 19.9004 80.0513 19.7992C79.9873 19.6816 79.9163 19.5676 79.8563 19.4478C79.8016 19.3382 79.7623 19.2197 79.6842 19.1221C79.6807 19.1176 79.6807 19.1101 79.6794 19.1039C79.6564 19.0005 79.6066 18.9046 79.5554 18.8166C79.4985 18.7185 79.4526 18.6146 79.394 18.5174C79.3049 18.3702 79.2568 18.2014 79.1685 18.0515C79.1187 17.9676 79.086 17.8721 79.0428 17.7828C78.9872 17.6683 78.9418 17.5472 78.8805 17.4372C78.817 17.3236 78.7945 17.1927 78.7159 17.088C78.7076 17.0765 78.6987 17.0628 78.6974 17.0491C78.693 16.9952 78.6661 16.9487 78.6387 16.9063C78.5717 16.8033 78.5448 16.6831 78.4848 16.5766C78.4217 16.4639 78.3807 16.3388 78.3273 16.2203C78.2721 16.0979 78.2038 15.9808 78.1592 15.8552C78.1107 15.7178 78.0604 15.5799 78.0361 15.4349V15.148C78.0445 15.1065 78.0714 15.0747 78.0895 15.038C78.1698 14.8789 78.3092 14.8002 78.4662 14.7388C78.5174 14.7189 78.5717 14.7233 78.6233 14.7038C78.7195 14.6676 78.8196 14.6349 78.9219 14.6349C80.4831 14.6331 82.0443 14.6336 83.6055 14.634C83.628 14.634 83.6536 14.6322 83.673 14.6411C83.782 14.691 83.8985 14.7171 84.011 14.7551C84.1795 14.8121 84.3273 14.9178 84.4464 15.0535C84.5699 15.1945 84.663 15.3531 84.7344 15.5295C84.7878 15.6616 84.8385 15.7969 84.906 15.9246C84.951 16.0091 84.9744 16.1045 85.0181 16.1916C85.0353 16.2261 85.0494 16.2667 85.0631 16.3052C85.1032 16.4153 85.1354 16.5324 85.1963 16.6301C85.2647 16.7397 85.307 16.8603 85.3648 16.9735C85.4244 17.0897 85.4808 17.2086 85.5307 17.3306C85.5845 17.4619 85.6546 17.5861 85.7124 17.7156C85.7336 17.7629 85.7574 17.8084 85.7817 17.854C85.8307 17.9468 85.884 18.0387 85.9242 18.1342C85.9745 18.254 86.0508 18.3587 86.0989 18.4789C86.1134 18.5156 86.147 18.5391 86.1655 18.5753C86.259 18.7574 86.3605 18.9355 86.4544 19.1172C86.4981 19.2021 86.5625 19.2741 86.6031 19.3585C86.6494 19.454 86.7178 19.534 86.7619 19.6304C86.8078 19.7302 86.8753 19.8204 86.93 19.9168C86.9798 20.0047 87.0372 20.0883 87.0919 20.1731C87.1589 20.2766 87.2238 20.3822 87.2922 20.4847C87.3764 20.6116 87.4616 20.738 87.5396 20.8693C87.6173 20.9997 87.7214 21.1141 87.8034 21.2423C87.9283 21.4372 88.0761 21.614 88.2172 21.7957C88.3249 21.934 88.4519 22.0578 88.564 22.1931C88.6796 22.3323 88.83 22.4282 88.9698 22.5369C89.0616 22.6081 89.1692 22.6576 89.2786 22.7027C89.4066 22.7557 89.5296 22.7765 89.6633 22.7327C89.8151 22.6832 89.9359 22.5926 90.0197 22.46C90.085 22.3566 90.1561 22.2545 90.1874 22.1316C90.205 22.0627 90.2443 21.9995 90.2646 21.931C90.2884 21.8505 90.3008 21.767 90.3202 21.6852C90.3374 21.6109 90.3674 21.5385 90.374 21.4633C90.3912 21.2684 90.4119 21.0752 90.4446 20.8816C90.4653 20.757 90.4834 20.6271 90.4856 20.4998C90.4904 20.2465 90.5076 19.9937 90.5116 19.7409C90.5178 19.3382 90.52 18.9351 90.4909 18.5324C90.4759 18.3256 90.494 18.1174 90.4785 17.9097C90.4675 17.7651 90.4397 17.621 90.4525 17.4752C90.4534 17.465 90.4516 17.4535 90.4468 17.4447C90.4128 17.3784 90.415 17.3028 90.4062 17.2334C90.3841 17.0517 90.3727 16.8705 90.333 16.6897C90.2893 16.4904 90.2187 16.3034 90.1428 16.1169C90.104 16.0219 90.0378 15.9406 89.98 15.8548C89.9245 15.7726 89.8601 15.701 89.7855 15.64C89.6298 15.5131 89.452 15.4203 89.2738 15.3302C89.2627 15.3244 89.2517 15.3173 89.2402 15.3156C89.1542 15.3027 89.0739 15.278 88.9954 15.2378C88.9451 15.2121 88.8882 15.1931 88.8282 15.2006C88.7625 15.209 88.7025 15.1785 88.6394 15.1688C88.5927 15.1613 88.5578 15.122 88.5582 15.065C88.56 14.9385 88.6156 14.8356 88.695 14.7419C88.7854 14.6358 88.8851 14.5376 89.002 14.4643C89.1181 14.3913 89.2217 14.3007 89.3558 14.2517C89.4507 14.2172 89.5499 14.196 89.6417 14.1553C89.7304 14.1155 89.8146 14.078 89.9152 14.0665C90.0886 14.0466 90.2571 13.9949 90.4287 13.9604C90.5901 13.9281 90.7529 13.9348 90.9148 13.9158C91.0507 13.8998 91.1883 13.8716 91.3277 13.883C91.3352 13.8835 91.3436 13.8782 91.3511 13.876L91.3507 13.8764Z" fill="#39282F"/>
<defs>
<filter id="filter0_d_246_481" x="-18" y="-5" width="80.7908" height="80.7907" filterUnits="userSpaceOnUse" color-interpolation-filters="sRGB">
<feFlood flood-opacity="0" result="BackgroundImageFix"/>
<feColorMatrix in="SourceAlpha" type="matrix" values="0 0 0 0 0 0 0 0 0 0 0 0 0 0 0 0 0 0 127 0" result="hardAlpha"/>
<feOffset dy="13"/>
<feGaussianBlur stdDeviation="9"/>
<feColorMatrix type="matrix" values="0 0 0 0 0.0658854 0 0 0 0 0.0730469 0 0 0 0 0.1375 0 0 0 0.08 0"/>
<feBlend mode="normal" in2="BackgroundImageFix" result="effect1_dropShadow_246_481"/>
<feBlend mode="normal" in="SourceGraphic" in2="effect1_dropShadow_246_481" result="shape"/>
</filter>
<filter id="filter1_d_246_481" x="53.4519" y="-5" width="80.7908" height="80.7907" filterUnits="userSpaceOnUse" color-interpolation-filters="sRGB">
<feFlood flood-opacity="0" result="BackgroundImageFix"/>
<feColorMatrix in="SourceAlpha" type="matrix" values="0 0 0 0 0 0 0 0 0 0 0 0 0 0 0 0 0 0 127 0" result="hardAlpha"/>
<feOffset dy="13"/>
<feGaussianBlur stdDeviation="9"/>
<feColorMatrix type="matrix" values="0 0 0 0 0.0658854 0 0 0 0 0.0730469 0 0 0 0 0.1375 0 0 0 0.08 0"/>
<feBlend mode="normal" in2="BackgroundImageFix" result="effect1_dropShadow_246_481"/>
<feBlend mode="normal" in="SourceGraphic" in2="effect1_dropShadow_246_481" result="shape"/>
</filter>
<filter id="filter2_d_246_481" x="124.904" y="-5" width="80.7908" height="80.7907" filterUnits="userSpaceOnUse" color-interpolation-filters="sRGB">
<feFlood flood-opacity="0" result="BackgroundImageFix"/>
<feColorMatrix in="SourceAlpha" type="matrix" values="0 0 0 0 0 0 0 0 0 0 0 0 0 0 0 0 0 0 127 0" result="hardAlpha"/>
<feOffset dy="13"/>
<feGaussianBlur stdDeviation="9"/>
<feColorMatrix type="matrix" values="0 0 0 0 0.0658854 0 0 0 0 0.0730469 0 0 0 0 0.1375 0 0 0 0.08 0"/>
<feBlend mode="normal" in2="BackgroundImageFix" result="effect1_dropShadow_246_481"/>
<feBlend mode="normal" in="SourceGraphic" in2="effect1_dropShadow_246_481" result="shape"/>
</filter>
</defs>
</svg>
