<svg width="100%" height="100%" style="overflow:visible;" preserveAspectRatio="none" viewBox="0 0 151 27" fill="none" xmlns="http://www.w3.org/2000/svg">
<path fill-rule="evenodd" clip-rule="evenodd" d="M32.6613 23.4015C32.9548 24.1282 33.2489 24.8545 33.5435 25.5804C33.7564 26.1041 33.9686 26.628 34.1803 27.152C34.2149 27.2378 34.2473 27.3245 34.2847 27.4271L31.9125 27.4267C29.3778 27.4254 26.756 27.4245 24.1775 27.4355C23.9191 27.4363 23.8534 27.3917 23.7768 27.1537C23.5504 26.4526 23.3088 25.7444 23.0748 25.0598L23.0568 25.0071L23.0567 25.0069L23.0566 25.0064C22.8497 24.3993 22.6362 23.7728 22.4346 23.1547C22.2936 22.7223 22.0507 22.5453 21.5974 22.5453H21.5869C18.8055 22.5621 15.8895 22.5621 12.9204 22.5461H12.9116C12.4793 22.5461 12.2453 22.7164 12.1047 23.1332C11.675 24.4079 11.1977 25.7596 10.6446 27.2656C10.6034 27.3322 10.5423 27.3841 10.4699 27.414C7.44561 27.428 4.37135 27.4263 1.39294 27.4247L1.19445 27.4245L0.432617 27.4241C0.44518 27.393 0.457502 27.3619 0.469776 27.331L0.469868 27.3308L0.502057 27.25L0.524081 27.1946L0.524098 27.1946C0.636339 26.9124 0.746047 26.6366 0.859829 26.3626C1.67653 24.3959 2.49336 22.4292 3.31033 20.4627C4.39192 17.8609 5.47253 15.2588 6.55215 12.6564C8.15411 8.79484 9.81037 4.80211 11.451 0.807251C11.5474 0.572166 11.6224 0.52002 11.8686 0.52002H11.8753C15.4593 0.53347 19.2475 0.53347 23.1337 0.520854C23.3968 0.514976 23.4742 0.569226 23.566 0.79801C26.3132 7.64504 29.1164 14.6031 31.8275 21.3316L32.6613 23.4015ZM17.1476 8.95549L14.4715 16.5019H20.139L17.5584 8.99167L17.1476 8.95549ZM56.4051 17.1601C56.7555 16.3754 57.106 15.5906 57.4566 14.8058L57.5576 14.8273V15.2558C57.5576 16.0896 57.5578 16.9235 57.558 17.7573C57.5587 20.8405 57.5594 23.9238 57.5504 27.0074C57.5496 27.3421 57.6397 27.4355 57.976 27.4334C59.8539 27.4228 61.7318 27.424 63.6098 27.4251C64.1971 27.4255 64.7844 27.4258 65.3717 27.4258H65.7677V4.29368C65.7279 4.27649 65.686 4.26421 65.6432 4.25709L63.9157 4.25568H63.9156C61.1869 4.2533 58.8849 4.2513 55.9384 4.26003C55.873 4.27101 55.8111 4.29687 55.7574 4.33559C55.7037 4.37432 55.6596 4.42488 55.6286 4.48335C54.6163 6.78044 52.1732 11.0921 51.0653 13.0474C50.7406 13.6205 50.5306 13.9911 50.5049 14.0493C50.4918 14.0235 50.3977 13.8636 50.2427 13.6C49.3535 12.0877 46.4582 7.16372 45.3274 4.58555C45.2946 4.47258 45.2223 4.37514 45.1236 4.31099C45.0249 4.24684 44.9065 4.22024 44.7899 4.23606C41.4138 4.24574 39.0045 4.25246 35.6284 4.25246H35.229V27.4258H35.6255C36.2247 27.4258 36.8239 27.4253 37.4231 27.4248H37.4232H37.4232H37.4233H37.4233H37.424C39.2776 27.4232 41.1315 27.4215 42.985 27.4355C43.3609 27.438 43.4484 27.3329 43.4472 26.9674C43.4366 23.8903 43.4374 20.8134 43.4383 17.7366V17.7336C43.4385 16.8943 43.4388 16.0551 43.4388 15.2159V14.8189L43.5351 14.8126C43.5621 14.8736 43.5892 14.9345 43.6163 14.9954L43.6163 14.9955L43.6164 14.9956L43.6164 14.9957L43.6164 14.9957C43.6774 15.1328 43.7384 15.2697 43.797 15.4077C45.3773 19.1339 46.9542 22.8616 48.5275 26.5906C48.5504 26.677 48.6036 26.7523 48.6773 26.8029C48.7511 26.8534 48.8406 26.8758 48.9295 26.8661C49.8887 26.8526 50.8484 26.8543 51.8076 26.8648C51.8964 26.8742 51.9856 26.8519 52.0596 26.8018C52.1335 26.7518 52.1874 26.6773 52.2117 26.5915C53.6074 23.4467 55.0052 20.3029 56.4051 17.1601ZM122.695 11.0358C122.067 8.60964 120.416 6.99682 118.282 5.83272C116.179 4.68503 113.897 4.20223 111.516 4.22199C109.218 4.24089 106.921 4.22735 104.624 4.21382C102.013 4.19843 99.4022 4.18305 96.7917 4.21527C96.7446 4.21582 96.6978 4.22069 96.6411 4.22657C96.611 4.22969 96.5783 4.23309 96.5413 4.23629V27.4694H105.889V22.1485L105.844 16.0211L105.841 16.0228L105.837 16.0244L105.837 16.0244C105.835 16.0255 105.833 16.0265 105.831 16.0278V11.0985C106.153 10.8033 106.495 10.5269 106.83 10.2572C107.486 9.72717 108.112 9.2226 108.485 8.65042C108.786 8.18881 108.984 7.72389 109.137 7.36399L109.137 7.36394C109.302 6.97597 109.415 6.71007 109.549 6.702C110.049 6.67256 110.195 8.64244 110.195 8.64244C110.195 8.64244 110.824 7.87997 111.297 7.73487C111.613 7.63773 111.915 7.80217 111.59 8.31273C111.452 8.51148 111.337 8.7254 111.248 8.95028C111.178 9.206 111.145 9.47041 111.15 9.73546C112.599 10.2069 112.762 10.7856 112.762 10.7856C112.792 11.0117 112.899 11.2205 113.065 11.3773C113.231 11.534 113.446 11.6293 113.673 11.6473C114.308 11.7562 114.93 11.9307 115.529 12.1679C116.088 12.2798 115.799 13.0646 115.597 13.0301C115.626 15.2111 113.722 15.3742 112.629 15.1728C112.629 15.1728 106.819 13.9843 107.306 20.8457C107.541 20.8557 107.776 20.8664 108.01 20.8771L108.011 20.8771L108.011 20.8771C110.288 20.981 112.566 21.0849 114.823 20.5992C117.266 20.0735 119.462 19.073 121.133 17.1549C122.674 15.3873 123.291 13.3409 122.695 11.0358ZM94.3454 4.24982V27.4669L86.5646 27.4669V13.2673C86.1988 13.9781 79.7472 24.4684 78.0253 27.1919C78.0035 27.2789 77.9507 27.355 77.877 27.406C77.8032 27.4571 77.7133 27.4796 77.6241 27.4694C75.4127 27.4648 74.0128 27.4695 72.5274 27.4745H72.5271H72.5266H72.5258H72.5253C71.3236 27.4786 70.0657 27.4829 68.2767 27.4825C68.2137 27.4825 68.1508 27.478 68.0882 27.4735L68.049 27.4707C68.038 27.4699 68.0269 27.4692 68.0159 27.4685C68.0089 27.4681 68.002 27.4677 67.9951 27.4673V4.25486H75.7499V18.5865C75.7885 18.5572 76.9553 16.6452 78.4403 14.2119L78.4409 14.211L78.441 14.2108C80.5798 10.7062 83.3783 6.12041 84.4171 4.51981C84.4409 4.42827 84.4976 4.3487 84.5764 4.29639C84.6553 4.24408 84.7507 4.2227 84.8443 4.23637C86.6439 4.23956 88.7078 4.24158 90.4514 4.24328H90.4516L90.452 4.24328C92.6138 4.24539 94.283 4.24703 94.3454 4.24982ZM141.932 4.20969C141.838 4.19597 141.742 4.21732 141.664 4.26965C141.585 4.32197 141.528 4.40157 141.504 4.49315C140.464 6.09578 137.66 10.69 135.521 14.1961C134.039 16.6244 132.875 18.5308 132.837 18.5598V4.2282H125.082V27.4407C125.113 27.4424 125.144 27.4446 125.176 27.4468C125.238 27.4513 125.301 27.4558 125.363 27.4558C127.136 27.4561 128.387 27.4521 129.578 27.4482H129.578C130.04 27.4467 130.493 27.4452 130.964 27.444L135.474 27.4432C136.558 27.2628 137.872 26.6828 138.045 24.9426C137.858 23.0072 138.976 21.976 139.274 21.7182C139.544 21.4897 139.801 21.2464 140.045 20.9894C140.272 20.8615 140.686 20.102 140.698 19.7597C140.71 19.4169 140.247 19.0485 140.247 19.0485C140.016 18.8428 139.768 18.6569 139.506 18.4925C138.995 18.144 139.021 17.3651 139.036 16.8729L139.039 16.7868C139.052 16.304 139.242 16.259 139.644 16.2426C140.023 16.2275 140.284 16.0625 140.612 15.8545L140.672 15.817C140.757 15.7633 140.834 15.7048 140.91 15.647C141.152 15.4624 141.385 15.285 141.853 15.2946C142.219 15.3026 142.576 15.1831 142.864 14.9565L142.904 14.9435C142.904 14.9435 143.216 13.1048 143.432 13.0998C143.617 13.0955 144.097 14.5927 144.493 15.8258L144.493 15.826C144.559 16.0327 144.623 16.2319 144.683 16.4154L144.712 16.5046C144.986 17.3426 145.21 18.0275 145.09 19.4623C145.092 19.4615 145.097 19.4586 145.097 19.4586C145.097 19.4586 144.952 21.3258 145.281 22.3145C145.495 22.8342 145.792 23.3164 146.158 23.7427C147.235 24.7413 148.081 25.9625 148.637 27.3212C148.647 27.3447 148.656 27.3684 148.665 27.3921C148.671 27.4083 148.677 27.4245 148.684 27.4407L149.771 27.4402H151.433V4.22357C151.371 4.22084 149.765 4.21921 147.664 4.21709H147.664L147.663 4.21709C145.894 4.2153 143.774 4.21315 141.932 4.20969ZM135.175 27.4852L134.001 27.4928C134.391 27.5313 134.785 27.5288 135.175 27.4852Z" fill="#F4FAFF"/>
</svg>
