<svg width="100%" height="100%" style="overflow:visible;" preserveAspectRatio="none" viewBox="0 0 40.01 28.05" fill="none" xmlns="http://www.w3.org/2000/svg">
<path fill-rule="evenodd" clip-rule="evenodd" d="M0.429199 1.49561C0.429199 0.943321 0.876914 0.495605 1.4292 0.495605H39.4362C39.9885 0.495605 40.4362 0.943321 40.4362 1.49561C40.4362 2.04789 39.9885 2.49561 39.4362 2.49561H1.4292C0.876914 2.49561 0.429199 2.04789 0.429199 1.49561ZM0.429199 14.5201C0.429199 13.9678 0.876914 13.5201 1.4292 13.5201H39.4362C39.9885 13.5201 40.4362 13.9678 40.4362 14.5201C40.4362 15.0723 39.9885 15.5201 39.4362 15.5201H1.4292C0.876914 15.5201 0.429199 15.0723 0.429199 14.5201ZM1.4292 26.5443C0.876914 26.5443 0.429199 26.992 0.429199 27.5443C0.429199 28.0966 0.876914 28.5443 1.4292 28.5443H39.4362C39.9885 28.5443 40.4362 28.0966 40.4362 27.5443C40.4362 26.992 39.9885 26.5443 39.4362 26.5443H1.4292Z" fill="#F4FAFF"/>
</svg>
