<svg width="100%" height="100%" style="overflow:visible;" preserveAspectRatio="none" viewBox="0 0 28.04 36" fill="none" xmlns="http://www.w3.org/2000/svg">
<path fill-rule="evenodd" clip-rule="evenodd" d="M14.4813 0.717041C13.4865 0.717041 12.5425 0.922742 11.6467 1.30079L11.6467 1.30073L11.6352 1.30573C10.738 1.69618 9.93304 2.24612 9.24388 2.97814C8.55455 3.69996 8.02464 4.53053 7.6577 5.46242C7.29125 6.39306 7.1079 7.3617 7.1079 8.37094V9.42909H1.60132H0.476318V10.5541V35.568V36.693H1.60132H27.3908H28.5158V35.568V10.5541V9.42909H27.3908H21.8646V8.37094C21.8646 6.36149 21.1003 4.41208 19.714 2.97311C19.0326 2.26075 18.2318 1.69933 17.3275 1.30573C16.4154 0.908775 15.4565 0.717041 14.4813 0.717041ZM19.6146 11.6791V13.97H21.8646V11.6791H26.2658V34.443H2.72632V11.6791H7.1079V13.97H9.3579V11.6791H19.6146ZM19.6146 9.42909V8.37094C19.6146 6.92471 19.063 5.53968 18.0925 4.533L18.0891 4.52956C17.6116 4.02994 17.0571 3.64193 16.4296 3.3688C15.809 3.09872 15.1566 2.96704 14.4813 2.96704C13.808 2.96704 13.1623 3.10413 12.5273 3.37131C11.8957 3.64707 11.3479 4.02505 10.8799 4.52282L10.8734 4.52969L10.8734 4.52967C10.3854 5.04007 10.0125 5.62327 9.75125 6.28677C9.48892 6.95298 9.3579 7.64183 9.3579 8.37094V9.42909H19.6146Z" fill="#F4FAFF"/>
</svg>
