<svg width="100%" height="100%" style="overflow:visible;" preserveAspectRatio="none" viewBox="0 0 34.52 31.49" fill="none" xmlns="http://www.w3.org/2000/svg">
<path d="M15.5635 3.60666L16.3735 4.42666L17.1735 3.60666C18.0535 2.70666 20.0635 1.11666 22.4635 0.446656C24.7835 -0.203344 27.4835 -0.00334406 30.0535 2.61666C32.6235 5.24666 32.8335 8.03666 32.1835 10.4367C31.5235 12.9167 29.9635 14.9767 29.0835 15.8767L21.5935 23.5467L17.3935 27.8367L16.3535 28.8967L15.3135 27.8367L11.1135 23.5467L3.63348 15.8867C2.75348 14.9867 1.19348 12.9267 0.533478 10.4467C-0.106522 8.03666 0.0934775 5.25666 2.66348 2.62666C5.23348 -0.00334454 7.92348 -0.193344 10.2535 0.456656C12.6635 1.12666 14.6735 2.72666 15.5435 3.62666L15.5635 3.60666Z" stroke="#F4FAFF" stroke-width="2.25"/>
</svg>
