<svg width="100%" height="100%" style="overflow:visible;" preserveAspectRatio="none" viewBox="0 0 36.01 36" fill="none" xmlns="http://www.w3.org/2000/svg">
<path fill-rule="evenodd" clip-rule="evenodd" d="M23.6361 14.1938C23.6361 14.5639 23.5961 14.924 23.5261 15.2941C23.4561 15.6642 23.3461 16.0043 23.2061 16.3544C23.0661 16.7045 22.8961 17.0246 22.6861 17.3247C22.4761 17.6248 22.2461 17.9149 21.9861 18.1749C21.7261 18.435 21.4361 18.6651 21.1361 18.8751C20.8261 19.0852 20.5061 19.2552 20.1661 19.3953C19.8261 19.5353 19.4761 19.6453 19.1061 19.7154C18.7461 19.7854 18.3761 19.8254 18.0061 19.8254C17.6361 19.8254 17.2661 19.7854 16.9061 19.7154C16.5461 19.6453 16.1961 19.5353 15.8461 19.3953C15.5061 19.2552 15.1761 19.0852 14.8761 18.8751C14.5661 18.6651 14.2861 18.435 14.0261 18.1749C13.7661 17.9149 13.5361 17.6248 13.3261 17.3247C13.1161 17.0146 12.9461 16.6945 12.8061 16.3544C12.6661 16.0143 12.5561 15.6642 12.4861 15.2941C12.4161 14.934 12.3761 14.5639 12.3761 14.1938C12.3761 13.8237 12.4161 13.4536 12.4861 13.0935C12.5561 12.7334 12.6661 12.3833 12.8061 12.0332C12.9461 11.6831 13.1161 11.363 13.3261 11.0629C13.5361 10.7529 13.7661 10.4728 14.0261 10.2127C14.2861 9.95264 14.5761 9.72257 14.8761 9.51252C15.1861 9.30246 15.5061 9.13241 15.8461 8.99237C16.1861 8.85233 16.5361 8.7423 16.9061 8.67228C17.2661 8.60226 17.6361 8.56225 18.0061 8.56225C18.3761 8.56225 18.7461 8.60226 19.1061 8.67228C19.4661 8.7423 19.8161 8.85233 20.1661 8.99237C20.5061 9.13241 20.8361 9.30246 21.1361 9.51252C21.4361 9.72257 21.7261 9.95264 21.9861 10.2127C22.2461 10.4728 22.4761 10.7629 22.6861 11.0629C22.8961 11.363 23.0661 11.6931 23.2061 12.0332C23.3461 12.3733 23.4561 12.7234 23.5261 13.0935C23.5961 13.4636 23.6361 13.8237 23.6361 14.1938ZM21.3861 14.1938C21.3861 14.6439 21.2961 15.0741 21.1261 15.4842C20.9561 15.8943 20.7061 16.2644 20.3961 16.5745C20.0761 16.8946 19.7161 17.1346 19.3061 17.3047C18.8961 17.4747 18.4661 17.5648 18.0161 17.5648C17.5661 17.5648 17.1361 17.4747 16.7261 17.3047C16.3161 17.1346 15.9461 16.8846 15.6361 16.5745C15.3161 16.2544 15.0761 15.8943 14.9061 15.4842C14.7361 15.0741 14.6461 14.6439 14.6461 14.1938C14.6461 13.7437 14.7361 13.3136 14.9061 12.9035C15.0761 12.4933 15.3261 12.1232 15.6361 11.8032C15.9561 11.4831 16.3161 11.243 16.7261 11.073C17.1361 10.9029 17.5661 10.8129 18.0161 10.8129C18.4661 10.8129 18.8961 10.9029 19.3061 11.073C19.7161 11.243 20.0861 11.4931 20.3961 11.8032C20.7161 12.1232 20.9561 12.4833 21.1261 12.9035C21.2961 13.3136 21.3861 13.7437 21.3861 14.1938ZM36.0061 18.515C36.0061 23.2463 34.1861 27.5475 31.2061 30.7584C30.3661 31.6687 29.4361 32.4789 28.4261 33.1991C27.4161 33.9193 26.3461 34.5295 25.2061 35.0196C24.0661 35.5197 22.8961 35.8898 21.6861 36.1399C20.4761 36.39 19.2461 36.52 18.0061 36.52C14.8061 36.52 11.8261 35.7298 9.05609 34.1394C7.67609 33.3491 6.43609 32.3989 5.30609 31.2786C4.18609 30.1582 3.22609 28.9179 2.42609 27.5475C1.63609 26.1771 1.02609 24.7267 0.616089 23.1963C0.206089 21.6659 -0.00390625 20.1055 -0.00390625 18.525C-0.00390625 8.58226 8.05609 0.52002 17.9961 0.52002C27.9361 0.52002 35.9961 8.58226 35.9961 18.525L36.0061 18.515ZM18.0061 22.116C19.2061 22.116 20.3861 22.2661 21.5461 22.5561C22.7061 22.8462 23.8161 23.2863 24.8661 23.8565C25.9161 24.4267 26.8861 25.1168 27.7661 25.9271C28.6461 26.7373 29.4161 27.6476 30.0661 28.6478C31.2561 27.2274 32.1761 25.647 32.8061 23.9065C33.4361 22.166 33.7561 20.3655 33.7561 18.515C33.7561 9.8126 26.7061 2.76064 18.0061 2.76064C9.30609 2.76064 2.25609 9.8126 2.25609 18.515C2.25609 22.3761 3.64609 25.9071 5.94609 28.6478C6.59609 27.6476 7.36609 26.7373 8.24609 25.9271C9.12609 25.1168 10.0961 24.4267 11.1461 23.8565C12.1961 23.2863 13.3061 22.8562 14.4661 22.5561C15.6261 22.2661 16.8061 22.116 18.0061 22.116ZM18.0061 34.2694C22.0161 34.2694 25.6761 32.769 28.4461 30.3083C27.9061 29.398 27.2661 28.5778 26.5061 27.8476C25.7561 27.1074 24.9161 26.4772 24.0061 25.9571C23.0861 25.4369 22.1261 25.0368 21.1061 24.7768C20.0861 24.5067 19.0561 24.3766 17.9961 24.3766C16.9461 24.3766 15.9061 24.5067 14.8861 24.7768C13.8661 25.0468 12.8961 25.4369 11.9861 25.9671C11.0661 26.4872 10.2361 27.1174 9.48609 27.8576C8.73609 28.5978 8.08609 29.418 7.54609 30.3183C8.98609 31.5986 10.6061 32.5789 12.4061 33.2591C14.2061 33.9393 16.0661 34.2794 17.9961 34.2794L18.0061 34.2694Z" fill="#F4FAFF"/>
</svg>
