<svg width="100%" height="100%" style="overflow:visible;" preserveAspectRatio="none" viewBox="0 0 151 30" fill="none" xmlns="http://www.w3.org/2000/svg">
<g clip-path="url(#clip0_246_1821)">
<path d="M35.1508 3.71928V2.46199H35.3428C35.4058 2.42105 35.4616 2.36991 35.5078 2.3107C35.5569 2.2556 35.5991 2.19481 35.6336 2.12965C35.6765 2.0465 35.7033 1.95609 35.7128 1.8631L35.911 0.0333252H37.9339V2.46199H38.3308V3.71928H37.7554V3.02149H35.7262V3.71928H35.1508ZM37.3391 2.46199V0.59282H36.4333L36.2949 1.86311C36.2886 1.95554 36.2684 2.04652 36.2351 2.13301C36.2107 2.19535 36.1796 2.25492 36.1425 2.3107C36.1111 2.36711 36.0709 2.41818 36.0234 2.46199L37.3391 2.46199Z" fill="white"/>
<path d="M39.3553 3.02136V2.52097H39.4348C39.4984 2.5256 39.5623 2.5172 39.6226 2.4963C39.6828 2.47539 39.7381 2.44243 39.785 2.39943C39.874 2.29311 39.9231 2.15934 39.9239 2.02098L40.0889 0.0332031H42.1913V3.02137H41.5962V0.573H40.6045L40.5056 2.05367C40.5024 2.32639 40.4015 2.58901 40.2211 2.79421C40.1364 2.88072 40.0344 2.94855 39.9218 2.99331C39.8091 3.03807 39.6882 3.05876 39.567 3.05405C39.4952 3.0532 39.4239 3.04219 39.3553 3.02136Z" fill="white"/>
<path d="M43.7117 3.02126L44.4058 1.91568C44.3008 1.86806 44.2037 1.80475 44.1179 1.72793C44.036 1.64728 43.9679 1.55384 43.9163 1.45132C43.8504 1.31508 43.8188 1.16491 43.8241 1.01378C43.8227 0.880641 43.8485 0.748603 43.8999 0.625698C43.9494 0.508815 44.0226 0.403376 44.115 0.315991C44.2105 0.226232 44.3228 0.155904 44.4454 0.10895C44.5825 0.0566081 44.7283 0.0308594 44.8751 0.0330928H46.1905V3.02125H45.5957V1.99446H45.0203L44.3726 3.02126L43.7117 3.02126ZM45.6088 1.46137V0.566189H44.9012C44.8355 0.565281 44.7704 0.577687 44.7097 0.602653C44.6534 0.625959 44.6019 0.659338 44.5578 0.701135C44.5142 0.742195 44.4793 0.791492 44.4551 0.846146C44.4314 0.89892 44.4191 0.956009 44.4189 1.01378C44.4184 1.07272 44.4307 1.13106 44.4551 1.18478C44.4798 1.23817 44.5147 1.28627 44.5578 1.32643C44.6019 1.36836 44.6534 1.40188 44.7097 1.42533C44.7705 1.44996 44.8356 1.46221 44.9012 1.46137L45.6088 1.46137Z" fill="white"/>
<path d="M50.6327 2.10652C50.6447 2.21122 50.694 2.30816 50.7716 2.37978C50.8212 2.42511 50.8781 2.46181 50.94 2.48833C51.0207 2.52135 51.1074 2.53706 51.1946 2.53443C51.3286 2.54277 51.4607 2.5004 51.5646 2.41582C51.6057 2.38223 51.6389 2.34003 51.6619 2.29223C51.6848 2.24442 51.6968 2.19218 51.6972 2.13921C51.6968 2.08852 51.685 2.03856 51.6626 1.99301C51.6402 1.94746 51.6079 1.90749 51.568 1.87602C51.4613 1.79474 51.3286 1.75496 51.1946 1.76413H50.9168V1.25073H51.1946C51.3094 1.25648 51.4222 1.22026 51.512 1.1489C51.5497 1.11829 51.5801 1.07959 51.6007 1.03569C51.6213 0.991784 51.6317 0.943808 51.6311 0.895341C51.6326 0.84486 51.6227 0.794689 51.6021 0.748548C51.5815 0.702408 51.5507 0.66148 51.512 0.6288C51.4222 0.557427 51.3094 0.521204 51.1946 0.526959C51.1124 0.524348 51.0305 0.53773 50.9535 0.566353C50.8949 0.589213 50.8412 0.6226 50.7948 0.664847C50.7554 0.700942 50.7238 0.744737 50.7022 0.7935C50.6845 0.83215 50.6723 0.873055 50.666 0.915041H50.0973C50.1084 0.786692 50.1409 0.661069 50.1933 0.543305C50.243 0.432512 50.3176 0.334573 50.4113 0.257055C50.5125 0.174397 50.6278 0.110774 50.7519 0.0693018C50.8967 0.0211999 51.0487 -0.00217722 51.2014 0.000159332C51.3413 -0.0015126 51.4802 0.0230807 51.6109 0.0726512C51.8415 0.159785 52.0297 0.331707 52.1366 0.55295C52.1866 0.655639 52.2127 0.76824 52.2128 0.882351C52.2155 0.97858 52.1962 1.07416 52.1564 1.16189C52.1248 1.22989 52.0837 1.2931 52.0343 1.34964C51.9811 1.40773 51.9185 1.4566 51.8491 1.49423C51.9291 1.53883 52.0025 1.59426 52.0672 1.65894C52.1257 1.71936 52.1748 1.78815 52.2128 1.86304C52.2582 1.95276 52.2809 2.05219 52.2789 2.15264C52.2793 2.27301 52.2533 2.39201 52.2027 2.50133C52.1523 2.61079 52.0791 2.70835 51.988 2.78756C51.8888 2.87278 51.7745 2.93875 51.6509 2.98203C51.5065 3.03214 51.3543 3.05655 51.2014 3.05412C51.0443 3.05652 50.8879 3.03331 50.7384 2.98539C50.6094 2.94366 50.4903 2.87636 50.3882 2.78756C50.293 2.70459 50.2165 2.60264 50.1634 2.48833C50.1088 2.36761 50.0752 2.23849 50.0641 2.10653L50.6327 2.10652Z" fill="white"/>
<path d="M53.4421 3.71928V2.46199H53.634C53.6971 2.42095 53.753 2.36983 53.7994 2.3107C53.8482 2.25547 53.8903 2.1947 53.9249 2.12965C53.9677 2.0465 53.9946 1.95609 54.004 1.8631L54.2026 0.0333252H56.2251V2.46199H56.622V3.71928H56.0466V3.02149H54.0175V3.71928H53.4421ZM55.6304 2.46199V0.59282H54.7246L54.5861 1.86311C54.5798 1.95554 54.5597 2.04652 54.5263 2.13301C54.5019 2.19535 54.4708 2.25492 54.4337 2.3107C54.4023 2.36711 54.3621 2.41818 54.3146 2.46199L55.6304 2.46199Z" fill="white"/>
<path d="M58.7703 2.93914C58.5971 2.86461 58.4407 2.75599 58.3107 2.61979C58.1777 2.47935 58.0723 2.3153 58.0001 2.13616C57.9216 1.94273 57.8823 1.7358 57.8843 1.52721C57.8821 1.31969 57.9215 1.11381 58.0001 0.921607C58.0735 0.743091 58.1787 0.57925 58.3107 0.437971C58.4401 0.300243 58.5965 0.190414 58.7703 0.115271C58.9453 0.038718 59.1344 -0.000542963 59.3255 9.78385e-06C59.5157 -0.000712502 59.7038 0.0385646 59.8777 0.115271C60.0507 0.191583 60.2068 0.301261 60.3369 0.437971C60.4703 0.578165 60.5757 0.74228 60.6475 0.921607C60.724 1.11433 60.7622 1.32 60.7599 1.52721C60.762 1.73549 60.7239 1.94222 60.6475 2.13616C60.5769 2.3161 60.4713 2.48044 60.3369 2.61979C60.2062 2.75497 60.0502 2.86345 59.8777 2.93914C59.7038 3.01584 59.5156 3.05512 59.3255 3.05439C59.1344 3.05495 58.9453 3.01569 58.7703 2.93914ZM59.6428 2.42574C59.7449 2.3792 59.8361 2.31197 59.9105 2.22836C59.9904 2.13825 60.0531 2.03444 60.0957 1.92199C60.1883 1.66687 60.1883 1.38753 60.0957 1.13241C60.0531 1.02001 59.9903 0.916227 59.9105 0.826054C59.8361 0.742438 59.7449 0.675206 59.6428 0.628656C59.5433 0.582967 59.435 0.559374 59.3255 0.559514C59.2138 0.558877 59.1034 0.582472 59.0018 0.628656C58.8997 0.675207 58.8086 0.742438 58.7341 0.826054C58.6542 0.91612 58.5914 1.01993 58.5489 1.13241C58.4563 1.38753 58.4563 1.66687 58.5489 1.92199C58.5913 2.03452 58.6541 2.13835 58.7341 2.22836C58.8086 2.31197 58.8997 2.3792 59.0018 2.42574C59.1034 2.47194 59.2138 2.49554 59.3255 2.4949C59.435 2.49504 59.5433 2.47144 59.6428 2.42574Z" fill="white"/>
<path d="M62.3069 4.07443V0.0330739H62.743L62.8756 0.349073C62.9464 0.284037 63.0238 0.226586 63.1067 0.177667C63.194 0.128436 63.2859 0.0877319 63.3811 0.0561246C63.5038 0.0165022 63.6322 -0.00247795 63.7612 -3.50738e-05C63.947 -0.000745177 64.1308 0.0385744 64.2999 0.115227C64.4677 0.190994 64.6192 0.298289 64.7461 0.431226C64.8771 0.57024 64.9794 0.733574 65.047 0.911914C65.1924 1.30945 65.1924 1.74527 65.047 2.14281C64.9789 2.32179 64.8767 2.48601 64.7461 2.62644C64.6205 2.76093 64.4687 2.86847 64.2999 2.94244C64.1303 3.01704 63.9467 3.05517 63.7612 3.05434C63.6356 3.05668 63.5104 3.03769 63.3912 2.99819C63.2979 2.96685 63.2081 2.92613 63.1231 2.87665C63.0425 2.82631 62.9682 2.76666 62.9017 2.69895V4.07443L62.3069 4.07443ZM64.0322 2.4257C64.1369 2.38027 64.2305 2.31295 64.3067 2.22831C64.3867 2.13782 64.4504 2.03415 64.4948 1.92194C64.5449 1.79639 64.5696 1.66224 64.5676 1.52716C64.5694 1.3924 64.5458 1.2585 64.4982 1.13236C64.4553 1.01941 64.3915 0.915493 64.31 0.826006C64.2319 0.741351 64.1368 0.673908 64.0309 0.628006C63.925 0.582105 63.8106 0.558758 63.6951 0.559466C63.5813 0.559303 63.4688 0.582856 63.3647 0.628609C63.2599 0.673824 63.1663 0.741179 63.0903 0.826006C63.0105 0.916173 62.9477 1.01996 62.9051 1.13236C62.8125 1.38748 62.8125 1.66682 62.9051 1.92194C62.9478 2.03504 63.0118 2.13901 63.0936 2.22831C63.1706 2.31212 63.264 2.37931 63.368 2.4257C63.4709 2.47165 63.5824 2.49523 63.6951 2.49485C63.8111 2.49549 63.9259 2.47194 64.0322 2.4257Z" fill="white"/>
<path d="M67.4101 2.93914C67.2369 2.86461 67.0805 2.75599 66.9505 2.61979C66.8175 2.47935 66.7121 2.3153 66.6399 2.13616C66.5614 1.94273 66.5221 1.7358 66.5241 1.52721C66.5219 1.31969 66.5613 1.11381 66.6399 0.921607C66.7133 0.743091 66.8186 0.57925 66.9505 0.437971C67.0799 0.300244 67.2364 0.190414 67.4101 0.115271C67.5851 0.038718 67.7742 -0.000542963 67.9653 9.78385e-06C68.1555 -0.000712502 68.3437 0.0385646 68.5175 0.115271C68.6905 0.191583 68.8466 0.301261 68.9767 0.437971C69.1101 0.578165 69.2155 0.74228 69.2874 0.921607C69.3638 1.11433 69.402 1.32 69.3998 1.52721C69.4019 1.73549 69.3637 1.94222 69.2874 2.13616C69.2167 2.3161 69.1112 2.48044 68.9767 2.61979C68.846 2.75497 68.69 2.86345 68.5175 2.93914C68.3437 3.01584 68.1555 3.05512 67.9653 3.05439C67.7742 3.05495 67.5851 3.01569 67.4101 2.93914ZM68.2827 2.42574C68.3847 2.3792 68.4759 2.31197 68.5504 2.22836C68.6302 2.13825 68.693 2.03444 68.7356 1.92199C68.8282 1.66687 68.8282 1.38753 68.7356 1.13241C68.6929 1.02001 68.6301 0.916227 68.5504 0.826054C68.4759 0.742438 68.3847 0.675207 68.2827 0.628656C68.1832 0.582967 68.0749 0.559374 67.9653 0.559514C67.8536 0.558878 67.7432 0.582473 67.6416 0.628656C67.5396 0.675207 67.4484 0.742438 67.3739 0.826054C67.294 0.91612 67.2312 1.01993 67.1887 1.13241C67.0961 1.38753 67.0961 1.66687 67.1887 1.92199C67.2312 2.03452 67.2939 2.13835 67.3739 2.22836C67.4484 2.31197 67.5396 2.3792 67.6416 2.42574C67.7432 2.47194 67.8536 2.49554 67.9653 2.4949C68.0749 2.49504 68.1832 2.47144 68.2827 2.42574Z" fill="white"/>
<path d="M70.9465 3.0213V0.0331414H72.3216C72.4457 0.0317962 72.5689 0.0529586 72.6853 0.0955928C72.7886 0.132806 72.883 0.190935 72.9627 0.266313C73.0423 0.341691 73.1053 0.432682 73.1479 0.533544C73.1921 0.635232 73.2147 0.744995 73.2139 0.85583C73.2166 0.951811 73.1986 1.04725 73.1613 1.13579C73.0983 1.27236 72.9944 1.38613 72.8638 1.46143C73.0322 1.53462 73.1675 1.66714 73.2438 1.83357C73.2932 1.93728 73.317 2.05122 73.3133 2.16593C73.3139 2.2811 73.2915 2.39523 73.2472 2.50163C73.2049 2.60424 73.1418 2.69711 73.062 2.77446C72.9812 2.85254 72.8858 2.91405 72.7813 2.9555C72.6666 3.00066 72.5442 3.02301 72.421 3.0213L70.9465 3.0213ZM71.5417 1.26403H72.229C72.3332 1.26927 72.4353 1.23378 72.5136 1.16513C72.548 1.13337 72.5752 1.09466 72.5935 1.05159C72.6117 1.00851 72.6205 0.962062 72.6192 0.91534C72.6211 0.865981 72.6127 0.816761 72.5946 0.770803C72.5764 0.724846 72.5488 0.683154 72.5136 0.648376C72.4753 0.613506 72.4304 0.58655 72.3815 0.569069C72.3327 0.551587 72.2809 0.543929 72.229 0.546536H71.5417V1.26403ZM71.5417 2.51461H72.3284C72.3805 2.5147 72.4321 2.5046 72.4803 2.48486C72.528 2.46569 72.5717 2.43783 72.6091 2.40271C72.6468 2.36729 72.6752 2.32328 72.692 2.27446C72.7094 2.22473 72.7183 2.17247 72.7185 2.11982C72.7183 2.0714 72.7093 2.02342 72.692 1.97816C72.6745 1.93248 72.646 1.89176 72.6091 1.85956C72.5709 1.82633 72.5274 1.7997 72.4803 1.78077C72.4321 1.76103 72.3805 1.75091 72.3284 1.751H71.5417V2.51461Z" fill="white"/>
<path d="M74.8598 3.02137V0.0332031H75.455V1.06669H76.1558C76.3012 1.06434 76.4457 1.08878 76.5822 1.13878C76.7019 1.18345 76.8111 1.25204 76.9032 1.34033C76.9953 1.42862 77.0682 1.53475 77.1176 1.65217C77.1953 1.83413 77.2167 2.03507 77.179 2.22921C77.1412 2.42335 77.0461 2.60185 76.9059 2.74182C76.8138 2.83276 76.7035 2.90331 76.5822 2.94887C76.4458 2.9992 76.3012 3.02378 76.1558 3.02136L74.8598 3.02137ZM75.455 2.48827H76.1226C76.1869 2.48864 76.2508 2.47742 76.3111 2.45517C76.3683 2.43467 76.421 2.40353 76.4664 2.36339C76.5099 2.32427 76.5438 2.27583 76.5658 2.22173C76.5882 2.16401 76.5993 2.10256 76.5986 2.04068C76.5986 1.98382 76.5862 1.92764 76.5624 1.87597C76.5376 1.82278 76.5027 1.77483 76.4597 1.73474C76.4155 1.6929 76.364 1.65939 76.3077 1.63583C76.247 1.61121 76.1818 1.59896 76.1162 1.59979H75.455L75.455 2.48827Z" fill="white"/>
<path d="M78.463 3.02126L79.1571 1.91568C79.0521 1.86806 78.955 1.80475 78.8692 1.72793C78.7873 1.64728 78.7192 1.55384 78.6676 1.45132C78.6017 1.31508 78.57 1.16491 78.5754 1.01378C78.574 0.880641 78.5997 0.748603 78.6512 0.625698C78.7007 0.508815 78.7739 0.403376 78.8662 0.315992C78.9618 0.226235 79.074 0.155908 79.1966 0.10895C79.3337 0.056608 79.4796 0.0308593 79.6264 0.0330928H80.9417V3.02125H80.347V1.99446H79.7716L79.1238 3.02126L78.463 3.02126ZM80.36 1.46137V0.566189H79.6529C79.5871 0.565243 79.5218 0.577649 79.461 0.602653C79.4047 0.625959 79.3532 0.659339 79.309 0.701135C79.2655 0.742188 79.2305 0.791487 79.2063 0.846146C79.1827 0.89892 79.1704 0.95601 79.1701 1.01378C79.1696 1.07272 79.182 1.13106 79.2063 1.18478C79.231 1.23817 79.2659 1.28628 79.309 1.32643C79.3532 1.36836 79.4047 1.40188 79.461 1.42533C79.5219 1.44999 79.5871 1.46225 79.6529 1.46137L80.36 1.46137Z" fill="white"/>
<path d="M85.0536 3.02136V0.0332031H85.6487V2.12626L87.0831 0.0332031H87.6648V3.02136H87.0696V0.928461L85.6351 3.02136H85.0536Z" fill="white"/>
<path d="M91.7698 4.07444V0.0330792H92.2058L92.3384 0.349079C92.4092 0.284049 92.4867 0.226598 92.5695 0.177673C92.6568 0.128444 92.7487 0.0877399 92.8439 0.0561299C92.9666 0.0164758 93.0951 -0.00250512 93.224 -2.98162e-05C93.4098 -0.000739721 93.5936 0.0385798 93.7628 0.115232C93.9305 0.191005 94.082 0.2983 94.2089 0.431231C94.34 0.570243 94.4422 0.733578 94.5099 0.911919C94.6552 1.30945 94.6552 1.74528 94.5099 2.14281C94.4417 2.3218 94.3396 2.48601 94.2089 2.62645C94.0834 2.76093 93.9316 2.86847 93.7628 2.94245C93.5931 3.01705 93.4095 3.05518 93.224 3.05435C93.0984 3.05668 92.9733 3.0377 92.854 2.9982C92.7608 2.96686 92.6709 2.92613 92.5859 2.87666C92.5053 2.82632 92.431 2.76667 92.3645 2.69895V4.07443L91.7698 4.07444ZM93.4951 2.4257C93.5997 2.38027 93.6933 2.31295 93.7695 2.22832C93.9407 2.03483 94.0337 1.78499 94.0305 1.52716C94.0322 1.39241 94.0087 1.25851 93.961 1.13237C93.9181 1.01942 93.8543 0.915505 93.7729 0.826011C93.6947 0.741356 93.5996 0.673913 93.4937 0.628012C93.3878 0.58211 93.2734 0.558763 93.1579 0.559471C93.0442 0.559308 92.9316 0.582861 92.8275 0.628614C92.7228 0.673833 92.6291 0.741187 92.5531 0.826011C92.4733 0.916181 92.4106 1.01997 92.3679 1.13237C92.2753 1.38749 92.2753 1.66683 92.3679 1.92195C92.4107 2.03505 92.4747 2.13902 92.5564 2.22832C92.6333 2.31222 92.7267 2.37942 92.8309 2.4257C92.9337 2.4717 93.0452 2.49528 93.1579 2.49486C93.2739 2.4955 93.3888 2.47194 93.4951 2.4257Z" fill="white"/>
<path d="M98.0561 3.02131L97.924 2.70531C97.8109 2.81708 97.6759 2.90453 97.5275 2.96222C97.3739 3.02338 97.21 3.05468 97.0447 3.05442C96.9029 3.05651 96.7619 3.03308 96.6284 2.98527C96.5124 2.9437 96.4058 2.87992 96.3144 2.79751C96.2293 2.71981 96.1608 2.62589 96.1128 2.52133C96.0639 2.41379 96.0391 2.29696 96.04 2.17892C96.0382 2.04217 96.0687 1.90693 96.1292 1.78414C96.1986 1.65499 96.3028 1.54772 96.4302 1.47442C96.6052 1.37418 96.7965 1.30525 96.9954 1.27074C97.2886 1.2175 97.5864 1.19322 97.8844 1.19823H97.9042V1.09304C97.9057 1.02063 97.8921 0.948687 97.8642 0.881799C97.8363 0.814911 97.7948 0.75454 97.7421 0.704533C97.6864 0.651521 97.6205 0.610214 97.5484 0.583072C97.4763 0.555929 97.3995 0.543505 97.3225 0.54654C97.1982 0.53335 97.0734 0.566365 96.9721 0.639238C96.8708 0.712111 96.8001 0.819701 96.7736 0.941325H96.1591C96.1756 0.813377 96.2159 0.689599 96.2778 0.576289C96.3399 0.463946 96.4217 0.363595 96.5194 0.27999C96.6249 0.19083 96.7458 0.121654 96.8763 0.0758881C97.0282 0.0233016 97.1882 -0.00237195 97.349 3.24425e-05C97.5073 -0.00154061 97.6645 0.0276449 97.8116 0.0859548C97.9464 0.138994 98.0698 0.217071 98.1752 0.316025C98.2765 0.412771 98.3564 0.529361 98.4101 0.658434C98.4658 0.79423 98.4938 0.93967 98.4926 1.08633V3.0213L98.0561 3.02131ZM97.9042 1.68522H97.8844C97.6701 1.68238 97.4558 1.69344 97.2429 1.71833C97.1119 1.7317 96.9838 1.76491 96.8628 1.81683C96.7874 1.84801 96.7238 1.90213 96.681 1.97147C96.6497 2.03372 96.634 2.1026 96.6352 2.17222C96.6362 2.22233 96.6483 2.2716 96.6706 2.31657C96.6928 2.36153 96.7247 2.40109 96.7639 2.43248C96.8565 2.51167 96.9758 2.55287 97.0977 2.54773C97.3108 2.54946 97.5173 2.47461 97.6794 2.33692C97.7479 2.2781 97.804 2.20647 97.8448 2.12611C97.8841 2.04866 97.9044 1.96308 97.9042 1.87634V1.68522Z" fill="white"/>
<path d="M99.7945 3.71928V2.46199H99.9865C100.05 2.42105 100.105 2.36992 100.151 2.3107C100.201 2.25559 100.243 2.1948 100.277 2.12965C100.32 2.0465 100.347 1.95609 100.356 1.8631L100.555 0.0333252H102.578V2.46199H102.974V3.71928H102.399V3.02149H100.37V3.71928H99.7945ZM101.983 2.46199V0.59282H101.077L100.939 1.86311C100.932 1.95554 100.912 2.04652 100.879 2.13301C100.854 2.19535 100.823 2.25492 100.786 2.3107C100.755 2.36711 100.715 2.41818 100.667 2.46199L101.983 2.46199Z" fill="white"/>
<path d="M105.123 2.93914C104.95 2.8646 104.793 2.75598 104.663 2.61979C104.53 2.47935 104.425 2.3153 104.353 2.13616C104.274 1.94274 104.235 1.7358 104.237 1.52721C104.235 1.31969 104.274 1.11381 104.353 0.921607C104.426 0.74309 104.531 0.579248 104.663 0.437971C104.793 0.300249 104.949 0.19042 105.123 0.115271C105.298 0.0387192 105.487 -0.000541706 105.678 9.78385e-06C105.868 -0.000712502 106.056 0.0385646 106.23 0.115271C106.403 0.191589 106.559 0.301267 106.689 0.437971C106.823 0.578165 106.928 0.742281 107 0.921607C107.077 1.11433 107.115 1.32 107.112 1.52721C107.115 1.73549 107.076 1.94222 107 2.13616C106.929 2.3161 106.824 2.48044 106.689 2.61979C106.559 2.75497 106.403 2.86344 106.23 2.93914C106.056 3.01584 105.868 3.05512 105.678 3.05439C105.487 3.05495 105.298 3.01568 105.123 2.93914ZM105.995 2.42574C106.097 2.37919 106.189 2.31197 106.263 2.22836C106.343 2.13824 106.406 2.03443 106.448 1.92199C106.541 1.66687 106.541 1.38753 106.448 1.13241C106.406 1.02002 106.343 0.91623 106.263 0.826054C106.189 0.742443 106.097 0.675213 105.995 0.628656C105.896 0.582967 105.788 0.559374 105.678 0.559514C105.566 0.558877 105.456 0.582472 105.354 0.628656C105.252 0.675206 105.161 0.742435 105.087 0.826049C105.007 0.916122 104.944 1.01994 104.901 1.1324C104.809 1.38753 104.809 1.66687 104.901 1.92199C104.944 2.03451 105.007 2.13834 105.087 2.22835C105.161 2.31197 105.252 2.37919 105.354 2.42574C105.456 2.47193 105.566 2.49553 105.678 2.49489C105.788 2.49504 105.896 2.47144 105.995 2.42574Z" fill="white"/>
<path d="M109.357 2.93914C109.185 2.86402 109.03 2.75545 108.901 2.6198C108.768 2.47935 108.662 2.3153 108.59 2.13616C108.511 1.94274 108.472 1.7358 108.474 1.52721C108.472 1.31969 108.511 1.11382 108.59 0.92161C108.663 0.743099 108.769 0.579259 108.901 0.437974C109.029 0.300794 109.184 0.191015 109.357 0.115274C109.533 0.0381351 109.723 -0.00113813 109.915 2.51048e-05C110.026 -0.000549291 110.136 0.013975 110.243 0.0431919C110.345 0.0710418 110.443 0.109531 110.537 0.158018C110.629 0.206303 110.714 0.266014 110.791 0.33572C110.867 0.405147 110.937 0.481162 111 0.562868C111.061 0.644432 111.113 0.732733 111.155 0.826057C111.196 0.918408 111.228 1.01439 111.251 1.11273H110.656C110.63 1.03534 110.593 0.962066 110.547 0.895213C110.5 0.829361 110.444 0.771585 110.378 0.724225C110.312 0.675952 110.24 0.636109 110.163 0.60562C110.084 0.574588 110 0.55894 109.915 0.559525C109.804 0.558887 109.693 0.582487 109.592 0.62868C109.49 0.67522 109.398 0.742447 109.324 0.826064C109.244 0.916129 109.181 1.01995 109.139 1.13243C109.046 1.38755 109.046 1.6669 109.139 1.92201C109.181 2.03454 109.244 2.13837 109.324 2.22837C109.398 2.31199 109.49 2.37922 109.592 2.42577C109.693 2.47195 109.804 2.49555 109.915 2.49491C110 2.49557 110.084 2.48109 110.163 2.45217C110.241 2.42367 110.313 2.38368 110.378 2.33356C110.443 2.28444 110.5 2.22563 110.547 2.15921C110.593 2.09246 110.63 2.01933 110.656 1.94211H111.251C111.228 2.04032 111.196 2.13616 111.155 2.22836C111.113 2.32251 111.061 2.41188 111 2.4949C110.938 2.57761 110.868 2.65373 110.791 2.72206C110.713 2.79041 110.628 2.85 110.537 2.89975C110.443 2.95058 110.343 2.98932 110.239 3.01501C110.133 3.04117 110.025 3.0544 109.915 3.05441C109.723 3.05557 109.533 3.01628 109.357 2.93914Z" fill="white"/>
<path d="M113.373 3.02136V0.5927H112.46V0.0332031H114.88V0.5927H113.968V3.02136H113.373Z" fill="white"/>
<path d="M116.308 3.02136V0.0332031H116.903V2.12626L118.337 0.0332031H118.919V3.02136H118.324V0.928461L116.889 3.02136H116.308Z" fill="white"/>
<path d="M123.024 3.02136V0.0332031H125.622V3.02136H125.027V0.5927H123.619V3.02136H123.024Z" fill="white"/>
<path d="M127.361 3.02136V0.0332031H127.955V2.12626L129.39 0.0332031H129.972V3.02136H129.377V0.928461L127.942 3.02136H127.361Z" fill="white"/>
<path d="M132.312 3.02136V0.5927H131.4V0.0332031H133.819V0.5927H132.907V3.02136H132.312Z" fill="white"/>
<path d="M135.881 2.93914C135.708 2.8646 135.552 2.75598 135.422 2.61979C135.289 2.47935 135.184 2.3153 135.111 2.13616C135.033 1.94274 134.993 1.7358 134.996 1.52721C134.993 1.31969 135.033 1.11381 135.111 0.921607C135.185 0.74309 135.29 0.579248 135.422 0.437971C135.551 0.300249 135.708 0.19042 135.881 0.115271C136.056 0.0387192 136.246 -0.000541706 136.437 9.78385e-06C136.627 -0.000712502 136.815 0.0385646 136.989 0.115271C137.162 0.19159 137.318 0.301267 137.448 0.437971C137.581 0.578166 137.687 0.742281 137.759 0.921607C137.835 1.11433 137.873 1.32 137.871 1.52721C137.873 1.73549 137.835 1.94222 137.759 2.13616C137.688 2.3161 137.583 2.48044 137.448 2.61979C137.317 2.75497 137.161 2.86344 136.989 2.93914C136.815 3.01584 136.627 3.05512 136.437 3.05439C136.246 3.05495 136.056 3.01568 135.881 2.93914ZM136.754 2.42574C136.856 2.37919 136.947 2.31197 137.022 2.22836C137.102 2.13824 137.164 2.03443 137.207 1.92199C137.3 1.66687 137.3 1.38753 137.207 1.13241C137.164 1.02002 137.102 0.91623 137.022 0.826054C136.947 0.742443 136.856 0.675213 136.754 0.628656C136.655 0.582968 136.546 0.559375 136.437 0.559514C136.325 0.558878 136.215 0.582473 136.113 0.628656C136.011 0.675189 135.92 0.742418 135.845 0.826054C135.765 0.916251 135.703 1.02004 135.66 1.13241C135.568 1.38753 135.568 1.66687 135.66 1.92199C135.703 2.03441 135.765 2.13822 135.845 2.22836C135.92 2.31199 136.011 2.37921 136.113 2.42574C136.215 2.47194 136.325 2.49554 136.437 2.4949C136.546 2.49504 136.655 2.47144 136.754 2.42574Z" fill="white"/>
<path d="M139.418 3.02136V0.0332031H139.96L141.024 2.23813L142.082 0.0332031H142.624V3.02136H142.029V1.29054L141.203 3.02136H140.846L140.013 1.29054V3.02136H139.418Z" fill="white"/>
<path d="M144.356 3.02136V0.0332031H144.951V2.46187H146.293V0.0332031H146.888V2.46187H147.285V3.71921H146.716V3.02136H144.356Z" fill="white"/>
<path d="M150.616 3.02131L150.484 2.70531C150.371 2.81708 150.236 2.90453 150.088 2.96222C149.934 3.02338 149.77 3.05468 149.605 3.05442C149.463 3.05651 149.322 3.03308 149.189 2.98527C149.073 2.9438 148.966 2.88 148.875 2.79751C148.789 2.71981 148.721 2.62589 148.673 2.52133C148.624 2.41386 148.599 2.29698 148.6 2.17892C148.598 2.04218 148.629 1.90693 148.689 1.78414C148.759 1.65499 148.863 1.54772 148.99 1.47442C149.165 1.37424 149.356 1.30531 149.555 1.27074C149.849 1.21752 150.146 1.19324 150.445 1.19823H150.464V1.09304C150.466 1.02063 150.452 0.948687 150.424 0.881799C150.396 0.814911 150.355 0.75454 150.302 0.704533C150.247 0.651551 150.181 0.610265 150.109 0.583124C150.036 0.555984 149.96 0.543542 149.883 0.54654C149.758 0.533352 149.634 0.566368 149.532 0.639242C149.431 0.712115 149.36 0.819703 149.334 0.941327H148.719C148.736 0.813333 148.776 0.689519 148.838 0.576291C148.9 0.463947 148.982 0.363595 149.08 0.27999C149.185 0.19083 149.306 0.121654 149.436 0.0758881C149.588 0.0233016 149.748 -0.00237194 149.909 3.24412e-05C150.067 -0.00149944 150.225 0.0276846 150.372 0.0859548C150.507 0.138996 150.63 0.217075 150.735 0.316031C150.837 0.412686 150.916 0.529308 150.97 0.65844C151.026 0.794151 151.054 0.93963 151.053 1.08634V3.02131L150.616 3.02131ZM150.464 1.68522H150.445C150.23 1.68237 150.016 1.69343 149.803 1.71833C149.672 1.7317 149.544 1.76491 149.423 1.81683C149.347 1.84789 149.284 1.90204 149.241 1.97147C149.21 2.03369 149.194 2.10256 149.195 2.17222C149.196 2.22236 149.208 2.27164 149.231 2.3166C149.253 2.36156 149.285 2.40111 149.324 2.43248C149.417 2.51167 149.536 2.55287 149.658 2.54773C149.871 2.54946 150.077 2.47461 150.24 2.33692C150.308 2.27798 150.364 2.20639 150.405 2.12611C150.444 2.04866 150.465 1.96308 150.464 1.87634V1.68522Z" fill="white"/>
<path d="M33.1636 28.0678C32.869 27.3445 32.5749 26.6207 32.2814 25.8965L31.4476 23.8337C28.7365 17.1286 25.9333 10.1946 23.1861 3.37127C23.0943 3.14327 23.0169 3.08921 22.7538 3.09507C18.8676 3.10764 15.0794 3.10764 11.4954 3.09424H11.4887C11.2425 3.09424 11.1676 3.1462 11.0712 3.38048C9.43048 7.36149 7.77423 11.3404 6.17226 15.1886C5.09265 17.7819 4.01204 20.375 2.93045 22.9679C2.11348 24.9275 1.29665 26.8874 0.479946 28.8474C0.358727 29.1382 0.242133 29.4312 0.122174 29.7317C0.0990277 29.7891 0.0763044 29.8469 0.0527344 29.9052L0.814571 29.9056C3.85476 29.9073 6.9985 29.9094 10.09 29.8951C10.1624 29.8653 10.2236 29.8135 10.2647 29.7472C10.8178 28.2464 11.2951 26.8994 11.7248 25.6291C11.8654 25.2138 12.0995 25.0441 12.5317 25.0441H12.5405C15.5096 25.06 18.4256 25.06 21.207 25.0432H21.2175C21.6708 25.0432 21.9137 25.2197 22.0547 25.6505C22.2622 26.2846 22.4823 26.9275 22.6949 27.549C22.9289 28.2313 23.1705 28.9371 23.3969 29.6357C23.4736 29.8729 23.5392 29.9173 23.7977 29.9165C26.3761 29.9056 28.9979 29.9064 31.5326 29.9077L33.9048 29.9081C33.8674 29.8058 33.835 29.7195 33.8005 29.634C33.5887 29.1118 33.3765 28.5898 33.1636 28.0678ZM14.0916 19.0208L16.7677 11.5005L17.1785 11.5366L19.7591 19.0208H14.0916Z" fill="white"/>
<path d="M57.0767 17.3306C56.7261 18.1126 56.3756 18.8947 56.0253 19.6767C54.6254 22.8086 53.2275 25.9415 51.8318 29.0754C51.8075 29.1609 51.7537 29.2352 51.6797 29.285C51.6058 29.3349 51.5166 29.3571 51.4278 29.3478C50.4685 29.3373 49.5089 29.3356 48.5496 29.349C48.4607 29.3588 48.3712 29.3364 48.2975 29.2861C48.2237 29.2357 48.1705 29.1606 48.1476 29.0745C46.5743 25.3584 44.9975 21.6437 43.4171 17.9303C43.3325 17.7317 43.2428 17.5351 43.1553 17.3373C43.1233 17.3394 43.0909 17.3415 43.0589 17.3436V17.7392C43.0589 21.6427 43.0539 25.5462 43.0673 29.4501C43.0686 29.8143 42.981 29.919 42.6052 29.9165C40.1521 29.8981 37.6987 29.9069 35.2457 29.9069H34.8492V6.81375H35.2486C38.6247 6.81375 41.0339 6.80705 44.41 6.79741C44.5266 6.78165 44.6451 6.80815 44.7438 6.87208C44.8424 6.93601 44.9147 7.03311 44.9475 7.14569C46.2755 10.1628 50.0367 16.4036 50.125 16.5766C50.2383 16.321 53.9397 10.0039 55.2487 7.04384C55.2798 6.98557 55.3238 6.93519 55.3776 6.8966C55.4313 6.85801 55.4932 6.83224 55.5585 6.8213C59.1046 6.81082 61.7172 6.81585 65.2633 6.81837C65.3062 6.82546 65.348 6.8377 65.3879 6.85483V29.9069H64.9918C62.5266 29.9069 60.0613 29.9006 57.5961 29.9144C57.2598 29.9165 57.1697 29.8235 57.1706 29.4899C57.1819 25.586 57.1777 21.6825 57.1777 17.779V17.352C57.1441 17.3448 57.1104 17.3377 57.0767 17.3306Z" fill="white"/>
<path d="M122.315 13.5737C121.687 11.156 120.036 9.54873 117.902 8.38866C115.799 7.24494 113.517 6.76381 111.136 6.78351C106.228 6.82375 101.32 6.71645 96.4119 6.77681C96.3399 6.77765 96.2684 6.78855 96.1615 6.79776V29.9504H105.509V24.648L105.464 18.5417C105.46 18.5442 105.455 18.5459 105.451 18.5484V13.6362C106.405 12.764 107.542 12.057 108.105 11.1966C108.731 10.2407 108.91 9.27044 109.17 9.25493C109.67 9.22559 109.815 11.1886 109.815 11.1886C109.815 11.1886 110.444 10.4288 110.917 10.2842C111.233 10.1874 111.535 10.3513 111.21 10.8601C111.072 11.0581 110.958 11.2713 110.868 11.4954C110.798 11.7503 110.766 12.0138 110.771 12.2779C112.219 12.7477 112.382 13.3244 112.382 13.3244C112.412 13.5497 112.52 13.7578 112.685 13.914C112.851 14.0702 113.066 14.1652 113.294 14.1831C113.928 14.2916 114.55 14.4655 115.149 14.7019C115.708 14.8134 115.419 15.5955 115.217 15.5611C115.246 17.7345 113.342 17.8971 112.249 17.6964C112.249 17.6964 106.439 16.512 106.927 23.3496C109.438 23.4569 111.954 23.6379 114.443 23.104C116.886 22.5801 119.082 21.5831 120.754 19.6716C122.295 17.9101 122.911 15.8708 122.315 13.5737Z" fill="white"/>
<path d="M93.9656 29.9478V6.81112C93.8528 6.80609 88.4955 6.80484 84.4645 6.79772C84.3708 6.7841 84.2754 6.8054 84.1966 6.85753C84.1177 6.90966 84.061 6.98895 84.0373 7.08018C82.277 9.78294 75.4643 21.0269 75.37 21.0982V6.81615H67.6152V29.9482C67.7087 29.9533 67.8025 29.9633 67.8968 29.9633C71.8984 29.9642 73.2427 29.9419 77.2443 29.9503C77.3334 29.9605 77.4233 29.938 77.4971 29.8871C77.5709 29.8363 77.6236 29.7604 77.6454 29.6737C79.3673 26.9597 85.8189 16.5057 86.1847 15.7974V29.9478L93.9656 29.9478Z" fill="white"/>
<path d="M141.552 6.77126C141.458 6.75758 141.362 6.77886 141.284 6.831C141.205 6.88314 141.148 6.96247 141.124 7.05373C139.364 9.75692 132.551 21.0009 132.457 21.0717V6.7897H124.702V29.9218C124.796 29.9268 124.89 29.9369 124.983 29.9369C127.443 29.9373 128.899 29.9293 130.584 29.9251L135.094 29.9243C136.178 29.7445 137.492 29.1666 137.665 27.4323C137.478 25.5037 138.596 24.476 138.894 24.2191C139.164 23.9914 139.421 23.7489 139.665 23.4928C139.892 23.3654 140.306 22.6085 140.318 22.2674C140.331 21.9258 139.867 21.5587 139.867 21.5587C139.636 21.3537 139.388 21.1684 139.126 21.0046C138.585 20.6363 138.646 19.7855 138.659 19.3048C138.672 18.8237 138.862 18.7788 139.264 18.7625C139.666 18.7465 139.934 18.563 140.292 18.3383C140.65 18.1137 140.859 17.8052 141.473 17.8178C141.839 17.8258 142.197 17.7066 142.484 17.4809L142.524 17.4679C142.524 17.4679 142.836 15.6356 143.052 15.6306C143.268 15.6255 143.887 17.6607 144.303 18.9347C144.59 19.8115 144.834 20.4908 144.71 21.9711C144.712 21.9702 144.717 21.9673 144.717 21.9673C144.717 21.9673 144.572 23.8281 144.901 24.8134C145.116 25.3313 145.412 25.8117 145.778 26.2367C146.855 27.2318 147.701 28.4488 148.257 29.8028C148.274 29.8421 148.288 29.882 148.304 29.9218L149.391 29.9214H151.053V6.78509C150.94 6.78006 145.583 6.7788 141.552 6.77126Z" fill="white"/>
<path d="M134.795 29.9661L133.621 29.9736C134.012 30.0121 134.405 30.0096 134.795 29.9661Z" fill="white"/>
</g>
<defs>
<clipPath id="clip0_246_1821">
<rect width="151" height="30" fill="white" transform="translate(0.0527344)"/>
</clipPath>
</defs>
</svg>
