<svg width="100%" height="100%" style="overflow:visible;" preserveAspectRatio="none" viewBox="0 0 90.36 78.7" fill="none" xmlns="http://www.w3.org/2000/svg">
<g style="mix-blend-mode:multiply">
<path d="M74.5887 3.45712C86.3908 19.1019 91.3607 42.1465 79.4186 59.1591C73.9642 66.9304 65.6785 72.2729 56.3444 73.9249C47.2676 75.5352 37.8124 73.6293 29.345 70.276C24.5341 68.3702 19.9465 65.8732 15.639 63.0088C10.8433 59.8184 5.85067 56.0181 4.74541 50.0163C4.22685 47.1897 -0.0768525 48.387 0.437926 51.206C1.47127 56.8137 5.40781 61.0006 9.79857 64.3349C14.0001 67.5252 18.5877 70.2609 23.3569 72.5115C32.498 76.8272 42.7065 79.5932 52.881 78.824C63.2106 78.0473 72.7454 73.5118 79.7365 65.8278C87.1932 57.636 90.9102 46.9055 90.7551 35.872C90.5771 23.3986 85.9176 11.1071 78.442 1.20268C76.7311 -1.06314 72.8513 1.16099 74.5849 3.45712H74.5887Z" fill="#0753A5"/>
</g>
</svg>
