<svg width="100%" height="100%" style="overflow:visible;" preserveAspectRatio="none" viewBox="0 0 27 22.37" fill="none" xmlns="http://www.w3.org/2000/svg">
<g style="mix-blend-mode:multiply">
<path d="M8.18628 1.63776C4.04534 3.70276 1.91431 7.98814 2.34203 12.5501C2.53886 14.6757 3.32239 16.6573 4.92729 18.1237C6.44134 19.5067 8.33769 20.4842 10.234 21.2307C14.2463 22.8069 19.3184 22.9774 22.8991 20.272C26.4988 17.5515 29.0462 12.3568 27.5056 7.86687C24.9885 0.5238 15.079 -1.53741 8.54209 1.09215C5.21495 2.42966 2.44423 4.90768 1.39954 8.42766C0.286707 12.1712 1.2822 16.3466 4.74182 18.4495C6.6041 19.5786 8.72377 19.8439 10.851 19.9803C12.3121 20.075 13.7694 20.2228 15.238 20.2493C18.2926 20.3023 23.6902 19.8212 23.395 15.5282C23.3117 14.3233 22.426 13.2927 21.1617 13.2927C20.0186 13.2927 18.8452 14.3158 18.9285 15.5282C18.9361 15.6267 18.9399 15.7215 18.9399 15.8162C18.955 15.7063 18.9701 15.6002 18.9891 15.4903C18.9361 15.6646 18.9512 15.657 19.0269 15.4676C18.9928 15.3539 19.1064 15.2365 19.0004 15.4828C18.8869 15.7518 19.3487 15.0281 19.061 15.3691C19.3335 15.0432 19.1935 15.2289 18.9399 15.407C18.656 15.6078 18.9588 15.3918 19.0496 15.3653C18.8906 15.4146 18.7355 15.4714 18.5765 15.5169C18.3456 15.5813 18.1109 15.623 17.8762 15.6684C17.2858 15.7859 18.1866 15.6419 17.8081 15.6798C17.6756 15.6949 17.5469 15.7063 17.4144 15.7177C16.7596 15.7745 16.101 15.7859 15.4462 15.7783C14.2728 15.7669 13.1032 15.6836 11.9336 15.5888C10.9078 15.5093 9.90474 15.5093 9.00766 15.3236C8.6405 15.2478 8.27713 15.1531 7.92133 15.0319C7.77371 14.9826 7.61852 14.9296 7.47469 14.8652C7.75479 14.9902 7.41412 14.8197 7.38006 14.8045C7.24758 14.7363 7.11888 14.6643 6.99019 14.5885C7.03183 14.6113 6.44512 14.2172 6.68358 14.3953C6.67223 14.3877 6.22558 13.9672 6.07039 13.7815C5.84328 13.5163 6.23695 14.0354 6.04391 13.7398C5.94928 13.5958 5.86221 13.4481 5.77894 13.2965C5.74487 13.2359 5.60104 12.9138 5.74109 13.2586C5.6881 13.126 5.64268 12.9896 5.60104 12.8532C5.57833 12.7812 5.40421 11.9704 5.46099 12.3493C5.40421 11.9514 5.408 11.5384 5.42693 11.1406C5.4837 9.91672 5.78652 9.07178 6.43377 8.0677C6.91449 7.31748 7.75478 6.54451 8.5648 6.04057C12.3424 3.70276 18.251 3.93768 21.5024 6.79837C24.0763 9.06419 23.8832 11.9969 22.0702 14.706C20.2722 17.3924 17.5507 18.2601 14.5453 17.794C12.7171 17.5099 11.15 16.8809 9.57543 15.9791C8.78812 15.5282 8.38311 15.2819 7.83048 14.7212C7.4179 14.3044 7.14916 13.8838 6.99776 13.3685C6.56246 11.8681 6.64574 10.2009 7.22108 8.6891C7.73964 7.32127 8.93574 6.24518 10.4384 5.49496C11.5172 4.95692 11.82 3.42998 11.2409 2.43726C10.5974 1.33845 9.26883 1.09596 8.18628 1.63399V1.63776Z" fill="#0753A5"/>
</g>
</svg>
