<svg width="100%" height="100%" style="overflow:visible;" preserveAspectRatio="none" viewBox="0 0 32.38 29.84" fill="none" xmlns="http://www.w3.org/2000/svg">
<g style="mix-blend-mode:multiply">
<path d="M15.7555 0.718761C10.4184 0.0140085 6.05416 2.86714 4.07454 7.7701C3.23802 9.84268 2.88979 12.1199 2.85572 14.3478C2.8103 17.4169 2.481 20.5617 3.79065 23.4376C4.96026 26.0027 7.41681 28.2231 10.2027 28.818C12.7463 29.3598 15.4375 29.0756 18.0228 29.2006C20.8351 29.337 23.8367 29.4734 26.4636 28.2913C29.0262 27.1394 30.7181 24.6842 31.6076 22.0963C33.4699 16.6894 32.2587 10.2254 28.2351 6.12566C26.07 3.92047 23.4847 2.77619 20.5361 2.0487C17.3831 1.27196 14.3058 0.377773 11.0165 0.669526C5.30471 1.18104 2.08356 7.37982 0.826896 12.3775C-0.471405 17.5495 -0.172385 23.8241 4.55903 27.1622C7.3941 29.1628 10.9105 29.2688 14.2036 29.8675C17.4966 30.47 21.1417 30.883 24.3553 29.6705C27.1147 28.6285 29.9422 26.1657 31.4789 23.6536C33.2806 20.7057 32.2549 17.0493 32.2095 13.8249C32.1678 10.9528 27.7014 10.9415 27.743 13.8249C27.7581 14.9805 27.8906 16.1248 27.9777 17.2767C28.0647 18.4209 28.2616 19.785 27.8793 20.8952C27.3721 22.3804 25.4076 23.8923 24.0601 24.813C22.2205 26.0709 19.9153 26.0709 17.7692 25.8966C15.3883 25.7034 12.9242 25.2525 10.585 24.7865C8.59778 24.3924 6.61437 23.6725 5.55453 21.8273C4.63095 20.2169 4.52875 18.2694 4.64987 16.462C4.77857 14.5372 5.28199 12.567 6.03524 10.7937C6.75063 9.1076 7.78397 7.18657 9.21097 6.00062C10.884 4.61006 13.4957 4.97761 15.4867 5.37924C16.6677 5.61795 17.8184 5.97789 18.9842 6.26965C20.0062 6.52351 21.0774 6.71675 22.0501 7.12596C26.2819 8.90679 28.1669 13.3929 27.9285 17.7238C27.83 19.5387 27.3607 21.49 26.2062 22.9336C24.9685 24.4833 23.1819 24.7561 21.3045 24.8016C19.094 24.8547 16.8834 24.6198 14.6729 24.6349C12.9015 24.6463 10.9748 24.8168 9.50621 23.6498C7.38275 21.9599 7.20106 19.5425 7.26919 17.0266C7.32976 14.8707 7.25406 12.8284 7.76883 10.8089C8.21169 9.07728 8.946 7.43286 10.3276 6.28479C11.7886 5.07232 13.8023 4.92456 15.7555 5.18221C16.9516 5.34134 17.9887 4.04171 17.9887 2.94669C17.9887 1.60918 16.9554 0.870337 15.7555 0.711199V0.718761Z" fill="#0753A5"/>
</g>
</svg>
