<svg width="100%" height="100%" style="overflow:visible;" preserveAspectRatio="none" viewBox="0 0 176.8 69.6" fill="none" xmlns="http://www.w3.org/2000/svg">
<g filter="url(#filter0_d_246_1796)">
<circle cx="16.8001" cy="16.7999" r="16.7999" fill="white"/>
</g>
<g filter="url(#filter1_d_246_1796)">
<circle cx="70.4002" cy="16.7999" r="16.7999" fill="white"/>
</g>
<g filter="url(#filter2_d_246_1796)">
<circle cx="124" cy="16.7999" r="16.7999" fill="#39282F"/>
</g>
<path d="M129.941 17.3264C129.941 18.7624 129.371 20.1396 128.355 21.1551C127.34 22.1705 125.963 22.7409 124.527 22.7409C123.091 22.7409 121.713 22.1705 120.698 21.1551C119.683 20.1396 119.112 18.7624 119.112 17.3264C119.112 17.0178 119.145 16.7164 119.201 16.424H117.307V23.6379C117.307 24.1397 117.713 24.5458 118.215 24.5458H130.84C131.08 24.5453 131.311 24.4494 131.481 24.2792C131.651 24.109 131.746 23.8784 131.746 23.6379V16.424H129.853C129.909 16.7164 129.941 17.0178 129.941 17.3264ZM124.527 20.9361C125.001 20.936 125.47 20.8425 125.908 20.6609C126.346 20.4793 126.744 20.2133 127.079 19.8779C127.415 19.5426 127.68 19.1445 127.862 18.7064C128.043 18.2683 128.136 17.7988 128.136 17.3246C128.136 16.8505 128.043 16.381 127.861 15.943C127.68 15.505 127.413 15.107 127.078 14.7718C126.743 14.4366 126.345 14.1708 125.907 13.9894C125.468 13.8081 124.999 13.7148 124.525 13.7149C123.567 13.7152 122.649 14.0958 121.972 14.7731C121.295 15.4504 120.915 16.3688 120.915 17.3264C120.915 18.284 121.296 19.2023 121.973 19.8792C122.651 20.5562 123.569 20.9363 124.527 20.9361ZM128.858 13.5363H131.022C131.166 13.5363 131.304 13.4793 131.406 13.3778C131.508 13.2763 131.565 13.1386 131.565 12.9948V10.8308C131.565 10.6867 131.508 10.5486 131.406 10.4467C131.304 10.3448 131.166 10.2876 131.022 10.2876H128.858C128.714 10.2876 128.576 10.3448 128.474 10.4467C128.372 10.5486 128.315 10.6867 128.315 10.8308V12.9948C128.317 13.2926 128.56 13.5363 128.858 13.5363ZM124.527 0C119.931 0 115.524 1.82546 112.275 5.07479C109.026 8.32412 107.2 12.7312 107.2 17.3264C107.2 21.9217 109.026 26.3287 112.275 29.578C115.524 32.8274 119.931 34.6528 124.527 34.6528C126.802 34.6528 129.055 34.2047 131.157 33.3339C133.259 32.4632 135.169 31.1869 136.778 29.578C138.387 27.9691 139.663 26.0591 140.534 23.9569C141.405 21.8548 141.853 19.6018 141.853 17.3264C141.853 15.0511 141.405 12.798 140.534 10.6959C139.663 8.59375 138.387 6.6837 136.778 5.07479C135.169 3.46588 133.259 2.18963 131.157 1.31889C129.055 0.448161 126.802 0 124.527 0ZM133.551 24.3454C133.551 25.4482 132.648 26.3506 131.546 26.3506H117.508C116.405 26.3506 115.502 25.4482 115.502 24.3454V10.3074C115.502 9.20466 116.405 8.30224 117.508 8.30224H131.546C132.648 8.30224 133.551 9.20466 133.551 10.3074V24.3454Z" fill="white"/>
<path d="M24.964 8.63949C24.8893 8.42416 24.8003 8.36386 24.6625 8.31218C24.361 8.19733 23.85 8.36962 23.85 8.36962C23.85 8.36962 5.73599 14.8813 4.70238 15.602C4.47843 15.757 4.40378 15.846 4.36933 15.9523C4.19132 16.4662 4.74832 16.693 4.74832 16.693L9.41678 18.2147C9.41678 18.2147 9.59191 18.2406 9.65221 18.2004C10.7145 17.5285 20.3386 11.4532 20.8927 11.2493C20.9817 11.2235 21.0449 11.2522 21.0276 11.3125C20.8066 12.0935 12.4487 19.5211 12.4487 19.5211C12.4487 19.5211 12.4171 19.5613 12.397 19.6072L12.3855 19.6015L11.9491 24.2326C11.9491 24.2326 11.7654 25.651 13.1866 24.2326C14.1886 23.2306 15.1562 22.3951 15.6414 21.9874C17.2464 23.0956 18.9748 24.3216 19.7184 24.9619C20.0917 25.2834 20.4075 25.3351 20.663 25.3265C21.3693 25.3007 21.5674 24.5226 21.5674 24.5226C21.5674 24.5226 24.8692 11.2379 24.9783 9.45776C24.9898 9.28262 25.0042 9.17354 25.0042 9.05295C25.0042 8.88643 24.9898 8.71988 24.964 8.63949Z" fill="#39282F"/>
<path d="M68.5268 10.0401C69.1903 10.0401 69.8538 10.0401 70.5173 10.0401C70.6639 10.0603 70.8118 10.0659 70.9587 10.0818C71.0484 10.0917 71.1354 10.1162 71.2254 10.1199C71.3095 10.1235 71.3863 10.1616 71.4697 10.1738C71.52 10.1811 71.5742 10.1738 71.6206 10.1927C71.7523 10.2453 71.8923 10.2807 72.0107 10.3621C72.1593 10.4644 72.2685 10.6007 72.3268 10.7731C72.338 10.8069 72.3506 10.84 72.3622 10.8731C72.3718 10.9009 72.3883 10.9253 72.3966 10.9538C72.4224 11.0451 72.4207 11.1404 72.43 11.2334C72.4416 11.3503 72.4528 11.4684 72.4535 11.5865C72.4542 11.7278 72.4509 11.8688 72.4373 12.0101C72.4194 12.1964 72.4383 12.3841 72.4204 12.5724C72.3946 12.8421 72.4237 13.1144 72.4019 13.3864C72.3824 13.631 72.3979 13.8782 72.3976 14.1241C72.3976 14.1942 72.4009 14.2644 72.3959 14.3342C72.3824 14.5185 72.3718 14.7028 72.3701 14.8878C72.3685 15.0324 72.3698 15.1774 72.3701 15.3223C72.3701 15.3472 72.3701 15.372 72.3754 15.3965C72.4022 15.5222 72.3999 15.6513 72.4145 15.7787C72.4207 15.8343 72.4247 15.8925 72.4439 15.9418C72.4833 16.0444 72.4839 16.1622 72.562 16.2502C72.5697 16.2588 72.5743 16.2731 72.5743 16.2847C72.5743 16.3141 72.5902 16.3353 72.6071 16.3548C72.6246 16.375 72.6385 16.3968 72.6534 16.4184C72.7047 16.4935 72.7719 16.5567 72.8473 16.603C72.9539 16.6682 73.073 16.6553 73.1872 16.6149C73.303 16.5739 73.3963 16.4951 73.4913 16.4207C73.5916 16.3419 73.6796 16.2496 73.7716 16.1619C73.8262 16.1099 73.8715 16.048 73.9238 15.9931C73.9595 15.9554 73.9893 15.9114 74.0247 15.872C74.0681 15.824 74.1094 15.7737 74.1488 15.7221C74.1965 15.6595 74.2428 15.596 74.2868 15.5308C74.3275 15.4703 74.3791 15.4183 74.4232 15.3604C74.4642 15.3068 74.489 15.2446 74.5297 15.1923C74.5714 15.1387 74.6065 15.0804 74.6452 15.0248C74.7438 14.8832 74.8345 14.7359 74.9295 14.5917C75.0122 14.4662 75.0893 14.3378 75.1624 14.2065C75.1972 14.1442 75.2303 14.0794 75.2746 14.0248C75.3332 13.953 75.3679 13.8683 75.4153 13.7905C75.4619 13.7144 75.5007 13.633 75.5394 13.5522C75.5794 13.4688 75.6284 13.3901 75.6711 13.3083C75.7052 13.2431 75.7336 13.1746 75.7723 13.1121C75.7938 13.0777 75.813 13.0436 75.8256 13.0049C75.8544 12.9149 75.8974 12.8298 75.9368 12.7451C75.9884 12.6342 76.0546 12.53 76.098 12.4138C76.1337 12.3189 76.1843 12.2295 76.2317 12.1395C76.2515 12.1018 76.2561 12.0561 76.277 12.0194C76.2978 11.9826 76.3134 11.9446 76.3299 11.9065C76.3783 11.7947 76.4127 11.6772 76.4703 11.5693C76.4845 11.5429 76.4964 11.5151 76.5017 11.4869C76.511 11.4383 76.5321 11.3969 76.557 11.3552C76.5692 11.3344 76.5771 11.3109 76.5854 11.2877C76.6212 11.1874 76.6539 11.0852 76.7075 10.9932C76.7568 10.9078 76.8174 10.8304 76.8889 10.7605C76.9279 10.7222 76.9676 10.6901 77.0199 10.6785C77.0586 10.6699 77.0921 10.653 77.1265 10.6345C77.1573 10.6179 77.191 10.608 77.2287 10.608C78.6411 10.6087 80.0538 10.6087 81.4662 10.6087C81.4894 10.6087 81.5116 10.6159 81.5341 10.6199C81.6148 10.6335 81.6883 10.6722 81.7723 10.6775C81.8352 10.6815 81.901 10.695 81.955 10.7367C81.9705 10.749 81.9894 10.7576 82.0079 10.7652C82.0715 10.791 82.1224 10.8367 82.1645 10.8866C82.2032 10.9326 82.2452 10.9905 82.2505 11.0468C82.2634 11.1762 82.2677 11.3086 82.2479 11.4376C82.2366 11.5101 82.1969 11.5779 82.1856 11.6504C82.1694 11.758 82.1218 11.8543 82.0821 11.9512C82.0506 12.028 82.0106 12.1044 81.9709 12.1792C81.9014 12.3096 81.8491 12.4486 81.7726 12.5757C81.7548 12.6058 81.7498 12.6422 81.726 12.671C81.6449 12.7696 81.5966 12.8887 81.5261 12.994C81.4808 13.0618 81.449 13.1399 81.3967 13.2011C81.3458 13.2607 81.3127 13.3298 81.2693 13.393C81.1816 13.5205 81.0956 13.6492 81.0082 13.7769C80.9304 13.8904 80.849 14.0019 80.7696 14.1145C80.7322 14.1674 80.6965 14.222 80.6578 14.2743C80.5926 14.3627 80.5247 14.449 80.4602 14.5377C80.3917 14.632 80.3219 14.725 80.2514 14.8173C80.1094 15.0033 79.9678 15.1896 79.8262 15.3756C79.7914 15.4213 79.7673 15.4749 79.7265 15.5143C79.6488 15.5897 79.5899 15.6794 79.5287 15.7664C79.4317 15.9048 79.3212 16.0328 79.2182 16.1662C79.1504 16.2542 79.0928 16.3495 79.0207 16.4352C78.9363 16.5355 78.8708 16.6513 78.7907 16.7559C78.6921 16.8846 78.6113 17.0256 78.5336 17.1676C78.479 17.2668 78.4455 17.3751 78.4177 17.4843C78.4009 17.5511 78.3866 17.6196 78.3794 17.6881C78.3698 17.7788 78.4134 17.8625 78.4234 17.9509C78.431 18.0167 78.4915 18.0534 78.5058 18.1137C78.526 18.1981 78.5816 18.2623 78.6332 18.3258C78.7308 18.4459 78.8364 18.5598 78.9419 18.6729C79.0094 18.7454 79.0816 18.8129 79.1564 18.8788C79.2633 18.9731 79.3642 19.0747 79.4671 19.1736C79.5654 19.2683 79.6739 19.3527 79.7699 19.449C79.892 19.5721 80.0221 19.6866 80.1432 19.8103C80.1832 19.851 80.2322 19.8815 80.2673 19.9281C80.3258 20.0062 80.399 20.0718 80.4701 20.1389C80.5376 20.2028 80.6018 20.2703 80.6674 20.3358C80.7792 20.447 80.8712 20.5787 80.987 20.685C81.09 20.7796 81.172 20.8888 81.2587 20.9957C81.2806 21.0225 81.3113 21.0404 81.3302 21.0688C81.4212 21.2078 81.5331 21.3309 81.633 21.4626C81.7644 21.6357 81.8842 21.8154 81.9944 22.002C82.0688 22.1281 82.1489 22.2512 82.1946 22.3922C82.2019 22.4144 82.1995 22.4382 82.2131 22.4587C82.2449 22.5067 82.2575 22.56 82.2561 22.6175C82.2545 22.7062 82.2555 22.7949 82.2558 22.8836C82.2558 22.9167 82.2535 22.9505 82.2383 22.9792C82.1621 23.1239 82.0774 23.2612 81.9193 23.3323C81.8868 23.3469 81.8646 23.3807 81.8289 23.3886C81.77 23.4015 81.7141 23.421 81.6585 23.4449C81.5764 23.4799 81.4851 23.4862 81.4033 23.5273C81.3798 23.5392 81.3484 23.5498 81.319 23.5488C81.2316 23.5455 81.1452 23.559 81.0582 23.559C80.1491 23.559 79.2398 23.559 78.3307 23.559C78.0941 23.559 77.8572 23.556 77.6205 23.56C77.4716 23.5627 77.329 23.5246 77.198 23.47C77.0778 23.42 76.9498 23.3909 76.8339 23.3261C76.7082 23.2559 76.5821 23.1867 76.4633 23.1053C76.3627 23.0365 76.2671 22.9601 76.1724 22.8823C76.0993 22.8224 76.0305 22.7579 75.962 22.6933C75.8458 22.5841 75.7359 22.4676 75.6267 22.3508C75.5377 22.2558 75.457 22.1529 75.367 22.0593C75.2412 21.9282 75.1227 21.7909 75.0026 21.6549C74.9063 21.5457 74.8133 21.4332 74.7157 21.3253C74.6462 21.2485 74.5721 21.176 74.5023 21.0989C74.4447 21.0351 74.3772 20.9798 74.3183 20.9169C74.2577 20.8521 74.1952 20.7875 74.1247 20.7362C74.0036 20.6482 73.8857 20.5526 73.7487 20.489C73.6419 20.4394 73.53 20.4027 73.4099 20.401C73.3434 20.4004 73.2858 20.4374 73.2222 20.4497C73.2007 20.4536 73.1776 20.4579 73.1584 20.4751C73.075 20.5489 72.983 20.6118 72.9042 20.6929C72.8413 20.7581 72.7894 20.8306 72.7593 20.91C72.7235 21.0046 72.6587 21.0847 72.6385 21.1876C72.6256 21.2538 72.5832 21.3124 72.5693 21.3825C72.5601 21.4299 72.5654 21.4812 72.5399 21.5268C72.5018 21.5943 72.4916 21.6685 72.4886 21.7462C72.4866 21.8045 72.479 21.864 72.4664 21.9213C72.4426 22.0288 72.4293 22.1384 72.4204 22.2466C72.4049 22.4345 72.4244 22.6245 72.4006 22.8131C72.3929 22.8727 72.3843 22.9293 72.3595 22.9829C72.3393 23.0266 72.3228 23.0712 72.3122 23.1182C72.3062 23.1437 72.2953 23.1679 72.2745 23.1861C72.2566 23.2016 72.2473 23.2241 72.2321 23.241C72.1686 23.3128 72.1047 23.383 72.0058 23.4108C71.9422 23.4286 71.8787 23.4538 71.8231 23.4885C71.7629 23.5263 71.6997 23.5398 71.6322 23.5494C71.5481 23.5613 71.465 23.5537 71.3813 23.5488C71.2536 23.5412 71.1265 23.5584 70.9991 23.558C70.8264 23.5574 70.6533 23.5557 70.4805 23.5584C70.2036 23.563 69.9266 23.5428 69.6496 23.5481C69.6357 23.5481 69.6211 23.5474 69.6079 23.5435C69.5364 23.5233 69.4616 23.5259 69.3891 23.5117C69.3087 23.4958 69.2267 23.4885 69.1472 23.4703C69.0493 23.4478 68.9503 23.4303 68.8521 23.4114C68.7336 23.3886 68.6108 23.3903 68.4966 23.3423C68.4407 23.3188 68.3762 23.3201 68.3219 23.2993C68.1833 23.2463 68.0363 23.2225 67.8987 23.1669C67.8136 23.1325 67.7193 23.1215 67.6402 23.0696C67.6329 23.065 67.6223 23.0646 67.6131 23.0633C67.573 23.0577 67.5343 23.0468 67.4976 23.0309C67.3943 22.9862 67.2927 22.9362 67.1885 22.8952C67.0932 22.8575 67.0025 22.8111 66.9099 22.7698C66.8162 22.7277 66.7232 22.6827 66.6322 22.6338C66.4433 22.5318 66.256 22.4266 66.071 22.3171C66.0217 22.2879 65.9747 22.2555 65.9277 22.2228C65.8264 22.1516 65.7156 22.093 65.6183 22.0182C65.5339 21.9534 65.4469 21.8908 65.3621 21.8266C65.2086 21.7105 65.0593 21.5897 64.9144 21.4633C64.7284 21.3011 64.5464 21.135 64.3747 20.958C64.2353 20.8143 64.0983 20.6687 63.964 20.5208C63.9309 20.4841 63.8952 20.4497 63.864 20.4109C63.7946 20.3239 63.7234 20.2379 63.6519 20.1525C63.5672 20.0516 63.4795 19.953 63.3964 19.851C63.3428 19.7852 63.2988 19.711 63.2432 19.6468C63.1509 19.54 63.0715 19.4238 62.9854 19.3126C62.904 19.2074 62.8309 19.0955 62.7538 18.9873C62.6721 18.8728 62.582 18.7643 62.5049 18.6461C62.4543 18.568 62.4083 18.4863 62.3511 18.4135C62.2965 18.344 62.2531 18.2669 62.2051 18.1938C62.1336 18.0855 62.0512 17.9846 61.9887 17.8701C61.951 17.8013 61.899 17.7404 61.8616 17.6716C61.8044 17.5657 61.7345 17.4677 61.6723 17.3651C61.6035 17.2513 61.5314 17.1398 61.4632 17.0256C61.4149 16.9449 61.3682 16.8628 61.3259 16.7791C61.2871 16.7026 61.2233 16.644 61.1855 16.5669C61.1554 16.5051 61.1243 16.4428 61.0896 16.3836C61.0201 16.2651 60.9483 16.1477 60.8794 16.0289C60.8162 15.9197 60.7567 15.8075 60.6988 15.6946C60.6501 15.5996 60.5935 15.509 60.5422 15.4157C60.4946 15.3293 60.4463 15.2432 60.4036 15.1546C60.3688 15.0821 60.3225 15.0156 60.2894 14.9431C60.252 14.8614 60.2044 14.7852 60.1637 14.7058C60.1246 14.6297 60.0915 14.5503 60.0505 14.4745C60.0025 14.3865 59.9492 14.3011 59.9042 14.2114C59.8632 14.1294 59.8337 14.0407 59.7751 13.9675C59.7725 13.9642 59.7725 13.9586 59.7715 13.954C59.7543 13.8765 59.7169 13.8047 59.6785 13.7389C59.6358 13.6654 59.6014 13.5876 59.5574 13.5148C59.4906 13.4046 59.4545 13.2782 59.3883 13.166C59.3509 13.1032 59.3264 13.0317 59.294 12.9648C59.2523 12.8791 59.2182 12.7884 59.1722 12.706C59.1246 12.621 59.1077 12.523 59.0488 12.4446C59.0425 12.436 59.0359 12.4258 59.0349 12.4155C59.0316 12.3751 59.0114 12.3404 58.9909 12.3086C58.9406 12.2315 58.9204 12.1415 58.8754 12.0617C58.828 11.9774 58.7973 11.8837 58.7572 11.795C58.7159 11.7033 58.6646 11.6157 58.6311 11.5217C58.5947 11.4188 58.557 11.3155 58.5388 11.207V10.9922C58.5451 10.9611 58.5653 10.9373 58.5789 10.9098C58.6391 10.7907 58.7437 10.7318 58.8615 10.6858C58.8999 10.6709 58.9406 10.6742 58.9793 10.6596C59.0514 10.6325 59.1265 10.608 59.2033 10.608C60.3745 10.6067 61.5456 10.607 62.7167 10.6073C62.7336 10.6073 62.7528 10.606 62.7674 10.6126C62.8491 10.65 62.9365 10.6695 63.0209 10.698C63.1473 10.7407 63.2581 10.8198 63.3475 10.9214C63.4401 11.0269 63.51 11.1457 63.5636 11.2778C63.6036 11.3767 63.6417 11.478 63.6923 11.5736C63.726 11.6368 63.7436 11.7083 63.7763 11.7735C63.7893 11.7993 63.7998 11.8298 63.8101 11.8586C63.8402 11.941 63.8644 12.0286 63.91 12.1018C63.9613 12.1839 63.9931 12.2742 64.0365 12.3589C64.0811 12.4459 64.1235 12.535 64.1609 12.6263C64.2013 12.7246 64.2539 12.8176 64.2972 12.9145C64.3131 12.9499 64.331 12.984 64.3492 13.0181C64.3859 13.0876 64.426 13.1564 64.4561 13.2279C64.4938 13.3176 64.551 13.396 64.5871 13.486C64.598 13.5135 64.6232 13.531 64.6371 13.5582C64.7072 13.6945 64.7834 13.8279 64.8538 13.9639C64.8866 14.0274 64.9349 14.0814 64.9654 14.1446C65.0001 14.2161 65.0514 14.276 65.0845 14.3481C65.1189 14.4229 65.1695 14.4904 65.2106 14.5625C65.248 14.6284 65.291 14.6909 65.332 14.7545C65.3823 14.8319 65.431 14.911 65.4823 14.9878C65.5455 15.0827 65.6093 15.1774 65.6679 15.2757C65.7262 15.3733 65.8043 15.459 65.8658 15.555C65.9595 15.7009 66.0703 15.8333 66.1762 15.9693C66.257 16.0729 66.3523 16.1655 66.4363 16.2668C66.523 16.371 66.6359 16.4428 66.7408 16.5242C66.8096 16.5775 66.8903 16.6146 66.9724 16.6483C67.0684 16.6881 67.1607 16.7036 67.261 16.6708C67.3748 16.6338 67.4655 16.5659 67.5284 16.4667C67.5773 16.3892 67.6306 16.3128 67.6541 16.2208C67.6674 16.1692 67.6968 16.1218 67.712 16.0706C67.7299 16.0103 67.7392 15.9478 67.7537 15.8866C67.7666 15.831 67.7891 15.7767 67.7941 15.7204C67.807 15.5745 67.8226 15.4299 67.847 15.2849C67.8626 15.1916 67.8762 15.0943 67.8778 14.999C67.8815 14.8094 67.8944 14.6201 67.8973 14.4308C67.902 14.1294 67.9036 13.8275 67.8818 13.5261C67.8705 13.3712 67.8841 13.2153 67.8725 13.0598C67.8643 12.9516 67.8434 12.8437 67.853 12.7345C67.8537 12.7269 67.8523 12.7183 67.8487 12.7117C67.8232 12.662 67.8249 12.6054 67.8183 12.5535C67.8017 12.4175 67.7931 12.2818 67.7633 12.1465C67.7306 11.9972 67.6776 11.8572 67.6207 11.7176C67.5916 11.6464 67.5419 11.5855 67.4986 11.5213C67.4569 11.4598 67.4086 11.4062 67.3526 11.3605C67.2358 11.2655 67.1025 11.196 66.9688 11.1285C66.9605 11.1242 66.9522 11.1189 66.9436 11.1176C66.8791 11.108 66.8189 11.0895 66.76 11.0594C66.7222 11.0402 66.6795 11.0259 66.6345 11.0316C66.5852 11.0379 66.5402 11.015 66.4929 11.0077C66.4578 11.0021 66.4317 10.9727 66.432 10.93C66.4333 10.8353 66.475 10.7582 66.5346 10.6881C66.6024 10.6087 66.6772 10.5352 66.7649 10.4803C66.852 10.4257 66.9297 10.3578 67.0303 10.3211C67.1015 10.2953 67.1759 10.2794 67.2448 10.2489C67.3113 10.2192 67.3745 10.191 67.4499 10.1824C67.58 10.1675 67.7064 10.1288 67.8351 10.103C67.9562 10.0788 68.0784 10.0838 68.1998 10.0696C68.3017 10.0577 68.405 10.0365 68.5096 10.0451C68.5152 10.0454 68.5215 10.0414 68.5271 10.0398L68.5268 10.0401Z" fill="#39282F"/>
<defs>
<filter id="filter0_d_246_1796" x="-17.9999" y="-5" width="69.5999" height="69.5999" filterUnits="userSpaceOnUse" color-interpolation-filters="sRGB">
<feFlood flood-opacity="0" result="BackgroundImageFix"/>
<feColorMatrix in="SourceAlpha" type="matrix" values="0 0 0 0 0 0 0 0 0 0 0 0 0 0 0 0 0 0 127 0" result="hardAlpha"/>
<feOffset dy="13"/>
<feGaussianBlur stdDeviation="9"/>
<feColorMatrix type="matrix" values="0 0 0 0 0.0658854 0 0 0 0 0.0730469 0 0 0 0 0.1375 0 0 0 0.08 0"/>
<feBlend mode="normal" in2="BackgroundImageFix" result="effect1_dropShadow_246_1796"/>
<feBlend mode="normal" in="SourceGraphic" in2="effect1_dropShadow_246_1796" result="shape"/>
</filter>
<filter id="filter1_d_246_1796" x="35.6002" y="-5" width="69.5999" height="69.5999" filterUnits="userSpaceOnUse" color-interpolation-filters="sRGB">
<feFlood flood-opacity="0" result="BackgroundImageFix"/>
<feColorMatrix in="SourceAlpha" type="matrix" values="0 0 0 0 0 0 0 0 0 0 0 0 0 0 0 0 0 0 127 0" result="hardAlpha"/>
<feOffset dy="13"/>
<feGaussianBlur stdDeviation="9"/>
<feColorMatrix type="matrix" values="0 0 0 0 0.0658854 0 0 0 0 0.0730469 0 0 0 0 0.1375 0 0 0 0.08 0"/>
<feBlend mode="normal" in2="BackgroundImageFix" result="effect1_dropShadow_246_1796"/>
<feBlend mode="normal" in="SourceGraphic" in2="effect1_dropShadow_246_1796" result="shape"/>
</filter>
<filter id="filter2_d_246_1796" x="89.2003" y="-5" width="69.5999" height="69.5999" filterUnits="userSpaceOnUse" color-interpolation-filters="sRGB">
<feFlood flood-opacity="0" result="BackgroundImageFix"/>
<feColorMatrix in="SourceAlpha" type="matrix" values="0 0 0 0 0 0 0 0 0 0 0 0 0 0 0 0 0 0 127 0" result="hardAlpha"/>
<feOffset dy="13"/>
<feGaussianBlur stdDeviation="9"/>
<feColorMatrix type="matrix" values="0 0 0 0 0.0658854 0 0 0 0 0.0730469 0 0 0 0 0.1375 0 0 0 0.08 0"/>
<feBlend mode="normal" in2="BackgroundImageFix" result="effect1_dropShadow_246_1796"/>
<feBlend mode="normal" in="SourceGraphic" in2="effect1_dropShadow_246_1796" result="shape"/>
</filter>
</defs>
</svg>
