<svg width="100%" height="100%" style="overflow:visible;" preserveAspectRatio="none" viewBox="0 0 24.44 25.7" fill="none" xmlns="http://www.w3.org/2000/svg">
<g style="mix-blend-mode:multiply">
<path d="M0.739082 2.72795C1.10245 8.36218 4.74375 12.7574 8.91875 16.2319C11.1066 18.0506 13.4306 19.6951 15.7585 21.3281C17.8176 22.7717 19.6156 23.9956 21.3719 25.5566C22.2727 26.3561 23.6429 26.447 24.5287 25.5566C25.3425 24.742 25.4333 23.1999 24.5287 22.3966C20.8609 19.1343 16.4852 16.6298 12.7152 13.5948C10.8984 12.1322 8.89983 10.3325 7.62046 8.61225C6.93535 7.69153 6.3108 6.68365 5.86794 5.62273C5.95499 5.82734 5.69383 5.11501 5.66355 5.02028C5.58784 4.78916 5.51971 4.55423 5.45915 4.31932C5.2661 3.5691 5.24718 3.4327 5.20176 2.72795C5.12227 1.52305 4.23276 0.492432 2.96852 0.492432C1.82162 0.492432 0.655805 1.51547 0.735293 2.72795H0.739082Z" fill="#0753A5"/>
</g>
</svg>
