<svg width="100%" height="100%" style="overflow:visible;" preserveAspectRatio="none" viewBox="0 0 151 27" fill="none" xmlns="http://www.w3.org/2000/svg">
<path fill-rule="evenodd" clip-rule="evenodd" d="M32.2287 22.8815C32.5222 23.6082 32.8163 24.3345 33.1109 25.0604C33.3237 25.5841 33.536 26.108 33.7477 26.632C33.7822 26.7178 33.8146 26.8044 33.8521 26.9071L31.4799 26.9066C28.9452 26.9054 26.3234 26.9045 23.7449 26.9155C23.4865 26.9163 23.4208 26.8717 23.3442 26.6337C23.1178 25.9326 22.8762 25.2244 22.6421 24.5398L22.6242 24.4871L22.6241 24.4869L22.6239 24.4863C22.4171 23.8793 22.2035 23.2528 22.0019 22.6346C21.861 22.2023 21.6181 22.0253 21.1648 22.0253H21.1543C18.3729 22.0421 15.4569 22.0421 12.4878 22.0261H12.479C12.0467 22.0261 11.8127 22.1964 11.6721 22.6132C11.2424 23.8879 10.7651 25.2395 10.212 26.7456C10.1708 26.8122 10.1097 26.8641 10.0373 26.894C7.013 26.908 3.93874 26.9063 0.960325 26.9046L0.761837 26.9045L0 26.9041C0.0125628 26.8729 0.0248851 26.8419 0.0371592 26.811L0.0372509 26.8108L0.06944 26.73L0.0914635 26.6746L0.0914812 26.6746C0.203721 26.3924 0.313429 26.1166 0.427212 25.8426C1.24391 23.8758 2.06075 21.9092 2.87771 19.9427C3.95931 17.3408 5.03991 14.7387 6.11953 12.1363C7.72149 8.27482 9.37775 4.28209 11.0184 0.287232C11.1148 0.0521463 11.1897 0 11.436 0H11.4427C15.0267 0.0134504 18.8149 0.0134504 22.7011 0.00083486C22.9641 -0.00504369 23.0416 0.0492067 23.1333 0.277991C25.8806 7.12502 28.6838 14.0831 31.3949 20.8115L32.2287 22.8815ZM16.715 8.43548L14.0389 15.9819H19.7063L17.1258 8.47165L16.715 8.43548ZM55.9725 16.6401C56.3229 15.8553 56.6733 15.0706 57.024 14.2858L57.125 14.3073V14.7358C57.125 15.5696 57.1252 16.4034 57.1254 17.2373C57.1261 20.3205 57.1268 23.4038 57.1178 26.4874C57.117 26.8221 57.2071 26.9155 57.5433 26.9134C59.4213 26.9028 61.2992 26.904 63.1772 26.9051C63.7645 26.9055 64.3518 26.9058 64.9391 26.9058H65.3351V3.77366C65.2952 3.75647 65.2534 3.74419 65.2105 3.73707L63.4831 3.73566H63.4829C60.7543 3.73329 58.4523 3.73128 55.5057 3.74001C55.4404 3.751 55.3785 3.77685 55.3248 3.81558C55.2711 3.8543 55.227 3.90486 55.196 3.96333C54.1837 6.26042 51.7406 10.5721 50.6327 12.5274C50.308 13.1005 50.0979 13.4711 50.0723 13.5293C50.0592 13.5035 49.9651 13.3435 49.8101 13.0799C48.9209 11.5677 46.0256 6.6437 44.8947 4.06553C44.862 3.95256 44.7897 3.85512 44.691 3.79097C44.5923 3.72682 44.4739 3.70023 44.3572 3.71604C40.9812 3.72572 38.5719 3.73244 35.1958 3.73244H34.7964V26.9058H35.1929C35.7921 26.9058 36.3913 26.9053 36.9905 26.9048H36.9906H36.9906H36.9907H36.9907H36.9913C38.845 26.9031 40.6988 26.9015 42.5524 26.9155C42.9283 26.918 43.0158 26.8129 43.0146 26.4474C43.004 23.3703 43.0048 20.2934 43.0057 17.2166V17.2136C43.0059 16.3743 43.0061 15.5351 43.0061 14.6959V14.2989L43.1025 14.2926C43.1294 14.3536 43.1566 14.4145 43.1837 14.4754L43.1837 14.4755L43.1838 14.4756L43.1838 14.4756L43.1838 14.4757C43.2448 14.6128 43.3058 14.7497 43.3643 14.8877C44.9447 18.6139 46.5215 22.3416 48.0949 26.0706C48.1178 26.157 48.1709 26.2323 48.2447 26.2828C48.3185 26.3334 48.4079 26.3558 48.4968 26.346C49.4561 26.3326 50.4157 26.3343 51.375 26.3448C51.4638 26.3541 51.553 26.3318 51.627 26.2818C51.7009 26.2318 51.7548 26.1573 51.7791 26.0714C53.1748 22.9267 54.5726 19.7829 55.9725 16.6401ZM122.262 10.5158C121.634 8.08962 119.983 6.4768 117.85 5.3127C115.746 4.16501 113.464 3.68221 111.083 3.70197C108.786 3.72087 106.488 3.70733 104.191 3.6938C101.58 3.67841 98.9696 3.66303 96.3591 3.69525C96.312 3.6958 96.2651 3.70067 96.2085 3.70655C96.1784 3.70967 96.1457 3.71307 96.1086 3.71627V26.9494H105.457V21.6285L105.411 15.501L105.408 15.5028L105.405 15.5043L105.405 15.5044C105.403 15.5054 105.401 15.5065 105.398 15.5078V10.5785C105.72 10.2833 106.063 10.0069 106.397 9.73714C107.054 9.20715 107.679 8.70258 108.052 8.1304C108.353 7.66879 108.551 7.20387 108.704 6.84397L108.704 6.84392C108.869 6.45595 108.982 6.19006 109.117 6.18198C109.617 6.15254 109.762 8.12242 109.762 8.12242C109.762 8.12242 110.391 7.35995 110.864 7.21485C111.18 7.11771 111.483 7.28215 111.158 7.79271C111.02 7.99146 110.905 8.20538 110.815 8.43026C110.746 8.68598 110.713 8.95039 110.718 9.21544C112.166 9.68688 112.329 10.2656 112.329 10.2656C112.36 10.4916 112.467 10.7005 112.633 10.8572C112.798 11.014 113.013 11.1093 113.241 11.1273C113.876 11.2362 114.498 11.4107 115.096 11.6479C115.655 11.7598 115.366 12.5445 115.164 12.5101C115.193 14.691 113.289 14.8542 112.196 14.6528C112.196 14.6528 106.386 13.4643 106.874 20.3256C107.108 20.3357 107.343 20.3464 107.578 20.3571L107.578 20.3571L107.578 20.3571C109.856 20.461 112.134 20.5649 114.391 20.0792C116.833 19.5535 119.029 18.553 120.701 16.6348C122.242 14.8673 122.858 12.8208 122.262 10.5158ZM93.9128 3.7298V26.9469L86.132 26.9469V12.7473C85.7662 13.4581 79.3146 23.9484 77.5927 26.6719C77.5708 26.7588 77.5181 26.835 77.4443 26.886C77.3706 26.9371 77.2807 26.9596 77.1915 26.9494C74.9801 26.9448 73.5802 26.9495 72.0948 26.9545H72.0944H72.0939H72.0932H72.0927C70.891 26.9586 69.6331 26.9628 67.8441 26.9625C67.7811 26.9625 67.7182 26.9579 67.6556 26.9534L67.6164 26.9507C67.6054 26.9499 67.5943 26.9492 67.5832 26.9485C67.5763 26.9481 67.5694 26.9477 67.5625 26.9473V3.73484H75.3172V18.0665C75.3559 18.0372 76.5227 16.1252 78.0077 13.6918L78.0083 13.691L78.0083 13.6908C80.1472 10.1861 82.9457 5.6004 83.9845 3.99979C84.0082 3.90825 84.065 3.82868 84.1438 3.77637C84.2227 3.72406 84.3181 3.70268 84.4117 3.71635C86.2113 3.71954 88.2752 3.72156 90.0187 3.72326H90.019L90.0194 3.72326C92.1812 3.72537 93.8504 3.72701 93.9128 3.7298ZM141.499 3.68967C141.405 3.67595 141.31 3.6973 141.231 3.74963C141.152 3.80195 141.095 3.88155 141.072 3.97313C140.031 5.57576 137.228 10.17 135.088 13.6761C133.606 16.1044 132.443 18.0107 132.404 18.0398V3.70818H124.65V26.9207C124.681 26.9223 124.712 26.9246 124.743 26.9268C124.805 26.9313 124.868 26.9358 124.931 26.9358C126.703 26.9361 127.954 26.932 129.146 26.9282H129.146C129.608 26.9267 130.061 26.9252 130.532 26.924L135.041 26.9232C136.126 26.7428 137.439 26.1628 137.612 24.4226C137.425 22.4872 138.544 21.456 138.841 21.1982C139.111 20.9697 139.369 20.7264 139.612 20.4694C139.84 20.3415 140.253 19.582 140.266 19.2397C140.278 18.8969 139.814 18.5285 139.814 18.5285C139.583 18.3228 139.336 18.1368 139.074 17.9725C138.563 17.624 138.588 16.8451 138.604 16.3529L138.606 16.2668C138.619 15.784 138.809 15.739 139.211 15.7226C139.591 15.7075 139.851 15.5425 140.18 15.3345L140.239 15.297C140.324 15.2433 140.401 15.1848 140.477 15.127C140.72 14.9423 140.952 14.765 141.421 14.7746C141.787 14.7826 142.144 14.6631 142.431 14.4365L142.472 14.4235C142.472 14.4235 142.783 12.5848 142.999 12.5798C143.184 12.5754 143.665 14.0726 144.06 15.3057L144.06 15.306C144.127 15.5126 144.191 15.7119 144.25 15.8954L144.279 15.9846C144.553 16.8226 144.777 17.5075 144.658 18.9423C144.659 18.9415 144.665 18.9385 144.665 18.9385C144.665 18.9385 144.519 20.8058 144.848 21.7945C145.063 22.3142 145.359 22.7963 145.726 23.2227C146.802 24.2213 147.648 25.4425 148.204 26.8012C148.214 26.8247 148.223 26.8484 148.232 26.8721C148.238 26.8883 148.245 26.9045 148.251 26.9207L149.339 26.9202H151V3.70355C150.939 3.70082 149.332 3.69919 147.231 3.69707H147.231L147.23 3.69707C145.461 3.69528 143.341 3.69313 141.499 3.68967ZM134.742 26.9652L133.568 26.9728C133.959 27.0113 134.352 27.0087 134.742 26.9652Z" fill="white"/>
</svg>
