<svg width="100%" height="100%" style="overflow:visible;" preserveAspectRatio="none" viewBox="0 0 28.04 36" fill="none" xmlns="http://www.w3.org/2000/svg">
<path fill-rule="evenodd" clip-rule="evenodd" d="M14.0488 0.197021C13.054 0.197021 12.1099 0.402722 11.2141 0.780772L11.2141 0.780708L11.2026 0.78571C10.3055 1.17616 9.50048 1.7261 8.81133 2.45812C8.12199 3.17994 7.59208 4.01051 7.22514 4.9424C6.85869 5.87304 6.67534 6.84168 6.67534 7.85092V8.90907H1.16876H0.0437622V10.0341V35.048V36.173H1.16876H26.9582H28.0832V35.048V10.0341V8.90907H26.9582H21.432V7.85092C21.432 5.84147 20.6677 3.89206 19.2814 2.45309C18.6 1.74073 17.7993 1.17931 16.8949 0.78571C15.9828 0.388756 15.024 0.197021 14.0488 0.197021ZM19.182 11.1591V13.45H21.432V11.1591H25.8332V33.923H2.29376V11.1591H6.67534V13.45H8.92534V11.1591H19.182ZM19.182 8.90907V7.85092C19.182 6.40469 18.6304 5.01966 17.6599 4.01298L17.6566 4.00954C17.179 3.50992 16.6246 3.12191 15.997 2.84878C15.3764 2.5787 14.7241 2.44702 14.0488 2.44702C13.3754 2.44702 12.7298 2.58411 12.0948 2.85129C11.4631 3.12705 10.9153 3.50503 10.4473 4.0028L10.4409 4.00967L10.4408 4.00965C9.95281 4.52005 9.57995 5.10325 9.31869 5.76675C9.05637 6.43296 8.92534 7.12181 8.92534 7.85092V8.90907H19.182Z" fill="white"/>
</svg>
