<svg width="100%" height="100%" style="overflow:visible;" preserveAspectRatio="none" viewBox="0 0 40.01 28.05" fill="none" xmlns="http://www.w3.org/2000/svg">
<path fill-rule="evenodd" clip-rule="evenodd" d="M-0.00350952 0.975586C-0.00350952 0.423301 0.444206 -0.0244141 0.99649 -0.0244141H39.0035C39.5558 -0.0244141 40.0035 0.423301 40.0035 0.975586C40.0035 1.52787 39.5558 1.97559 39.0035 1.97559H0.99649C0.444206 1.97559 -0.00350952 1.52787 -0.00350952 0.975586ZM-0.00350952 14C-0.00350952 13.4478 0.444206 13 0.99649 13H39.0035C39.5558 13 40.0035 13.4478 40.0035 14C40.0035 14.5523 39.5558 15 39.0035 15H0.99649C0.444206 15 -0.00350952 14.5523 -0.00350952 14ZM0.99649 26.0243C0.444206 26.0243 -0.00350952 26.472 -0.00350952 27.0243C-0.00350952 27.5765 0.444206 28.0243 0.99649 28.0243H39.0035C39.5558 28.0243 40.0035 27.5765 40.0035 27.0243C40.0035 26.472 39.5558 26.0243 39.0035 26.0243H0.99649Z" fill="white"/>
</svg>
