<svg width="100%" height="100%" style="overflow:visible;" preserveAspectRatio="none" viewBox="0 0 45 15" fill="none" xmlns="http://www.w3.org/2000/svg">
<path fill-rule="evenodd" clip-rule="evenodd" d="M7.55721 15.9163C7.53816 15.9164 7.51909 15.9165 7.5 15.9165C7.48091 15.9165 7.46184 15.9164 7.44279 15.9163H6.94727V15.8964C3.06322 15.6135 0 12.3727 0 8.4165C0 4.46027 3.06322 1.21949 6.94727 0.936562V0.916504H7.5H37.0845V0.927821C37.222 0.920309 37.3606 0.916504 37.5 0.916504C41.6421 0.916504 45 4.27437 45 8.4165C45 12.5586 41.6421 15.9165 37.5 15.9165C37.3606 15.9165 37.222 15.9127 37.0845 15.9052V15.9163H7.55721Z" fill="#392930"/>
</svg>
