<svg width="100%" height="100%" style="overflow:visible;" preserveAspectRatio="none" viewBox="0 0 36.01 36" fill="none" xmlns="http://www.w3.org/2000/svg">
<path fill-rule="evenodd" clip-rule="evenodd" d="M24.2035 14.0781C24.2035 14.4482 24.1635 14.8083 24.0935 15.1784C24.0235 15.5485 23.9135 15.8886 23.7735 16.2387C23.6335 16.5888 23.4635 16.9089 23.2535 17.209C23.0435 17.509 22.8135 17.7991 22.5535 18.0592C22.2935 18.3193 22.0035 18.5493 21.7035 18.7594C21.3935 18.9695 21.0735 19.1395 20.7335 19.2795C20.3935 19.4196 20.0435 19.5296 19.6735 19.5996C19.3135 19.6696 18.9435 19.7097 18.5735 19.7097C18.2035 19.7097 17.8335 19.6696 17.4735 19.5996C17.1135 19.5296 16.7635 19.4196 16.4135 19.2795C16.0735 19.1395 15.7435 18.9695 15.4435 18.7594C15.1335 18.5493 14.8535 18.3193 14.5935 18.0592C14.3335 17.7991 14.1035 17.509 13.8935 17.209C13.6835 16.8989 13.5135 16.5788 13.3735 16.2387C13.2335 15.8986 13.1235 15.5485 13.0535 15.1784C12.9835 14.8183 12.9435 14.4482 12.9435 14.0781C12.9435 13.708 12.9835 13.3379 13.0535 12.9778C13.1235 12.6177 13.2335 12.2676 13.3735 11.9175C13.5135 11.5674 13.6835 11.2473 13.8935 10.9472C14.1035 10.6371 14.3335 10.3571 14.5935 10.097C14.8535 9.83692 15.1435 9.60685 15.4435 9.39679C15.7535 9.18674 16.0735 9.01669 16.4135 8.87665C16.7535 8.73661 17.1035 8.62658 17.4735 8.55656C17.8335 8.48654 18.2035 8.44653 18.5735 8.44653C18.9435 8.44653 19.3135 8.48654 19.6735 8.55656C20.0335 8.62658 20.3835 8.73661 20.7335 8.87665C21.0735 9.01669 21.4035 9.18674 21.7035 9.39679C22.0035 9.60685 22.2935 9.83692 22.5535 10.097C22.8135 10.3571 23.0435 10.6471 23.2535 10.9472C23.4635 11.2473 23.6335 11.5774 23.7735 11.9175C23.9135 12.2576 24.0235 12.6077 24.0935 12.9778C24.1635 13.3479 24.2035 13.708 24.2035 14.0781ZM21.9535 14.0781C21.9535 14.5282 21.8635 14.9583 21.6935 15.3685C21.5235 15.7786 21.2735 16.1487 20.9635 16.4588C20.6435 16.7788 20.2835 17.0189 19.8735 17.189C19.4635 17.359 19.0335 17.449 18.5835 17.449C18.1335 17.449 17.7035 17.359 17.2935 17.189C16.8835 17.0189 16.5135 16.7688 16.2035 16.4588C15.8835 16.1387 15.6435 15.7786 15.4735 15.3685C15.3035 14.9583 15.2135 14.5282 15.2135 14.0781C15.2135 13.628 15.3035 13.1978 15.4735 12.7877C15.6435 12.3776 15.8935 12.0075 16.2035 11.6874C16.5235 11.3673 16.8835 11.1273 17.2935 10.9572C17.7035 10.7872 18.1335 10.6972 18.5835 10.6972C19.0335 10.6972 19.4635 10.7872 19.8735 10.9572C20.2835 11.1273 20.6535 11.3773 20.9635 11.6874C21.2835 12.0075 21.5235 12.3676 21.6935 12.7877C21.8635 13.1978 21.9535 13.628 21.9535 14.0781ZM36.5735 18.3993C36.5735 23.1306 34.7535 27.4318 31.7735 30.6427C30.9335 31.5529 30.0035 32.3632 28.9935 33.0834C27.9835 33.8036 26.9135 34.4137 25.7735 34.9039C24.6335 35.404 23.4635 35.7741 22.2535 36.0242C21.0435 36.2743 19.8135 36.4043 18.5735 36.4043C15.3735 36.4043 12.3935 35.6141 9.62347 34.0236C8.24347 33.2334 7.00347 32.2831 5.87347 31.1628C4.75347 30.0425 3.79348 28.8022 2.99348 27.4318C2.20348 26.0614 1.59347 24.611 1.18347 23.0806C0.773472 21.5502 0.563477 19.9897 0.563477 18.4093C0.563477 8.46654 8.62348 0.404297 18.5635 0.404297C28.5035 0.404297 36.5635 8.46654 36.5635 18.4093L36.5735 18.3993ZM18.5735 22.0003C19.7735 22.0003 20.9535 22.1503 22.1135 22.4404C23.2735 22.7305 24.3835 23.1706 25.4335 23.7408C26.4835 24.3109 27.4535 25.0011 28.3335 25.8114C29.2135 26.6216 29.9835 27.5318 30.6335 28.5321C31.8235 27.1117 32.7435 25.5313 33.3735 23.7908C34.0035 22.0503 34.3235 20.2498 34.3235 18.3993C34.3235 9.69688 27.2735 2.64492 18.5735 2.64492C9.87347 2.64492 2.82347 9.69688 2.82347 18.3993C2.82347 22.2604 4.21347 25.7913 6.51347 28.5321C7.16347 27.5318 7.93348 26.6216 8.81348 25.8114C9.69348 25.0011 10.6635 24.3109 11.7135 23.7408C12.7635 23.1706 13.8735 22.7405 15.0335 22.4404C16.1935 22.1503 17.3735 22.0003 18.5735 22.0003ZM18.5735 34.1537C22.5835 34.1537 26.2435 32.6533 29.0135 30.1926C28.4735 29.2823 27.8335 28.4621 27.0735 27.7319C26.3235 26.9917 25.4835 26.3615 24.5735 25.8414C23.6535 25.3212 22.6935 24.9211 21.6735 24.661C20.6535 24.391 19.6235 24.2609 18.5635 24.2609C17.5135 24.2609 16.4735 24.391 15.4535 24.661C14.4335 24.9311 13.4635 25.3212 12.5535 25.8514C11.6335 26.3715 10.8035 27.0017 10.0535 27.7419C9.30347 28.4821 8.65347 29.3023 8.11347 30.2026C9.55347 31.4829 11.1735 32.4632 12.9735 33.1434C14.7735 33.8236 16.6335 34.1637 18.5635 34.1637L18.5735 34.1537Z" fill="white"/>
</svg>
