<svg width="100%" height="100%" style="overflow:visible;" preserveAspectRatio="none" viewBox="0 0 34.52 31.49" fill="none" xmlns="http://www.w3.org/2000/svg">
<path d="M16.1309 4.08664L16.9409 4.90664L17.7409 4.08664C18.6209 3.18664 20.6309 1.59664 23.0309 0.926636C25.3509 0.276636 28.0509 0.476636 30.6209 3.09664C33.1909 5.72664 33.4009 8.51664 32.7509 10.9166C32.0909 13.3966 30.5309 15.4566 29.6509 16.3566L22.1609 24.0266L17.9609 28.3166L16.9209 29.3766L15.8809 28.3166L11.6809 24.0266L4.20086 16.3666C3.32086 15.4666 1.76086 13.4066 1.10086 10.9266C0.46086 8.51664 0.66086 5.73664 3.23086 3.10664C5.80086 0.476636 8.49086 0.286636 10.8209 0.936636C13.2309 1.60664 15.2409 3.20664 16.1109 4.10664L16.1309 4.08664Z" stroke="white" stroke-width="2.25"/>
</svg>
