<svg width="100%" height="100%" style="overflow:visible;" preserveAspectRatio="none" viewBox="0 0 36.01 36" fill="none" xmlns="http://www.w3.org/2000/svg">
<path fill-rule="evenodd" clip-rule="evenodd" d="M24.2035 13.6738C24.2035 14.0439 24.1635 14.404 24.0935 14.7741C24.0235 15.1442 23.9135 15.4843 23.7735 15.8344C23.6335 16.1845 23.4635 16.5046 23.2535 16.8047C23.0435 17.1047 22.8135 17.3948 22.5535 17.6549C22.2935 17.915 22.0035 18.145 21.7035 18.3551C21.3935 18.5652 21.0735 18.7352 20.7335 18.8752C20.3935 19.0153 20.0435 19.1253 19.6735 19.1953C19.3135 19.2654 18.9435 19.3054 18.5735 19.3054C18.2035 19.3054 17.8335 19.2654 17.4735 19.1953C17.1135 19.1253 16.7635 19.0153 16.4135 18.8752C16.0735 18.7352 15.7435 18.5652 15.4435 18.3551C15.1335 18.145 14.8535 17.915 14.5935 17.6549C14.3335 17.3948 14.1035 17.1047 13.8935 16.8047C13.6835 16.4946 13.5135 16.1745 13.3735 15.8344C13.2335 15.4943 13.1235 15.1442 13.0535 14.7741C12.9835 14.414 12.9435 14.0439 12.9435 13.6738C12.9435 13.3037 12.9835 12.9336 13.0535 12.5735C13.1235 12.2134 13.2335 11.8633 13.3735 11.5132C13.5135 11.1631 13.6835 10.843 13.8935 10.5429C14.1035 10.2328 14.3335 9.95276 14.5935 9.69269C14.8535 9.43262 15.1435 9.20256 15.4435 8.9925C15.7535 8.78244 16.0735 8.61239 16.4135 8.47235C16.7535 8.33231 17.1035 8.22228 17.4735 8.15226C17.8335 8.08224 18.2035 8.04223 18.5735 8.04223C18.9435 8.04223 19.3135 8.08224 19.6735 8.15226C20.0335 8.22228 20.3835 8.33231 20.7335 8.47235C21.0735 8.61239 21.4035 8.78244 21.7035 8.9925C22.0035 9.20256 22.2935 9.43262 22.5535 9.69269C22.8135 9.95276 23.0435 10.2428 23.2535 10.5429C23.4635 10.843 23.6335 11.1731 23.7735 11.5132C23.9135 11.8533 24.0235 12.2034 24.0935 12.5735C24.1635 12.9436 24.2035 13.3037 24.2035 13.6738ZM21.9535 13.6738C21.9535 14.1239 21.8635 14.554 21.6935 14.9642C21.5235 15.3743 21.2735 15.7444 20.9635 16.0545C20.6435 16.3745 20.2835 16.6146 19.8735 16.7847C19.4635 16.9547 19.0335 17.0447 18.5835 17.0447C18.1335 17.0447 17.7035 16.9547 17.2935 16.7847C16.8835 16.6146 16.5135 16.3645 16.2035 16.0545C15.8835 15.7344 15.6435 15.3743 15.4735 14.9642C15.3035 14.554 15.2135 14.1239 15.2135 13.6738C15.2135 13.2237 15.3035 12.7936 15.4735 12.3834C15.6435 11.9733 15.8935 11.6032 16.2035 11.2831C16.5235 10.963 16.8835 10.723 17.2935 10.5529C17.7035 10.3829 18.1335 10.2929 18.5835 10.2929C19.0335 10.2929 19.4635 10.3829 19.8735 10.5529C20.2835 10.723 20.6535 10.973 20.9635 11.2831C21.2835 11.6032 21.5235 11.9633 21.6935 12.3834C21.8635 12.7936 21.9535 13.2237 21.9535 13.6738ZM36.5735 17.995C36.5735 22.7263 34.7535 27.0275 31.7735 30.2384C30.9335 31.1486 30.0035 31.9589 28.9935 32.6791C27.9835 33.3993 26.9135 34.0094 25.7735 34.4996C24.6335 34.9997 23.4635 35.3698 22.2535 35.6199C21.0435 35.87 19.8135 36 18.5735 36C15.3735 36 12.3935 35.2098 9.62347 33.6193C8.24347 32.8291 7.00347 31.8789 5.87347 30.7585C4.75347 29.6382 3.79348 28.3979 2.99348 27.0275C2.20348 25.6571 1.59347 24.2067 1.18347 22.6763C0.773472 21.1459 0.563477 19.5854 0.563477 18.005C0.563477 8.06224 8.62348 0 18.5635 0C28.5035 0 36.5635 8.06224 36.5635 18.005L36.5735 17.995ZM18.5735 21.596C19.7735 21.596 20.9535 21.746 22.1135 22.0361C23.2735 22.3262 24.3835 22.7663 25.4335 23.3365C26.4835 23.9066 27.4535 24.5968 28.3335 25.4071C29.2135 26.2173 29.9835 27.1275 30.6335 28.1278C31.8235 26.7074 32.7435 25.127 33.3735 23.3865C34.0035 21.646 34.3235 19.8455 34.3235 17.995C34.3235 9.29258 27.2735 2.24062 18.5735 2.24062C9.87347 2.24062 2.82347 9.29258 2.82347 17.995C2.82347 21.8561 4.21347 25.387 6.51347 28.1278C7.16347 27.1275 7.93348 26.2173 8.81348 25.4071C9.69348 24.5968 10.6635 23.9066 11.7135 23.3365C12.7635 22.7663 13.8735 22.3362 15.0335 22.0361C16.1935 21.746 17.3735 21.596 18.5735 21.596ZM18.5735 33.7494C22.5835 33.7494 26.2435 32.249 29.0135 29.7883C28.4735 28.878 27.8335 28.0578 27.0735 27.3276C26.3235 26.5874 25.4835 25.9572 24.5735 25.4371C23.6535 24.9169 22.6935 24.5168 21.6735 24.2567C20.6535 23.9867 19.6235 23.8566 18.5635 23.8566C17.5135 23.8566 16.4735 23.9867 15.4535 24.2567C14.4335 24.5268 13.4635 24.9169 12.5535 25.4471C11.6335 25.9672 10.8035 26.5974 10.0535 27.3376C9.30347 28.0778 8.65347 28.898 8.11347 29.7983C9.55347 31.0786 11.1735 32.0589 12.9735 32.7391C14.7735 33.4193 16.6335 33.7594 18.5635 33.7594L18.5735 33.7494Z" fill="white"/>
</svg>
