<svg width="100%" height="100%" style="overflow:visible;" preserveAspectRatio="none" viewBox="0 0 200.27 75.2" fill="none" xmlns="http://www.w3.org/2000/svg">
<g filter="url(#filter0_d_246_824)">
<circle cx="20.3206" cy="19.7494" r="19.5999" fill="#39282F"/>
</g>
<g filter="url(#filter1_d_246_824)">
<circle cx="82.8543" cy="19.7496" r="19.5999" fill="#39282F"/>
</g>
<g filter="url(#filter2_d_246_824)">
<circle cx="145.388" cy="19.7496" r="19.5999" fill="white"/>
</g>
<path d="M151.513 19.7497C151.513 21.3741 150.867 22.932 149.719 24.0807C148.57 25.2294 147.012 25.8747 145.388 25.8747C143.763 25.8747 142.205 25.2294 141.057 24.0807C139.908 22.932 139.263 21.3741 139.263 19.7497C139.263 19.4005 139.299 19.0596 139.363 18.7288H137.221V26.8894C137.221 27.457 137.68 27.9163 138.248 27.9163H152.529C152.801 27.9158 153.062 27.8074 153.254 27.6148C153.446 27.4223 153.554 27.1614 153.554 26.8894V18.7288H151.413C151.476 19.0596 151.513 19.4005 151.513 19.7497ZM145.388 23.833C145.924 23.8329 146.455 23.7271 146.951 23.5217C147.446 23.3163 147.896 23.0154 148.275 22.636C148.655 22.2566 148.955 21.8063 149.16 21.3107C149.366 20.8151 149.471 20.284 149.471 19.7476C149.471 19.2113 149.365 18.6802 149.16 18.1847C148.954 17.6892 148.653 17.239 148.274 16.8598C147.895 16.4807 147.444 16.1799 146.949 15.9748C146.453 15.7697 145.922 15.6642 145.386 15.6643C144.302 15.6646 143.264 16.0951 142.498 16.8613C141.732 17.6275 141.302 18.6664 141.302 19.7497C141.303 20.8329 141.733 21.8717 142.499 22.6374C143.265 23.4032 144.304 23.8333 145.388 23.833ZM150.288 15.4622H152.736C152.898 15.4622 153.054 15.3977 153.169 15.2829C153.285 15.1681 153.35 15.0123 153.35 14.8497V12.4017C153.35 12.2387 153.285 12.0824 153.17 11.9672C153.055 11.8519 152.899 11.7872 152.736 11.7872H150.288C150.125 11.7872 149.968 11.8519 149.853 11.9672C149.738 12.0824 149.673 12.2387 149.673 12.4017V14.8497C149.675 15.1865 149.951 15.4622 150.288 15.4622ZM145.388 0.149658C140.189 0.149658 135.204 2.21465 131.528 5.89037C127.853 9.56608 125.788 14.5514 125.788 19.7497C125.788 24.9479 127.853 29.9333 131.528 33.609C135.204 37.2847 140.189 39.3497 145.388 39.3497C147.962 39.3497 150.51 38.8427 152.888 37.8577C155.266 36.8727 157.427 35.429 159.247 33.609C161.067 31.7889 162.511 29.6283 163.496 27.2503C164.481 24.8723 164.988 22.3236 164.988 19.7497C164.988 17.1758 164.481 14.6271 163.496 12.2491C162.511 9.87109 161.067 7.7104 159.247 5.89037C157.427 4.07034 155.266 2.62661 152.888 1.64162C150.51 0.656628 147.962 0.149658 145.388 0.149658ZM155.596 27.6897C155.596 28.9372 154.575 29.958 153.328 29.958H137.448C136.2 29.958 135.179 28.9372 135.179 27.6897V11.8096C135.179 10.5622 136.2 9.54133 137.448 9.54133H153.328C154.575 9.54133 155.596 10.5622 155.596 11.8096V27.6897Z" fill="#39282F"/>
<path d="M29.8449 10.2289C29.7578 9.97772 29.654 9.90737 29.4932 9.84708C29.1415 9.71309 28.5452 9.9141 28.5452 9.9141C28.5452 9.9141 7.41224 17.5111 6.20637 18.3519C5.94509 18.5327 5.858 18.6366 5.8178 18.7605C5.61013 19.3601 6.25996 19.6247 6.25996 19.6247L11.7065 21.4C11.7065 21.4 11.9108 21.4302 11.9812 21.3833C13.2205 20.5995 24.4486 13.5116 25.0951 13.2738C25.1989 13.2436 25.2726 13.2772 25.2525 13.3475C24.9946 14.2586 15.2437 22.9241 15.2437 22.9241C15.2437 22.9241 15.2069 22.971 15.1834 23.0246L15.17 23.0179L14.6609 28.4209C14.6609 28.4209 14.4465 30.0757 16.1046 28.4209C17.2736 27.2519 18.4025 26.2771 18.9686 25.8015C20.841 27.0945 22.8575 28.5248 23.7251 29.2717C24.1605 29.6469 24.529 29.7072 24.8271 29.6971C25.6511 29.667 25.8822 28.7593 25.8822 28.7593C25.8822 28.7593 29.7343 13.2604 29.8616 11.1836C29.875 10.9793 29.8918 10.852 29.8918 10.7113C29.8918 10.517 29.875 10.3227 29.8449 10.2289Z" fill="white"/>
<path d="M80.6692 11.8632C81.4433 11.8632 82.2174 11.8632 82.9915 11.8632C83.1625 11.8867 83.3351 11.8933 83.5065 11.9118C83.6111 11.9234 83.7127 11.952 83.8177 11.9562C83.9157 11.9605 84.0053 12.0049 84.1026 12.0192C84.1613 12.0276 84.2246 12.0192 84.2787 12.0412C84.4323 12.1025 84.5956 12.1439 84.7338 12.2388C84.9072 12.3581 85.0346 12.5172 85.1025 12.7183C85.1157 12.7577 85.1303 12.7963 85.1439 12.8349C85.155 12.8674 85.1744 12.8959 85.184 12.9291C85.2141 13.0357 85.2122 13.1469 85.223 13.2554C85.2365 13.3917 85.2496 13.5295 85.2504 13.6673C85.2512 13.8322 85.2473 13.9966 85.2315 14.1615C85.2106 14.3789 85.2326 14.5978 85.2118 14.8174C85.1817 15.1321 85.2157 15.4498 85.1902 15.7672C85.1674 16.0525 85.1855 16.3409 85.1852 16.6278C85.1852 16.7096 85.189 16.7915 85.1832 16.8729C85.1674 17.088 85.155 17.303 85.1531 17.5188C85.1512 17.6876 85.1527 17.8567 85.1531 18.0258C85.1531 18.0547 85.1531 18.0837 85.1593 18.1122C85.1906 18.2589 85.1879 18.4095 85.2049 18.5582C85.2122 18.623 85.2168 18.691 85.2392 18.7485C85.2852 18.8682 85.2859 19.0056 85.377 19.1083C85.3859 19.1184 85.3913 19.135 85.3913 19.1485C85.3913 19.1828 85.4099 19.2075 85.4295 19.2303C85.45 19.2539 85.4662 19.2794 85.4836 19.3044C85.5434 19.3921 85.6218 19.4658 85.7098 19.5199C85.8342 19.5959 85.9731 19.5809 86.1063 19.5338C86.2415 19.4859 86.3503 19.394 86.4611 19.3071C86.5781 19.2153 86.6808 19.1075 86.7882 19.0052C86.8519 18.9446 86.9048 18.8724 86.9658 18.8083C87.0075 18.7643 87.0422 18.713 87.0835 18.667C87.1341 18.6111 87.1823 18.5524 87.2283 18.4921C87.2839 18.4192 87.3379 18.345 87.3893 18.269C87.4368 18.1983 87.497 18.1377 87.5483 18.0702C87.5962 18.0076 87.6252 17.935 87.6727 17.874C87.7213 17.8115 87.7622 17.7435 87.8074 17.6787C87.9225 17.5134 88.0282 17.3416 88.139 17.1733C88.2356 17.027 88.3255 16.8772 88.4108 16.7239C88.4514 16.6513 88.49 16.5756 88.5417 16.5119C88.6101 16.4282 88.6506 16.3293 88.7058 16.2386C88.7602 16.1498 88.8054 16.0548 88.8506 15.9606C88.8973 15.8633 88.9544 15.7714 89.0042 15.6761C89.044 15.6 89.0772 15.5201 89.1224 15.4471C89.1475 15.407 89.1699 15.3672 89.1845 15.3221C89.2181 15.217 89.2683 15.1178 89.3143 15.019C89.3745 14.8896 89.4517 14.768 89.5023 14.6325C89.544 14.5217 89.6031 14.4175 89.6583 14.3125C89.6814 14.2684 89.6868 14.2152 89.7112 14.1723C89.7355 14.1295 89.7536 14.0851 89.7729 14.0407C89.8293 13.9102 89.8694 13.7731 89.9366 13.6472C89.9532 13.6164 89.9671 13.5839 89.9733 13.5511C89.9841 13.4944 90.0088 13.4461 90.0378 13.3975C90.0521 13.3731 90.0613 13.3457 90.071 13.3187C90.1127 13.2017 90.1509 13.0824 90.2134 12.9751C90.271 12.8755 90.3416 12.7851 90.425 12.7037C90.4706 12.6589 90.5169 12.6214 90.5779 12.6079C90.6231 12.5979 90.6621 12.5782 90.7022 12.5566C90.7381 12.5373 90.7775 12.5257 90.8215 12.5257C92.4693 12.5265 94.1175 12.5265 95.7652 12.5265C95.7923 12.5265 95.8181 12.535 95.8444 12.5396C95.9386 12.5554 96.0243 12.6006 96.1224 12.6068C96.1957 12.6114 96.2725 12.6272 96.3355 12.6759C96.3536 12.6902 96.3756 12.7002 96.3973 12.7091C96.4714 12.7392 96.5308 12.7925 96.5799 12.8508C96.625 12.9044 96.6741 12.972 96.6802 13.0376C96.6953 13.1886 96.7003 13.343 96.6772 13.4936C96.664 13.5781 96.6177 13.6573 96.6046 13.7418C96.5857 13.8673 96.5301 13.9797 96.4837 14.0928C96.4471 14.1823 96.4003 14.2715 96.354 14.3588C96.2729 14.5109 96.2119 14.6731 96.1227 14.8213C96.1019 14.8564 96.0961 14.8989 96.0683 14.9325C95.9737 15.0476 95.9174 15.1865 95.8351 15.3093C95.7822 15.3885 95.7452 15.4796 95.6842 15.551C95.6247 15.6205 95.5861 15.7012 95.5355 15.7749C95.4332 15.9236 95.3328 16.0737 95.2309 16.2228C95.1402 16.3552 95.0452 16.4853 94.9525 16.6166C94.9089 16.6783 94.8672 16.742 94.8221 16.803C94.746 16.9061 94.6669 17.0069 94.5916 17.1104C94.5116 17.2204 94.4302 17.3289 94.3479 17.4366C94.1823 17.6536 94.0171 17.8709 93.8518 18.0879C93.8113 18.1412 93.7831 18.2037 93.7356 18.2497C93.6449 18.3377 93.5762 18.4423 93.5048 18.5439C93.3916 18.7053 93.2627 18.8547 93.1426 19.0103C93.0635 19.113 92.9963 19.2241 92.9121 19.3241C92.8137 19.4411 92.7372 19.5762 92.6438 19.6982C92.5287 19.8484 92.4345 20.0129 92.3438 20.1785C92.2801 20.2944 92.2411 20.4206 92.2087 20.548C92.189 20.626 92.1724 20.7059 92.1639 20.7858C92.1527 20.8916 92.2037 20.9893 92.2153 21.0924C92.2241 21.1692 92.2948 21.2121 92.3114 21.2823C92.3349 21.3808 92.3998 21.4557 92.46 21.5298C92.5739 21.6699 92.6971 21.8028 92.8202 21.9348C92.899 22.0193 92.9832 22.0981 93.0704 22.1749C93.1951 22.285 93.3129 22.4035 93.4329 22.5189C93.5476 22.6294 93.6742 22.7278 93.7862 22.8401C93.9287 22.9838 94.0804 23.1174 94.2217 23.2617C94.2684 23.3092 94.3256 23.3448 94.3665 23.3992C94.4348 23.4903 94.5201 23.5667 94.6031 23.6451C94.6819 23.7196 94.7568 23.7984 94.8333 23.8748C94.9637 24.0046 95.0711 24.1582 95.2062 24.2822C95.3263 24.3926 95.422 24.52 95.5232 24.6447C95.5487 24.676 95.5846 24.6968 95.6066 24.73C95.7127 24.8922 95.8432 25.0358 95.9598 25.1894C96.1131 25.3914 96.2529 25.601 96.3814 25.8187C96.4683 25.9658 96.5617 26.1095 96.615 26.2739C96.6235 26.2998 96.6208 26.3276 96.6366 26.3515C96.6737 26.4075 96.6884 26.4697 96.6868 26.5368C96.6849 26.6403 96.686 26.7438 96.6864 26.8473C96.6864 26.8859 96.6837 26.9252 96.666 26.9588C96.5772 27.1275 96.4783 27.2878 96.2938 27.3708C96.2559 27.3878 96.2301 27.4271 96.1884 27.4364C96.1197 27.4515 96.0544 27.4742 95.9896 27.502C95.8938 27.543 95.7872 27.5503 95.6919 27.5982C95.6645 27.6121 95.6278 27.6244 95.5934 27.6233C95.4915 27.6194 95.3907 27.6352 95.2892 27.6352C94.2287 27.6352 93.1677 27.6352 92.1072 27.6352C91.8311 27.6352 91.5547 27.6318 91.2786 27.6364C91.1049 27.6395 90.9385 27.5951 90.7856 27.5314C90.6455 27.4731 90.496 27.4391 90.3609 27.3634C90.2142 27.2816 90.0671 27.2009 89.9285 27.1059C89.8111 27.0256 89.6996 26.9364 89.5892 26.8457C89.5038 26.7758 89.4235 26.7005 89.3436 26.6253C89.2081 26.4979 89.0799 26.362 88.9525 26.2257C88.8487 26.1149 88.7545 25.9948 88.6494 25.8855C88.5027 25.7326 88.3645 25.5724 88.2244 25.4137C88.112 25.2863 88.0035 25.1551 87.8896 25.0292C87.8086 24.9396 87.7221 24.8551 87.6406 24.7651C87.5734 24.6906 87.4947 24.6261 87.426 24.5528C87.3553 24.4771 87.2823 24.4018 87.2001 24.342C87.0588 24.2393 86.9214 24.1277 86.7615 24.0536C86.6368 23.9957 86.5063 23.9528 86.3662 23.9509C86.2886 23.9501 86.2214 23.9934 86.1473 24.0076C86.1222 24.0123 86.0951 24.0173 86.0728 24.0374C85.9755 24.1235 85.8681 24.1968 85.7762 24.2914C85.7029 24.3675 85.6423 24.452 85.6071 24.5447C85.5654 24.6551 85.4898 24.7485 85.4662 24.8686C85.4512 24.9458 85.4018 25.0142 85.3855 25.096C85.3747 25.1512 85.3809 25.2111 85.3512 25.2643C85.3068 25.3431 85.2948 25.4296 85.2913 25.5203C85.289 25.5883 85.2801 25.6577 85.2655 25.7245C85.2377 25.85 85.2222 25.9778 85.2118 26.1041C85.1937 26.3233 85.2164 26.545 85.1886 26.765C85.1798 26.8345 85.1697 26.9005 85.1408 26.9631C85.1172 27.014 85.0979 27.0662 85.0856 27.121C85.0786 27.1507 85.0659 27.1789 85.0415 27.2001C85.0207 27.2183 85.0099 27.2445 84.9921 27.2642C84.918 27.348 84.8435 27.4298 84.728 27.4623C84.6539 27.4831 84.5798 27.5125 84.5149 27.553C84.4447 27.597 84.3709 27.6128 84.2922 27.624C84.1941 27.6379 84.0972 27.6291 83.9995 27.6233C83.8505 27.6144 83.7022 27.6345 83.5536 27.6341C83.3521 27.6333 83.1501 27.6314 82.9486 27.6345C82.6255 27.6399 82.3023 27.6163 81.9792 27.6225C81.963 27.6225 81.946 27.6217 81.9305 27.6171C81.8471 27.5935 81.7599 27.5966 81.6753 27.58C81.5815 27.5615 81.4858 27.553 81.3931 27.5318C81.2788 27.5055 81.1634 27.4851 81.0487 27.463C80.9105 27.4364 80.7673 27.4383 80.6341 27.3824C80.5688 27.3549 80.4935 27.3565 80.4302 27.3322C80.2685 27.2704 80.097 27.2426 79.9364 27.1777C79.8372 27.1376 79.7272 27.1248 79.6349 27.0642C79.6264 27.0588 79.6141 27.0584 79.6032 27.0569C79.5565 27.0503 79.5114 27.0376 79.4685 27.0191C79.348 26.9669 79.2295 26.9086 79.1079 26.8608C78.9967 26.8168 78.8909 26.7627 78.7828 26.7144C78.6736 26.6654 78.5651 26.6129 78.4589 26.5558C78.2385 26.4369 78.0199 26.3141 77.8041 26.1863C77.7466 26.1523 77.6918 26.1145 77.637 26.0763C77.5188 25.9932 77.3895 25.9249 77.276 25.8377C77.1775 25.762 77.076 25.689 76.9771 25.6141C76.798 25.4786 76.6239 25.3377 76.4548 25.1902C76.2378 25.001 76.0255 24.8072 75.8251 24.6007C75.6625 24.4331 75.5027 24.2632 75.346 24.0907C75.3074 24.0478 75.2657 24.0077 75.2294 23.9625C75.1483 23.8609 75.0653 23.7606 74.9819 23.661C74.8831 23.5432 74.7807 23.4281 74.6838 23.3092C74.6213 23.2324 74.5699 23.1459 74.5051 23.071C74.3974 22.9463 74.3047 22.8108 74.2043 22.6811C74.1094 22.5583 74.024 22.4278 73.9341 22.3016C73.8387 22.168 73.7337 22.0414 73.6437 21.9035C73.5847 21.8124 73.531 21.717 73.4642 21.6321C73.4005 21.551 73.3499 21.4611 73.294 21.3758C73.2106 21.2495 73.1144 21.1318 73.0415 20.9982C72.9975 20.9179 72.9368 20.8468 72.8932 20.7665C72.8264 20.643 72.745 20.5287 72.6724 20.409C72.5921 20.2762 72.5079 20.1461 72.4284 20.0129C72.372 19.9187 72.3176 19.8229 72.2682 19.7253C72.223 19.6361 72.1485 19.5678 72.1045 19.4778C72.0693 19.4056 72.033 19.333 71.9925 19.2639C71.9114 19.1257 71.8276 18.9886 71.7473 18.85C71.6736 18.7226 71.6041 18.5917 71.5365 18.4601C71.4798 18.3493 71.4138 18.2435 71.3539 18.1346C71.2983 18.0339 71.242 17.9335 71.1922 17.83C71.1516 17.7455 71.0976 17.6679 71.059 17.5833C71.0153 17.4879 70.9597 17.3992 70.9122 17.3065C70.8667 17.2177 70.8281 17.125 70.7802 17.0366C70.7242 16.9339 70.6621 16.8343 70.6096 16.7297C70.5617 16.6339 70.5273 16.5305 70.459 16.4452C70.4559 16.4413 70.4559 16.4347 70.4547 16.4293C70.4347 16.339 70.391 16.2552 70.3463 16.1784C70.2965 16.0927 70.2563 16.0019 70.2049 15.917C70.127 15.7884 70.0849 15.641 70.0077 15.5101C69.964 15.4367 69.9355 15.3533 69.8976 15.2753C69.849 15.1753 69.8092 15.0696 69.7556 14.9734C69.7 14.8742 69.6803 14.7599 69.6115 14.6684C69.6042 14.6584 69.5965 14.6464 69.5953 14.6344C69.5915 14.5873 69.5679 14.5468 69.544 14.5097C69.4853 14.4198 69.4617 14.3148 69.4092 14.2217C69.354 14.1233 69.3181 14.014 69.2714 13.9106C69.2232 13.8036 69.1633 13.7013 69.1243 13.5917C69.0818 13.4716 69.0378 13.3511 69.0166 13.2245V12.9739C69.0239 12.9376 69.0475 12.9098 69.0633 12.8778C69.1336 12.7388 69.2556 12.6701 69.393 12.6164C69.4378 12.599 69.4853 12.6029 69.5305 12.5859C69.6146 12.5543 69.7023 12.5257 69.7918 12.5257C71.1582 12.5241 72.5245 12.5245 73.8908 12.5249C73.9105 12.5249 73.9329 12.5234 73.9499 12.5311C74.0453 12.5747 74.1472 12.5975 74.2456 12.6307C74.3931 12.6805 74.5225 12.7728 74.6267 12.8913C74.7348 13.0145 74.8163 13.1531 74.8788 13.3071C74.9255 13.4225 74.9699 13.5407 75.029 13.6523C75.0684 13.726 75.0888 13.8094 75.1271 13.8855C75.1421 13.9156 75.1545 13.9511 75.1664 13.9847C75.2016 14.0808 75.2298 14.1831 75.283 14.2684C75.3429 14.3642 75.3799 14.4696 75.4305 14.5684C75.4826 14.67 75.5321 14.7738 75.5757 14.8804C75.6228 14.995 75.6842 15.1035 75.7347 15.2167C75.7533 15.258 75.7741 15.2977 75.7954 15.3375C75.8382 15.4186 75.8849 15.4989 75.9201 15.5823C75.9641 15.6869 76.0309 15.7784 76.0729 15.8834C76.0857 15.9155 76.115 15.9359 76.1312 15.9676C76.2131 16.1266 76.3019 16.2822 76.3841 16.4409C76.4223 16.515 76.4787 16.578 76.5142 16.6517C76.5548 16.7351 76.6146 16.805 76.6532 16.8891C76.6934 16.9764 76.7524 17.0552 76.8003 17.1393C76.8439 17.2162 76.8941 17.2891 76.942 17.3632C77.0007 17.4536 77.0574 17.5459 77.1173 17.6354C77.191 17.7462 77.2655 17.8567 77.3339 17.9713C77.4018 18.0852 77.4929 18.1852 77.5648 18.2972C77.674 18.4674 77.8034 18.6219 77.9269 18.7805C78.0211 18.9014 78.1323 19.0095 78.2304 19.1276C78.3315 19.2492 78.4632 19.333 78.5855 19.428C78.6658 19.4902 78.7601 19.5334 78.8558 19.5728C78.9678 19.6191 79.0755 19.6372 79.1925 19.599C79.3253 19.5558 79.4311 19.4766 79.5044 19.3608C79.5615 19.2705 79.6237 19.1813 79.6511 19.074C79.6666 19.0137 79.7009 18.9585 79.7187 18.8987C79.7395 18.8284 79.7503 18.7554 79.7673 18.684C79.7824 18.6192 79.8086 18.5558 79.8144 18.4902C79.8295 18.3199 79.8476 18.1512 79.8762 17.9821C79.8943 17.8733 79.9102 17.7597 79.9121 17.6486C79.9164 17.4273 79.9314 17.2065 79.9349 16.9857C79.9403 16.6339 79.9422 16.2818 79.9167 15.9301C79.9036 15.7494 79.9194 15.5676 79.9059 15.3861C79.8963 15.2599 79.872 15.134 79.8832 15.0066C79.8839 14.9977 79.8824 14.9877 79.8781 14.98C79.8484 14.9221 79.8503 14.8561 79.8426 14.7954C79.8233 14.6368 79.8133 14.4785 79.7785 14.3206C79.7403 14.1464 79.6785 13.9831 79.6121 13.8202C79.5782 13.7372 79.5202 13.6662 79.4697 13.5913C79.421 13.5195 79.3646 13.4569 79.2994 13.4036C79.1631 13.2928 79.0075 13.2117 78.8516 13.133C78.8419 13.128 78.8322 13.1218 78.8222 13.1202C78.7469 13.1091 78.6767 13.0874 78.6079 13.0523C78.5639 13.0299 78.5141 13.0133 78.4616 13.0199C78.4041 13.0272 78.3516 13.0006 78.2964 12.9921C78.2554 12.9855 78.2249 12.9511 78.2253 12.9013C78.2269 12.7909 78.2755 12.701 78.345 12.6191C78.4242 12.5265 78.5114 12.4408 78.6137 12.3767C78.7153 12.313 78.806 12.2338 78.9234 12.191C79.0064 12.1608 79.0932 12.1423 79.1735 12.1068C79.2511 12.072 79.3249 12.0392 79.4129 12.0292C79.5646 12.0118 79.7121 11.9666 79.8623 11.9365C80.0036 11.9084 80.1461 11.9141 80.2878 11.8975C80.4067 11.8836 80.5271 11.8589 80.6491 11.869C80.6557 11.8694 80.663 11.8647 80.6696 11.8628L80.6692 11.8632Z" fill="white"/>
<defs>
<filter id="filter0_d_246_824" x="-17.2793" y="-4.85059" width="75.1997" height="75.2" filterUnits="userSpaceOnUse" color-interpolation-filters="sRGB">
<feFlood flood-opacity="0" result="BackgroundImageFix"/>
<feColorMatrix in="SourceAlpha" type="matrix" values="0 0 0 0 0 0 0 0 0 0 0 0 0 0 0 0 0 0 127 0" result="hardAlpha"/>
<feOffset dy="13"/>
<feGaussianBlur stdDeviation="9"/>
<feColorMatrix type="matrix" values="0 0 0 0 0.0658854 0 0 0 0 0.0730469 0 0 0 0 0.1375 0 0 0 0.08 0"/>
<feBlend mode="normal" in2="BackgroundImageFix" result="effect1_dropShadow_246_824"/>
<feBlend mode="normal" in="SourceGraphic" in2="effect1_dropShadow_246_824" result="shape"/>
</filter>
<filter id="filter1_d_246_824" x="45.2544" y="-4.85034" width="75.1997" height="75.2" filterUnits="userSpaceOnUse" color-interpolation-filters="sRGB">
<feFlood flood-opacity="0" result="BackgroundImageFix"/>
<feColorMatrix in="SourceAlpha" type="matrix" values="0 0 0 0 0 0 0 0 0 0 0 0 0 0 0 0 0 0 127 0" result="hardAlpha"/>
<feOffset dy="13"/>
<feGaussianBlur stdDeviation="9"/>
<feColorMatrix type="matrix" values="0 0 0 0 0.0658854 0 0 0 0 0.0730469 0 0 0 0 0.1375 0 0 0 0.08 0"/>
<feBlend mode="normal" in2="BackgroundImageFix" result="effect1_dropShadow_246_824"/>
<feBlend mode="normal" in="SourceGraphic" in2="effect1_dropShadow_246_824" result="shape"/>
</filter>
<filter id="filter2_d_246_824" x="107.788" y="-4.85034" width="75.1997" height="75.2" filterUnits="userSpaceOnUse" color-interpolation-filters="sRGB">
<feFlood flood-opacity="0" result="BackgroundImageFix"/>
<feColorMatrix in="SourceAlpha" type="matrix" values="0 0 0 0 0 0 0 0 0 0 0 0 0 0 0 0 0 0 127 0" result="hardAlpha"/>
<feOffset dy="13"/>
<feGaussianBlur stdDeviation="9"/>
<feColorMatrix type="matrix" values="0 0 0 0 0.0658854 0 0 0 0 0.0730469 0 0 0 0 0.1375 0 0 0 0.08 0"/>
<feBlend mode="normal" in2="BackgroundImageFix" result="effect1_dropShadow_246_824"/>
<feBlend mode="normal" in="SourceGraphic" in2="effect1_dropShadow_246_824" result="shape"/>
</filter>
</defs>
</svg>
