<svg width="100%" height="100%" style="overflow:visible;" preserveAspectRatio="none" viewBox="0 0 192 38" fill="none" xmlns="http://www.w3.org/2000/svg">
<g clip-path="url(#clip0_246_1740)">
<path d="M44.6274 4.70269V3.11012H44.8715C44.9517 3.05826 45.0226 2.99349 45.0813 2.91849C45.1437 2.84869 45.1974 2.77169 45.2413 2.68915C45.2958 2.58384 45.3299 2.46932 45.3419 2.35153L45.594 0.0338135H48.1661V3.11012H48.6708V4.70269H47.9392V3.81883H45.3591V4.70269H44.6274ZM47.4099 3.11012V0.742507H46.2582L46.0821 2.35154C46.0741 2.46862 46.0485 2.58386 46.0061 2.69342C45.975 2.77238 45.9355 2.84783 45.8883 2.91849C45.8484 2.98994 45.7973 3.05463 45.7369 3.11012L47.4099 3.11012Z" fill="#F4FAFF"/>
<path d="M49.9741 3.81881V3.18499H50.0753C50.1562 3.19085 50.2374 3.18021 50.314 3.15373C50.3906 3.12725 50.4609 3.0855 50.5206 3.03103C50.6336 2.89637 50.6961 2.72692 50.6972 2.55166L50.9069 0.0338135H53.5802V3.81882H52.8235V0.717556H51.5626L51.4368 2.59307C51.4327 2.93852 51.3044 3.27117 51.075 3.53109C50.9673 3.64066 50.8377 3.72658 50.6944 3.78328C50.5511 3.83998 50.3974 3.86619 50.2433 3.86022C50.1521 3.85914 50.0614 3.8452 49.9741 3.81881Z" fill="#F4FAFF"/>
<path d="M55.5137 3.81863L56.3962 2.41823C56.2627 2.35791 56.1392 2.27771 56.0301 2.18041C55.926 2.07825 55.8394 1.9599 55.7738 1.83004C55.69 1.65746 55.6498 1.46725 55.6566 1.27582C55.6547 1.10718 55.6875 0.93993 55.7529 0.78425C55.8159 0.636199 55.909 0.502642 56.0264 0.391955C56.1479 0.27826 56.2906 0.189178 56.4465 0.129703C56.6208 0.0634028 56.8063 0.0307878 56.993 0.0336167H58.6654V3.81862H57.9092V2.51802H57.1776L56.3539 3.81863L55.5137 3.81863ZM57.9258 1.84277V0.708872H57.0261C56.9426 0.707722 56.8598 0.723436 56.7826 0.755059C56.7111 0.784581 56.6456 0.826861 56.5894 0.879803C56.534 0.931813 56.4896 0.994256 56.4588 1.06348C56.4288 1.13033 56.4131 1.20264 56.4128 1.27582C56.4122 1.35048 56.4279 1.42437 56.4588 1.49243C56.4903 1.56004 56.5346 1.62098 56.5894 1.67184C56.6456 1.72496 56.711 1.76742 56.7826 1.79712C56.8599 1.82831 56.9427 1.84383 57.0261 1.84277L57.9258 1.84277Z" fill="#F4FAFF"/>
<path d="M64.3139 2.65996C64.3291 2.79257 64.3918 2.91537 64.4905 3.00608C64.5535 3.06351 64.6259 3.10999 64.7045 3.14358C64.8071 3.18541 64.9175 3.20531 65.0283 3.20198C65.1986 3.21254 65.3667 3.15888 65.4988 3.05174C65.5511 3.00919 65.5933 2.95574 65.6224 2.89519C65.6516 2.83464 65.6669 2.76846 65.6674 2.70137C65.6668 2.63715 65.6518 2.57387 65.6234 2.51618C65.5949 2.45849 65.5538 2.40785 65.503 2.368C65.3675 2.26504 65.1987 2.21464 65.0283 2.22626H64.6751V1.57596H65.0283C65.1742 1.58324 65.3177 1.53737 65.4319 1.44697C65.4799 1.4082 65.5184 1.35918 65.5446 1.30357C65.5709 1.24796 65.5841 1.18719 65.5833 1.1258C65.5852 1.06186 65.5726 0.998306 65.5464 0.93986C65.5202 0.881415 65.481 0.829573 65.4319 0.788179C65.3177 0.697773 65.1742 0.651891 65.0283 0.65918C64.9238 0.655874 64.8197 0.672824 64.7217 0.70908C64.6473 0.738036 64.5789 0.780326 64.5199 0.833839C64.4698 0.879559 64.4297 0.935033 64.4022 0.996799C64.3797 1.04576 64.3642 1.09757 64.3561 1.15075H63.6331C63.6472 0.988176 63.6884 0.829054 63.7551 0.679886C63.8183 0.539547 63.9132 0.415492 64.0324 0.317303C64.1609 0.212602 64.3076 0.132012 64.4653 0.0794815C64.6495 0.0185524 64.8428 -0.0110586 65.0369 -0.00809896C65.2148 -0.0102167 65.3914 0.0209348 65.5576 0.0837241C65.8508 0.194094 66.0901 0.411861 66.2261 0.692102C66.2897 0.822176 66.3228 0.964803 66.323 1.10934C66.3264 1.23123 66.3019 1.35231 66.2513 1.46342C66.2111 1.54956 66.1588 1.62963 66.0961 1.70124C66.0283 1.77483 65.9488 1.83672 65.8606 1.88439C65.9623 1.94088 66.0556 2.0111 66.1378 2.09302C66.2122 2.16955 66.2746 2.25669 66.323 2.35155C66.3807 2.4652 66.4096 2.59113 66.407 2.71837C66.4075 2.87084 66.3745 3.02158 66.3101 3.16005C66.246 3.2987 66.153 3.42228 66.0372 3.52261C65.911 3.63056 65.7656 3.71411 65.6085 3.76894C65.4248 3.83241 65.2314 3.86332 65.0369 3.86025C64.8372 3.8633 64.6383 3.83389 64.4482 3.77319C64.2842 3.72033 64.1328 3.63509 64.0029 3.52261C63.8819 3.41751 63.7846 3.28838 63.7171 3.14359C63.6476 2.99067 63.6049 2.82712 63.5908 2.65997L64.3139 2.65996Z" fill="#F4FAFF"/>
<path d="M67.8862 4.70269V3.11012H68.1303C68.2105 3.05813 68.2816 2.99339 68.3406 2.91849C68.4027 2.84853 68.4562 2.77156 68.5001 2.68915C68.5546 2.58384 68.5887 2.46932 68.6007 2.35153L68.8533 0.0338135H71.4249V3.11012H71.9296V4.70269H71.198V3.81883H68.6178V4.70269H67.8862ZM70.6687 3.11012V0.742507H69.517L69.3409 2.35154C69.3329 2.46862 69.3073 2.58386 69.2649 2.69342C69.2338 2.77238 69.1943 2.84783 69.1471 2.91849C69.1072 2.98994 69.0561 3.05463 68.9957 3.11012L70.6687 3.11012Z" fill="#F4FAFF"/>
<path d="M74.6604 3.7146C74.4401 3.6202 74.2413 3.48261 74.076 3.3101C73.9068 3.13221 73.7728 2.92441 73.681 2.6975C73.5812 2.45249 73.5312 2.19037 73.5338 1.92616C73.531 1.6633 73.581 1.40253 73.681 1.15907C73.7744 0.932948 73.9082 0.725416 74.076 0.546462C74.2405 0.372007 74.4394 0.23289 74.6604 0.137709C74.8828 0.0407421 75.1233 -0.00898853 75.3663 -0.00828839C75.6081 -0.00920328 75.8474 0.0405477 76.0685 0.137709C76.2884 0.234371 76.4868 0.373297 76.6524 0.546462C76.8219 0.724041 76.9559 0.931921 77.0473 1.15907C77.1446 1.40318 77.1931 1.6637 77.1902 1.92616C77.1929 2.18998 77.1444 2.45185 77.0473 2.6975C76.9575 2.92543 76.8233 3.13359 76.6524 3.3101C76.4861 3.48133 76.2878 3.61873 76.0685 3.71461C75.8474 3.81177 75.6081 3.86151 75.3663 3.86059C75.1233 3.8613 74.8828 3.81157 74.6604 3.7146ZM75.7698 3.06431C75.8996 3.00535 76.0155 2.9202 76.1102 2.81429C76.2117 2.70014 76.2915 2.56865 76.3457 2.42622C76.4634 2.10307 76.4634 1.74923 76.3457 1.42608C76.2914 1.28372 76.2116 1.15225 76.1102 1.03803C76.0155 0.93212 75.8996 0.846961 75.7698 0.787996C75.6433 0.730124 75.5056 0.70024 75.3663 0.700417C75.2243 0.69961 75.0839 0.729497 74.9547 0.787996C74.825 0.846961 74.709 0.932121 74.6143 1.03803C74.5127 1.15212 74.4329 1.28362 74.3788 1.42608C74.2611 1.74924 74.2611 2.10307 74.3788 2.42622C74.4328 2.56875 74.5126 2.70028 74.6143 2.81429C74.709 2.9202 74.825 3.00535 74.9547 3.06431C75.0839 3.12282 75.2243 3.15271 75.3663 3.1519C75.5056 3.15208 75.6433 3.12219 75.7698 3.06431Z" fill="#F4FAFF"/>
<path d="M79.1572 5.15296V0.0339021H79.7117L79.8803 0.434168C79.9703 0.351789 80.0688 0.279017 80.1741 0.217054C80.2851 0.154694 80.402 0.103136 80.523 0.0630997C80.679 0.0129112 80.8424 -0.0111303 81.0063 -0.00803596C81.2426 -0.00893543 81.4763 0.0408694 81.6914 0.137962C81.9047 0.233934 82.0973 0.369841 82.2587 0.538227C82.4253 0.714312 82.5553 0.921202 82.6413 1.1471C82.8261 1.65064 82.8261 2.20269 82.6413 2.70623C82.5547 2.93295 82.4248 3.14095 82.2587 3.31884C82.099 3.48919 81.906 3.6254 81.6914 3.7191C81.4756 3.8136 81.2422 3.86189 81.0063 3.86084C80.8466 3.8638 80.6875 3.83975 80.5359 3.78972C80.4173 3.75002 80.303 3.69843 80.195 3.63577C80.0925 3.572 79.998 3.49645 79.9135 3.41068V5.15295L79.1572 5.15296ZM81.351 3.06456C81.484 3.00702 81.603 2.92174 81.6999 2.81454C81.8017 2.69991 81.8827 2.5686 81.9392 2.42647C82.0028 2.26743 82.0343 2.09751 82.0317 1.92641C82.034 1.75572 82.004 1.58611 81.9434 1.42633C81.8889 1.28327 81.8077 1.15163 81.7042 1.03828C81.6048 0.931053 81.4839 0.845625 81.3492 0.787483C81.2146 0.729341 81.0692 0.699769 80.9223 0.700665C80.7776 0.700458 80.6345 0.730293 80.5022 0.788246C80.369 0.845519 80.2499 0.930835 80.1532 1.03828C80.0518 1.15249 79.972 1.28396 79.9177 1.42633C79.8 1.74948 79.8 2.10332 79.9177 2.42647C79.9721 2.56973 80.0535 2.70143 80.1575 2.81454C80.2553 2.9207 80.3741 3.0058 80.5064 3.06456C80.6372 3.12277 80.779 3.15263 80.9223 3.15215C81.0698 3.15297 81.2158 3.12313 81.351 3.06456Z" fill="#F4FAFF"/>
<path d="M85.6472 3.7146C85.4269 3.6202 85.2281 3.48261 85.0628 3.3101C84.8936 3.13221 84.7596 2.92441 84.6678 2.6975C84.568 2.45249 84.518 2.19037 84.5206 1.92616C84.5178 1.6633 84.5678 1.40253 84.6678 1.15907C84.7612 0.932948 84.895 0.725416 85.0628 0.546462C85.2273 0.372008 85.4262 0.23289 85.6472 0.137709C85.8696 0.0407421 86.1101 -0.00898853 86.3531 -0.00828839C86.5949 -0.00920328 86.8342 0.0405477 87.0553 0.137709C87.2752 0.234371 87.4737 0.373297 87.6392 0.546462C87.8087 0.724041 87.9427 0.931921 88.0341 1.15907C88.1314 1.40318 88.1799 1.6637 88.177 1.92616C88.1797 2.18998 88.1312 2.45185 88.0341 2.6975C87.9443 2.92543 87.8101 3.13359 87.6392 3.3101C87.4729 3.48133 87.2746 3.61873 87.0553 3.71461C86.8342 3.81177 86.5949 3.86151 86.3531 3.86059C86.1101 3.8613 85.8696 3.81157 85.6472 3.7146ZM86.7566 3.06431C86.8864 3.00535 87.0023 2.9202 87.097 2.81429C87.1986 2.70014 87.2784 2.56865 87.3325 2.42622C87.4503 2.10307 87.4503 1.74923 87.3325 1.42608C87.2782 1.28372 87.1985 1.15225 87.097 1.03803C87.0023 0.932121 86.8864 0.846961 86.7566 0.787996C86.6301 0.730124 86.4924 0.70024 86.3531 0.700417C86.2111 0.699612 86.0707 0.729498 85.9415 0.787996C85.8118 0.846961 85.6959 0.932121 85.6011 1.03803C85.4995 1.15212 85.4197 1.28362 85.3657 1.42608C85.2479 1.74924 85.2479 2.10307 85.3657 2.42622C85.4196 2.56875 85.4994 2.70028 85.6011 2.81429C85.6959 2.9202 85.8118 3.00535 85.9415 3.06431C86.0707 3.12282 86.2111 3.15271 86.3531 3.1519C86.4924 3.15208 86.6301 3.12219 86.7566 3.06431Z" fill="#F4FAFF"/>
<path d="M90.1426 3.8189V0.0338899H91.891C92.0487 0.032186 92.2054 0.0589917 92.3534 0.112995C92.4848 0.160132 92.6049 0.233762 92.7061 0.329241C92.8074 0.42472 92.8875 0.539975 92.9416 0.667733C92.9979 0.796538 93.0265 0.935572 93.0256 1.07596C93.029 1.19754 93.0062 1.31843 92.9587 1.43058C92.8787 1.60357 92.7465 1.74768 92.5804 1.84305C92.7945 1.93576 92.9666 2.10362 93.0636 2.31444C93.1264 2.4458 93.1567 2.59012 93.152 2.73542C93.1528 2.8813 93.1242 3.02587 93.0679 3.16064C93.0141 3.29062 92.934 3.40825 92.8324 3.50623C92.7297 3.60513 92.6085 3.68304 92.4755 3.73554C92.3297 3.79274 92.1741 3.82106 92.0174 3.8189L90.1426 3.8189ZM90.8993 1.59301H91.7733C91.9057 1.59965 92.0356 1.5547 92.1351 1.46774C92.1789 1.42751 92.2135 1.37848 92.2367 1.32392C92.2599 1.26936 92.271 1.21052 92.2694 1.15134C92.2719 1.08882 92.2612 1.02647 92.2381 0.968262C92.215 0.910049 92.1799 0.85724 92.1351 0.813187C92.0864 0.769019 92.0293 0.734874 91.9672 0.712731C91.9051 0.690588 91.8392 0.680888 91.7733 0.68419H90.8993V1.59301ZM90.8993 3.17708H91.8996C91.9659 3.1772 92.0315 3.1644 92.0928 3.1394C92.1534 3.11512 92.209 3.07983 92.2566 3.03534C92.3045 2.99048 92.3407 2.93473 92.362 2.8729C92.384 2.8099 92.3954 2.74371 92.3957 2.67702C92.3954 2.61569 92.384 2.55491 92.362 2.49758C92.3397 2.43972 92.3035 2.38814 92.2566 2.34735C92.208 2.30526 92.1526 2.27153 92.0928 2.24756C92.0315 2.22254 91.9659 2.20973 91.8996 2.20985H90.8993V3.17708Z" fill="#F4FAFF"/>
<path d="M95.1182 3.81882V0.0338135H95.8749V1.34289H96.766C96.9509 1.33992 97.1347 1.37088 97.3082 1.43421C97.4604 1.49079 97.5993 1.57767 97.7164 1.68951C97.8334 1.80134 97.9262 1.93577 97.9889 2.0845C98.0878 2.31499 98.1149 2.56951 98.067 2.81542C98.019 3.06133 97.8981 3.28743 97.7197 3.46473C97.6027 3.57991 97.4624 3.66928 97.3082 3.72699C97.1348 3.79074 96.9509 3.82188 96.766 3.81881L95.1182 3.81882ZM95.8749 3.14357H96.7237C96.8056 3.14403 96.8868 3.12983 96.9635 3.10164C97.0362 3.07568 97.1032 3.03622 97.161 2.98539C97.2162 2.93583 97.2594 2.87448 97.2873 2.80595C97.3158 2.73283 97.3299 2.655 97.329 2.57661C97.329 2.5046 97.3133 2.43344 97.283 2.36798C97.2514 2.30061 97.2071 2.23988 97.1524 2.1891C97.0962 2.1361 97.0307 2.09365 96.9592 2.0638C96.8819 2.03262 96.7991 2.0171 96.7157 2.01816H95.8749L95.8749 3.14357Z" fill="#F4FAFF"/>
<path d="M99.7007 3.81863L100.583 2.41823C100.45 2.35791 100.326 2.27771 100.217 2.18041C100.113 2.07825 100.026 1.9599 99.9608 1.83004C99.877 1.65746 99.8368 1.46725 99.8436 1.27582C99.8418 1.10718 99.8745 0.93993 99.9399 0.78425C100.003 0.636199 100.096 0.502642 100.213 0.391955C100.335 0.278264 100.478 0.189183 100.634 0.129703C100.808 0.0634027 100.993 0.0307877 101.18 0.0336167H102.852V3.81862H102.096V2.51802H101.365L100.541 3.81863L99.7007 3.81863ZM102.113 1.84277V0.708873H101.214C101.13 0.707673 101.047 0.723388 100.97 0.755059C100.898 0.784581 100.833 0.826861 100.776 0.879803C100.721 0.931804 100.677 0.99425 100.646 1.06348C100.616 1.13033 100.6 1.20264 100.6 1.27582C100.599 1.35048 100.615 1.42437 100.646 1.49243C100.677 1.56005 100.722 1.62098 100.776 1.67184C100.833 1.72496 100.898 1.76742 100.97 1.79712C101.047 1.82836 101.13 1.84388 101.214 1.84277L102.113 1.84277Z" fill="#F4FAFF"/>
<path d="M108.081 3.81882V0.0338135H108.837V2.68502L110.661 0.0338135H111.401V3.81882H110.644V1.16781L108.82 3.81882H108.081Z" fill="#F4FAFF"/>
<path d="M116.62 5.15297V0.0339088H117.175L117.343 0.434175C117.433 0.351804 117.532 0.279033 117.637 0.217061C117.748 0.154704 117.865 0.103146 117.986 0.0631063C118.142 0.0128778 118.305 -0.0111647 118.469 -0.0080293C118.706 -0.00892852 118.939 0.0408762 119.154 0.137969C119.368 0.233948 119.56 0.369855 119.722 0.538234C119.888 0.714316 120.018 0.921207 120.104 1.14711C120.289 1.65065 120.289 2.2027 120.104 2.70624C120.018 2.93296 119.888 3.14096 119.722 3.31884C119.562 3.48919 119.369 3.6254 119.154 3.71911C118.939 3.8136 118.705 3.8619 118.469 3.86085C118.309 3.86381 118.15 3.83976 117.999 3.78973C117.88 3.75002 117.766 3.69844 117.658 3.63577C117.555 3.57201 117.461 3.49646 117.376 3.41068V5.15295L116.62 5.15297ZM118.814 3.06456C118.947 3.00702 119.066 2.92175 119.163 2.81454C119.38 2.56946 119.499 2.253 119.495 1.92642C119.497 1.75572 119.467 1.58612 119.406 1.42634C119.352 1.28328 119.271 1.15165 119.167 1.03829C119.068 0.93106 118.947 0.845632 118.812 0.78749C118.677 0.729348 118.532 0.699775 118.385 0.700672C118.241 0.700465 118.097 0.730299 117.965 0.788253C117.832 0.845531 117.713 0.930845 117.616 1.03829C117.515 1.1525 117.435 1.28397 117.381 1.42634C117.263 1.74949 117.263 2.10332 117.381 2.42648C117.435 2.56974 117.516 2.70143 117.62 2.81454C117.718 2.92083 117.837 3.00594 117.969 3.06456C118.1 3.12283 118.242 3.15269 118.385 3.15216C118.533 3.15297 118.679 3.12313 118.814 3.06456Z" fill="#F4FAFF"/>
<path d="M124.613 3.8186L124.445 3.41834C124.302 3.55991 124.13 3.67068 123.941 3.74376C123.746 3.82123 123.538 3.86087 123.327 3.86055C123.147 3.86318 122.968 3.83351 122.798 3.77295C122.651 3.7203 122.515 3.6395 122.399 3.53513C122.291 3.4367 122.203 3.31774 122.142 3.18529C122.08 3.04908 122.049 2.90109 122.05 2.75158C122.048 2.57836 122.086 2.40705 122.163 2.25152C122.252 2.08793 122.384 1.95206 122.546 1.85921C122.769 1.73224 123.012 1.64492 123.265 1.60121C123.638 1.53378 124.016 1.50302 124.395 1.50937H124.42V1.37612C124.422 1.2844 124.405 1.19328 124.369 1.10855C124.334 1.02383 124.281 0.947361 124.214 0.884019C124.143 0.816869 124.06 0.764548 123.968 0.730167C123.876 0.695787 123.779 0.680049 123.681 0.683894C123.523 0.667186 123.364 0.709005 123.235 0.801311C123.106 0.893618 123.016 1.0299 122.983 1.18396H122.201C122.222 1.02189 122.274 0.865102 122.352 0.721576C122.431 0.579275 122.535 0.452163 122.659 0.346264C122.794 0.233327 122.947 0.145705 123.113 0.0877346C123.306 0.0211251 123.51 -0.0113948 123.714 -0.00834921C123.916 -0.0103417 124.115 0.0266266 124.303 0.100486C124.474 0.167669 124.631 0.266566 124.765 0.391908C124.894 0.514453 124.995 0.662134 125.064 0.825627C125.134 0.997634 125.17 1.18186 125.168 1.36763V3.81859L124.613 3.8186ZM124.42 2.12622H124.395C124.123 2.12262 123.85 2.13664 123.579 2.16817C123.413 2.18509 123.25 2.22716 123.096 2.29293C123 2.33242 122.919 2.40098 122.865 2.4888C122.825 2.56766 122.805 2.6549 122.807 2.74309C122.808 2.80656 122.823 2.86897 122.852 2.92593C122.88 2.98288 122.921 3.033 122.97 3.07275C123.088 3.17306 123.24 3.22525 123.395 3.21873C123.666 3.22092 123.928 3.12612 124.134 2.95171C124.221 2.8772 124.293 2.78648 124.345 2.68468C124.395 2.58658 124.421 2.47818 124.42 2.3683V2.12622Z" fill="#F4FAFF"/>
<path d="M126.825 4.70269V3.11012H127.069C127.149 3.05826 127.22 2.99349 127.279 2.91849C127.341 2.84869 127.395 2.77169 127.439 2.68915C127.493 2.58384 127.527 2.46932 127.539 2.35153L127.791 0.0338135H130.363V3.11012H130.868V4.70269H130.136V3.81883H127.556V4.70269H126.825ZM129.607 3.11012V0.742507H128.455L128.279 2.35154C128.271 2.46862 128.246 2.58386 128.203 2.69342C128.172 2.77238 128.133 2.84783 128.086 2.91849C128.046 2.98994 127.995 3.05463 127.934 3.11012L129.607 3.11012Z" fill="#F4FAFF"/>
<path d="M133.598 3.7146C133.378 3.62019 133.179 3.48261 133.014 3.3101C132.845 3.13221 132.711 2.92441 132.619 2.6975C132.519 2.4525 132.469 2.19038 132.472 1.92616C132.469 1.6633 132.519 1.40253 132.619 1.15907C132.712 0.932946 132.846 0.725413 133.014 0.546462C133.179 0.372015 133.377 0.232898 133.598 0.137709C133.821 0.0407436 134.061 -0.00898694 134.304 -0.00828839C134.546 -0.00920328 134.785 0.0405477 135.006 0.137709C135.226 0.234379 135.425 0.373304 135.59 0.546462C135.76 0.724042 135.894 0.931922 135.985 1.15907C136.083 1.40318 136.131 1.6637 136.128 1.92616C136.131 2.18998 136.082 2.45185 135.985 2.6975C135.895 2.92543 135.761 3.13359 135.59 3.3101C135.424 3.48132 135.226 3.61872 135.006 3.71461C134.785 3.81177 134.546 3.86151 134.304 3.86059C134.061 3.8613 133.821 3.81157 133.598 3.7146ZM134.708 3.06431C134.838 3.00534 134.954 2.92019 135.048 2.81429C135.15 2.70014 135.23 2.56865 135.284 2.42622C135.401 2.10307 135.401 1.74924 135.284 1.42608C135.229 1.28372 135.15 1.15226 135.048 1.03803C134.954 0.932128 134.838 0.846969 134.708 0.787996C134.581 0.730124 134.444 0.70024 134.304 0.700417C134.162 0.69961 134.022 0.729497 133.893 0.787996C133.763 0.84696 133.647 0.932118 133.552 1.03803C133.451 1.15212 133.371 1.28362 133.317 1.42608C133.199 1.74923 133.199 2.10306 133.317 2.42621C133.371 2.56874 133.451 2.70026 133.552 2.81428C133.647 2.92019 133.763 3.00534 133.893 3.0643C134.022 3.12282 134.162 3.15271 134.304 3.1519C134.444 3.15208 134.581 3.12219 134.708 3.06431Z" fill="#F4FAFF"/>
<path d="M138.982 3.71461C138.764 3.61946 138.566 3.48193 138.402 3.31011C138.233 3.13221 138.099 2.92441 138.007 2.6975C137.907 2.4525 137.857 2.19038 137.86 1.92616C137.857 1.66331 137.907 1.40254 138.007 1.15907C138.101 0.932958 138.234 0.725427 138.402 0.546467C138.566 0.372706 138.763 0.233651 138.982 0.137713C139.206 0.0400037 139.448 -0.00974241 139.692 -0.00826898C139.833 -0.00899655 139.973 0.00940093 140.109 0.0464089C140.238 0.0816855 140.364 0.130438 140.483 0.191855C140.6 0.253016 140.708 0.32865 140.806 0.416944C140.903 0.504886 140.992 0.601171 141.071 0.704665C141.15 0.80798 141.216 0.919827 141.269 1.03804C141.321 1.15502 141.362 1.27659 141.391 1.40116H140.634C140.601 1.30313 140.555 1.21032 140.495 1.12564C140.436 1.04222 140.364 0.96904 140.281 0.909051C140.197 0.847905 140.105 0.797438 140.008 0.758817C139.907 0.719511 139.8 0.69969 139.692 0.700431C139.551 0.699623 139.41 0.729516 139.281 0.788028C139.151 0.846978 139.035 0.932132 138.941 1.03805C138.839 1.15213 138.759 1.28364 138.705 1.42611C138.587 1.74926 138.587 2.10311 138.705 2.42625C138.759 2.56878 138.839 2.7003 138.941 2.8143C139.035 2.92022 139.151 3.00538 139.281 3.06434C139.41 3.12284 139.551 3.15272 139.692 3.15192C139.8 3.15275 139.907 3.13441 140.008 3.09778C140.106 3.06168 140.198 3.01103 140.281 2.94754C140.364 2.88533 140.436 2.81083 140.495 2.7267C140.555 2.64215 140.601 2.54952 140.634 2.45171H141.391C141.362 2.5761 141.321 2.6975 141.269 2.81429C141.215 2.93355 141.149 3.04674 141.071 3.15191C140.993 3.25667 140.904 3.35309 140.806 3.43965C140.707 3.52622 140.599 3.6017 140.483 3.66472C140.364 3.7291 140.236 3.77817 140.105 3.81072C139.97 3.84385 139.831 3.8606 139.692 3.86061C139.448 3.86208 139.206 3.81232 138.982 3.71461Z" fill="#F4FAFF"/>
<path d="M144.09 3.81882V0.74251H142.93V0.0338135H146.006V0.74251H144.846V3.81882H144.09Z" fill="#F4FAFF"/>
<path d="M147.821 3.81882V0.0338135H148.577V2.68502L150.401 0.0338135H151.141V3.81882H150.384V1.16781L148.56 3.81882H147.821Z" fill="#F4FAFF"/>
<path d="M156.361 3.81882V0.0338135H159.665V3.81882H158.908V0.74251H157.118V3.81882H156.361Z" fill="#F4FAFF"/>
<path d="M161.875 3.81882V0.0338135H162.631V2.68502L164.455 0.0338135H165.195V3.81882H164.438V1.16781L162.614 3.81882H161.875Z" fill="#F4FAFF"/>
<path d="M168.17 3.81882V0.74251H167.01V0.0338135H170.086V0.74251H168.927V3.81882H168.17Z" fill="#F4FAFF"/>
<path d="M172.709 3.7146C172.489 3.62019 172.29 3.48261 172.125 3.3101C171.956 3.13221 171.822 2.92441 171.73 2.6975C171.63 2.4525 171.58 2.19038 171.583 1.92616C171.58 1.6633 171.63 1.40253 171.73 1.15907C171.823 0.932946 171.957 0.725413 172.125 0.546462C172.289 0.372015 172.488 0.232898 172.709 0.137709C172.932 0.0407436 173.172 -0.00898694 173.415 -0.00828839C173.657 -0.00920328 173.896 0.0405477 174.117 0.137709C174.337 0.234379 174.536 0.373304 174.701 0.546462C174.871 0.724043 175.005 0.931922 175.096 1.15907C175.193 1.40318 175.242 1.6637 175.239 1.92616C175.242 2.18998 175.193 2.45185 175.096 2.6975C175.006 2.92543 174.872 3.13359 174.701 3.3101C174.535 3.48132 174.337 3.61872 174.117 3.71461C173.896 3.81177 173.657 3.86151 173.415 3.86059C173.172 3.8613 172.932 3.81157 172.709 3.7146ZM173.819 3.06431C173.948 3.00534 174.064 2.92019 174.159 2.81429C174.261 2.70014 174.34 2.56865 174.395 2.42622C174.512 2.10307 174.512 1.74924 174.395 1.42608C174.34 1.28372 174.26 1.15226 174.159 1.03803C174.064 0.932128 173.948 0.846969 173.819 0.787996C173.692 0.730125 173.554 0.700241 173.415 0.700417C173.273 0.699612 173.133 0.729498 173.004 0.787996C172.874 0.846939 172.758 0.932096 172.663 1.03803C172.561 1.15228 172.482 1.28375 172.428 1.42608C172.31 1.74924 172.31 2.10307 172.428 2.42622C172.482 2.56862 172.561 2.70011 172.663 2.81429C172.758 2.92022 172.874 3.00537 173.004 3.06431C173.133 3.12282 173.273 3.15271 173.415 3.1519C173.554 3.15208 173.692 3.12219 173.819 3.06431Z" fill="#F4FAFF"/>
<path d="M177.206 3.81882V0.0338135H177.896L179.248 2.82672L180.593 0.0338135H181.283V3.81882H180.526V1.62644L179.475 3.81882H179.022L177.962 1.62644V3.81882H177.206Z" fill="#F4FAFF"/>
<path d="M183.485 3.81882V0.0338135H184.241V3.11012H185.948V0.0338135H186.704V3.11012H187.209V4.70275H186.486V3.81882H183.485Z" fill="#F4FAFF"/>
<path d="M191.445 3.81885L191.276 3.41858C191.133 3.56016 190.961 3.67092 190.772 3.744C190.577 3.82147 190.369 3.86112 190.158 3.86079C189.978 3.86343 189.799 3.83375 189.629 3.77319C189.482 3.72067 189.346 3.63986 189.23 3.53537C189.122 3.43695 189.035 3.31799 188.974 3.18554C188.911 3.04941 188.88 2.90136 188.881 2.75182C188.879 2.57861 188.918 2.40729 188.994 2.25176C189.083 2.08818 189.215 1.9523 189.377 1.85945C189.599 1.73256 189.843 1.64525 190.095 1.60145C190.468 1.53405 190.847 1.50329 191.226 1.50961H191.251V1.37637C191.253 1.28465 191.236 1.19352 191.201 1.1088C191.165 1.02407 191.112 0.947605 191.045 0.884263C190.974 0.817152 190.891 0.764856 190.799 0.730478C190.707 0.6961 190.61 0.680341 190.512 0.684138C190.354 0.667433 190.195 0.709253 190.066 0.80156C189.937 0.893866 189.847 1.03014 189.814 1.1842H189.032C189.053 1.02208 189.104 0.865244 189.183 0.721822C189.262 0.57952 189.366 0.452408 189.491 0.346508C189.625 0.233572 189.778 0.145949 189.944 0.0879787C190.138 0.0213692 190.341 -0.0111506 190.545 -0.00810507C190.747 -0.0100455 190.947 0.026921 191.134 0.10073C191.305 0.167915 191.462 0.266816 191.596 0.39216C191.725 0.51459 191.826 0.662311 191.894 0.825878C191.965 0.997779 192.001 1.18205 191.999 1.36788V3.81885L191.445 3.81885ZM191.251 2.12646H191.226C190.954 2.12285 190.681 2.13686 190.411 2.16841C190.244 2.18533 190.081 2.22741 189.927 2.29317C189.831 2.33251 189.75 2.40111 189.696 2.48905C189.656 2.56786 189.636 2.6551 189.637 2.74333C189.639 2.80684 189.654 2.86926 189.682 2.92621C189.711 2.98316 189.751 3.03326 189.801 3.07299C189.919 3.17331 190.071 3.22549 190.226 3.21898C190.497 3.22117 190.759 3.12636 190.965 2.95196C191.052 2.8773 191.124 2.78661 191.176 2.68493C191.226 2.58682 191.252 2.47843 191.251 2.36855V2.12646Z" fill="#F4FAFF"/>
<path d="M42.1013 35.5442C41.7266 34.628 41.3527 33.7112 40.9795 32.7939L39.9193 30.181C36.4721 21.6878 32.9078 12.9048 29.4146 4.26191C29.2979 3.97312 29.1994 3.90464 28.8649 3.91206C23.9235 3.92799 19.1068 3.92799 14.5497 3.91101H14.5411C14.228 3.91101 14.1327 3.97683 14.0102 4.27358C11.924 9.3162 9.81806 14.3561 7.78112 19.2305C6.40837 22.5154 5.03435 25.8 3.65908 29.0843C2.62029 31.5665 1.58166 34.049 0.54321 36.5316C0.389077 36.9001 0.240825 37.2711 0.0882946 37.6517C0.058863 37.7245 0.0299698 37.7977 0 37.8715L0.968693 37.8721C4.83437 37.8742 8.8317 37.8768 12.7627 37.8588C12.8547 37.821 12.9324 37.7555 12.9848 37.6714C13.688 35.7704 14.2949 34.0642 14.8414 32.4552C15.0201 31.9291 15.3177 31.7141 15.8673 31.7141H15.8785C19.6538 31.7343 23.3616 31.7343 26.8981 31.7131H26.9115C27.4879 31.7131 27.7967 31.9365 27.976 32.4823C28.2398 33.2854 28.5198 34.0998 28.79 34.8871C29.0876 35.7513 29.3948 36.6452 29.6827 37.5302C29.7801 37.8306 29.8636 37.8869 30.1922 37.8859C33.4708 37.8721 36.8045 37.8731 40.0274 37.8747L43.0437 37.8752C42.9961 37.7457 42.9549 37.6364 42.911 37.5281C42.6418 36.8666 42.3719 36.2053 42.1013 35.5442ZM17.8507 24.0846L21.2535 14.5589L21.7758 14.6046L25.0571 24.0846H17.8507Z" fill="#F4FAFF"/>
<path d="M72.508 21.9437C72.0622 22.9343 71.6165 23.9249 71.1711 24.9155C69.391 28.8825 67.6137 32.8509 65.839 36.8205C65.8081 36.9288 65.7396 37.0229 65.6456 37.086C65.5516 37.1491 65.4381 37.1773 65.3252 37.1655C64.1055 37.1522 62.8853 37.1501 61.6656 37.1671C61.5525 37.1794 61.4388 37.1511 61.345 37.0873C61.2512 37.0235 61.1836 36.9284 61.1545 36.8194C59.1539 32.1123 57.1489 27.407 55.1395 22.7034C55.0319 22.4517 54.9179 22.2028 54.8066 21.9522C54.7659 21.9549 54.7247 21.9575 54.684 21.9602V22.4613C54.684 27.4057 54.6776 32.3501 54.6947 37.295C54.6963 37.7564 54.585 37.8891 54.1071 37.8859C50.988 37.8625 47.8684 37.8737 44.7493 37.8737H44.2451V8.6224H44.753C49.0458 8.6224 52.1092 8.61391 56.402 8.60169C56.5503 8.58173 56.7009 8.6153 56.8263 8.69628C56.9518 8.77725 57.0437 8.90025 57.0854 9.04285C58.7739 12.8645 63.5564 20.7695 63.6688 20.9887C63.8127 20.6649 68.5192 12.6633 70.1836 8.91384C70.2231 8.84003 70.2791 8.77622 70.3475 8.72733C70.4158 8.67845 70.4945 8.64582 70.5775 8.63195C75.0865 8.61869 78.4085 8.62505 82.9174 8.62824C82.9719 8.63722 83.0251 8.65273 83.0758 8.67443V37.8737H82.5722C79.4376 37.8737 76.303 37.8657 73.1684 37.8832C72.7408 37.8859 72.6263 37.768 72.6273 37.3455C72.6418 32.4006 72.6364 27.4561 72.6364 22.5117V21.9708C72.5936 21.9618 72.5508 21.9527 72.508 21.9437Z" fill="#F4FAFF"/>
<path d="M155.459 17.185C154.661 14.1225 152.561 12.0866 149.848 10.6172C147.174 9.16851 144.272 8.55908 141.245 8.58403C135.004 8.635 128.763 8.49909 122.523 8.57554C122.431 8.57661 122.34 8.59042 122.204 8.60208V37.9287H134.09V31.2123L134.032 23.4778C134.027 23.4809 134.022 23.4831 134.016 23.4863V17.2641C135.228 16.1594 136.675 15.2638 137.391 14.174C138.186 12.9631 138.414 11.7341 138.744 11.7145C139.38 11.6773 139.565 14.1639 139.565 14.1639C139.565 14.1639 140.365 13.2014 140.966 13.0183C141.368 12.8957 141.752 13.1032 141.339 13.7477C141.164 13.9986 141.018 14.2686 140.904 14.5525C140.815 14.8752 140.773 15.209 140.78 15.5436C142.622 16.1387 142.829 16.8691 142.829 16.8691C142.868 17.1545 143.004 17.4181 143.215 17.616C143.426 17.8139 143.699 17.9342 143.988 17.9568C144.795 18.0943 145.586 18.3146 146.348 18.614C147.058 18.7552 146.691 19.7458 146.434 19.7023C146.471 22.4553 144.049 22.6613 142.66 22.407C142.66 22.407 135.272 20.9068 135.892 29.5677C139.086 29.7036 142.284 29.933 145.45 29.2567C148.556 28.5931 151.348 27.3302 153.474 24.9089C155.433 22.6778 156.217 20.0946 155.459 17.185Z" fill="#F4FAFF"/>
<path d="M119.412 37.9256V8.61911C119.269 8.61274 112.457 8.61115 107.331 8.60213C107.212 8.58488 107.091 8.61186 106.991 8.6779C106.891 8.74393 106.818 8.84436 106.788 8.95992C104.55 12.3834 95.8874 26.6258 95.7676 26.716V8.62547H85.9072V37.9261C86.026 37.9325 86.1454 37.9452 86.2653 37.9452C91.3533 37.9463 93.0627 37.9182 98.1508 37.9288C98.2642 37.9416 98.3784 37.9132 98.4722 37.8487C98.566 37.7843 98.6331 37.6882 98.6608 37.5784C100.85 34.1406 109.054 20.8989 109.519 20.0017V37.9256L119.412 37.9256Z" fill="#F4FAFF"/>
<path d="M179.919 8.5686C179.8 8.55128 179.678 8.57823 179.578 8.64428C179.478 8.71032 179.406 8.8108 179.376 8.9264C177.137 12.3504 168.474 26.5928 168.355 26.6825V8.59196H158.495V37.8926C158.613 37.899 158.733 37.9117 158.852 37.9117C161.98 37.9122 163.831 37.9022 165.974 37.8968L171.708 37.8958C173.087 37.668 174.757 36.936 174.977 34.7393C174.739 32.2963 176.161 30.9947 176.54 30.6692C176.883 30.3808 177.21 30.0737 177.52 29.7493C177.809 29.5879 178.335 28.6291 178.351 28.197C178.366 27.7644 177.777 27.2994 177.777 27.2994C177.483 27.0397 177.168 26.805 176.835 26.5976C176.146 26.1309 176.224 25.0533 176.241 24.4444C176.258 23.835 176.499 23.7782 177.01 23.7575C177.521 23.7373 177.863 23.5048 178.317 23.2202C178.772 22.9357 179.038 22.545 179.819 22.5609C180.285 22.571 180.739 22.4201 181.104 22.1341L181.156 22.1177C181.156 22.1177 181.552 19.7967 181.827 19.7904C182.101 19.784 182.888 22.3618 183.417 23.9756C183.782 25.0862 184.092 25.9467 183.935 27.8217C183.937 27.8207 183.944 27.8169 183.944 27.8169C183.944 27.8169 183.759 30.1739 184.178 31.422C184.451 32.078 184.827 32.6866 185.293 33.2248C186.662 34.4853 187.738 36.0268 188.445 37.7418C188.466 37.7917 188.484 37.8422 188.504 37.8926L189.887 37.8921H192V8.58612C191.856 8.57975 185.044 8.57816 179.919 8.5686Z" fill="#F4FAFF"/>
<path d="M171.328 37.9487L169.835 37.9583C170.332 38.0071 170.832 38.0039 171.328 37.9487Z" fill="#F4FAFF"/>
</g>
<defs>
<clipPath id="clip0_246_1740">
<rect width="192" height="38" fill="white" transform="translate(0 -0.00830078)"/>
</clipPath>
</defs>
</svg>
