<svg width="100%" height="100%" style="overflow:visible;" preserveAspectRatio="none" viewBox="0 0 223.7 80.79" fill="none" xmlns="http://www.w3.org/2000/svg">
<g filter="url(#filter0_d_246_1644)">
<circle cx="22.3953" cy="22.5677" r="22.3953" fill="#F4FAFF"/>
</g>
<g filter="url(#filter1_d_246_1644)">
<circle cx="93.8473" cy="22.5677" r="22.3953" fill="#F4FAFF"/>
</g>
<g filter="url(#filter2_d_246_1644)">
<circle cx="165.3" cy="22.5677" r="22.3953" fill="#39282F"/>
</g>
<path d="M173.219 23.7804C173.219 25.6984 172.459 27.5379 171.105 28.8941C169.752 30.2503 167.916 31.0123 166.001 31.0123C164.087 31.0123 162.251 30.2503 160.898 28.8941C159.544 27.5379 158.784 25.6984 158.784 23.7804C158.784 23.3682 158.827 22.9656 158.901 22.5751H156.378V32.2103C156.378 32.8805 156.919 33.4229 157.588 33.4229H174.417C174.738 33.4223 175.045 33.2942 175.272 33.0669C175.498 32.8396 175.625 32.5315 175.625 32.2103V22.5751H173.101C173.176 22.9656 173.219 23.3682 173.219 23.7804ZM166.001 28.6016C166.634 28.6015 167.259 28.4766 167.843 28.2341C168.427 27.9916 168.958 27.6362 169.404 27.1883C169.851 26.7404 170.206 26.2087 170.447 25.6235C170.689 25.0384 170.814 24.4113 170.813 23.778C170.813 23.1447 170.689 22.5176 170.447 21.9326C170.205 21.3476 169.85 20.816 169.403 20.3683C168.956 19.9206 168.425 19.5655 167.841 19.3233C167.257 19.0811 166.631 18.9566 165.999 18.9567C164.723 18.957 163.498 19.4654 162.596 20.37C161.694 21.2746 161.187 22.5014 161.187 23.7804C161.187 25.0594 161.695 26.2859 162.598 27.19C163.501 28.0942 164.725 28.602 166.001 28.6016ZM171.776 18.7181H174.66C174.852 18.7181 175.036 18.642 175.172 18.5064C175.307 18.3708 175.384 18.1869 175.385 17.9949V15.1045C175.385 14.9121 175.308 14.7275 175.173 14.5915C175.037 14.4554 174.853 14.3789 174.66 14.3789H171.776C171.584 14.3789 171.399 14.4554 171.264 14.5915C171.128 14.7275 171.052 14.9121 171.052 15.1045V17.9949C171.054 18.3926 171.379 18.7181 171.776 18.7181ZM166.001 0.638367C159.876 0.638367 154.001 3.07654 149.669 7.41651C145.338 11.7565 142.904 17.6427 142.904 23.7804C142.904 29.918 145.338 35.8043 149.669 40.1443C154.001 44.4842 159.876 46.9224 166.001 46.9224C169.035 46.9224 172.038 46.3238 174.84 45.1608C177.643 43.9978 180.189 42.2932 182.334 40.1443C184.478 37.9953 186.18 35.4442 187.34 32.6364C188.501 29.8287 189.099 26.8194 189.099 23.7804C189.099 20.7413 188.501 17.732 187.34 14.9243C186.18 12.1166 184.478 9.56544 182.334 7.41651C180.189 5.26757 177.643 3.56294 174.84 2.39995C172.038 1.23695 169.035 0.638367 166.001 0.638367ZM178.031 33.1553C178.031 34.6282 176.828 35.8335 175.358 35.8335H156.645C155.175 35.8335 153.972 34.6282 153.972 33.1553V14.4055C153.972 12.9326 155.175 11.7272 156.645 11.7272H175.358C176.828 11.7272 178.031 12.9326 178.031 14.4055V33.1553Z" fill="#F4FAFF"/>
<path d="M33.278 12.1774C33.1785 11.8898 33.0599 11.8093 32.8762 11.7402C32.4743 11.5868 31.793 11.8169 31.793 11.8169C31.793 11.8169 7.64597 20.5143 6.26811 21.4769C5.96958 21.6839 5.87006 21.8028 5.82413 21.9447C5.58683 22.6311 6.32935 22.9341 6.32935 22.9341L12.5527 24.9665C12.5527 24.9665 12.7862 25.0011 12.8665 24.9474C14.2827 24.05 27.1121 15.9355 27.8508 15.6632C27.9694 15.6287 28.0536 15.6671 28.0307 15.7476C27.736 16.7907 16.5944 26.7114 16.5944 26.7114C16.5944 26.7114 16.5523 26.7651 16.5255 26.8264L16.5102 26.8188L15.9284 33.0044C15.9284 33.0044 15.6835 34.8988 17.5781 33.0044C18.9138 31.666 20.2037 30.55 20.8505 30.0055C22.99 31.4857 25.2941 33.1232 26.2854 33.9784C26.7829 34.4079 27.204 34.4769 27.5446 34.4654C28.4861 34.4309 28.7502 33.3917 28.7502 33.3917C28.7502 33.3917 33.1517 15.6479 33.2972 13.2703C33.3125 13.0364 33.3316 12.8907 33.3316 12.7296C33.3316 12.5072 33.3125 12.2848 33.278 12.1774Z" fill="#39282F"/>
<path d="M91.3507 14.0488C92.2352 14.0488 93.1196 14.0488 94.0041 14.0488C94.1996 14.0757 94.3968 14.0833 94.5926 14.1045C94.7122 14.1177 94.8282 14.1504 94.9482 14.1553C95.0602 14.1602 95.1626 14.211 95.2737 14.2273C95.3408 14.2371 95.4131 14.2273 95.4749 14.2525C95.6505 14.3228 95.8371 14.3701 95.995 14.4788C96.1931 14.6154 96.3387 14.7975 96.4163 15.0278C96.4313 15.0729 96.4481 15.1171 96.4635 15.1613C96.4763 15.1984 96.4984 15.2311 96.5094 15.2691C96.5438 15.3911 96.5416 15.5184 96.5539 15.6426C96.5694 15.7987 96.5844 15.9564 96.5853 16.1142C96.5861 16.303 96.5817 16.4913 96.5636 16.68C96.5398 16.9288 96.565 17.1795 96.5411 17.431C96.5067 17.7912 96.5456 18.1549 96.5164 18.5183C96.4904 18.8449 96.5111 19.1751 96.5107 19.5035C96.5107 19.5972 96.5151 19.6909 96.5085 19.7842C96.4904 20.0303 96.4763 20.2765 96.4741 20.5236C96.4719 20.7168 96.4736 20.9104 96.4741 21.104C96.4741 21.1371 96.4741 21.1703 96.4811 21.203C96.5169 21.3709 96.5138 21.5433 96.5332 21.7135C96.5416 21.7877 96.5469 21.8655 96.5725 21.9314C96.625 22.0684 96.6258 22.2257 96.7299 22.3433C96.7401 22.3548 96.7463 22.3738 96.7463 22.3893C96.7463 22.4286 96.7674 22.4569 96.7899 22.483C96.8133 22.51 96.8319 22.5391 96.8517 22.5679C96.9201 22.6682 97.0096 22.7526 97.1102 22.8145C97.2523 22.9016 97.4111 22.8843 97.5633 22.8304C97.7177 22.7756 97.8421 22.6704 97.9687 22.571C98.1023 22.4658 98.2197 22.3424 98.3423 22.2253C98.4151 22.1559 98.4755 22.0733 98.5452 21.9999C98.5929 21.9495 98.6326 21.8907 98.6798 21.8381C98.7376 21.774 98.7927 21.7068 98.8452 21.6379C98.9087 21.5544 98.9705 21.4695 99.0292 21.3824C99.0834 21.3015 99.1523 21.2321 99.2109 21.1548C99.2656 21.0832 99.2987 21.0001 99.353 20.9303C99.4086 20.8586 99.4553 20.7809 99.5069 20.7066C99.6384 20.5174 99.7593 20.3207 99.8859 20.128C99.9962 19.9605 100.099 19.789 100.196 19.6135C100.243 19.5304 100.287 19.4438 100.346 19.3709C100.424 19.275 100.47 19.1618 100.533 19.0579C100.596 18.9563 100.647 18.8476 100.699 18.7397C100.752 18.6283 100.818 18.5231 100.874 18.414C100.92 18.3269 100.958 18.2354 101.009 18.1519C101.038 18.1059 101.064 18.0604 101.08 18.0086C101.119 17.8884 101.176 17.7748 101.229 17.6617C101.298 17.5136 101.386 17.3744 101.444 17.2192C101.491 17.0924 101.559 16.973 101.622 16.8528C101.648 16.8024 101.654 16.7414 101.682 16.6924C101.71 16.6433 101.731 16.5925 101.753 16.5417C101.817 16.3923 101.863 16.2353 101.94 16.0913C101.959 16.0559 101.975 16.0188 101.982 15.9812C101.994 15.9162 102.022 15.861 102.055 15.8053C102.072 15.7774 102.082 15.7461 102.093 15.7151C102.141 15.5812 102.185 15.4446 102.256 15.3217C102.322 15.2077 102.403 15.1043 102.498 15.011C102.55 14.9597 102.603 14.9169 102.673 14.9014C102.724 14.8899 102.769 14.8674 102.815 14.8426C102.856 14.8205 102.901 14.8073 102.951 14.8073C104.834 14.8081 106.717 14.8081 108.6 14.8081C108.631 14.8081 108.66 14.8179 108.69 14.8232C108.798 14.8413 108.896 14.893 109.008 14.9001C109.092 14.9054 109.179 14.9235 109.251 14.9792C109.272 14.9955 109.297 15.007 109.322 15.0172C109.407 15.0517 109.475 15.1127 109.531 15.1794C109.582 15.2409 109.638 15.3182 109.645 15.3933C109.662 15.5662 109.668 15.743 109.642 15.9153C109.627 16.0121 109.574 16.1027 109.559 16.1995C109.537 16.3432 109.474 16.4718 109.421 16.6013C109.379 16.7039 109.325 16.806 109.272 16.9059C109.18 17.08 109.11 17.2656 109.008 17.4354C108.984 17.4756 108.978 17.5242 108.946 17.5627C108.838 17.6944 108.774 17.8535 108.68 17.9941C108.619 18.0847 108.577 18.189 108.507 18.2707C108.439 18.3503 108.395 18.4427 108.337 18.5271C108.22 18.6973 108.106 18.8692 107.989 19.0398C107.886 19.1914 107.777 19.3404 107.671 19.4907C107.621 19.5614 107.574 19.6343 107.522 19.7041C107.435 19.8222 107.345 19.9375 107.259 20.056C107.167 20.182 107.074 20.3062 106.98 20.4295C106.791 20.6779 106.602 20.9267 106.413 21.1751C106.367 21.2361 106.335 21.3077 106.281 21.3603C106.177 21.4611 106.098 21.5809 106.017 21.6971C105.888 21.8819 105.74 22.0529 105.603 22.2311C105.513 22.3486 105.436 22.4759 105.34 22.5904C105.227 22.7243 105.14 22.879 105.033 23.0187C104.902 23.1906 104.794 23.3789 104.69 23.5685C104.618 23.7011 104.573 23.8457 104.536 23.9915C104.513 24.0808 104.494 24.1723 104.485 24.2638C104.472 24.3849 104.53 24.4967 104.543 24.6148C104.554 24.7027 104.634 24.7518 104.653 24.8322C104.68 24.9449 104.754 25.0307 104.823 25.1155C104.953 25.276 105.094 25.428 105.235 25.5792C105.325 25.676 105.421 25.7662 105.521 25.8541C105.663 25.9801 105.798 26.1158 105.935 26.2479C106.066 26.3743 106.211 26.4871 106.338 26.6157C106.501 26.7801 106.675 26.933 106.836 27.0983C106.889 27.1527 106.955 27.1934 107.001 27.2557C107.08 27.36 107.177 27.4475 107.272 27.5372C107.362 27.6226 107.447 27.7127 107.535 27.8002C107.684 27.9487 107.807 28.1247 107.961 28.2665C108.098 28.393 108.208 28.5388 108.323 28.6816C108.352 28.7174 108.393 28.7412 108.418 28.7793C108.54 28.9649 108.689 29.1293 108.822 29.3052C108.997 29.5364 109.157 29.7764 109.304 30.0257C109.403 30.1941 109.51 30.3585 109.571 30.5468C109.58 30.5764 109.577 30.6082 109.595 30.6357C109.638 30.6997 109.655 30.7709 109.653 30.8478C109.651 30.9663 109.652 31.0847 109.652 31.2032C109.652 31.2474 109.649 31.2925 109.629 31.3309C109.527 31.5241 109.415 31.7075 109.204 31.8025C109.16 31.822 109.131 31.8671 109.083 31.8777C109.005 31.8949 108.93 31.921 108.856 31.9528C108.747 31.9997 108.625 32.0081 108.516 32.0629C108.485 32.0788 108.443 32.0929 108.403 32.0916C108.287 32.0872 108.172 32.1053 108.056 32.1053C106.844 32.1053 105.632 32.1053 104.42 32.1053C104.105 32.1053 103.789 32.1013 103.473 32.1066C103.275 32.1102 103.085 32.0593 102.91 31.9864C102.75 31.9197 102.579 31.8808 102.425 31.7941C102.257 31.7004 102.089 31.608 101.931 31.4993C101.796 31.4074 101.669 31.3053 101.543 31.2014C101.445 31.1214 101.354 31.0352 101.262 30.949C101.107 30.8032 100.961 30.6476 100.815 30.4916C100.697 30.3647 100.589 30.2272 100.469 30.1022C100.301 29.9271 100.144 29.7437 99.9834 29.562C99.855 29.4162 99.731 29.2659 99.6009 29.1218C99.5083 29.0193 99.4094 28.9225 99.3164 28.8195C99.2396 28.7342 99.1496 28.6604 99.0711 28.5764C98.9904 28.4897 98.907 28.4036 98.813 28.3351C98.6516 28.2175 98.4945 28.0897 98.3119 28.0049C98.1694 27.9386 98.0203 27.8895 97.8602 27.8873C97.7715 27.8864 97.6947 27.9359 97.61 27.9523C97.5814 27.9576 97.5505 27.9633 97.5249 27.9863C97.4137 28.0849 97.2911 28.1689 97.1861 28.2771C97.1023 28.3642 97.033 28.461 96.9929 28.5671C96.9452 28.6935 96.8588 28.8005 96.8319 28.9379C96.8146 29.0263 96.7582 29.1046 96.7397 29.1983C96.7273 29.2615 96.7344 29.33 96.7004 29.391C96.6497 29.4812 96.636 29.5802 96.632 29.684C96.6294 29.7618 96.6192 29.8414 96.6025 29.9178C96.5707 30.0615 96.5531 30.2078 96.5411 30.3523C96.5204 30.6034 96.5464 30.8571 96.5147 31.109C96.5045 31.1886 96.4931 31.2642 96.46 31.3358C96.4331 31.3941 96.411 31.4538 96.3969 31.5166C96.3889 31.5506 96.3744 31.5829 96.3466 31.6072C96.3228 31.6279 96.3104 31.658 96.2901 31.6805C96.2054 31.7764 96.1203 31.8702 95.9884 31.9073C95.9037 31.9311 95.819 31.9647 95.7449 32.0112C95.6646 32.0615 95.5803 32.0797 95.4903 32.0925C95.3783 32.1084 95.2676 32.0982 95.156 32.0916C94.9857 32.0814 94.8163 32.1044 94.6464 32.104C94.4162 32.1031 94.1854 32.1009 93.9552 32.1044C93.5859 32.1106 93.2167 32.0836 92.8475 32.0907C92.8289 32.0907 92.8095 32.0898 92.7919 32.0845C92.6966 32.0576 92.5969 32.0611 92.5003 32.0421C92.3931 32.0209 92.2837 32.0112 92.1778 31.9868C92.0472 31.9568 91.9153 31.9334 91.7843 31.9082C91.6264 31.8777 91.4627 31.8799 91.3105 31.8158C91.236 31.7844 91.15 31.7862 91.0776 31.7583C90.8928 31.6876 90.6969 31.6558 90.5134 31.5815C90.4 31.5356 90.2743 31.521 90.1689 31.4516C90.1591 31.4454 90.145 31.445 90.1327 31.4432C90.0793 31.4357 90.0277 31.4211 89.9787 31.3999C89.8411 31.3402 89.7057 31.2735 89.5667 31.2186C89.4396 31.1683 89.3188 31.1064 89.1953 31.0511C89.0704 30.995 88.9464 30.9349 88.8251 30.8695C88.5732 30.7333 88.3236 30.5928 88.077 30.4465C88.0112 30.4076 87.9486 30.3643 87.8859 30.3205C87.751 30.2255 87.6032 30.1472 87.4735 30.0474C87.361 29.9607 87.245 29.8772 87.132 29.7914C86.9273 29.6363 86.7284 29.475 86.5352 29.3061C86.2872 29.0895 86.0446 28.8677 85.8157 28.6312C85.6299 28.4394 85.4473 28.2449 85.2682 28.0473C85.2241 27.9982 85.1765 27.9523 85.135 27.9006C85.0423 27.7843 84.9475 27.6694 84.8522 27.5554C84.7393 27.4206 84.6224 27.2888 84.5117 27.1527C84.4402 27.0647 84.3815 26.9657 84.3074 26.88C84.1843 26.7372 84.0784 26.5821 83.9638 26.4336C83.8552 26.293 83.7577 26.1436 83.655 25.9991C83.546 25.8462 83.426 25.7012 83.3232 25.5434C83.2557 25.4391 83.1944 25.3299 83.1181 25.2327C83.0453 25.1398 82.9875 25.0369 82.9235 24.9392C82.8283 24.7946 82.7184 24.6598 82.635 24.5069C82.5847 24.415 82.5155 24.3336 82.4656 24.2417C82.3893 24.1003 82.2962 23.9694 82.2133 23.8324C82.1215 23.6804 82.0254 23.5314 81.9345 23.3789C81.8701 23.2711 81.8079 23.1615 81.7514 23.0496C81.6998 22.9475 81.6147 22.8693 81.5644 22.7663C81.5242 22.6837 81.4828 22.6006 81.4365 22.5214C81.3438 22.3632 81.2481 22.2063 81.1563 22.0476C81.0721 21.9018 80.9927 21.7519 80.9155 21.6012C80.8506 21.4744 80.7752 21.3532 80.7068 21.2286C80.6433 21.1132 80.5789 20.9983 80.522 20.8799C80.4756 20.7831 80.4139 20.6942 80.3698 20.5974C80.3199 20.4883 80.2564 20.3866 80.2021 20.2805C80.1501 20.1789 80.106 20.0728 80.0513 19.9716C79.9873 19.854 79.9163 19.74 79.8563 19.6202C79.8016 19.5106 79.7623 19.3921 79.6842 19.2944C79.6807 19.29 79.6807 19.2825 79.6794 19.2763C79.6564 19.1729 79.6066 19.077 79.5554 18.989C79.4985 18.8909 79.4526 18.787 79.394 18.6898C79.3049 18.5426 79.2568 18.3737 79.1685 18.2239C79.1187 18.1399 79.086 18.0444 79.0428 17.9552C78.9872 17.8407 78.9418 17.7196 78.8805 17.6095C78.817 17.4959 78.7945 17.3651 78.7159 17.2603C78.7076 17.2488 78.6987 17.2351 78.6974 17.2214C78.693 17.1675 78.6661 17.1211 78.6387 17.0787C78.5717 16.9757 78.5448 16.8555 78.4848 16.7489C78.4217 16.6362 78.3807 16.5112 78.3273 16.3927C78.2721 16.2703 78.2038 16.1531 78.1592 16.0276C78.1107 15.8901 78.0604 15.7522 78.0361 15.6073V15.3204C78.0445 15.2789 78.0714 15.247 78.0895 15.2104C78.1698 15.0512 78.3092 14.9726 78.4662 14.9111C78.5174 14.8912 78.5717 14.8957 78.6233 14.8762C78.7195 14.84 78.8196 14.8073 78.9219 14.8073C80.4831 14.8055 82.0443 14.8059 83.6055 14.8064C83.628 14.8064 83.6536 14.8046 83.673 14.8134C83.782 14.8634 83.8985 14.8895 84.011 14.9275C84.1795 14.9845 84.3273 15.0901 84.4464 15.2258C84.5699 15.3668 84.663 15.5255 84.7344 15.7019C84.7878 15.834 84.8385 15.9693 84.906 16.097C84.951 16.1814 84.9744 16.2769 85.0181 16.364C85.0353 16.3984 85.0494 16.4391 85.0631 16.4776C85.1032 16.5876 85.1354 16.7047 85.1963 16.8024C85.2647 16.912 85.307 17.0327 85.3648 17.1459C85.4244 17.2621 85.4808 17.381 85.5307 17.503C85.5845 17.6343 85.6546 17.7585 85.7124 17.888C85.7336 17.9353 85.7574 17.9808 85.7817 18.0263C85.8307 18.1191 85.884 18.2111 85.9242 18.3066C85.9745 18.4263 86.0508 18.5311 86.0989 18.6513C86.1134 18.688 86.147 18.7114 86.1655 18.7477C86.259 18.9298 86.3605 19.1079 86.4544 19.2896C86.4981 19.3744 86.5625 19.4465 86.6031 19.5309C86.6494 19.6264 86.7178 19.7064 86.7619 19.8027C86.8078 19.9026 86.8753 19.9928 86.93 20.0891C86.9798 20.1771 87.0372 20.2606 87.0919 20.3455C87.1589 20.4489 87.2238 20.5546 87.2922 20.6571C87.3764 20.784 87.4616 20.9104 87.5396 21.0416C87.6173 21.172 87.7214 21.2865 87.8034 21.4147C87.9283 21.6096 88.0761 21.7864 88.2172 21.9681C88.3249 22.1064 88.4519 22.2302 88.564 22.3654C88.6796 22.5047 88.83 22.6006 88.9698 22.7093C89.0616 22.7805 89.1692 22.83 89.2786 22.875C89.4066 22.9281 89.5296 22.9489 89.6633 22.9051C89.8151 22.8556 89.9359 22.765 90.0197 22.6324C90.085 22.529 90.1561 22.4269 90.1874 22.304C90.205 22.235 90.2443 22.1718 90.2646 22.1033C90.2884 22.0229 90.3008 21.9393 90.3202 21.8576C90.3374 21.7833 90.3674 21.7108 90.374 21.6357C90.3912 21.4408 90.4119 21.2476 90.4446 21.054C90.4653 20.9294 90.4834 20.7994 90.4856 20.6721C90.4904 20.4189 90.5076 20.166 90.5116 19.9132C90.5178 19.5106 90.52 19.1075 90.4909 18.7048C90.4759 18.4979 90.494 18.2898 90.4785 18.082C90.4675 17.9375 90.4397 17.7934 90.4525 17.6475C90.4534 17.6374 90.4516 17.6259 90.4468 17.617C90.4128 17.5507 90.415 17.4752 90.4062 17.4058C90.3841 17.2241 90.3727 17.0429 90.333 16.8621C90.2893 16.6628 90.2187 16.4758 90.1428 16.2893C90.104 16.1942 90.0378 16.1129 89.98 16.0272C89.9245 15.945 89.8601 15.8734 89.7855 15.8124C89.6298 15.6855 89.452 15.5927 89.2738 15.5025C89.2627 15.4968 89.2517 15.4897 89.2402 15.4879C89.1542 15.4751 89.0739 15.4504 88.9954 15.4101C88.9451 15.3845 88.8882 15.3655 88.8282 15.373C88.7625 15.3814 88.7025 15.3509 88.6394 15.3412C88.5927 15.3337 88.5578 15.2943 88.5582 15.2373C88.56 15.1109 88.6156 15.0079 88.695 14.9142C88.7854 14.8081 88.8851 14.71 89.002 14.6366C89.1181 14.5637 89.2217 14.4731 89.3558 14.424C89.4507 14.3896 89.5499 14.3683 89.6417 14.3277C89.7304 14.2879 89.8146 14.2503 89.9152 14.2388C90.0886 14.219 90.2571 14.1672 90.4287 14.1328C90.5901 14.1005 90.7529 14.1071 90.9148 14.0881C91.0507 14.0722 91.1883 14.0439 91.3277 14.0554C91.3352 14.0559 91.3436 14.0505 91.3511 14.0483L91.3507 14.0488Z" fill="#39282F"/>
<defs>
<filter id="filter0_d_246_1644" x="-18" y="-4.82764" width="80.7908" height="80.7907" filterUnits="userSpaceOnUse" color-interpolation-filters="sRGB">
<feFlood flood-opacity="0" result="BackgroundImageFix"/>
<feColorMatrix in="SourceAlpha" type="matrix" values="0 0 0 0 0 0 0 0 0 0 0 0 0 0 0 0 0 0 127 0" result="hardAlpha"/>
<feOffset dy="13"/>
<feGaussianBlur stdDeviation="9"/>
<feColorMatrix type="matrix" values="0 0 0 0 0.0658854 0 0 0 0 0.0730469 0 0 0 0 0.1375 0 0 0 0.08 0"/>
<feBlend mode="normal" in2="BackgroundImageFix" result="effect1_dropShadow_246_1644"/>
<feBlend mode="normal" in="SourceGraphic" in2="effect1_dropShadow_246_1644" result="shape"/>
</filter>
<filter id="filter1_d_246_1644" x="53.4519" y="-4.82764" width="80.7908" height="80.7907" filterUnits="userSpaceOnUse" color-interpolation-filters="sRGB">
<feFlood flood-opacity="0" result="BackgroundImageFix"/>
<feColorMatrix in="SourceAlpha" type="matrix" values="0 0 0 0 0 0 0 0 0 0 0 0 0 0 0 0 0 0 127 0" result="hardAlpha"/>
<feOffset dy="13"/>
<feGaussianBlur stdDeviation="9"/>
<feColorMatrix type="matrix" values="0 0 0 0 0.0658854 0 0 0 0 0.0730469 0 0 0 0 0.1375 0 0 0 0.08 0"/>
<feBlend mode="normal" in2="BackgroundImageFix" result="effect1_dropShadow_246_1644"/>
<feBlend mode="normal" in="SourceGraphic" in2="effect1_dropShadow_246_1644" result="shape"/>
</filter>
<filter id="filter2_d_246_1644" x="124.904" y="-4.82764" width="80.7908" height="80.7907" filterUnits="userSpaceOnUse" color-interpolation-filters="sRGB">
<feFlood flood-opacity="0" result="BackgroundImageFix"/>
<feColorMatrix in="SourceAlpha" type="matrix" values="0 0 0 0 0 0 0 0 0 0 0 0 0 0 0 0 0 0 127 0" result="hardAlpha"/>
<feOffset dy="13"/>
<feGaussianBlur stdDeviation="9"/>
<feColorMatrix type="matrix" values="0 0 0 0 0.0658854 0 0 0 0 0.0730469 0 0 0 0 0.1375 0 0 0 0.08 0"/>
<feBlend mode="normal" in2="BackgroundImageFix" result="effect1_dropShadow_246_1644"/>
<feBlend mode="normal" in="SourceGraphic" in2="effect1_dropShadow_246_1644" result="shape"/>
</filter>
</defs>
</svg>
