<svg width="100%" height="100%" style="overflow:visible;" preserveAspectRatio="none" viewBox="0 0 223.69 80.79" fill="none" xmlns="http://www.w3.org/2000/svg">
<g filter="url(#filter0_d_246_1716)">
<circle cx="22.3953" cy="22.387" r="22.3953" fill="#F4FAFF"/>
</g>
<g filter="url(#filter1_d_246_1716)">
<circle cx="93.8475" cy="22.387" r="22.3953" fill="#F4FAFF"/>
</g>
<g filter="url(#filter2_d_246_1716)">
<circle cx="165.3" cy="22.387" r="22.3953" fill="#39282F"/>
</g>
<path d="M173.219 23.5998C173.219 25.5178 172.459 27.3573 171.105 28.7135C169.752 30.0697 167.916 30.8317 166.001 30.8317C164.087 30.8317 162.251 30.0697 160.898 28.7135C159.544 27.3573 158.784 25.5178 158.784 23.5998C158.784 23.1876 158.827 22.785 158.901 22.3945H156.378V32.0297C156.378 32.6999 156.919 33.2423 157.588 33.2423H174.417C174.738 33.2416 175.045 33.1136 175.272 32.8863C175.498 32.659 175.625 32.3509 175.625 32.0297V22.3945H173.101C173.176 22.785 173.219 23.1876 173.219 23.5998ZM166.001 28.421C166.634 28.4209 167.259 28.296 167.843 28.0535C168.427 27.811 168.958 27.4556 169.404 27.0077C169.851 26.5598 170.206 26.0281 170.447 25.4429C170.689 24.8578 170.814 24.2307 170.813 23.5974C170.813 22.9641 170.689 22.337 170.447 21.752C170.205 21.167 169.85 20.6354 169.403 20.1877C168.956 19.74 168.425 19.3849 167.841 19.1427C167.257 18.9005 166.631 18.776 165.999 18.7761C164.723 18.7764 163.498 19.2848 162.596 20.1894C161.694 21.094 161.187 22.3208 161.187 23.5998C161.187 24.8788 161.695 26.1053 162.598 27.0094C163.501 27.9136 164.725 28.4214 166.001 28.421ZM171.776 18.5375H174.66C174.852 18.5375 175.036 18.4613 175.172 18.3258C175.307 18.1902 175.384 18.0063 175.385 17.8143V14.9239C175.385 14.7315 175.308 14.5469 175.173 14.4109C175.037 14.2748 174.853 14.1983 174.66 14.1983H171.776C171.584 14.1983 171.399 14.2748 171.264 14.4109C171.128 14.5469 171.052 14.7315 171.052 14.9239V17.8143C171.054 18.212 171.379 18.5375 171.776 18.5375ZM166.001 0.457764C159.876 0.457764 154.001 2.89593 149.669 7.2359C145.338 11.5759 142.904 17.4621 142.904 23.5998C142.904 29.7374 145.338 35.6237 149.669 39.9637C154.001 44.3036 159.876 46.7418 166.001 46.7418C169.035 46.7418 172.038 46.1432 174.84 44.9802C177.643 43.8172 180.189 42.1126 182.334 39.9637C184.478 37.8147 186.18 35.2636 187.34 32.4558C188.501 29.6481 189.099 26.6388 189.099 23.5998C189.099 20.5607 188.501 17.5514 187.34 14.7437C186.18 11.936 184.478 9.38484 182.334 7.2359C180.189 5.08697 177.643 3.38234 174.84 2.21934C172.038 1.05635 169.035 0.457764 166.001 0.457764ZM178.031 32.9747C178.031 34.4476 176.828 35.6529 175.358 35.6529H156.645C155.175 35.6529 153.972 34.4476 153.972 32.9747V14.2249C153.972 12.752 155.175 11.5466 156.645 11.5466H175.358C176.828 11.5466 178.031 12.752 178.031 14.2249V32.9747Z" fill="#F4FAFF"/>
<path d="M33.278 11.9967C33.1785 11.7091 33.0599 11.6286 32.8762 11.5596C32.4743 11.4062 31.793 11.6363 31.793 11.6363C31.793 11.6363 7.64597 20.3336 6.26811 21.2962C5.96958 21.5033 5.87006 21.6221 5.82413 21.764C5.58683 22.4505 6.32935 22.7534 6.32935 22.7534L12.5527 24.7859C12.5527 24.7859 12.7862 24.8204 12.8665 24.7667C14.2827 23.8694 27.1121 15.7549 27.8508 15.4826C27.9694 15.4481 28.0536 15.4864 28.0307 15.567C27.736 16.6101 16.5944 26.5307 16.5944 26.5307C16.5944 26.5307 16.5523 26.5844 16.5255 26.6458L16.5102 26.6381L15.9284 32.8237C15.9284 32.8237 15.6835 34.7181 17.5781 32.8237C18.9138 31.4853 20.2037 30.3694 20.8505 29.8248C22.99 31.3051 25.2941 32.9425 26.2854 33.7977C26.7829 34.2272 27.204 34.2962 27.5446 34.2847C28.4861 34.2502 28.7502 33.211 28.7502 33.211C28.7502 33.211 33.1517 15.4672 33.2972 13.0897C33.3125 12.8557 33.3316 12.71 33.3316 12.549C33.3316 12.3266 33.3125 12.1041 33.278 11.9967Z" fill="#39282F"/>
<path d="M91.3507 13.8681C92.2352 13.8681 93.1196 13.8681 94.0041 13.8681C94.1996 13.8951 94.3968 13.9026 94.5926 13.9238C94.7122 13.9371 94.8282 13.9698 94.9482 13.9746C95.0602 13.9795 95.1626 14.0303 95.2737 14.0467C95.3408 14.0564 95.4131 14.0467 95.4749 14.0719C95.6505 14.1422 95.8371 14.1895 95.995 14.2982C96.1931 14.4348 96.3387 14.6169 96.4163 14.8471C96.4313 14.8922 96.4481 14.9364 96.4635 14.9806C96.4763 15.0178 96.4984 15.0505 96.5094 15.0885C96.5438 15.2105 96.5416 15.3378 96.5539 15.462C96.5694 15.618 96.5844 15.7758 96.5853 15.9336C96.5861 16.1223 96.5817 16.3106 96.5636 16.4993C96.5398 16.7482 96.565 16.9988 96.5411 17.2503C96.5067 17.6105 96.5456 17.9743 96.5164 18.3376C96.4904 18.6642 96.5111 18.9944 96.5107 19.3228C96.5107 19.4165 96.5151 19.5102 96.5085 19.6035C96.4904 19.8497 96.4763 20.0959 96.4741 20.343C96.4719 20.5361 96.4736 20.7297 96.4741 20.9233C96.4741 20.9564 96.4741 20.9896 96.4811 21.0223C96.5169 21.1903 96.5138 21.3626 96.5332 21.5328C96.5416 21.6071 96.5469 21.6849 96.5725 21.7507C96.625 21.8877 96.6258 22.0451 96.7299 22.1627C96.7401 22.1741 96.7463 22.1932 96.7463 22.2086C96.7463 22.248 96.7674 22.2763 96.7899 22.3023C96.8133 22.3293 96.8319 22.3585 96.8517 22.3872C96.9201 22.4875 97.0096 22.5719 97.1102 22.6338C97.2523 22.7209 97.4111 22.7037 97.5633 22.6497C97.7177 22.5949 97.8421 22.4897 97.9687 22.3903C98.1023 22.2851 98.2197 22.1618 98.3423 22.0446C98.4151 21.9753 98.4755 21.8926 98.5452 21.8192C98.5929 21.7688 98.6326 21.7101 98.6798 21.6575C98.7376 21.5934 98.7927 21.5262 98.8452 21.4572C98.9087 21.3737 98.9705 21.2888 99.0292 21.2018C99.0834 21.1209 99.1523 21.0515 99.2109 20.9741C99.2656 20.9025 99.2987 20.8194 99.353 20.7496C99.4086 20.678 99.4553 20.6002 99.5069 20.5259C99.6384 20.3368 99.7593 20.1401 99.8859 19.9474C99.9962 19.7798 100.099 19.6083 100.196 19.4329C100.243 19.3498 100.287 19.2631 100.346 19.1902C100.424 19.0943 100.47 18.9812 100.533 18.8773C100.596 18.7756 100.647 18.6669 100.699 18.559C100.752 18.4477 100.818 18.3425 100.874 18.2333C100.92 18.1462 100.958 18.0547 101.009 17.9712C101.038 17.9252 101.064 17.8797 101.08 17.828C101.119 17.7078 101.176 17.5942 101.229 17.481C101.298 17.3329 101.386 17.1937 101.444 17.0386C101.491 16.9117 101.559 16.7924 101.622 16.6722C101.648 16.6218 101.654 16.5608 101.682 16.5117C101.71 16.4626 101.731 16.4118 101.753 16.361C101.817 16.2116 101.863 16.0547 101.94 15.9106C101.959 15.8752 101.975 15.8381 101.982 15.8005C101.994 15.7356 102.022 15.6803 102.055 15.6246C102.072 15.5968 102.082 15.5654 102.093 15.5345C102.141 15.4005 102.185 15.2639 102.256 15.1411C102.322 15.027 102.403 14.9236 102.498 14.8303C102.55 14.7791 102.603 14.7362 102.673 14.7207C102.724 14.7092 102.769 14.6867 102.815 14.6619C102.856 14.6398 102.901 14.6266 102.951 14.6266C104.834 14.6275 106.717 14.6275 108.6 14.6275C108.631 14.6275 108.66 14.6372 108.69 14.6425C108.798 14.6606 108.896 14.7123 109.008 14.7194C109.092 14.7247 109.179 14.7428 109.251 14.7985C109.272 14.8149 109.297 14.8264 109.322 14.8365C109.407 14.871 109.475 14.932 109.531 14.9987C109.582 15.0602 109.638 15.1375 109.645 15.2127C109.662 15.3855 109.668 15.5623 109.642 15.7347C109.627 15.8315 109.574 15.9221 109.559 16.0189C109.537 16.1625 109.474 16.2912 109.421 16.4207C109.379 16.5232 109.325 16.6253 109.272 16.7252C109.18 16.8993 109.11 17.085 109.008 17.2547C108.984 17.2949 108.978 17.3436 108.946 17.382C108.838 17.5137 108.774 17.6728 108.68 17.8134C108.619 17.904 108.577 18.0083 108.507 18.0901C108.439 18.1696 108.395 18.262 108.337 18.3464C108.22 18.5166 108.106 18.6886 107.989 18.8592C107.886 19.0108 107.777 19.1597 107.671 19.31C107.621 19.3807 107.574 19.4536 107.522 19.5235C107.435 19.6415 107.345 19.7569 107.259 19.8753C107.167 20.0013 107.074 20.1255 106.98 20.2488C106.791 20.4972 106.602 20.7461 106.413 20.9945C106.367 21.0555 106.335 21.1271 106.281 21.1797C106.177 21.2804 106.098 21.4002 106.017 21.5165C105.888 21.7012 105.74 21.8723 105.603 22.0504C105.513 22.168 105.436 22.2953 105.34 22.4097C105.227 22.5437 105.14 22.6984 105.033 22.838C104.902 23.01 104.794 23.1983 104.69 23.3879C104.618 23.5205 104.573 23.665 104.536 23.8109C104.513 23.9002 104.494 23.9916 104.485 24.0831C104.472 24.2042 104.53 24.3161 104.543 24.4341C104.554 24.522 104.634 24.5711 104.653 24.6515C104.68 24.7643 104.754 24.85 104.823 24.9349C104.953 25.0953 105.094 25.2474 105.235 25.3985C105.325 25.4953 105.421 25.5855 105.521 25.6735C105.663 25.7994 105.798 25.9351 105.935 26.0673C106.066 26.1937 106.211 26.3064 106.338 26.435C106.501 26.5994 106.675 26.7524 106.836 26.9177C106.889 26.972 106.955 27.0127 107.001 27.075C107.08 27.1793 107.177 27.2669 107.272 27.3566C107.362 27.4419 107.447 27.5321 107.535 27.6196C107.684 27.7681 107.807 27.944 107.961 28.0859C108.098 28.2123 108.208 28.3581 108.323 28.5009C108.352 28.5367 108.393 28.5606 108.418 28.5986C108.54 28.7842 108.689 28.9487 108.822 29.1246C108.997 29.3557 109.157 29.5957 109.304 29.845C109.403 30.0134 109.51 30.1779 109.571 30.3661C109.58 30.3958 109.577 30.4276 109.595 30.455C109.638 30.5191 109.655 30.5902 109.653 30.6671C109.651 30.7856 109.652 30.9041 109.652 31.0225C109.652 31.0667 109.649 31.1118 109.629 31.1503C109.527 31.3434 109.415 31.5268 109.204 31.6219C109.16 31.6413 109.131 31.6864 109.083 31.697C109.005 31.7142 108.93 31.7403 108.856 31.7721C108.747 31.819 108.625 31.8274 108.516 31.8822C108.485 31.8981 108.443 31.9123 108.403 31.9109C108.287 31.9065 108.172 31.9246 108.056 31.9246C106.844 31.9246 105.632 31.9246 104.42 31.9246C104.105 31.9246 103.789 31.9207 103.473 31.926C103.275 31.9295 103.085 31.8787 102.91 31.8057C102.75 31.739 102.579 31.7001 102.425 31.6135C102.257 31.5198 102.089 31.4274 101.931 31.3187C101.796 31.2267 101.669 31.1246 101.543 31.0207C101.445 30.9407 101.354 30.8546 101.262 30.7684C101.107 30.6225 100.961 30.4669 100.815 30.3109C100.697 30.184 100.589 30.0466 100.469 29.9215C100.301 29.7465 100.144 29.563 99.9834 29.3814C99.855 29.2355 99.731 29.0852 99.6009 28.9411C99.5083 28.8386 99.4094 28.7418 99.3164 28.6388C99.2396 28.5535 99.1496 28.4797 99.0711 28.3957C98.9904 28.3091 98.907 28.2229 98.813 28.1544C98.6516 28.0368 98.4945 27.9091 98.3119 27.8242C98.1694 27.7579 98.0203 27.7089 97.8602 27.7066C97.7715 27.7058 97.6947 27.7553 97.61 27.7716C97.5814 27.7769 97.5505 27.7827 97.5249 27.8056C97.4137 27.9042 97.2911 27.9882 97.1861 28.0965C97.1023 28.1836 97.033 28.2804 96.9929 28.3864C96.9452 28.5128 96.8588 28.6198 96.8319 28.7573C96.8146 28.8457 96.7582 28.9239 96.7397 29.0176C96.7273 29.0808 96.7344 29.1493 96.7004 29.2103C96.6497 29.3005 96.636 29.3995 96.632 29.5034C96.6294 29.5812 96.6192 29.6607 96.6025 29.7372C96.5707 29.8808 96.5531 30.0271 96.5411 30.1717C96.5204 30.4227 96.5464 30.6764 96.5147 30.9284C96.5045 31.0079 96.4931 31.0835 96.46 31.1551C96.4331 31.2135 96.411 31.2731 96.3969 31.3359C96.3889 31.3699 96.3744 31.4022 96.3466 31.4265C96.3228 31.4473 96.3104 31.4773 96.2901 31.4999C96.2054 31.5958 96.1203 31.6895 95.9884 31.7266C95.9037 31.7505 95.819 31.7841 95.7449 31.8305C95.6646 31.8809 95.5803 31.899 95.4903 31.9118C95.3783 31.9277 95.2676 31.9176 95.156 31.9109C94.9857 31.9008 94.8163 31.9237 94.6464 31.9233C94.4162 31.9224 94.1854 31.9202 93.9552 31.9237C93.5859 31.9299 93.2167 31.903 92.8475 31.91C92.8289 31.91 92.8095 31.9092 92.7919 31.9039C92.6966 31.8769 92.5969 31.8804 92.5003 31.8614C92.3931 31.8402 92.2837 31.8305 92.1778 31.8062C92.0472 31.7761 91.9153 31.7527 91.7843 31.7275C91.6264 31.697 91.4627 31.6992 91.3105 31.6351C91.236 31.6037 91.15 31.6055 91.0776 31.5777C90.8928 31.5069 90.6969 31.4751 90.5134 31.4009C90.4 31.3549 90.2743 31.3403 90.1689 31.2709C90.1591 31.2647 90.145 31.2643 90.1327 31.2625C90.0793 31.255 90.0277 31.2404 89.9787 31.2192C89.8411 31.1595 89.7057 31.0928 89.5667 31.038C89.4396 30.9876 89.3188 30.9257 89.1953 30.8705C89.0704 30.8143 88.9464 30.7542 88.8251 30.6888C88.5732 30.5527 88.3236 30.4121 88.077 30.2658C88.0112 30.2269 87.9486 30.1836 87.8859 30.1398C87.751 30.0448 87.6032 29.9666 87.4735 29.8667C87.361 29.7801 87.245 29.6965 87.132 29.6108C86.9273 29.4556 86.7284 29.2943 86.5352 29.1255C86.2872 28.9089 86.0446 28.687 85.8157 28.4505C85.6299 28.2587 85.4473 28.0642 85.2682 27.8666C85.2241 27.8176 85.1765 27.7716 85.135 27.7199C85.0423 27.6037 84.9475 27.4887 84.8522 27.3747C84.7393 27.2399 84.6224 27.1082 84.5117 26.972C84.4402 26.8841 84.3815 26.7851 84.3074 26.6993C84.1843 26.5566 84.0784 26.4014 83.9638 26.2529C83.8552 26.1124 83.7577 25.963 83.655 25.8184C83.546 25.6655 83.426 25.5205 83.3232 25.3627C83.2557 25.2584 83.1944 25.1492 83.1181 25.052C83.0453 24.9592 82.9875 24.8562 82.9235 24.7585C82.8283 24.614 82.7184 24.4792 82.635 24.3262C82.5847 24.2343 82.5155 24.153 82.4656 24.061C82.3893 23.9196 82.2962 23.7888 82.2133 23.6517C82.1215 23.4997 82.0254 23.3507 81.9345 23.1983C81.8701 23.0904 81.8079 22.9808 81.7514 22.869C81.6998 22.7669 81.6147 22.6886 81.5644 22.5856C81.5242 22.503 81.4828 22.4199 81.4365 22.3408C81.3438 22.1825 81.2481 22.0256 81.1563 21.867C81.0721 21.7211 80.9927 21.5713 80.9155 21.4205C80.8506 21.2937 80.7752 21.1726 80.7068 21.0479C80.6433 20.9326 80.5789 20.8177 80.522 20.6992C80.4756 20.6024 80.4139 20.5136 80.3698 20.4168C80.3199 20.3076 80.2564 20.2059 80.2021 20.0999C80.1501 19.9982 80.106 19.8921 80.0513 19.7909C79.9873 19.6733 79.9163 19.5593 79.8563 19.4395C79.8016 19.3299 79.7623 19.2114 79.6842 19.1138C79.6807 19.1093 79.6807 19.1018 79.6794 19.0956C79.6564 18.9922 79.6066 18.8963 79.5554 18.8083C79.4985 18.7102 79.4526 18.6063 79.394 18.5091C79.3049 18.3619 79.2568 18.1931 79.1685 18.0432C79.1187 17.9593 79.086 17.8638 79.0428 17.7745C78.9872 17.66 78.9418 17.5389 78.8805 17.4289C78.817 17.3153 78.7945 17.1844 78.7159 17.0797C78.7076 17.0682 78.6987 17.0545 78.6974 17.0408C78.693 16.9869 78.6661 16.9404 78.6387 16.898C78.5717 16.795 78.5448 16.6748 78.4848 16.5683C78.4217 16.4556 78.3807 16.3305 78.3273 16.212C78.2721 16.0896 78.2038 15.9725 78.1592 15.8469C78.1107 15.7095 78.0604 15.5716 78.0361 15.4266V15.1397C78.0445 15.0982 78.0714 15.0664 78.0895 15.0297C78.1698 14.8706 78.3092 14.7919 78.4662 14.7305C78.5174 14.7106 78.5717 14.715 78.6233 14.6955C78.7195 14.6593 78.8196 14.6266 78.9219 14.6266C80.4831 14.6248 82.0443 14.6253 83.6055 14.6257C83.628 14.6257 83.6536 14.6239 83.673 14.6328C83.782 14.6827 83.8985 14.7088 84.011 14.7468C84.1795 14.8038 84.3273 14.9095 84.4464 15.0452C84.5699 15.1862 84.663 15.3448 84.7344 15.5212C84.7878 15.6533 84.8385 15.7886 84.906 15.9163C84.951 16.0008 84.9744 16.0962 85.0181 16.1833C85.0353 16.2178 85.0494 16.2584 85.0631 16.2969C85.1032 16.407 85.1354 16.5241 85.1963 16.6218C85.2647 16.7314 85.307 16.852 85.3648 16.9652C85.4244 17.0814 85.4808 17.2003 85.5307 17.3223C85.5845 17.4536 85.6546 17.5778 85.7124 17.7073C85.7336 17.7546 85.7574 17.8001 85.7817 17.8457C85.8307 17.9385 85.884 18.0304 85.9242 18.1259C85.9745 18.2457 86.0508 18.3504 86.0989 18.4706C86.1134 18.5073 86.147 18.5308 86.1655 18.567C86.259 18.7491 86.3605 18.9272 86.4544 19.1089C86.4981 19.1938 86.5625 19.2658 86.6031 19.3502C86.6494 19.4457 86.7178 19.5257 86.7619 19.6221C86.8078 19.7219 86.8753 19.8121 86.93 19.9085C86.9798 19.9964 87.0372 20.08 87.0919 20.1648C87.1589 20.2683 87.2238 20.3739 87.2922 20.4764C87.3764 20.6033 87.4616 20.7297 87.5396 20.861C87.6173 20.9914 87.7214 21.1058 87.8034 21.234C87.9283 21.4289 88.0761 21.6057 88.2172 21.7874C88.3249 21.9257 88.4519 22.0495 88.564 22.1848C88.6796 22.324 88.83 22.4199 88.9698 22.5286C89.0616 22.5998 89.1692 22.6493 89.2786 22.6944C89.4066 22.7474 89.5296 22.7682 89.6633 22.7244C89.8151 22.6749 89.9359 22.5843 90.0197 22.4517C90.085 22.3483 90.1561 22.2462 90.1874 22.1233C90.205 22.0544 90.2443 21.9912 90.2646 21.9227C90.2884 21.8422 90.3008 21.7587 90.3202 21.6769C90.3374 21.6026 90.3674 21.5302 90.374 21.455C90.3912 21.2601 90.4119 21.0669 90.4446 20.8733C90.4653 20.7487 90.4834 20.6188 90.4856 20.4915C90.4904 20.2382 90.5076 19.9854 90.5116 19.7326C90.5178 19.3299 90.52 18.9268 90.4909 18.5241C90.4759 18.3173 90.494 18.1091 90.4785 17.9014C90.4675 17.7568 90.4397 17.6127 90.4525 17.4669C90.4534 17.4567 90.4516 17.4452 90.4468 17.4364C90.4128 17.3701 90.415 17.2945 90.4062 17.2251C90.3841 17.0434 90.3727 16.8622 90.333 16.6814C90.2893 16.4821 90.2187 16.2951 90.1428 16.1086C90.104 16.0136 90.0378 15.9322 89.98 15.8465C89.9245 15.7643 89.8601 15.6927 89.7855 15.6317C89.6298 15.5048 89.452 15.412 89.2738 15.3219C89.2627 15.3161 89.2517 15.309 89.2402 15.3073C89.1542 15.2944 89.0739 15.2697 88.9954 15.2295C88.9451 15.2038 88.8882 15.1848 88.8282 15.1923C88.7625 15.2007 88.7025 15.1702 88.6394 15.1605C88.5927 15.153 88.5578 15.1137 88.5582 15.0567C88.56 14.9302 88.6156 14.8273 88.695 14.7336C88.7854 14.6275 88.8851 14.5293 89.002 14.456C89.1181 14.383 89.2217 14.2924 89.3558 14.2434C89.4507 14.2089 89.5499 14.1877 89.6417 14.147C89.7304 14.1072 89.8146 14.0697 89.9152 14.0582C90.0886 14.0383 90.2571 13.9866 90.4287 13.9521C90.5901 13.9198 90.7529 13.9265 90.9148 13.9075C91.0507 13.8915 91.1883 13.8633 91.3277 13.8747C91.3352 13.8752 91.3436 13.8699 91.3511 13.8677L91.3507 13.8681Z" fill="#39282F"/>
<defs>
<filter id="filter0_d_246_1716" x="-18" y="-5.0083" width="80.7905" height="80.7906" filterUnits="userSpaceOnUse" color-interpolation-filters="sRGB">
<feFlood flood-opacity="0" result="BackgroundImageFix"/>
<feColorMatrix in="SourceAlpha" type="matrix" values="0 0 0 0 0 0 0 0 0 0 0 0 0 0 0 0 0 0 127 0" result="hardAlpha"/>
<feOffset dy="13"/>
<feGaussianBlur stdDeviation="9"/>
<feColorMatrix type="matrix" values="0 0 0 0 0.0658854 0 0 0 0 0.0730469 0 0 0 0 0.1375 0 0 0 0.08 0"/>
<feBlend mode="normal" in2="BackgroundImageFix" result="effect1_dropShadow_246_1716"/>
<feBlend mode="normal" in="SourceGraphic" in2="effect1_dropShadow_246_1716" result="shape"/>
</filter>
<filter id="filter1_d_246_1716" x="53.4521" y="-5.0083" width="80.7905" height="80.7906" filterUnits="userSpaceOnUse" color-interpolation-filters="sRGB">
<feFlood flood-opacity="0" result="BackgroundImageFix"/>
<feColorMatrix in="SourceAlpha" type="matrix" values="0 0 0 0 0 0 0 0 0 0 0 0 0 0 0 0 0 0 127 0" result="hardAlpha"/>
<feOffset dy="13"/>
<feGaussianBlur stdDeviation="9"/>
<feColorMatrix type="matrix" values="0 0 0 0 0.0658854 0 0 0 0 0.0730469 0 0 0 0 0.1375 0 0 0 0.08 0"/>
<feBlend mode="normal" in2="BackgroundImageFix" result="effect1_dropShadow_246_1716"/>
<feBlend mode="normal" in="SourceGraphic" in2="effect1_dropShadow_246_1716" result="shape"/>
</filter>
<filter id="filter2_d_246_1716" x="124.904" y="-5.0083" width="80.7905" height="80.7906" filterUnits="userSpaceOnUse" color-interpolation-filters="sRGB">
<feFlood flood-opacity="0" result="BackgroundImageFix"/>
<feColorMatrix in="SourceAlpha" type="matrix" values="0 0 0 0 0 0 0 0 0 0 0 0 0 0 0 0 0 0 127 0" result="hardAlpha"/>
<feOffset dy="13"/>
<feGaussianBlur stdDeviation="9"/>
<feColorMatrix type="matrix" values="0 0 0 0 0.0658854 0 0 0 0 0.0730469 0 0 0 0 0.1375 0 0 0 0.08 0"/>
<feBlend mode="normal" in2="BackgroundImageFix" result="effect1_dropShadow_246_1716"/>
<feBlend mode="normal" in="SourceGraphic" in2="effect1_dropShadow_246_1716" result="shape"/>
</filter>
</defs>
</svg>
