<svg width="100%" height="100%" style="overflow:visible;" preserveAspectRatio="none" viewBox="0 0 61.38 129.08" fill="none" xmlns="http://www.w3.org/2000/svg">
<g style="mix-blend-mode:multiply">
<path d="M52.6102 123.979C52.561 124.301 52.508 124.623 52.4588 124.945L54.0183 123.384C49.9568 124.293 46.2209 125.385 42.0118 125.29C38.3213 125.206 34.6535 124.706 31.0614 123.858C23.987 122.183 16.6514 119.178 11.6853 113.665C5.99625 107.349 4.67524 98.0811 5.25815 89.8893C5.76157 82.8456 8.3771 76.355 12.6354 70.7511C17.4614 64.4007 23.6804 59.2022 29.2446 53.5263C30.0924 52.6624 30.1 51.2302 29.2446 50.3663C24.7743 45.8422 20.0126 40.8218 18.4948 34.4412C17.0186 28.2348 19.3767 21.6154 23.3057 16.7882C31.5573 6.6451 46.5918 1.87854 58.6929 7.45973V3.59875C57.4892 4.5081 57.0994 5.25075 56.9177 6.75119C56.5732 9.60051 61.0435 9.57778 61.3841 6.75119C61.2403 6.98611 61.0927 7.22102 60.9489 7.45594C62.1336 6.55795 62.6408 4.37549 60.9489 3.59496C49.7146 -1.5846 37.1479 0.351577 27.1362 7.36879C17.8475 13.8783 10.9169 25.3892 14.5696 36.9798C16.6287 43.512 21.379 48.7484 26.0915 53.5225V50.3625C20.5804 55.9816 14.5279 61.1498 9.65269 67.3599C4.77743 73.5701 1.73797 80.6214 0.920381 88.5063C0.00816369 97.3119 1.36324 107.247 6.70407 114.54C11.515 121.114 19.0625 125.021 26.7161 127.317C31.1863 128.658 35.861 129.454 40.5205 129.7C45.6834 129.973 50.2256 128.806 55.2106 127.688C55.8957 127.537 56.6565 126.843 56.7701 126.127C56.8193 125.805 56.8723 125.483 56.9215 125.161C57.3605 122.346 53.0606 121.133 52.614 123.971L52.6102 123.979Z" fill="#0753A5"/>
</g>
</svg>
