<svg width="100%" height="100%" style="overflow:visible;" preserveAspectRatio="none" viewBox="0 0 28.04 36" fill="none" xmlns="http://www.w3.org/2000/svg">
<path fill-rule="evenodd" clip-rule="evenodd" d="M14.0489 0.601318C13.0542 0.601318 12.1101 0.807019 11.2143 1.18507L11.2143 1.185L11.2028 1.19001C10.3057 1.58046 9.50067 2.1304 8.81151 2.86242C8.12217 3.58424 7.59226 4.41481 7.22532 5.34669C6.85888 6.27734 6.67552 7.24598 6.67552 8.25521V9.31337H1.16895H0.0439453V10.4384V35.4523V36.5773H1.16895H26.9584H28.0834V35.4523V10.4384V9.31337H26.9584H21.4322V8.25521C21.4322 6.24576 20.6679 4.29635 19.2816 2.85739C18.6002 2.14503 17.7994 1.5836 16.8951 1.19001C15.983 0.793052 15.0241 0.601318 14.0489 0.601318ZM19.1822 11.5634V13.8543H21.4322V11.5634H25.8334V34.3273H2.29395V11.5634H6.67552V13.8543H8.92552V11.5634H19.1822ZM19.1822 9.31337V8.25521C19.1822 6.80899 18.6306 5.42396 17.6601 4.41728L17.6568 4.41384C17.1792 3.91421 16.6247 3.5262 15.9972 3.25308C15.3766 2.983 14.7243 2.85132 14.0489 2.85132C13.3756 2.85132 12.7299 2.98841 12.095 3.25559C11.4633 3.53135 10.9155 3.90933 10.4475 4.40709L10.441 4.41397L10.441 4.41394C9.953 4.92434 9.58013 5.50755 9.31887 6.17105C9.05655 6.83725 8.92552 7.5261 8.92552 8.25521V9.31337H19.1822Z" fill="white"/>
</svg>
