<svg width="100%" height="100%" style="overflow:visible;" preserveAspectRatio="none" viewBox="0 0 34.52 31.49" fill="none" xmlns="http://www.w3.org/2000/svg">
<path d="M16.1309 3.49069L16.9409 4.31069L17.7409 3.49069C18.6209 2.59069 20.6309 1.00069 23.0309 0.330689C25.3509 -0.319311 28.0509 -0.119311 30.6209 2.50069C33.1909 5.13069 33.4009 7.92069 32.7509 10.3207C32.0909 12.8007 30.5309 14.8607 29.6509 15.7607L22.1609 23.4307L17.9609 27.7207L16.9209 28.7807L15.8809 27.7207L11.6809 23.4307L4.20086 15.7707C3.32086 14.8707 1.76086 12.8107 1.10086 10.3307C0.46086 7.92069 0.66086 5.14069 3.23086 2.51069C5.80086 -0.119311 8.49086 -0.309311 10.8209 0.340689C13.2309 1.01069 15.2409 2.61069 16.1109 3.51069L16.1309 3.49069Z" stroke="white" stroke-width="2.25"/>
</svg>
