<svg width="50" height="13" viewBox="0 0 50 13" fill="none" xmlns="http://www.w3.org/2000/svg">
<path d="M5.69993 11.9377L1.87593 6.25774L5.53993 0.737743H7.69993L3.71593 6.57774V5.74574L7.97193 11.9377H5.69993ZM0.275931 11.9377V0.737743H2.19593V11.9377H0.275931ZM10.3257 12.1137C9.86701 12.1137 9.44568 12.0124 9.06168 11.8097C8.68835 11.5964 8.38968 11.3084 8.16568 10.9457C7.95235 10.5831 7.84568 10.1831 7.84568 9.74574C7.84568 9.20174 7.99501 8.73241 8.29368 8.33774C8.59235 7.93241 9.00835 7.61774 9.54168 7.39374C10.075 7.16974 10.6883 7.05774 11.3817 7.05774H12.8217V8.32174H11.4137C10.827 8.32174 10.3737 8.43374 10.0537 8.65774C9.74435 8.88174 9.58968 9.19108 9.58968 9.58574C9.58968 9.89508 9.69101 10.1511 9.89368 10.3537C10.0963 10.5457 10.379 10.6417 10.7417 10.6417C11.0617 10.6417 11.3443 10.5671 11.5897 10.4177C11.8457 10.2577 12.043 10.0444 12.1817 9.77774C12.3203 9.51108 12.3897 9.22308 12.3897 8.91374V6.73774C12.3897 6.41774 12.3363 6.14041 12.2297 5.90574C12.1337 5.67108 11.9897 5.49508 11.7977 5.37774C11.6163 5.24974 11.3977 5.18574 11.1417 5.18574C10.8003 5.18574 10.523 5.29774 10.3097 5.52174C10.107 5.73508 9.97901 5.99108 9.92568 6.28974H8.19768C8.25101 5.82041 8.39501 5.38308 8.62968 4.97774C8.87501 4.56174 9.21101 4.23108 9.63768 3.98574C10.0643 3.72974 10.571 3.60174 11.1577 3.60174C11.755 3.60174 12.2777 3.74041 12.7257 4.01774C13.1737 4.28441 13.515 4.66308 13.7497 5.15374C13.995 5.64441 14.1177 6.21508 14.1177 6.86574V11.9377H12.8057L12.5017 11.0417H12.4217C12.219 11.3404 11.9417 11.5964 11.5897 11.8097C11.2483 12.0124 10.827 12.1137 10.3257 12.1137ZM16.8672 11.9377V5.42574H14.6912V3.79374H20.8352V5.42574H18.6432V11.9377H16.8672ZM23.2951 12.1137C22.8364 12.1137 22.4151 12.0124 22.0311 11.8097C21.6577 11.5964 21.3591 11.3084 21.1351 10.9457C20.9217 10.5831 20.8151 10.1831 20.8151 9.74574C20.8151 9.20174 20.9644 8.73241 21.2631 8.33774C21.5617 7.93241 21.9777 7.61774 22.5111 7.39374C23.0444 7.16974 23.6577 7.05774 24.3511 7.05774H25.7911V8.32174H24.3831C23.7964 8.32174 23.3431 8.43374 23.0231 8.65774C22.7137 8.88174 22.5591 9.19108 22.5591 9.58574C22.5591 9.89508 22.6604 10.1511 22.8631 10.3537C23.0657 10.5457 23.3484 10.6417 23.7111 10.6417C24.0311 10.6417 24.3137 10.5671 24.5591 10.4177C24.8151 10.2577 25.0124 10.0444 25.1511 9.77774C25.2897 9.51108 25.3591 9.22308 25.3591 8.91374V6.73774C25.3591 6.41774 25.3057 6.14041 25.1991 5.90574C25.1031 5.67108 24.9591 5.49508 24.7671 5.37774C24.5857 5.24974 24.3671 5.18574 24.1111 5.18574C23.7697 5.18574 23.4924 5.29774 23.2791 5.52174C23.0764 5.73508 22.9484 5.99108 22.8951 6.28974H21.1671C21.2204 5.82041 21.3644 5.38308 21.5991 4.97774C21.8444 4.56174 22.1804 4.23108 22.6071 3.98574C23.0337 3.72974 23.5404 3.60174 24.1271 3.60174C24.7244 3.60174 25.2471 3.74041 25.6951 4.01774C26.1431 4.28441 26.4844 4.66308 26.7191 5.15374C26.9644 5.64441 27.0871 6.21508 27.0871 6.86574V11.9377H25.7751L25.4711 11.0417H25.3911C25.1884 11.3404 24.9111 11.5964 24.5591 11.8097C24.2177 12.0124 23.7964 12.1137 23.2951 12.1137ZM28.1886 12.1137C28.0499 12.1137 27.9166 12.1031 27.7886 12.0817C27.6712 12.0604 27.5646 12.0337 27.4686 12.0017V10.4337H27.7406C27.9646 10.4337 28.1512 10.3857 28.3006 10.2897C28.4606 10.1937 28.5832 10.0337 28.6686 9.80974C28.7646 9.58574 28.8286 9.29241 28.8606 8.92974L29.2446 3.79374H34.6366V11.9377H32.8926V5.40974H30.8126L30.5246 9.26574C30.4499 10.2044 30.2099 10.9137 29.8046 11.3937C29.4099 11.8737 28.8712 12.1137 28.1886 12.1137ZM39.4194 12.1137C38.7474 12.1137 38.1288 11.9271 37.5634 11.5537C37.0088 11.1804 36.5661 10.6684 36.2354 10.0177C35.9154 9.36708 35.7554 8.64708 35.7554 7.85774C35.7554 7.07908 35.9154 6.36441 36.2354 5.71374C36.5661 5.06308 37.0088 4.55108 37.5634 4.17774C38.1288 3.79374 38.7474 3.60174 39.4194 3.60174C40.0808 3.60174 40.6888 3.79374 41.2434 4.17774C41.8088 4.55108 42.2568 5.06308 42.5874 5.71374C42.9181 6.36441 43.0834 7.07908 43.0834 7.85774C43.0834 8.64708 42.9181 9.36708 42.5874 10.0177C42.2568 10.6684 41.8088 11.1804 41.2434 11.5537C40.6888 11.9271 40.0808 12.1137 39.4194 12.1137ZM39.4194 10.4977C39.7714 10.4977 40.0861 10.3911 40.3634 10.1777C40.6514 9.95374 40.8808 9.64441 41.0514 9.24974C41.2221 8.84441 41.3074 8.38041 41.3074 7.85774C41.3074 7.34574 41.2221 6.89241 41.0514 6.49774C40.8808 6.09241 40.6514 5.78308 40.3634 5.56974C40.0861 5.34574 39.7714 5.23374 39.4194 5.23374C39.0674 5.23374 38.7474 5.34574 38.4594 5.56974C38.1714 5.78308 37.9421 6.09241 37.7714 6.49774C37.6114 6.89241 37.5314 7.34574 37.5314 7.85774C37.5314 8.38041 37.6114 8.84441 37.7714 9.24974C37.9421 9.64441 38.1714 9.95374 38.4594 10.1777C38.7474 10.3911 39.0674 10.4977 39.4194 10.4977ZM44.1944 11.9377V3.79374H49.2504V5.42574H45.9704V11.9377H44.1944Z" fill="#39282F"/>
</svg>
