<svg width="100%" height="100%" style="overflow:visible;" preserveAspectRatio="none" viewBox="0 0 192 38" fill="none" xmlns="http://www.w3.org/2000/svg">
<g clip-path="url(#clip0_246_737)">
<path d="M44.6274 4.71099V3.11842H44.8715C44.9517 3.06656 45.0226 3.00179 45.0813 2.92679C45.1437 2.85699 45.1974 2.77999 45.2413 2.69745C45.2958 2.59214 45.3299 2.47762 45.3419 2.35983L45.594 0.0421143H48.1661V3.11842H48.6708V4.71099H47.9392V3.82713H45.3591V4.71099H44.6274ZM47.4099 3.11842V0.750808H46.2582L46.0821 2.35984C46.0741 2.47692 46.0485 2.59216 46.0061 2.70172C45.975 2.78068 45.9355 2.85613 45.8883 2.92679C45.8484 2.99824 45.7973 3.06293 45.7369 3.11843L47.4099 3.11842Z" fill="white"/>
<path d="M49.9741 3.82711V3.19329H50.0753C50.1562 3.19915 50.2374 3.18851 50.314 3.16203C50.3906 3.13556 50.4609 3.0938 50.5206 3.03933C50.6336 2.90467 50.6961 2.73522 50.6972 2.55996L50.9069 0.0421143H53.5802V3.82712H52.8235V0.725857H51.5626L51.4368 2.60137C51.4327 2.94682 51.3044 3.27948 51.075 3.53939C50.9673 3.64896 50.8377 3.73488 50.6944 3.79158C50.5511 3.84828 50.3974 3.87449 50.2433 3.86852C50.1521 3.86745 50.0614 3.8535 49.9741 3.82711Z" fill="white"/>
<path d="M55.5137 3.82693L56.3962 2.42653C56.2627 2.36621 56.1392 2.28601 56.0301 2.18871C55.926 2.08655 55.8394 1.9682 55.7738 1.83834C55.69 1.66576 55.6498 1.47555 55.6566 1.28412C55.6547 1.11548 55.6875 0.94823 55.7529 0.792551C55.8159 0.644499 55.909 0.510943 56.0264 0.400256C56.1479 0.286561 56.2906 0.197479 56.4465 0.138004C56.6208 0.0717036 56.8063 0.0390886 56.993 0.0419175H58.6654V3.82692H57.9092V2.52632H57.1776L56.3539 3.82693L55.5137 3.82693ZM57.9258 1.85107V0.717173H57.0261C56.9426 0.716023 56.8598 0.731737 56.7826 0.76336C56.7111 0.792882 56.6456 0.835162 56.5894 0.888104C56.534 0.940113 56.4896 1.00256 56.4588 1.07178C56.4288 1.13863 56.4131 1.21095 56.4128 1.28412C56.4122 1.35878 56.4279 1.43268 56.4588 1.50073C56.4903 1.56834 56.5346 1.62928 56.5894 1.68014C56.6456 1.73326 56.711 1.77572 56.7826 1.80542C56.8599 1.83661 56.9427 1.85213 57.0261 1.85107L57.9258 1.85107Z" fill="white"/>
<path d="M64.3139 2.66826C64.3291 2.80087 64.3918 2.92368 64.4905 3.01439C64.5535 3.07181 64.6259 3.11829 64.7045 3.15188C64.8071 3.19371 64.9175 3.21362 65.0283 3.21028C65.1986 3.22084 65.3667 3.16718 65.4988 3.06004C65.5511 3.01749 65.5933 2.96404 65.6224 2.90349C65.6516 2.84294 65.6669 2.77677 65.6674 2.70967C65.6668 2.64546 65.6518 2.58217 65.6234 2.52448C65.5949 2.46679 65.5538 2.41615 65.503 2.3763C65.3675 2.27334 65.1987 2.22295 65.0283 2.23456H64.6751V1.58426H65.0283C65.1742 1.59154 65.3177 1.54567 65.4319 1.45527C65.4799 1.4165 65.5184 1.36749 65.5446 1.31187C65.5709 1.25626 65.5841 1.19549 65.5833 1.1341C65.5852 1.07016 65.5726 1.00661 65.5464 0.948161C65.5202 0.889716 65.481 0.837874 65.4319 0.79648C65.3177 0.706074 65.1742 0.660192 65.0283 0.667481C64.9238 0.664175 64.8197 0.681125 64.7217 0.717381C64.6473 0.746336 64.5789 0.788627 64.5199 0.84214C64.4698 0.88786 64.4297 0.943333 64.4022 1.0051C64.3797 1.05406 64.3642 1.10587 64.3561 1.15905H63.6331C63.6472 0.996477 63.6884 0.837354 63.7551 0.688187C63.8183 0.547848 63.9132 0.423793 64.0324 0.325604C64.1609 0.220903 64.3076 0.140313 64.4653 0.0877823C64.6495 0.0268532 64.8428 -0.00275781 65.0369 0.00020182C65.2148 -0.00191596 65.3914 0.0292356 65.5576 0.0920249C65.8508 0.202394 66.0901 0.420162 66.2261 0.700403C66.2897 0.830476 66.3228 0.973104 66.323 1.11764C66.3264 1.23953 66.3019 1.36061 66.2513 1.47172C66.2111 1.55786 66.1588 1.63793 66.0961 1.70955C66.0283 1.78313 65.9488 1.84502 65.8606 1.89269C65.9623 1.94918 66.0556 2.0194 66.1378 2.10132C66.2122 2.17785 66.2746 2.26499 66.323 2.35985C66.3807 2.4735 66.4096 2.59943 66.407 2.72668C66.4075 2.87914 66.3745 3.02988 66.3101 3.16835C66.246 3.307 66.153 3.43058 66.0372 3.53092C65.911 3.63886 65.7656 3.72241 65.6085 3.77724C65.4248 3.84072 65.2314 3.87162 65.0369 3.86855C64.8372 3.8716 64.6383 3.84219 64.4482 3.78149C64.2842 3.72863 64.1328 3.64339 64.0029 3.53092C63.8819 3.42581 63.7846 3.29668 63.7171 3.15189C63.6476 2.99897 63.6049 2.83542 63.5908 2.66827L64.3139 2.66826Z" fill="white"/>
<path d="M67.8862 4.71099V3.11842H68.1303C68.2105 3.06643 68.2816 3.00169 68.3406 2.92679C68.4027 2.85683 68.4562 2.77986 68.5001 2.69745C68.5546 2.59214 68.5887 2.47762 68.6007 2.35983L68.8533 0.0421143H71.4249V3.11842H71.9296V4.71099H71.198V3.82713H68.6178V4.71099H67.8862ZM70.6687 3.11842V0.750808H69.517L69.3409 2.35984C69.3329 2.47692 69.3073 2.59216 69.2649 2.70172C69.2338 2.78068 69.1943 2.85613 69.1471 2.92679C69.1072 2.99824 69.0561 3.06293 68.9957 3.11843L70.6687 3.11842Z" fill="white"/>
<path d="M74.6604 3.7229C74.4401 3.6285 74.2413 3.49091 74.076 3.3184C73.9068 3.14051 73.7728 2.93271 73.681 2.7058C73.5812 2.46079 73.5312 2.19867 73.5338 1.93446C73.531 1.67161 73.581 1.41083 73.681 1.16737C73.7744 0.941249 73.9082 0.733717 74.076 0.554763C74.2405 0.380308 74.4394 0.24119 74.6604 0.14601C74.8828 0.0490429 75.1233 -0.000687753 75.3663 1.23929e-05C75.6081 -0.000902502 75.8474 0.0488485 76.0685 0.14601C76.2884 0.242672 76.4868 0.381597 76.6524 0.554763C76.8219 0.732342 76.9559 0.940222 77.0473 1.16737C77.1446 1.41148 77.1931 1.672 77.1902 1.93446C77.1929 2.19828 77.1444 2.46015 77.0473 2.7058C76.9575 2.93373 76.8233 3.14189 76.6524 3.3184C76.4861 3.48963 76.2878 3.62703 76.0685 3.72291C75.8474 3.82007 75.6081 3.86981 75.3663 3.86889C75.1233 3.8696 74.8828 3.81987 74.6604 3.7229ZM75.7698 3.07261C75.8996 3.01365 76.0155 2.9285 76.1102 2.82259C76.2117 2.70844 76.2915 2.57695 76.3457 2.43452C76.4634 2.11137 76.4634 1.75753 76.3457 1.43438C76.2914 1.29202 76.2116 1.16055 76.1102 1.04633C76.0155 0.940421 75.8996 0.855261 75.7698 0.796297C75.6433 0.738424 75.5056 0.708541 75.3663 0.708717C75.2243 0.707911 75.0839 0.737797 74.9547 0.796297C74.825 0.855262 74.709 0.940421 74.6143 1.04633C74.5127 1.16042 74.4329 1.29192 74.3788 1.43438C74.2611 1.75754 74.2611 2.11137 74.3788 2.43452C74.4328 2.57705 74.5126 2.70858 74.6143 2.82259C74.709 2.9285 74.825 3.01365 74.9547 3.07261C75.0839 3.13112 75.2243 3.16101 75.3663 3.1602C75.5056 3.16038 75.6433 3.13049 75.7698 3.07261Z" fill="white"/>
<path d="M79.1572 5.16126V0.0422029H79.7117L79.8803 0.442469C79.9703 0.360089 80.0688 0.287318 80.1741 0.225355C80.2851 0.162994 80.402 0.111436 80.523 0.0714004C80.679 0.021212 80.8424 -0.00282949 81.0063 0.000264818C81.2426 -0.000634647 81.4763 0.0491702 81.6914 0.146263C81.9047 0.242235 82.0973 0.378142 82.2587 0.546528C82.4253 0.722613 82.5553 0.929503 82.6413 1.1554C82.8261 1.65894 82.8261 2.21099 82.6413 2.71453C82.5547 2.94125 82.4248 3.14925 82.2587 3.32714C82.099 3.49749 81.906 3.6337 81.6914 3.7274C81.4756 3.8219 81.2422 3.87019 81.0063 3.86914C80.8466 3.8721 80.6875 3.84805 80.5359 3.79802C80.4173 3.75832 80.303 3.70673 80.195 3.64407C80.0925 3.5803 79.998 3.50475 79.9135 3.41898V5.16125L79.1572 5.16126ZM81.351 3.07286C81.484 3.01532 81.603 2.93005 81.6999 2.82284C81.8017 2.70821 81.8827 2.5769 81.9392 2.43477C82.0028 2.27573 82.0343 2.10581 82.0317 1.93471C82.034 1.76402 82.004 1.59441 81.9434 1.43463C81.8889 1.29157 81.8077 1.15993 81.7042 1.04658C81.6048 0.939354 81.4839 0.853926 81.3492 0.795784C81.2146 0.737642 81.0692 0.708069 80.9223 0.708966C80.7776 0.708759 80.6345 0.738593 80.5022 0.796547C80.369 0.85382 80.2499 0.939136 80.1532 1.04658C80.0518 1.16079 79.972 1.29226 79.9177 1.43463C79.8 1.75778 79.8 2.11162 79.9177 2.43477C79.9721 2.57803 80.0535 2.70973 80.1575 2.82284C80.2553 2.929 80.3741 3.0141 80.5064 3.07286C80.6372 3.13107 80.779 3.16093 80.9223 3.16045C81.0698 3.16127 81.2158 3.13143 81.351 3.07286Z" fill="white"/>
<path d="M85.6472 3.7229C85.4269 3.6285 85.2281 3.49091 85.0628 3.3184C84.8936 3.14051 84.7596 2.93271 84.6678 2.7058C84.568 2.46079 84.518 2.19867 84.5206 1.93446C84.5178 1.67161 84.5678 1.41083 84.6678 1.16737C84.7612 0.941249 84.895 0.733717 85.0628 0.554763C85.2273 0.380308 85.4262 0.241191 85.6472 0.14601C85.8696 0.0490429 86.1101 -0.000687753 86.3531 1.23929e-05C86.5949 -0.000902502 86.8342 0.0488485 87.0553 0.14601C87.2752 0.242672 87.4737 0.381597 87.6392 0.554763C87.8087 0.732342 87.9427 0.940222 88.0341 1.16737C88.1314 1.41148 88.1799 1.672 88.177 1.93446C88.1797 2.19828 88.1312 2.46015 88.0341 2.7058C87.9443 2.93373 87.8101 3.14189 87.6392 3.3184C87.4729 3.48963 87.2746 3.62703 87.0553 3.72291C86.8342 3.82007 86.5949 3.86981 86.3531 3.86889C86.1101 3.8696 85.8696 3.81987 85.6472 3.7229ZM86.7566 3.07261C86.8864 3.01365 87.0023 2.9285 87.097 2.82259C87.1986 2.70844 87.2784 2.57695 87.3325 2.43452C87.4503 2.11137 87.4503 1.75753 87.3325 1.43438C87.2782 1.29202 87.1985 1.16055 87.097 1.04633C87.0023 0.940421 86.8864 0.855262 86.7566 0.796297C86.6301 0.738424 86.4924 0.708541 86.3531 0.708717C86.2111 0.707913 86.0707 0.737799 85.9415 0.796297C85.8118 0.855262 85.6959 0.940421 85.6011 1.04633C85.4995 1.16042 85.4197 1.29192 85.3657 1.43438C85.2479 1.75754 85.2479 2.11137 85.3657 2.43452C85.4196 2.57705 85.4994 2.70858 85.6011 2.82259C85.6959 2.9285 85.8118 3.01365 85.9415 3.07261C86.0707 3.13112 86.2111 3.16101 86.3531 3.1602C86.4924 3.16038 86.6301 3.13049 86.7566 3.07261Z" fill="white"/>
<path d="M90.1426 3.8272V0.0421907H91.891C92.0487 0.0404868 92.2054 0.0672925 92.3534 0.121296C92.4848 0.168433 92.6049 0.242063 92.7061 0.337542C92.8074 0.433021 92.8875 0.548276 92.9416 0.676034C92.9979 0.804838 93.0265 0.943873 93.0256 1.08426C93.029 1.20584 93.0062 1.32673 92.9587 1.43888C92.8787 1.61187 92.7465 1.75598 92.5804 1.85135C92.7945 1.94406 92.9666 2.11192 93.0636 2.32274C93.1264 2.4541 93.1567 2.59842 93.152 2.74373C93.1528 2.8896 93.1242 3.03418 93.0679 3.16894C93.0141 3.29892 92.934 3.41655 92.8324 3.51453C92.7297 3.61343 92.6085 3.69134 92.4755 3.74384C92.3297 3.80104 92.1741 3.82936 92.0174 3.8272L90.1426 3.8272ZM90.8993 1.60131H91.7733C91.9057 1.60795 92.0356 1.563 92.1351 1.47604C92.1789 1.43581 92.2135 1.38678 92.2367 1.33222C92.2599 1.27766 92.271 1.21882 92.2694 1.15964C92.2719 1.09712 92.2612 1.03478 92.2381 0.976562C92.215 0.91835 92.1799 0.86554 92.1351 0.821488C92.0864 0.777319 92.0293 0.743175 91.9672 0.721032C91.9051 0.698889 91.8392 0.689189 91.7733 0.692491H90.8993V1.60131ZM90.8993 3.18538H91.8996C91.9659 3.1855 92.0315 3.1727 92.0928 3.1477C92.1534 3.12342 92.209 3.08813 92.2566 3.04364C92.3045 2.99878 92.3407 2.94303 92.362 2.8812C92.384 2.8182 92.3954 2.75201 92.3957 2.68532C92.3954 2.62399 92.384 2.56321 92.362 2.50589C92.3397 2.44802 92.3035 2.39644 92.2566 2.35565C92.208 2.31356 92.1526 2.27983 92.0928 2.25586C92.0315 2.23085 91.9659 2.21803 91.8996 2.21815H90.8993V3.18538Z" fill="white"/>
<path d="M95.1182 3.82712V0.0421143H95.8749V1.35119H96.766C96.9509 1.34822 97.1347 1.37918 97.3082 1.44251C97.4604 1.49909 97.5993 1.58597 97.7164 1.69781C97.8334 1.80965 97.9262 1.94407 97.9889 2.0928C98.0878 2.32329 98.1149 2.57781 98.067 2.82372C98.019 3.06964 97.8981 3.29573 97.7197 3.47303C97.6027 3.58821 97.4624 3.67758 97.3082 3.73529C97.1348 3.79904 96.9509 3.83018 96.766 3.82711L95.1182 3.82712ZM95.8749 3.15187H96.7237C96.8056 3.15233 96.8868 3.13813 96.9635 3.10994C97.0362 3.08398 97.1032 3.04452 97.161 2.99369C97.2162 2.94414 97.2594 2.88278 97.2873 2.81425C97.3158 2.74113 97.3299 2.6633 97.329 2.58491C97.329 2.5129 97.3133 2.44174 97.283 2.37629C97.2514 2.30891 97.2071 2.24818 97.1524 2.1974C97.0962 2.1444 97.0307 2.10195 96.9592 2.0721C96.8819 2.04092 96.7991 2.0254 96.7157 2.02646H95.8749L95.8749 3.15187Z" fill="white"/>
<path d="M99.7007 3.82693L100.583 2.42653C100.45 2.36621 100.326 2.28601 100.217 2.18871C100.113 2.08655 100.026 1.9682 99.9608 1.83834C99.877 1.66576 99.8368 1.47556 99.8436 1.28412C99.8418 1.11548 99.8745 0.948231 99.9399 0.792551C100.003 0.6445 100.096 0.510943 100.213 0.400256C100.335 0.286565 100.478 0.197483 100.634 0.138004C100.808 0.0717035 100.993 0.0390885 101.18 0.0419175H102.852V3.82692H102.096V2.52632H101.365L100.541 3.82693L99.7007 3.82693ZM102.113 1.85107V0.717173H101.214C101.13 0.715974 101.047 0.731689 100.97 0.76336C100.898 0.792882 100.833 0.835162 100.776 0.888104C100.721 0.940105 100.677 1.00255 100.646 1.07178C100.616 1.13863 100.6 1.21095 100.6 1.28412C100.599 1.35878 100.615 1.43268 100.646 1.50073C100.677 1.56835 100.722 1.62928 100.776 1.68014C100.833 1.73326 100.898 1.77572 100.97 1.80542C101.047 1.83666 101.13 1.85218 101.214 1.85107L102.113 1.85107Z" fill="white"/>
<path d="M108.081 3.82712V0.0421143H108.837V2.69332L110.661 0.0421143H111.401V3.82712H110.644V1.17611L108.82 3.82712H108.081Z" fill="white"/>
<path d="M116.62 5.16127V0.0422096H117.175L117.343 0.442475C117.433 0.360104 117.532 0.287334 117.637 0.225361C117.748 0.163004 117.865 0.111446 117.986 0.0714071C118.142 0.0211786 118.305 -0.00286391 118.469 0.000271478C118.706 -0.000627736 118.939 0.049177 119.154 0.14627C119.368 0.242249 119.56 0.378155 119.722 0.546535C119.888 0.722617 120.018 0.929507 120.104 1.15541C120.289 1.65895 120.289 2.211 120.104 2.71454C120.018 2.94126 119.888 3.14926 119.722 3.32714C119.562 3.49749 119.369 3.6337 119.154 3.72741C118.939 3.8219 118.705 3.8702 118.469 3.86915C118.309 3.87211 118.15 3.84806 117.999 3.79803C117.88 3.75833 117.766 3.70674 117.658 3.64407C117.555 3.58031 117.461 3.50476 117.376 3.41899V5.16125L116.62 5.16127ZM118.814 3.07286C118.947 3.01532 119.066 2.93005 119.163 2.82284C119.38 2.57776 119.499 2.2613 119.495 1.93472C119.497 1.76402 119.467 1.59442 119.406 1.43464C119.352 1.29158 119.271 1.15995 119.167 1.04659C119.068 0.93936 118.947 0.853933 118.812 0.795791C118.677 0.737649 118.532 0.708076 118.385 0.708973C118.241 0.708766 118.097 0.7386 117.965 0.796554C117.832 0.853832 117.713 0.939146 117.616 1.04659C117.515 1.16081 117.435 1.29227 117.381 1.43464C117.263 1.75779 117.263 2.11162 117.381 2.43478C117.435 2.57804 117.516 2.70973 117.62 2.82284C117.718 2.92913 117.837 3.01424 117.969 3.07286C118.1 3.13113 118.242 3.161 118.385 3.16046C118.533 3.16127 118.679 3.13144 118.814 3.07286Z" fill="white"/>
<path d="M124.613 3.82691L124.445 3.42664C124.302 3.56821 124.13 3.67898 123.941 3.75206C123.746 3.82953 123.538 3.86917 123.327 3.86885C123.147 3.87149 122.968 3.84181 122.798 3.78125C122.651 3.7286 122.515 3.64781 122.399 3.54343C122.291 3.445 122.203 3.32604 122.142 3.1936C122.08 3.05738 122.049 2.9094 122.05 2.75988C122.048 2.58667 122.086 2.41535 122.163 2.25982C122.252 2.09623 122.384 1.96036 122.546 1.86751C122.769 1.74054 123.012 1.65322 123.265 1.60951C123.638 1.54208 124.016 1.51132 124.395 1.51767H124.42V1.38443C124.422 1.2927 124.405 1.20158 124.369 1.11686C124.334 1.03213 124.281 0.955661 124.214 0.892319C124.143 0.82517 124.06 0.772849 123.968 0.738468C123.876 0.704088 123.779 0.68835 123.681 0.692195C123.523 0.675487 123.364 0.717306 123.235 0.809612C123.106 0.901918 123.016 1.0382 122.983 1.19226H122.201C122.222 1.03019 122.274 0.873403 122.352 0.729877C122.431 0.587576 122.535 0.460464 122.659 0.354565C122.794 0.241628 122.947 0.154006 123.113 0.0960354C123.306 0.0294258 123.51 -0.00309399 123.714 -4.84245e-05C123.916 -0.00204096 124.115 0.0349274 124.303 0.108787C124.474 0.175969 124.631 0.274867 124.765 0.400209C124.894 0.522753 124.995 0.670435 125.064 0.833927C125.134 1.00594 125.17 1.19016 125.168 1.37593V3.82689L124.613 3.82691ZM124.42 2.13452H124.395C124.123 2.13092 123.85 2.14494 123.579 2.17647C123.413 2.19339 123.25 2.23546 123.096 2.30123C123 2.34072 122.919 2.40928 122.865 2.4971C122.825 2.57596 122.805 2.6632 122.807 2.75139C122.808 2.81486 122.823 2.87727 122.852 2.93423C122.88 2.99118 122.921 3.0413 122.97 3.08105C123.088 3.18136 123.24 3.23355 123.395 3.22703C123.666 3.22923 123.928 3.13442 124.134 2.96002C124.221 2.8855 124.293 2.79478 124.345 2.69298C124.395 2.59488 124.421 2.48648 124.42 2.3766V2.13452Z" fill="white"/>
<path d="M126.825 4.71099V3.11842H127.069C127.149 3.06656 127.22 3.0018 127.279 2.92679C127.341 2.85699 127.395 2.77999 127.439 2.69745C127.493 2.59214 127.527 2.47762 127.539 2.35983L127.791 0.0421143H130.363V3.11842H130.868V4.71099H130.136V3.82713H127.556V4.71099H126.825ZM129.607 3.11842V0.750808H128.455L128.279 2.35984C128.271 2.47692 128.246 2.59216 128.203 2.70172C128.172 2.78068 128.133 2.85613 128.086 2.92679C128.046 2.99824 127.995 3.06293 127.934 3.11843L129.607 3.11842Z" fill="white"/>
<path d="M133.598 3.7229C133.378 3.62849 133.179 3.49091 133.014 3.3184C132.845 3.14052 132.711 2.93271 132.619 2.7058C132.519 2.4608 132.469 2.19868 132.472 1.93446C132.469 1.6716 132.519 1.41083 132.619 1.16737C132.712 0.941247 132.846 0.733714 133.014 0.554763C133.179 0.380315 133.377 0.241199 133.598 0.14601C133.821 0.0490443 134.061 -0.000686161 134.304 1.23929e-05C134.546 -0.000902502 134.785 0.0488485 135.006 0.14601C135.226 0.24268 135.425 0.381604 135.59 0.554763C135.76 0.732343 135.894 0.940223 135.985 1.16737C136.083 1.41148 136.131 1.672 136.128 1.93446C136.131 2.19828 136.082 2.46015 135.985 2.7058C135.895 2.93373 135.761 3.14189 135.59 3.3184C135.424 3.48962 135.226 3.62702 135.006 3.72291C134.785 3.82007 134.546 3.86981 134.304 3.86889C134.061 3.8696 133.821 3.81987 133.598 3.7229ZM134.708 3.07261C134.838 3.01364 134.954 2.92849 135.048 2.82259C135.15 2.70844 135.23 2.57695 135.284 2.43452C135.401 2.11137 135.401 1.75754 135.284 1.43438C135.229 1.29202 135.15 1.16056 135.048 1.04633C134.954 0.940428 134.838 0.85527 134.708 0.796297C134.581 0.738424 134.444 0.708541 134.304 0.708717C134.162 0.707911 134.022 0.737797 133.893 0.796297C133.763 0.855261 133.647 0.940418 133.552 1.04633C133.451 1.16042 133.371 1.29192 133.317 1.43438C133.199 1.75753 133.199 2.11136 133.317 2.43452C133.371 2.57704 133.451 2.70857 133.552 2.82258C133.647 2.92849 133.763 3.01364 133.893 3.0726C134.022 3.13112 134.162 3.16101 134.304 3.1602C134.444 3.16038 134.581 3.13049 134.708 3.07261Z" fill="white"/>
<path d="M138.982 3.72291C138.764 3.62776 138.566 3.49024 138.402 3.31841C138.233 3.14051 138.099 2.93271 138.007 2.7058C137.907 2.4608 137.857 2.19868 137.86 1.93447C137.857 1.67161 137.907 1.41084 138.007 1.16737C138.101 0.941259 138.234 0.733728 138.402 0.554767C138.566 0.381006 138.763 0.241952 138.982 0.146014C139.206 0.0483045 139.448 -0.00144163 139.692 3.17994e-05C139.833 -0.000695768 139.973 0.0177017 140.109 0.0547097C140.238 0.0899863 140.364 0.138739 140.483 0.200156C140.6 0.261317 140.708 0.336951 140.806 0.425245C140.903 0.513186 140.992 0.609472 141.071 0.712966C141.15 0.816281 141.216 0.928128 141.269 1.04634C141.321 1.16332 141.362 1.28489 141.391 1.40946H140.634C140.601 1.31143 140.555 1.21862 140.495 1.13394C140.436 1.05052 140.364 0.977341 140.281 0.917352C140.197 0.856205 140.105 0.805738 140.008 0.767118C139.907 0.727812 139.8 0.707991 139.692 0.708732C139.551 0.707924 139.41 0.737816 139.281 0.796329C139.151 0.855279 139.035 0.940432 138.941 1.04635C138.839 1.16043 138.759 1.29194 138.705 1.43442C138.587 1.75756 138.587 2.11141 138.705 2.43455C138.759 2.57708 138.839 2.70861 138.941 2.8226C139.035 2.92852 139.151 3.01368 139.281 3.07264C139.41 3.13114 139.551 3.16103 139.692 3.16022C139.8 3.16105 139.907 3.14271 140.008 3.10608C140.106 3.06999 140.198 3.01933 140.281 2.95584C140.364 2.89363 140.436 2.81913 140.495 2.735C140.555 2.65045 140.601 2.55782 140.634 2.46001H141.391C141.362 2.5844 141.321 2.7058 141.269 2.82259C141.215 2.94185 141.149 3.05504 141.071 3.16021C140.993 3.26497 140.904 3.3614 140.806 3.44795C140.707 3.53452 140.599 3.61001 140.483 3.67302C140.364 3.73741 140.236 3.78647 140.105 3.81902C139.97 3.85215 139.831 3.86891 139.692 3.86892C139.448 3.87038 139.206 3.82062 138.982 3.72291Z" fill="white"/>
<path d="M144.09 3.82712V0.75081H142.93V0.0421143H146.006V0.75081H144.846V3.82712H144.09Z" fill="white"/>
<path d="M147.821 3.82712V0.0421143H148.577V2.69332L150.401 0.0421143H151.141V3.82712H150.384V1.17611L148.56 3.82712H147.821Z" fill="white"/>
<path d="M156.361 3.82712V0.0421143H159.665V3.82712H158.908V0.75081H157.118V3.82712H156.361Z" fill="white"/>
<path d="M161.875 3.82712V0.0421143H162.631V2.69332L164.455 0.0421143H165.195V3.82712H164.438V1.17611L162.614 3.82712H161.875Z" fill="white"/>
<path d="M168.17 3.82712V0.75081H167.01V0.0421143H170.086V0.75081H168.927V3.82712H168.17Z" fill="white"/>
<path d="M172.709 3.7229C172.489 3.62849 172.29 3.49091 172.125 3.3184C171.956 3.14052 171.822 2.93271 171.73 2.7058C171.63 2.4608 171.58 2.19868 171.583 1.93446C171.58 1.6716 171.63 1.41083 171.73 1.16737C171.823 0.941247 171.957 0.733714 172.125 0.554763C172.289 0.380316 172.488 0.241199 172.709 0.14601C172.932 0.0490443 173.172 -0.000686161 173.415 1.23929e-05C173.657 -0.000902502 173.896 0.0488485 174.117 0.14601C174.337 0.24268 174.536 0.381605 174.701 0.554763C174.871 0.732343 175.005 0.940223 175.096 1.16737C175.193 1.41148 175.242 1.672 175.239 1.93446C175.242 2.19828 175.193 2.46015 175.096 2.7058C175.006 2.93373 174.872 3.14189 174.701 3.3184C174.535 3.48962 174.337 3.62702 174.117 3.72291C173.896 3.82007 173.657 3.86981 173.415 3.86889C173.172 3.8696 172.932 3.81987 172.709 3.7229ZM173.819 3.07261C173.948 3.01364 174.064 2.92849 174.159 2.82259C174.261 2.70844 174.34 2.57695 174.395 2.43452C174.512 2.11137 174.512 1.75754 174.395 1.43438C174.34 1.29202 174.26 1.16056 174.159 1.04633C174.064 0.940428 173.948 0.85527 173.819 0.796297C173.692 0.738426 173.554 0.708542 173.415 0.708717C173.273 0.707913 173.133 0.737799 173.004 0.796297C172.874 0.855239 172.758 0.940397 172.663 1.04633C172.561 1.16059 172.482 1.29205 172.428 1.43438C172.31 1.75754 172.31 2.11137 172.428 2.43452C172.482 2.57692 172.561 2.70841 172.663 2.82259C172.758 2.92852 172.874 3.01367 173.004 3.07261C173.133 3.13112 173.273 3.16101 173.415 3.1602C173.554 3.16038 173.692 3.13049 173.819 3.07261Z" fill="white"/>
<path d="M177.206 3.82712V0.0421143H177.896L179.248 2.83502L180.593 0.0421143H181.283V3.82712H180.526V1.63475L179.475 3.82712H179.022L177.962 1.63475V3.82712H177.206Z" fill="white"/>
<path d="M183.485 3.82712V0.0421143H184.241V3.11842H185.948V0.0421143H186.704V3.11842H187.209V4.71105H186.486V3.82712H183.485Z" fill="white"/>
<path d="M191.445 3.82715L191.276 3.42688C191.133 3.56846 190.961 3.67922 190.772 3.7523C190.577 3.82977 190.369 3.86942 190.158 3.86909C189.978 3.87173 189.799 3.84205 189.629 3.7815C189.482 3.72897 189.346 3.64816 189.23 3.54367C189.122 3.44525 189.035 3.32629 188.974 3.19384C188.911 3.05771 188.88 2.90966 188.881 2.76012C188.879 2.58691 188.918 2.41559 188.994 2.26006C189.083 2.09648 189.215 1.9606 189.377 1.86775C189.599 1.74086 189.843 1.65355 190.095 1.60975C190.468 1.54235 190.847 1.51159 191.226 1.51791H191.251V1.38467C191.253 1.29295 191.236 1.20183 191.201 1.1171C191.165 1.03237 191.112 0.955905 191.045 0.892564C190.974 0.825453 190.891 0.773157 190.799 0.738779C190.707 0.704401 190.61 0.688642 190.512 0.692439C190.354 0.675733 190.195 0.717554 190.066 0.809861C189.937 0.902167 189.847 1.03844 189.814 1.1925H189.032C189.053 1.03038 189.104 0.873545 189.183 0.730123C189.262 0.587821 189.366 0.460709 189.491 0.354809C189.625 0.241872 189.778 0.15425 189.944 0.0962795C190.138 0.02967 190.341 -0.00284984 190.545 0.000195715C190.747 -0.00174467 190.947 0.0352218 191.134 0.109031C191.305 0.176216 191.462 0.275116 191.596 0.400461C191.725 0.522891 191.826 0.670612 191.894 0.834179C191.965 1.00608 192.001 1.19035 191.999 1.37618V3.82715L191.445 3.82715ZM191.251 2.13477H191.226C190.954 2.13115 190.681 2.14516 190.411 2.17671C190.244 2.19364 190.081 2.23571 189.927 2.30147C189.831 2.34082 189.75 2.40941 189.696 2.49735C189.656 2.57616 189.636 2.6634 189.637 2.75163C189.639 2.81514 189.654 2.87756 189.682 2.93451C189.711 2.99147 189.751 3.04156 189.801 3.08129C189.919 3.18161 190.071 3.23379 190.226 3.22728C190.497 3.22947 190.759 3.13466 190.965 2.96026C191.052 2.8856 191.124 2.79491 191.176 2.69323C191.226 2.59512 191.252 2.48673 191.251 2.37685V2.13477Z" fill="white"/>
<path d="M42.1013 35.5525C41.7266 34.6363 41.3527 33.7195 40.9795 32.8022L39.9193 30.1893C36.4721 21.6961 32.9078 12.9131 29.4146 4.27021C29.2979 3.98142 29.1994 3.91294 28.8649 3.92037C23.9235 3.93629 19.1068 3.93629 14.5497 3.91931H14.5411C14.228 3.91931 14.1327 3.98513 14.0102 4.28188C11.924 9.3245 9.81806 14.3644 7.78112 19.2388C6.40837 22.5237 5.03435 25.8083 3.65908 29.0926C2.62029 31.5748 1.58166 34.0573 0.54321 36.5399C0.389077 36.9084 0.240825 37.2794 0.0882946 37.66C0.058863 37.7328 0.0299698 37.806 0 37.8798L0.968693 37.8804C4.83437 37.8825 8.8317 37.8851 12.7627 37.8671C12.8547 37.8293 12.9324 37.7638 12.9848 37.6797C13.688 35.7787 14.2949 34.0725 14.8414 32.4635C15.0201 31.9374 15.3177 31.7224 15.8673 31.7224H15.8785C19.6538 31.7426 23.3616 31.7426 26.8981 31.7214H26.9115C27.4879 31.7214 27.7967 31.9448 27.976 32.4906C28.2398 33.2937 28.5198 34.1081 28.79 34.8954C29.0876 35.7596 29.3948 36.6535 29.6827 37.5385C29.7801 37.8389 29.8636 37.8952 30.1922 37.8942C33.4708 37.8804 36.8045 37.8814 40.0274 37.883L43.0437 37.8835C42.9961 37.754 42.9549 37.6447 42.911 37.5364C42.6418 36.8749 42.3719 36.2136 42.1013 35.5525ZM17.8507 24.0929L21.2535 14.5672L21.7758 14.6129L25.0571 24.0929H17.8507Z" fill="white"/>
<path d="M72.508 21.952C72.0622 22.9426 71.6165 23.9332 71.1711 24.9238C69.391 28.8909 67.6137 32.8592 65.839 36.8288C65.8081 36.9371 65.7396 37.0312 65.6456 37.0943C65.5516 37.1574 65.4381 37.1856 65.3252 37.1738C64.1055 37.1605 62.8853 37.1584 61.6656 37.1754C61.5525 37.1877 61.4388 37.1594 61.345 37.0956C61.2512 37.0318 61.1836 36.9367 61.1545 36.8277C59.1539 32.1206 57.1489 27.4153 55.1395 22.7117C55.0319 22.4601 54.9179 22.2111 54.8066 21.9605C54.7659 21.9632 54.7247 21.9658 54.684 21.9685V22.4696C54.684 27.414 54.6776 32.3584 54.6947 37.3033C54.6963 37.7647 54.585 37.8974 54.1071 37.8942C50.988 37.8708 47.8684 37.882 44.7493 37.882H44.2451V8.6307H44.753C49.0458 8.6307 52.1092 8.62221 56.402 8.60999C56.5503 8.59003 56.7009 8.6236 56.8263 8.70458C56.9518 8.78555 57.0437 8.90855 57.0854 9.05115C58.7739 12.8728 63.5564 20.7778 63.6688 20.997C63.8127 20.6732 68.5192 12.6716 70.1836 8.92214C70.2231 8.84833 70.2791 8.78452 70.3475 8.73564C70.4158 8.68675 70.4945 8.65412 70.5775 8.64025C75.0865 8.62699 78.4085 8.63335 82.9174 8.63655C82.9719 8.64552 83.0251 8.66103 83.0758 8.68273V37.882H82.5722C79.4376 37.882 76.303 37.874 73.1684 37.8915C72.7408 37.8942 72.6263 37.7763 72.6273 37.3538C72.6418 32.4089 72.6364 27.4644 72.6364 22.52V21.9791C72.5936 21.9701 72.5508 21.961 72.508 21.952Z" fill="white"/>
<path d="M155.459 17.1933C154.661 14.1308 152.561 12.0949 149.848 10.6255C147.174 9.17681 144.272 8.56738 141.245 8.59233C135.004 8.6433 128.763 8.50739 122.523 8.58384C122.431 8.58491 122.34 8.59872 122.204 8.61038V37.937H134.09V31.2206L134.032 23.4861C134.027 23.4892 134.022 23.4914 134.016 23.4946V17.2724C135.228 16.1677 136.675 15.2721 137.391 14.1823C138.186 12.9714 138.414 11.7424 138.744 11.7228C139.38 11.6856 139.565 14.1722 139.565 14.1722C139.565 14.1722 140.365 13.2097 140.966 13.0266C141.368 12.904 141.752 13.1115 141.339 13.756C141.164 14.0069 141.018 14.2769 140.904 14.5608C140.815 14.8836 140.773 15.2173 140.78 15.5519C142.622 16.147 142.829 16.8774 142.829 16.8774C142.868 17.1628 143.004 17.4264 143.215 17.6243C143.426 17.8222 143.699 17.9425 143.988 17.9651C144.795 18.1026 145.586 18.3229 146.348 18.6223C147.058 18.7635 146.691 19.7541 146.434 19.7106C146.471 22.4636 144.049 22.6696 142.66 22.4153C142.66 22.4153 135.272 20.9151 135.892 29.576C139.086 29.7119 142.284 29.9413 145.45 29.265C148.556 28.6014 151.348 27.3385 153.474 24.9172C155.433 22.6861 156.217 20.1029 155.459 17.1933Z" fill="white"/>
<path d="M119.412 37.9339V8.62741C119.269 8.62104 112.457 8.61945 107.331 8.61043C107.212 8.59318 107.091 8.62016 106.991 8.6862C106.891 8.75223 106.818 8.85266 106.788 8.96822C104.55 12.3917 95.8874 26.6341 95.7676 26.7243V8.63378H85.9072V37.9344C86.026 37.9408 86.1454 37.9535 86.2653 37.9535C91.3533 37.9546 93.0627 37.9265 98.1508 37.9371C98.2642 37.9499 98.3784 37.9215 98.4722 37.857C98.566 37.7926 98.6331 37.6965 98.6608 37.5867C100.85 34.1489 109.054 20.9072 109.519 20.01V37.9339L119.412 37.9339Z" fill="white"/>
<path d="M179.919 8.5769C179.8 8.55958 179.678 8.58653 179.578 8.65258C179.478 8.71862 179.406 8.8191 179.376 8.9347C177.137 12.3587 168.474 26.6011 168.355 26.6908V8.60026H158.495V37.9009C158.613 37.9073 158.733 37.92 158.852 37.92C161.98 37.9205 163.831 37.9105 165.974 37.9051L171.708 37.9041C173.087 37.6763 174.757 36.9443 174.977 34.7476C174.739 32.3046 176.161 31.003 176.54 30.6775C176.883 30.3891 177.21 30.082 177.52 29.7576C177.809 29.5962 178.335 28.6374 178.351 28.2053C178.366 27.7727 177.777 27.3077 177.777 27.3077C177.483 27.048 177.168 26.8133 176.835 26.6059C176.146 26.1392 176.224 25.0616 176.241 24.4527C176.258 23.8433 176.499 23.7865 177.01 23.7658C177.521 23.7456 177.863 23.5131 178.317 23.2285C178.772 22.944 179.038 22.5533 179.819 22.5692C180.285 22.5793 180.739 22.4284 181.104 22.1424L181.156 22.126C181.156 22.126 181.552 19.805 181.827 19.7987C182.101 19.7923 182.888 22.3701 183.417 23.9839C183.782 25.0945 184.092 25.955 183.935 27.83C183.937 27.829 183.944 27.8252 183.944 27.8252C183.944 27.8252 183.759 30.1822 184.178 31.4303C184.451 32.0863 184.827 32.6949 185.293 33.2331C186.662 34.4936 187.738 36.0351 188.445 37.7501C188.466 37.8 188.484 37.8505 188.504 37.9009L189.887 37.9004H192V8.59442C191.856 8.58805 185.044 8.58646 179.919 8.5769Z" fill="white"/>
<path d="M171.328 37.957L169.835 37.9666C170.332 38.0154 170.832 38.0122 171.328 37.957Z" fill="white"/>
</g>
<defs>
<clipPath id="clip0_246_737">
<rect width="192" height="38" fill="white"/>
</clipPath>
</defs>
</svg>
