<svg width="100%" height="100%" style="overflow:visible;" preserveAspectRatio="none" viewBox="0 0 151 27" fill="none" xmlns="http://www.w3.org/2000/svg">
<path fill-rule="evenodd" clip-rule="evenodd" d="M32.4787 22.8815C32.7722 23.6082 33.0663 24.3345 33.3609 25.0604C33.5737 25.5841 33.786 26.108 33.9977 26.632C34.0322 26.7178 34.0646 26.8044 34.1021 26.9071L31.7299 26.9066C29.1952 26.9054 26.5734 26.9045 23.9949 26.9155C23.7365 26.9163 23.6708 26.8717 23.5942 26.6337C23.3678 25.9326 23.1262 25.2244 22.8921 24.5398L22.8742 24.4871L22.8741 24.4869L22.8739 24.4863C22.6671 23.8793 22.4535 23.2528 22.2519 22.6346C22.111 22.2023 21.8681 22.0253 21.4148 22.0253H21.4043C18.6229 22.0421 15.7069 22.0421 12.7378 22.0261H12.729C12.2967 22.0261 12.0627 22.1964 11.9221 22.6132C11.4924 23.8879 11.0151 25.2395 10.462 26.7456C10.4208 26.8122 10.3597 26.8641 10.2873 26.894C7.263 26.908 4.18874 26.9063 1.21033 26.9046L1.01184 26.9045L0.25 26.9041C0.262563 26.8729 0.274885 26.8419 0.287159 26.811L0.287251 26.8108L0.31944 26.73L0.341464 26.6746L0.341481 26.6746C0.453721 26.3924 0.563429 26.1166 0.677212 25.8426C1.49391 23.8758 2.31075 21.9092 3.12771 19.9427C4.20931 17.3408 5.28991 14.7387 6.36953 12.1363C7.97149 8.27482 9.62775 4.28209 11.2684 0.287232C11.3648 0.0521463 11.4397 0 11.686 0H11.6927C15.2767 0.0134504 19.0649 0.0134504 22.9511 0.00083486C23.2141 -0.00504369 23.2916 0.0492067 23.3833 0.277991C26.1306 7.12502 28.9338 14.0831 31.6449 20.8115L32.4787 22.8815ZM16.965 8.43548L14.2889 15.9819H19.9563L17.3758 8.47165L16.965 8.43548ZM56.2225 16.6401C56.5729 15.8553 56.9233 15.0706 57.274 14.2858L57.375 14.3073V14.7358C57.375 15.5696 57.3752 16.4034 57.3754 17.2373C57.3761 20.3205 57.3768 23.4038 57.3678 26.4874C57.367 26.8221 57.4571 26.9155 57.7933 26.9134C59.6713 26.9028 61.5492 26.904 63.4272 26.9051C64.0145 26.9055 64.6018 26.9058 65.1891 26.9058H65.5851V3.77366C65.5452 3.75647 65.5034 3.74419 65.4605 3.73707L63.7331 3.73566H63.7329C61.0043 3.73329 58.7023 3.73128 55.7557 3.74001C55.6904 3.751 55.6285 3.77685 55.5748 3.81558C55.5211 3.8543 55.477 3.90486 55.446 3.96333C54.4337 6.26042 51.9906 10.5721 50.8827 12.5274C50.558 13.1005 50.3479 13.4711 50.3223 13.5293C50.3092 13.5035 50.2151 13.3435 50.0601 13.0799C49.1709 11.5677 46.2756 6.6437 45.1447 4.06553C45.112 3.95256 45.0397 3.85512 44.941 3.79097C44.8423 3.72682 44.7239 3.70023 44.6072 3.71604C41.2312 3.72572 38.8219 3.73244 35.4458 3.73244H35.0464V26.9058H35.4429C36.0421 26.9058 36.6413 26.9053 37.2405 26.9048H37.2406H37.2406H37.2407H37.2407H37.2413C39.095 26.9031 40.9488 26.9015 42.8024 26.9155C43.1783 26.918 43.2658 26.8129 43.2646 26.4474C43.254 23.3703 43.2548 20.2934 43.2557 17.2166V17.2136C43.2559 16.3743 43.2561 15.5351 43.2561 14.6959V14.2989L43.3525 14.2926C43.3794 14.3536 43.4066 14.4145 43.4337 14.4754L43.4337 14.4755L43.4338 14.4756L43.4338 14.4756L43.4338 14.4757C43.4948 14.6128 43.5558 14.7497 43.6143 14.8877C45.1947 18.6139 46.7715 22.3416 48.3449 26.0706C48.3678 26.157 48.4209 26.2323 48.4947 26.2828C48.5685 26.3334 48.6579 26.3558 48.7468 26.346C49.7061 26.3326 50.6657 26.3343 51.625 26.3448C51.7138 26.3541 51.803 26.3318 51.877 26.2818C51.9509 26.2318 52.0048 26.1573 52.0291 26.0714C53.4248 22.9267 54.8226 19.7829 56.2225 16.6401ZM122.512 10.5158C121.884 8.08962 120.233 6.4768 118.1 5.3127C115.996 4.16501 113.714 3.68221 111.333 3.70197C109.036 3.72087 106.738 3.70733 104.441 3.6938C101.83 3.67841 99.2196 3.66303 96.6091 3.69525C96.562 3.6958 96.5151 3.70067 96.4585 3.70655C96.4284 3.70967 96.3957 3.71307 96.3586 3.71627V26.9494H105.707V21.6285L105.661 15.501L105.658 15.5028L105.655 15.5043L105.655 15.5044C105.653 15.5054 105.651 15.5065 105.648 15.5078V10.5785C105.97 10.2833 106.313 10.0069 106.647 9.73714C107.304 9.20715 107.929 8.70258 108.302 8.1304C108.603 7.66879 108.801 7.20387 108.954 6.84397L108.954 6.84392C109.119 6.45595 109.232 6.19006 109.367 6.18198C109.867 6.15254 110.012 8.12242 110.012 8.12242C110.012 8.12242 110.641 7.35995 111.114 7.21485C111.43 7.11771 111.733 7.28215 111.408 7.79271C111.27 7.99146 111.155 8.20538 111.065 8.43026C110.996 8.68598 110.963 8.95039 110.968 9.21544C112.416 9.68688 112.579 10.2656 112.579 10.2656C112.61 10.4916 112.717 10.7005 112.883 10.8572C113.048 11.014 113.263 11.1093 113.491 11.1273C114.126 11.2362 114.748 11.4107 115.346 11.6479C115.905 11.7598 115.616 12.5445 115.414 12.5101C115.443 14.691 113.539 14.8542 112.446 14.6528C112.446 14.6528 106.636 13.4643 107.124 20.3256C107.358 20.3357 107.593 20.3464 107.828 20.3571L107.828 20.3571L107.828 20.3571C110.106 20.461 112.384 20.5649 114.641 20.0792C117.083 19.5535 119.279 18.553 120.951 16.6348C122.492 14.8673 123.108 12.8208 122.512 10.5158ZM94.1628 3.7298V26.9469L86.382 26.9469V12.7473C86.0162 13.4581 79.5646 23.9484 77.8427 26.6719C77.8208 26.7588 77.7681 26.835 77.6943 26.886C77.6206 26.9371 77.5307 26.9596 77.4415 26.9494C75.2301 26.9448 73.8302 26.9495 72.3448 26.9545H72.3444H72.3439H72.3432H72.3427C71.141 26.9586 69.8831 26.9628 68.0941 26.9625C68.0311 26.9625 67.9682 26.9579 67.9056 26.9534L67.8664 26.9507C67.8554 26.9499 67.8443 26.9492 67.8332 26.9485C67.8263 26.9481 67.8194 26.9477 67.8125 26.9473V3.73484H75.5672V18.0665C75.6059 18.0372 76.7727 16.1252 78.2577 13.6918L78.2583 13.691L78.2583 13.6908C80.3972 10.1861 83.1957 5.6004 84.2345 3.99979C84.2582 3.90825 84.315 3.82868 84.3938 3.77637C84.4727 3.72406 84.5681 3.70268 84.6617 3.71635C86.4613 3.71954 88.5252 3.72156 90.2687 3.72326H90.269L90.2694 3.72326C92.4312 3.72537 94.1004 3.72701 94.1628 3.7298ZM141.749 3.68967C141.655 3.67595 141.56 3.6973 141.481 3.74963C141.402 3.80195 141.345 3.88155 141.322 3.97313C140.281 5.57576 137.478 10.17 135.338 13.6761C133.856 16.1044 132.693 18.0107 132.654 18.0398V3.70818H124.9V26.9207C124.931 26.9223 124.962 26.9246 124.993 26.9268C125.055 26.9313 125.118 26.9358 125.181 26.9358C126.953 26.9361 128.204 26.932 129.396 26.9282H129.396C129.858 26.9267 130.311 26.9252 130.782 26.924L135.291 26.9232C136.376 26.7428 137.689 26.1628 137.862 24.4226C137.675 22.4872 138.794 21.456 139.091 21.1982C139.361 20.9697 139.619 20.7264 139.862 20.4694C140.09 20.3415 140.503 19.582 140.516 19.2397C140.528 18.8969 140.064 18.5285 140.064 18.5285C139.833 18.3228 139.586 18.1368 139.324 17.9725C138.813 17.624 138.838 16.8451 138.854 16.3529L138.856 16.2668C138.869 15.784 139.059 15.739 139.461 15.7226C139.841 15.7075 140.101 15.5425 140.43 15.3345L140.489 15.297C140.574 15.2433 140.651 15.1848 140.727 15.127C140.97 14.9423 141.202 14.765 141.671 14.7746C142.037 14.7826 142.394 14.6631 142.681 14.4365L142.722 14.4235C142.722 14.4235 143.033 12.5848 143.249 12.5798C143.434 12.5754 143.915 14.0726 144.31 15.3057L144.31 15.306C144.377 15.5126 144.441 15.7119 144.5 15.8954L144.529 15.9846C144.803 16.8226 145.027 17.5075 144.908 18.9423C144.909 18.9415 144.915 18.9385 144.915 18.9385C144.915 18.9385 144.769 20.8058 145.098 21.7945C145.313 22.3142 145.609 22.7963 145.976 23.2227C147.052 24.2213 147.898 25.4425 148.454 26.8012C148.464 26.8247 148.473 26.8484 148.482 26.8721C148.488 26.8883 148.495 26.9045 148.501 26.9207L149.589 26.9202H151.25V3.70355C151.189 3.70082 149.582 3.69919 147.481 3.69707H147.481L147.48 3.69707C145.711 3.69528 143.591 3.69313 141.749 3.68967ZM134.992 26.9652L133.818 26.9728C134.209 27.0113 134.602 27.0087 134.992 26.9652Z" fill="white"/>
</svg>
