<svg width="100%" height="100%" style="overflow:visible;" preserveAspectRatio="none" viewBox="0 0 28.04 36" fill="none" xmlns="http://www.w3.org/2000/svg">
<path fill-rule="evenodd" clip-rule="evenodd" d="M14.2989 0.197021C13.3042 0.197021 12.3601 0.402722 11.4643 0.780772L11.4643 0.780708L11.4528 0.78571C10.5557 1.17616 9.75067 1.7261 9.06151 2.45812C8.37217 3.17994 7.84226 4.01051 7.47532 4.9424C7.10888 5.87304 6.92552 6.84168 6.92552 7.85092V8.90907H1.41895H0.293945V10.0341V35.048V36.173H1.41895H27.2084H28.3334V35.048V10.0341V8.90907H27.2084H21.6822V7.85092C21.6822 5.84147 20.9179 3.89206 19.5316 2.45309C18.8502 1.74073 18.0494 1.17931 17.1451 0.78571C16.233 0.388756 15.2741 0.197021 14.2989 0.197021ZM19.4322 11.1591V13.45H21.6822V11.1591H26.0834V33.923H2.54395V11.1591H6.92552V13.45H9.17552V11.1591H19.4322ZM19.4322 8.90907V7.85092C19.4322 6.40469 18.8806 5.01966 17.9101 4.01298L17.9068 4.00954C17.4292 3.50992 16.8747 3.12191 16.2472 2.84878C15.6266 2.5787 14.9743 2.44702 14.2989 2.44702C13.6256 2.44702 12.9799 2.58411 12.345 2.85129C11.7133 3.12705 11.1655 3.50503 10.6975 4.0028L10.691 4.00967L10.691 4.00965C10.203 4.52005 9.83013 5.10325 9.56887 5.76675C9.30655 6.43296 9.17552 7.12181 9.17552 7.85092V8.90907H19.4322Z" fill="white"/>
</svg>
