<svg width="100%" height="100%" style="overflow:visible;" preserveAspectRatio="none" viewBox="0 0 40.01 28.05" fill="none" xmlns="http://www.w3.org/2000/svg">
<path fill-rule="evenodd" clip-rule="evenodd" d="M0.246582 0.975586C0.246582 0.423301 0.694297 -0.0244141 1.24658 -0.0244141H39.2536C39.8059 -0.0244141 40.2536 0.423301 40.2536 0.975586C40.2536 1.52787 39.8059 1.97559 39.2536 1.97559H1.24658C0.694297 1.97559 0.246582 1.52787 0.246582 0.975586ZM0.246582 14C0.246582 13.4478 0.694297 13 1.24658 13H39.2536C39.8059 13 40.2536 13.4478 40.2536 14C40.2536 14.5523 39.8059 15 39.2536 15H1.24658C0.694297 15 0.246582 14.5523 0.246582 14ZM1.24658 26.0243C0.694297 26.0243 0.246582 26.472 0.246582 27.0243C0.246582 27.5765 0.694297 28.0243 1.24658 28.0243H39.2536C39.8059 28.0243 40.2536 27.5765 40.2536 27.0243C40.2536 26.472 39.8059 26.0243 39.2536 26.0243H1.24658Z" fill="white"/>
</svg>
