<svg width="100%" height="100%" style="overflow:visible;" preserveAspectRatio="none" viewBox="0 0 45 15" fill="none" xmlns="http://www.w3.org/2000/svg">
<path fill-rule="evenodd" clip-rule="evenodd" d="M7.55721 15.3426C7.53816 15.3427 7.51909 15.3428 7.5 15.3428C7.48091 15.3428 7.46184 15.3427 7.44279 15.3426H6.94727V15.3227C3.06322 15.0398 0 11.799 0 7.84277C0 3.88654 3.06322 0.64576 6.94727 0.362832V0.342773H7.5H37.0845V0.35409C37.222 0.346579 37.3606 0.342773 37.5 0.342773C41.6421 0.342773 45 3.70064 45 7.84277C45 11.9849 41.6421 15.3428 37.5 15.3428C37.3606 15.3428 37.222 15.339 37.0845 15.3315V15.3426H7.55721Z" fill="#392930"/>
</svg>
