<svg width="100%" height="100%" style="overflow:visible;" preserveAspectRatio="none" viewBox="0 0 36.01 36" fill="none" xmlns="http://www.w3.org/2000/svg">
<path fill-rule="evenodd" clip-rule="evenodd" d="M24.4535 13.6738C24.4535 14.0439 24.4135 14.404 24.3435 14.7741C24.2735 15.1442 24.1635 15.4843 24.0235 15.8344C23.8835 16.1845 23.7135 16.5046 23.5035 16.8047C23.2935 17.1047 23.0635 17.3948 22.8035 17.6549C22.5435 17.915 22.2535 18.145 21.9535 18.3551C21.6435 18.5652 21.3235 18.7352 20.9835 18.8752C20.6435 19.0153 20.2935 19.1253 19.9235 19.1953C19.5635 19.2654 19.1935 19.3054 18.8235 19.3054C18.4535 19.3054 18.0835 19.2654 17.7235 19.1953C17.3635 19.1253 17.0135 19.0153 16.6635 18.8752C16.3235 18.7352 15.9935 18.5652 15.6935 18.3551C15.3835 18.145 15.1035 17.915 14.8435 17.6549C14.5835 17.3948 14.3535 17.1047 14.1435 16.8047C13.9335 16.4946 13.7635 16.1745 13.6235 15.8344C13.4835 15.4943 13.3735 15.1442 13.3035 14.7741C13.2335 14.414 13.1935 14.0439 13.1935 13.6738C13.1935 13.3037 13.2335 12.9336 13.3035 12.5735C13.3735 12.2134 13.4835 11.8633 13.6235 11.5132C13.7635 11.1631 13.9335 10.843 14.1435 10.5429C14.3535 10.2328 14.5835 9.95276 14.8435 9.69269C15.1035 9.43262 15.3935 9.20255 15.6935 8.9925C16.0035 8.78244 16.3235 8.61239 16.6635 8.47235C17.0035 8.33231 17.3535 8.22228 17.7235 8.15226C18.0835 8.08224 18.4535 8.04223 18.8235 8.04223C19.1935 8.04223 19.5635 8.08224 19.9235 8.15226C20.2835 8.22228 20.6335 8.33231 20.9835 8.47235C21.3235 8.61239 21.6535 8.78244 21.9535 8.9925C22.2535 9.20255 22.5435 9.43262 22.8035 9.69269C23.0635 9.95276 23.2935 10.2428 23.5035 10.5429C23.7135 10.843 23.8835 11.1731 24.0235 11.5132C24.1635 11.8533 24.2735 12.2034 24.3435 12.5735C24.4135 12.9436 24.4535 13.3037 24.4535 13.6738ZM22.2035 13.6738C22.2035 14.1239 22.1135 14.554 21.9435 14.9642C21.7735 15.3743 21.5235 15.7444 21.2135 16.0545C20.8935 16.3745 20.5335 16.6146 20.1235 16.7847C19.7135 16.9547 19.2835 17.0447 18.8335 17.0447C18.3835 17.0447 17.9535 16.9547 17.5435 16.7847C17.1335 16.6146 16.7635 16.3645 16.4535 16.0545C16.1335 15.7344 15.8935 15.3743 15.7235 14.9642C15.5535 14.554 15.4635 14.1239 15.4635 13.6738C15.4635 13.2237 15.5535 12.7936 15.7235 12.3834C15.8935 11.9733 16.1435 11.6032 16.4535 11.2831C16.7735 10.963 17.1335 10.723 17.5435 10.5529C17.9535 10.3829 18.3835 10.2929 18.8335 10.2929C19.2835 10.2929 19.7135 10.3829 20.1235 10.5529C20.5335 10.723 20.9035 10.973 21.2135 11.2831C21.5335 11.6032 21.7735 11.9633 21.9435 12.3834C22.1135 12.7936 22.2035 13.2237 22.2035 13.6738ZM36.8235 17.995C36.8235 22.7263 35.0035 27.0275 32.0235 30.2384C31.1835 31.1486 30.2535 31.9589 29.2435 32.6791C28.2335 33.3993 27.1635 34.0094 26.0235 34.4996C24.8835 34.9997 23.7135 35.3698 22.5035 35.6199C21.2935 35.87 20.0635 36 18.8235 36C15.6235 36 12.6435 35.2098 9.87347 33.6193C8.49347 32.8291 7.25347 31.8789 6.12347 30.7585C5.00347 29.6382 4.04348 28.3979 3.24348 27.0275C2.45348 25.6571 1.84347 24.2067 1.43347 22.6763C1.02347 21.1459 0.813477 19.5854 0.813477 18.005C0.813477 8.06224 8.87348 0 18.8135 0C28.7535 0 36.8135 8.06224 36.8135 18.005L36.8235 17.995ZM18.8235 21.596C20.0235 21.596 21.2035 21.746 22.3635 22.0361C23.5235 22.3262 24.6335 22.7663 25.6835 23.3365C26.7335 23.9066 27.7035 24.5968 28.5835 25.4071C29.4635 26.2173 30.2335 27.1275 30.8835 28.1278C32.0735 26.7074 32.9935 25.127 33.6235 23.3865C34.2535 21.646 34.5735 19.8455 34.5735 17.995C34.5735 9.29258 27.5235 2.24062 18.8235 2.24062C10.1235 2.24062 3.07347 9.29258 3.07347 17.995C3.07347 21.8561 4.46347 25.387 6.76347 28.1278C7.41347 27.1275 8.18348 26.2173 9.06348 25.4071C9.94348 24.5968 10.9135 23.9066 11.9635 23.3365C13.0135 22.7663 14.1235 22.3362 15.2835 22.0361C16.4435 21.746 17.6235 21.596 18.8235 21.596ZM18.8235 33.7494C22.8335 33.7494 26.4935 32.249 29.2635 29.7883C28.7235 28.878 28.0835 28.0578 27.3235 27.3276C26.5735 26.5874 25.7335 25.9572 24.8235 25.4371C23.9035 24.9169 22.9435 24.5168 21.9235 24.2567C20.9035 23.9867 19.8735 23.8566 18.8135 23.8566C17.7635 23.8566 16.7235 23.9867 15.7035 24.2567C14.6835 24.5268 13.7135 24.9169 12.8035 25.4471C11.8835 25.9672 11.0535 26.5974 10.3035 27.3376C9.55347 28.0778 8.90347 28.898 8.36347 29.7983C9.80347 31.0786 11.4235 32.0589 13.2235 32.7391C15.0235 33.4193 16.8835 33.7594 18.8135 33.7594L18.8235 33.7494Z" fill="white"/>
</svg>
