<svg width="100%" height="100%" style="overflow:visible;" preserveAspectRatio="none" viewBox="0 0 34.52 31.49" fill="none" xmlns="http://www.w3.org/2000/svg">
<path d="M15.3809 4.08664L16.1909 4.90664L16.9909 4.08664C17.8709 3.18664 19.8809 1.59664 22.2809 0.926636C24.6009 0.276636 27.3009 0.476636 29.8709 3.09664C32.4409 5.72664 32.6509 8.51664 32.0009 10.9166C31.3409 13.3966 29.7809 15.4566 28.9009 16.3566L21.4109 24.0266L17.2109 28.3166L16.1709 29.3766L15.1309 28.3166L10.9309 24.0266L3.45086 16.3666C2.57086 15.4666 1.01086 13.4066 0.35086 10.9266C-0.28914 8.51664 -0.0891397 5.73664 2.48086 3.10664C5.05086 0.476636 7.74086 0.286636 10.0709 0.936636C12.4809 1.60664 14.4909 3.20664 15.3609 4.10664L15.3809 4.08664Z" stroke="white" stroke-width="2.25"/>
</svg>
